<svg width="364" height="362" viewBox="0 0 364 362" fill="none" xmlns="http://www.w3.org/2000/svg">
<g filter="url(#filter0_f_437_790)">
<path d="M107.839 221.847C102.215 212.143 98.5537 201.422 97.0633 190.297C95.5728 179.172 96.2826 167.86 99.152 157.007C102.021 146.154 106.994 135.974 113.787 127.046C120.579 118.118 129.058 110.619 138.739 104.975L181.561 178.872L107.839 221.847Z" fill="#C8CAFC"/>
</g>
<g filter="url(#filter1_f_437_790)">
<path d="M139.176 105.805C148.867 100.192 159.567 96.551 170.663 95.0882C181.76 93.6254 193.036 94.3699 203.848 97.2791C214.66 100.188 224.796 105.205 233.678 112.044C242.559 118.882 250.012 127.408 255.611 137.134L181.81 179.87L139.176 105.805Z" fill="#D7F7D6"/>
</g>
<g filter="url(#filter2_f_437_790)">
<path d="M255.443 137.071C261.042 146.798 264.675 157.536 266.135 168.672C267.594 179.809 266.852 191.126 263.949 201.977C261.047 212.828 256.041 223.001 249.219 231.914C242.396 240.828 233.89 248.308 224.187 253.927L181.549 179.859L255.443 137.071Z" fill="#FFF2AD"/>
</g>
<g filter="url(#filter3_f_437_790)">
<path d="M224.074 252.878C214.382 258.49 203.683 262.132 192.588 263.596C181.492 265.059 170.216 264.315 159.405 261.406C148.594 258.497 138.458 253.48 129.577 246.641C120.697 239.803 113.244 231.277 107.646 221.55L181.444 178.809L224.074 252.878Z" fill="#FFCFA2"/>
</g>
<mask id="path-5-inside-1_437_790" fill="white">
<path d="M354.983 179.5C354.983 274.769 277.308 352 181.491 352C85.6748 352 8 274.769 8 179.5C8 84.2309 85.6748 7 181.491 7C277.308 7 354.983 84.2309 354.983 179.5ZM20.446 179.5C20.446 267.935 92.5485 339.625 181.491 339.625C270.434 339.625 342.537 267.935 342.537 179.5C342.537 91.0653 270.434 19.3748 181.491 19.3748C92.5485 19.3748 20.446 91.0653 20.446 179.5Z"/>
</mask>
<path d="M354.983 179.5C354.983 274.769 277.308 352 181.491 352C85.6748 352 8 274.769 8 179.5C8 84.2309 85.6748 7 181.491 7C277.308 7 354.983 84.2309 354.983 179.5ZM20.446 179.5C20.446 267.935 92.5485 339.625 181.491 339.625C270.434 339.625 342.537 267.935 342.537 179.5C342.537 91.0653 270.434 19.3748 181.491 19.3748C92.5485 19.3748 20.446 91.0653 20.446 179.5Z" fill="url(#paint0_radial_437_790)" fill-opacity="0.3" stroke="#9071AF" stroke-width="1.4" mask="url(#path-5-inside-1_437_790)"/>
<text transform="translate(9.27295 167.004) rotate(-82.1845)" fill="#72499B" xml:space="preserve" style="white-space: pre" font-family="Cardo" font-size="6" letter-spacing="0.01em"><tspan x="2.17547" y="6.37939">January</tspan></text>
<text transform="translate(33.3579 91.7173) rotate(-57.7477)" fill="#72499B" xml:space="preserve" style="white-space: pre" font-family="Cardo" font-size="6" letter-spacing="0.01em"><tspan x="1.43083" y="6.37939">February</tspan></text>
<text transform="translate(98.0015 29.3911) rotate(-27.1637)" fill="#72499B" xml:space="preserve" style="white-space: pre" font-family="Cardo" font-size="6" letter-spacing="0.01em"><tspan x="0.0962534" y="6.37939">March</tspan></text>
<text transform="translate(196.927 9) rotate(7.7505)" fill="#72499B" xml:space="preserve" style="white-space: pre" font-family="Cardo" font-size="6" letter-spacing="0.01em"><tspan x="1.3952" y="6.37939">April</tspan></text>
<text transform="translate(268.049 31) rotate(30.4146)" fill="#72499B" xml:space="preserve" style="white-space: pre" font-family="Cardo" font-size="6" letter-spacing="0.01em"><tspan x="1.1462" y="6.37939">May</tspan></text>
<text transform="translate(333.171 98) rotate(63.7043)" fill="#72499B" xml:space="preserve" style="white-space: pre" font-family="Cardo" font-size="6" letter-spacing="0.01em"><tspan x="1.38267" y="6.37939">June</tspan></text>
<text transform="translate(341.999 207.674) rotate(-83.0362)" fill="#72499B" xml:space="preserve" style="white-space: pre" font-family="Cardo" font-size="6" letter-spacing="0.01em"><tspan x="0.777679" y="6.37939">July</tspan></text>
<text transform="translate(308 281.213) rotate(-55.5752)" fill="#72499B" xml:space="preserve" style="white-space: pre" font-family="Cardo" font-size="6" letter-spacing="0.01em"><tspan x="1.82569" y="6.37939">August</tspan></text>
<text transform="translate(234.571 333.704) rotate(-23.9163)" fill="#72499B" xml:space="preserve" style="white-space: pre" font-family="Cardo" font-size="6" letter-spacing="0.01em"><tspan x="0.814629" y="6.37939">September</tspan></text>
<text transform="translate(140.218 337.502) rotate(9.22756)" fill="#72499B" xml:space="preserve" style="white-space: pre" font-family="Cardo" font-size="6" letter-spacing="0.01em"><tspan x="1.21401" y="6.37939">October</tspan></text>
<text transform="translate(76.9644 305.385) rotate(34.9004)" fill="#72499B" xml:space="preserve" style="white-space: pre" font-family="Cardo" font-size="6" letter-spacing="0.01em"><tspan x="0.245653" y="6.37939">November</tspan></text>
<text transform="translate(26.1172 230.928) rotate(67.4836)" fill="#72499B" xml:space="preserve" style="white-space: pre" font-family="Cardo" font-size="6" letter-spacing="0.01em"><tspan x="0.752256" y="6.37939">December</tspan></text>
<rect x="0.432664" width="165.035" height="164.178" transform="matrix(0.707387 -0.706827 0.707387 0.706827 64.5548 181.126)" stroke="#9071AF" stroke-width="0.611638"/>
<g filter="url(#filter4_d_437_790)">
<rect x="65.165" y="64.6347" width="231.974" height="232.321" stroke="#9071AF" stroke-width="1.83491" shape-rendering="crispEdges"/>
</g>
<g filter="url(#filter5_d_437_790)">
<rect x="1.29796" width="230.81" height="230.81" transform="matrix(0.707369 -0.706844 0.707369 0.706844 16.7197 181.727)" stroke="#9071AF" stroke-width="1.83491" shape-rendering="crispEdges"/>
</g>
<path d="M330.632 267.378L31.3613 94.1655" stroke="#9071AF" stroke-width="0.566209"/>
<path d="M267.349 329.235L95.3921 29.792" stroke="#9071AF" stroke-width="0.566209"/>
<path d="M267 30L97 330" stroke="#9071AF" stroke-width="0.566209"/>
<path d="M332.985 96.0003L30.4688 263.119" stroke="#9071AF" stroke-width="0.566209"/>
<path d="M91.0221 147.493C91.0221 143.013 94.6565 139.382 99.1393 139.382C103.622 139.382 107.257 143.013 107.257 147.493C107.257 151.973 103.622 155.604 99.1393 155.604C94.6565 155.604 91.0221 151.973 91.0221 147.493Z" fill="white" stroke="#9071AF" stroke-width="0.611638"/>
<path d="M255.572 147.493C255.572 143.013 259.206 139.382 263.689 139.382C268.172 139.382 271.806 143.013 271.806 147.493C271.806 151.973 268.172 155.604 263.689 155.604C259.206 155.604 255.572 151.973 255.572 147.493Z" fill="white" stroke="#9071AF" stroke-width="0.611638"/>
<path d="M255.572 214.618C255.572 210.138 259.206 206.507 263.689 206.507C268.172 206.507 271.806 210.138 271.806 214.618C271.806 219.097 268.172 222.729 263.689 222.729C259.206 222.729 255.572 219.097 255.572 214.618Z" fill="white" stroke="#9071AF" stroke-width="0.611638"/>
<path d="M91.0221 214.618C91.0221 210.138 94.6565 206.507 99.1393 206.507C103.622 206.507 107.257 210.138 107.257 214.618C107.257 219.097 103.622 222.729 99.1393 222.729C94.6565 222.729 91.0221 219.097 91.0221 214.618Z" fill="white" stroke="#9071AF" stroke-width="0.611638"/>
<circle cx="10.411" cy="10.411" r="10.7169" transform="matrix(-0.707369 0.706844 -0.70737 -0.706844 136.981 121.538)" fill="white" stroke="#9071AF" stroke-width="0.611638"/>
<circle cx="10.411" cy="10.411" r="10.7169" transform="matrix(-0.70737 0.706844 0.707369 0.706844 240.035 224.83)" fill="white" stroke="#9071AF" stroke-width="0.611638"/>
<path d="M115.366 248.165C119.552 252.349 126.34 252.349 130.527 248.165C134.714 243.982 134.714 237.199 130.527 233.015C126.34 228.831 119.552 228.831 115.366 233.015C111.179 237.199 111.179 243.982 115.366 248.165Z" fill="white" stroke="#9071AF" stroke-width="0.611638"/>
<circle cx="10.411" cy="10.411" r="10.7169" transform="matrix(0.707369 0.706844 0.707369 -0.706844 226.587 121.921)" fill="white" stroke="#9071AF" stroke-width="0.611638"/>
<g filter="url(#filter6_d_437_790)">
<ellipse cx="10.411" cy="10.411" rx="10.411" ry="10.411" transform="matrix(-0.70737 -0.706844 0.70737 -0.706844 295.442 310.016)" fill="white"/>
<path d="M303.456 287.291C299.03 282.868 291.855 282.868 287.429 287.291C283.003 291.713 283.003 298.883 287.429 303.306C291.855 307.728 299.03 307.728 303.456 303.306C307.882 298.883 307.882 291.713 303.456 287.291Z" stroke="#9071AF" stroke-width="1.83491"/>
</g>
<g filter="url(#filter7_d_437_790)">
<ellipse cx="10.411" cy="10.411" rx="10.411" ry="10.411" transform="matrix(-0.707369 -0.706844 -0.707369 0.706844 82.249 66.5737)" fill="white"/>
<path d="M59.5067 74.5812C55.081 70.1588 55.081 62.9887 59.5067 58.5662C63.9324 54.1438 71.1078 54.1438 75.5335 58.5662C79.9592 62.9887 79.9592 70.1588 75.5335 74.5812C71.1078 79.0036 63.9324 79.0036 59.5067 74.5812Z" stroke="#9071AF" stroke-width="1.83491"/>
</g>
<g filter="url(#filter8_d_437_790)">
<ellipse cx="10.411" cy="10.411" rx="10.411" ry="10.411" transform="matrix(-0.707369 -0.706844 0.707369 -0.706844 295.852 82.0635)" fill="white"/>
<path d="M303.865 59.338C299.439 54.9156 292.264 54.9156 287.838 59.338C283.412 63.7604 283.412 70.9306 287.838 75.353C292.264 79.7754 299.439 79.7754 303.865 75.353C308.291 70.9306 308.291 63.7604 303.865 59.338Z" stroke="#9071AF" stroke-width="1.83491"/>
</g>
<g filter="url(#filter9_d_437_790)">
<ellipse cx="10.411" cy="10.411" rx="10.411" ry="10.411" transform="matrix(-0.70737 -0.706844 -0.70737 0.706844 83.0361 295.515)" fill="white"/>
<path d="M60.2938 303.523C55.8681 299.1 55.8681 291.93 60.2938 287.508C64.7195 283.085 71.895 283.085 76.3207 287.508C80.7464 291.93 80.7464 299.1 76.3207 303.523C71.895 307.945 64.7195 307.945 60.2938 303.523Z" stroke="#9071AF" stroke-width="1.83491"/>
</g>
<path d="M146.007 90.4695C141.525 90.4695 137.89 94.1007 137.89 98.5805C137.89 103.06 141.525 106.692 146.007 106.692C150.49 106.692 154.125 103.06 154.125 98.5805C154.125 94.1007 150.49 90.4695 146.007 90.4695Z" fill="white" stroke="#9071AF" stroke-width="0.611638"/>
<path d="M217.345 90.4695C212.863 90.4695 209.228 94.1007 209.228 98.5805C209.228 103.06 212.863 106.692 217.345 106.692C221.828 106.692 225.463 103.06 225.463 98.5805C225.463 94.1007 221.828 90.4695 217.345 90.4695Z" fill="white" stroke="#9071AF" stroke-width="0.611638"/>
<path d="M146.007 271.121C141.525 271.121 137.89 267.49 137.89 263.01C137.89 258.53 141.525 254.899 146.007 254.899C150.49 254.899 154.125 258.53 154.125 263.01C154.125 267.49 150.49 271.121 146.007 271.121Z" fill="white" stroke="#9071AF" stroke-width="0.611638"/>
<path d="M217.345 271.642C212.863 271.642 209.228 268.011 209.228 263.531C209.228 259.051 212.863 255.42 217.345 255.42C221.828 255.42 225.463 259.051 225.463 263.531C225.463 268.011 221.828 271.642 217.345 271.642Z" fill="white" stroke="#9071AF" stroke-width="0.611638"/>
<path d="M180.899 17.4067L180.899 344.705" stroke="#9071AF" stroke-width="0.611638"/>
<path d="M345.448 180.797L17.3864 180.797" stroke="#9071AF" stroke-width="0.611638"/>
<g filter="url(#filter10_d_437_790)">
<ellipse cx="180.899" cy="180.796" rx="14.5697" ry="14.5805" transform="rotate(-90 180.899 180.796)" fill="white"/>
<path d="M196.397 180.796C196.397 172.242 189.458 165.309 180.899 165.309C172.34 165.309 165.401 172.242 165.401 180.796C165.401 189.35 172.34 196.283 180.899 196.283C189.458 196.283 196.397 189.35 196.397 180.796Z" stroke="#9071AF" stroke-width="1.83491"/>
</g>
<path d="M308.779 181.245C308.779 175.329 303.979 170.533 298.058 170.533C292.138 170.533 287.338 175.329 287.338 181.245C287.338 187.162 292.138 191.958 298.058 191.958C303.979 191.958 308.779 187.162 308.779 181.245Z" fill="white" stroke="#9071AF" stroke-width="0.611638"/>
<path d="M67.7837 135.472C66.365 136.893 64.0647 136.893 62.646 135.472C61.2273 134.052 61.2273 131.748 62.646 130.327C64.0647 128.906 66.365 128.906 67.7837 130.327C69.2024 131.748 69.2024 134.052 67.7837 135.472Z" fill="#FFF9FD" stroke="url(#paint1_linear_437_790)" stroke-width="0.37513"/>
<path d="M299.552 135.472C298.133 136.893 295.833 136.893 294.414 135.472C292.995 134.052 292.995 131.748 294.414 130.327C295.833 128.906 298.133 128.906 299.552 130.327C300.97 131.748 300.97 134.052 299.552 135.472Z" fill="#FFF9FD" stroke="url(#paint2_linear_437_790)" stroke-width="0.37513"/>
<path d="M67.7837 230.77C66.365 232.191 64.0647 232.191 62.646 230.77C61.2273 229.349 61.2273 227.046 62.646 225.625C64.0647 224.204 66.365 224.204 67.7837 225.625C69.2024 227.046 69.2024 229.349 67.7837 230.77Z" fill="#FFF9FD" stroke="url(#paint3_linear_437_790)" stroke-width="0.37513"/>
<path d="M299.552 230.77C298.133 232.191 295.833 232.191 294.414 230.77C292.995 229.349 292.995 227.046 294.414 225.625C295.833 224.204 298.133 224.204 299.552 225.625C300.97 227.046 300.97 229.349 299.552 230.77Z" fill="#FFF9FD" stroke="url(#paint4_linear_437_790)" stroke-width="0.37513"/>
<path d="M226.953 66.6713C225.567 65.2187 225.615 62.9122 227.061 61.5194C228.507 60.1266 230.804 60.175 232.19 61.6276C233.577 63.0801 233.528 65.3867 232.082 66.7795C230.636 68.1722 228.34 68.1238 226.953 66.6713Z" fill="#FFF9FD" stroke="url(#paint5_linear_437_790)" stroke-width="0.37513"/>
<path d="M226.953 299.019C225.567 297.567 225.615 295.26 227.061 293.868C228.507 292.475 230.804 292.523 232.19 293.976C233.577 295.428 233.528 297.735 232.082 299.128C230.636 300.52 228.34 300.472 226.953 299.019Z" fill="#FFF9FD" stroke="url(#paint6_linear_437_790)" stroke-width="0.37513"/>
<path d="M130.175 66.6713C128.788 65.2187 128.837 62.9122 130.283 61.5194C131.729 60.1266 134.025 60.175 135.412 61.6276C136.798 63.0801 136.75 65.3867 135.304 66.7795C133.858 68.1722 131.561 68.1238 130.175 66.6713Z" fill="#FFF9FD" stroke="url(#paint7_linear_437_790)" stroke-width="0.37513"/>
<path d="M130.175 299.019C128.788 297.567 128.837 295.26 130.283 293.868C131.729 292.475 134.025 292.523 135.412 293.976C136.798 295.428 136.75 297.735 135.304 299.128C133.858 300.52 131.561 300.472 130.175 299.019Z" fill="#FFF9FD" stroke="url(#paint8_linear_437_790)" stroke-width="0.37513"/>
<path d="M332.212 181.245C332.212 175.329 327.412 170.533 321.492 170.533C315.571 170.533 310.771 175.329 310.771 181.245C310.771 187.162 315.571 191.958 321.492 191.958C327.412 191.958 332.212 187.162 332.212 181.245Z" fill="white" stroke="#9071AF" stroke-width="0.611638"/>
<g filter="url(#filter11_d_437_790)">
<ellipse cx="344.925" cy="181.245" rx="10.4069" ry="10.4147" transform="rotate(-90 344.925 181.245)" fill="white"/>
<path d="M356.257 181.245C356.257 174.99 351.183 169.921 344.925 169.921C338.667 169.921 333.593 174.99 333.593 181.245C333.593 187.5 338.667 192.57 344.925 192.57C351.183 192.57 356.257 187.5 356.257 181.245Z" stroke="#9071AF" stroke-width="1.83491"/>
</g>
<g filter="url(#filter12_d_437_790)">
<ellipse cx="10.4069" cy="10.4147" rx="10.4069" ry="10.4147" transform="matrix(4.37439e-08 -1 -1 -4.36789e-08 28.8447 191.652)" fill="white"/>
<path d="M7.09794 181.245C7.09794 174.99 12.1721 169.921 18.4301 169.921C24.688 169.921 29.7622 174.99 29.7622 181.245C29.7622 187.5 24.688 192.57 18.4301 192.57C12.1721 192.57 7.09794 187.5 7.09794 181.245Z" stroke="#9071AF" stroke-width="1.83491"/>
</g>
<path d="M54.5714 181.245C54.5714 175.329 59.3713 170.533 65.2919 170.533C71.2124 170.533 76.0124 175.329 76.0124 181.245C76.0124 187.162 71.2124 191.958 65.2919 191.958C59.3713 191.958 54.5714 187.162 54.5714 181.245Z" fill="white" stroke="#9071AF" stroke-width="0.611638"/>
<path d="M31.1402 181.245C31.1402 175.329 35.9402 170.533 41.8607 170.533C47.7813 170.533 52.5812 175.329 52.5812 181.245C52.5812 187.162 47.7813 191.958 41.8607 191.958C35.9402 191.958 31.1402 187.162 31.1402 181.245Z" fill="white" stroke="#9071AF" stroke-width="0.611638"/>
<path d="M180.748 53.5258C174.827 53.5258 170.027 58.3219 170.027 64.2386C170.027 70.1553 174.827 74.9513 180.748 74.9513C186.668 74.9513 191.468 70.1553 191.468 64.2386C191.468 58.3219 186.668 53.5258 180.748 53.5258Z" fill="white" stroke="#9071AF" stroke-width="0.611638"/>
<path d="M180.748 30.1103C174.827 30.1103 170.027 34.9064 170.027 40.8231C170.027 46.7398 174.827 51.5358 180.748 51.5358C186.668 51.5358 191.468 46.7398 191.468 40.8231C191.468 34.9063 186.668 30.1103 180.748 30.1103Z" fill="white" stroke="#9071AF" stroke-width="0.611638"/>
<g filter="url(#filter13_d_437_790)">
<ellipse cx="180.748" cy="17.407" rx="10.4147" ry="10.4069" transform="rotate(180 180.748 17.407)" fill="white"/>
<path d="M180.748 6.08265C174.49 6.08265 169.416 11.1521 169.416 17.407C169.416 23.662 174.49 28.7314 180.748 28.7314C187.006 28.7314 192.08 23.662 192.08 17.407C192.08 11.1521 187.006 6.08265 180.748 6.08265Z" stroke="#9071AF" stroke-width="1.83491"/>
</g>
<path d="M180.748 305.986C174.827 305.986 170.027 301.19 170.027 295.273C170.027 289.356 174.827 284.56 180.748 284.56C186.668 284.56 191.468 289.356 191.468 295.273C191.468 301.19 186.668 305.986 180.748 305.986Z" fill="white" stroke="#9071AF" stroke-width="0.611638"/>
<path d="M180.748 329.4C174.827 329.4 170.027 324.604 170.027 318.688C170.027 312.771 174.827 307.975 180.748 307.975C186.668 307.975 191.468 312.771 191.468 318.688C191.468 324.604 186.668 329.4 180.748 329.4Z" fill="white" stroke="#9071AF" stroke-width="0.611638"/>
<g filter="url(#filter14_d_437_790)">
<ellipse cx="10.4147" cy="10.4069" rx="10.4147" ry="10.4069" transform="matrix(-1 0 0 1 191.163 331.696)" fill="white"/>
<path d="M180.748 353.428C174.49 353.428 169.416 348.358 169.416 342.103C169.416 335.848 174.49 330.779 180.748 330.779C187.006 330.779 192.08 335.848 192.08 342.103C192.08 348.358 187.006 353.428 180.748 353.428Z" stroke="#9071AF" stroke-width="1.83491"/>
</g>
<path d="M193.132 201.395C197.471 201.395 200.989 197.881 200.989 193.545C200.989 189.208 197.471 185.694 193.132 185.694C188.793 185.694 185.275 189.208 185.275 193.545C185.275 197.881 188.793 201.395 193.132 201.395Z" fill="white" stroke="#9071AF" stroke-width="0.611638"/>
<defs>
<filter id="filter0_f_437_790" x="50.3576" y="59.028" width="177.15" height="208.767" filterUnits="userSpaceOnUse" color-interpolation-filters="sRGB">
<feFlood flood-opacity="0" result="BackgroundImageFix"/>
<feBlend mode="normal" in="SourceGraphic" in2="BackgroundImageFix" result="shape"/>
<feGaussianBlur stdDeviation="22.9736" result="effect1_foregroundBlur_437_790"/>
</filter>
<filter id="filter1_f_437_790" x="93.2286" y="48.4122" width="208.329" height="177.405" filterUnits="userSpaceOnUse" color-interpolation-filters="sRGB">
<feFlood flood-opacity="0" result="BackgroundImageFix"/>
<feBlend mode="normal" in="SourceGraphic" in2="BackgroundImageFix" result="shape"/>
<feGaussianBlur stdDeviation="22.9736" result="effect1_foregroundBlur_437_790"/>
</filter>
<filter id="filter2_f_437_790" x="135.572" y="91.0939" width="177.267" height="208.81" filterUnits="userSpaceOnUse" color-interpolation-filters="sRGB">
<feFlood flood-opacity="0" result="BackgroundImageFix"/>
<feBlend mode="normal" in="SourceGraphic" in2="BackgroundImageFix" result="shape"/>
<feGaussianBlur stdDeviation="22.9885" result="effect1_foregroundBlur_437_790"/>
</filter>
<filter id="filter3_f_437_790" x="61.6989" y="132.862" width="208.322" height="177.41" filterUnits="userSpaceOnUse" color-interpolation-filters="sRGB">
<feFlood flood-opacity="0" result="BackgroundImageFix"/>
<feBlend mode="normal" in="SourceGraphic" in2="BackgroundImageFix" result="shape"/>
<feGaussianBlur stdDeviation="22.9736" result="effect1_foregroundBlur_437_790"/>
</filter>
<filter id="filter4_d_437_790" x="58.1312" y="58.8242" width="246.042" height="246.389" filterUnits="userSpaceOnUse" color-interpolation-filters="sRGB">
<feFlood flood-opacity="0" result="BackgroundImageFix"/>
<feColorMatrix in="SourceAlpha" type="matrix" values="0 0 0 0 0 0 0 0 0 0 0 0 0 0 0 0 0 0 127 0" result="hardAlpha"/>
<feOffset dy="1.22328"/>
<feGaussianBlur stdDeviation="3.05819"/>
<feComposite in2="hardAlpha" operator="out"/>
<feColorMatrix type="matrix" values="0 0 0 0 0.745098 0 0 0 0 0.580392 0 0 0 0 0.909804 0 0 0 1 0"/>
<feBlend mode="normal" in2="BackgroundImageFix" result="effect1_dropShadow_437_790"/>
<feBlend mode="normal" in="SourceGraphic" in2="effect1_dropShadow_437_790" result="shape"/>
</filter>
<filter id="filter5_d_437_790" x="10.2235" y="11.4726" width="341.364" height="341.119" filterUnits="userSpaceOnUse" color-interpolation-filters="sRGB">
<feFlood flood-opacity="0" result="BackgroundImageFix"/>
<feColorMatrix in="SourceAlpha" type="matrix" values="0 0 0 0 0 0 0 0 0 0 0 0 0 0 0 0 0 0 127 0" result="hardAlpha"/>
<feOffset dy="1.22328"/>
<feGaussianBlur stdDeviation="3.05819"/>
<feComposite in2="hardAlpha" operator="out"/>
<feColorMatrix type="matrix" values="0 0 0 0 0.745098 0 0 0 0 0.580392 0 0 0 0 0.909804 0 0 0 1 0"/>
<feBlend mode="normal" in2="BackgroundImageFix" result="effect1_dropShadow_437_790"/>
<feBlend mode="normal" in="SourceGraphic" in2="effect1_dropShadow_437_790" result="shape"/>
</filter>
<filter id="filter6_d_437_790" x="277.076" y="278.164" width="36.7337" height="36.7157" filterUnits="userSpaceOnUse" color-interpolation-filters="sRGB">
<feFlood flood-opacity="0" result="BackgroundImageFix"/>
<feColorMatrix in="SourceAlpha" type="matrix" values="0 0 0 0 0 0 0 0 0 0 0 0 0 0 0 0 0 0 127 0" result="hardAlpha"/>
<feOffset dy="1.22328"/>
<feGaussianBlur stdDeviation="3.05819"/>
<feComposite in2="hardAlpha" operator="out"/>
<feColorMatrix type="matrix" values="0 0 0 0 0.745098 0 0 0 0 0.580392 0 0 0 0 0.909804 0 0 0 1 0"/>
<feBlend mode="normal" in2="BackgroundImageFix" result="effect1_dropShadow_437_790"/>
<feBlend mode="normal" in="SourceGraphic" in2="effect1_dropShadow_437_790" result="shape"/>
</filter>
<filter id="filter7_d_437_790" x="49.1532" y="49.4394" width="36.7337" height="36.7152" filterUnits="userSpaceOnUse" color-interpolation-filters="sRGB">
<feFlood flood-opacity="0" result="BackgroundImageFix"/>
<feColorMatrix in="SourceAlpha" type="matrix" values="0 0 0 0 0 0 0 0 0 0 0 0 0 0 0 0 0 0 127 0" result="hardAlpha"/>
<feOffset dy="1.22328"/>
<feGaussianBlur stdDeviation="3.05819"/>
<feComposite in2="hardAlpha" operator="out"/>
<feColorMatrix type="matrix" values="0 0 0 0 0.745098 0 0 0 0 0.580392 0 0 0 0 0.909804 0 0 0 1 0"/>
<feBlend mode="normal" in2="BackgroundImageFix" result="effect1_dropShadow_437_790"/>
<feBlend mode="normal" in="SourceGraphic" in2="effect1_dropShadow_437_790" result="shape"/>
</filter>
<filter id="filter8_d_437_790" x="277.485" y="50.2109" width="36.7337" height="36.7157" filterUnits="userSpaceOnUse" color-interpolation-filters="sRGB">
<feFlood flood-opacity="0" result="BackgroundImageFix"/>
<feColorMatrix in="SourceAlpha" type="matrix" values="0 0 0 0 0 0 0 0 0 0 0 0 0 0 0 0 0 0 127 0" result="hardAlpha"/>
<feOffset dy="1.22328"/>
<feGaussianBlur stdDeviation="3.05819"/>
<feComposite in2="hardAlpha" operator="out"/>
<feColorMatrix type="matrix" values="0 0 0 0 0.745098 0 0 0 0 0.580392 0 0 0 0 0.909804 0 0 0 1 0"/>
<feBlend mode="normal" in2="BackgroundImageFix" result="effect1_dropShadow_437_790"/>
<feBlend mode="normal" in="SourceGraphic" in2="effect1_dropShadow_437_790" result="shape"/>
</filter>
<filter id="filter9_d_437_790" x="49.9403" y="278.381" width="36.7337" height="36.7152" filterUnits="userSpaceOnUse" color-interpolation-filters="sRGB">
<feFlood flood-opacity="0" result="BackgroundImageFix"/>
<feColorMatrix in="SourceAlpha" type="matrix" values="0 0 0 0 0 0 0 0 0 0 0 0 0 0 0 0 0 0 127 0" result="hardAlpha"/>
<feOffset dy="1.22328"/>
<feGaussianBlur stdDeviation="3.05819"/>
<feComposite in2="hardAlpha" operator="out"/>
<feColorMatrix type="matrix" values="0 0 0 0 0.745098 0 0 0 0 0.580392 0 0 0 0 0.909804 0 0 0 1 0"/>
<feBlend mode="normal" in2="BackgroundImageFix" result="effect1_dropShadow_437_790"/>
<feBlend mode="normal" in="SourceGraphic" in2="effect1_dropShadow_437_790" result="shape"/>
</filter>
<filter id="filter10_d_437_790" x="158.367" y="159.498" width="45.0638" height="45.0418" filterUnits="userSpaceOnUse" color-interpolation-filters="sRGB">
<feFlood flood-opacity="0" result="BackgroundImageFix"/>
<feColorMatrix in="SourceAlpha" type="matrix" values="0 0 0 0 0 0 0 0 0 0 0 0 0 0 0 0 0 0 127 0" result="hardAlpha"/>
<feOffset dy="1.22328"/>
<feGaussianBlur stdDeviation="3.05819"/>
<feComposite in2="hardAlpha" operator="out"/>
<feColorMatrix type="matrix" values="0 0 0 0 0.745098 0 0 0 0 0.580392 0 0 0 0 0.909804 0 0 0 1 0"/>
<feBlend mode="normal" in2="BackgroundImageFix" result="effect1_dropShadow_437_790"/>
<feBlend mode="normal" in="SourceGraphic" in2="effect1_dropShadow_437_790" result="shape"/>
</filter>
<filter id="filter11_d_437_790" x="326.559" y="164.11" width="36.7318" height="36.7166" filterUnits="userSpaceOnUse" color-interpolation-filters="sRGB">
<feFlood flood-opacity="0" result="BackgroundImageFix"/>
<feColorMatrix in="SourceAlpha" type="matrix" values="0 0 0 0 0 0 0 0 0 0 0 0 0 0 0 0 0 0 127 0" result="hardAlpha"/>
<feOffset dy="1.22328"/>
<feGaussianBlur stdDeviation="3.05819"/>
<feComposite in2="hardAlpha" operator="out"/>
<feColorMatrix type="matrix" values="0 0 0 0 0.745098 0 0 0 0 0.580392 0 0 0 0 0.909804 0 0 0 1 0"/>
<feBlend mode="normal" in2="BackgroundImageFix" result="effect1_dropShadow_437_790"/>
<feBlend mode="normal" in="SourceGraphic" in2="effect1_dropShadow_437_790" result="shape"/>
</filter>
<filter id="filter12_d_437_790" x="0.0642853" y="164.11" width="36.7318" height="36.7166" filterUnits="userSpaceOnUse" color-interpolation-filters="sRGB">
<feFlood flood-opacity="0" result="BackgroundImageFix"/>
<feColorMatrix in="SourceAlpha" type="matrix" values="0 0 0 0 0 0 0 0 0 0 0 0 0 0 0 0 0 0 127 0" result="hardAlpha"/>
<feOffset dy="1.22328"/>
<feGaussianBlur stdDeviation="3.05819"/>
<feComposite in2="hardAlpha" operator="out"/>
<feColorMatrix type="matrix" values="0 0 0 0 0.745098 0 0 0 0 0.580392 0 0 0 0 0.909804 0 0 0 1 0"/>
<feBlend mode="normal" in2="BackgroundImageFix" result="effect1_dropShadow_437_790"/>
<feBlend mode="normal" in="SourceGraphic" in2="effect1_dropShadow_437_790" result="shape"/>
</filter>
<filter id="filter13_d_437_790" x="162.382" y="0.271936" width="36.7318" height="36.7166" filterUnits="userSpaceOnUse" color-interpolation-filters="sRGB">
<feFlood flood-opacity="0" result="BackgroundImageFix"/>
<feColorMatrix in="SourceAlpha" type="matrix" values="0 0 0 0 0 0 0 0 0 0 0 0 0 0 0 0 0 0 127 0" result="hardAlpha"/>
<feOffset dy="1.22328"/>
<feGaussianBlur stdDeviation="3.05819"/>
<feComposite in2="hardAlpha" operator="out"/>
<feColorMatrix type="matrix" values="0 0 0 0 0.745098 0 0 0 0 0.580392 0 0 0 0 0.909804 0 0 0 1 0"/>
<feBlend mode="normal" in2="BackgroundImageFix" result="effect1_dropShadow_437_790"/>
<feBlend mode="normal" in="SourceGraphic" in2="effect1_dropShadow_437_790" result="shape"/>
</filter>
<filter id="filter14_d_437_790" x="162.382" y="324.968" width="36.7318" height="36.7166" filterUnits="userSpaceOnUse" color-interpolation-filters="sRGB">
<feFlood flood-opacity="0" result="BackgroundImageFix"/>
<feColorMatrix in="SourceAlpha" type="matrix" values="0 0 0 0 0 0 0 0 0 0 0 0 0 0 0 0 0 0 127 0" result="hardAlpha"/>
<feOffset dy="1.22328"/>
<feGaussianBlur stdDeviation="3.05819"/>
<feComposite in2="hardAlpha" operator="out"/>
<feColorMatrix type="matrix" values="0 0 0 0 0.745098 0 0 0 0 0.580392 0 0 0 0 0.909804 0 0 0 1 0"/>
<feBlend mode="normal" in2="BackgroundImageFix" result="effect1_dropShadow_437_790"/>
<feBlend mode="normal" in="SourceGraphic" in2="effect1_dropShadow_437_790" result="shape"/>
</filter>
<radialGradient id="paint0_radial_437_790" cx="0" cy="0" r="1" gradientUnits="userSpaceOnUse" gradientTransform="translate(182.363 179.5) rotate(90.5597) scale(178.546 179.572)">
<stop stop-color="white"/>
<stop offset="0.820833" stop-color="white"/>
<stop offset="1" stop-color="#E1C3FF" stop-opacity="0.81"/>
</radialGradient>
<linearGradient id="paint1_linear_437_790" x1="63.2563" y1="131.885" x2="66.0294" y2="134.654" gradientUnits="userSpaceOnUse">
<stop stop-color="#9071AF"/>
</linearGradient>
<linearGradient id="paint2_linear_437_790" x1="295.024" y1="131.885" x2="297.798" y2="134.654" gradientUnits="userSpaceOnUse">
<stop stop-color="#9071AF"/>
</linearGradient>
<linearGradient id="paint3_linear_437_790" x1="63.2563" y1="227.183" x2="66.0294" y2="229.952" gradientUnits="userSpaceOnUse">
<stop stop-color="#9071AF"/>
</linearGradient>
<linearGradient id="paint4_linear_437_790" x1="295.024" y1="227.183" x2="297.798" y2="229.952" gradientUnits="userSpaceOnUse">
<stop stop-color="#9071AF"/>
</linearGradient>
<linearGradient id="paint5_linear_437_790" x1="230.624" y1="62.2069" x2="227.79" y2="64.9125" gradientUnits="userSpaceOnUse">
<stop stop-color="#9071AF"/>
</linearGradient>
<linearGradient id="paint6_linear_437_790" x1="230.624" y1="294.555" x2="227.79" y2="297.261" gradientUnits="userSpaceOnUse">
<stop stop-color="#9071AF"/>
</linearGradient>
<linearGradient id="paint7_linear_437_790" x1="133.846" y1="62.2069" x2="131.011" y2="64.9125" gradientUnits="userSpaceOnUse">
<stop stop-color="#9071AF"/>
</linearGradient>
<linearGradient id="paint8_linear_437_790" x1="133.846" y1="294.555" x2="131.011" y2="297.261" gradientUnits="userSpaceOnUse">
<stop stop-color="#9071AF"/>
</linearGradient>
</defs>
</svg>
