<svg width="382" height="380" viewBox="0 0 382 380" fill="none" xmlns="http://www.w3.org/2000/svg">
<path d="M67.7656 239.355V139.774L18.0358 189.32L67.7656 239.355Z" fill="#F9D6F0" fill-opacity="0.5"/>
<path d="M139.785 67.7734H239.734L190.005 18.2273L139.785 67.7734Z" fill="#F9D6F0" fill-opacity="0.5"/>
<path d="M312.741 139.774V239.354L362.471 189.808L312.741 139.774Z" fill="#F9D6F0" fill-opacity="0.5"/>
<path d="M240.227 312.088L140.277 312.088L190.007 361.634L240.227 312.088Z" fill="#F9D6F0" fill-opacity="0.5"/>
<path d="M240.977 67.7736L312.399 139.135L312.399 67.5296L240.977 67.7736Z" fill="#ECE0FF" fill-opacity="0.5"/>
<path d="M312.182 240.256L240.556 311.414L312.605 311.591L312.182 240.256Z" fill="#ECE0FF" fill-opacity="0.5"/>
<path d="M139.715 311.51L68.293 240.148L68.1152 311.931L139.715 311.51Z" fill="#ECE0FF" fill-opacity="0.5"/>
<path d="M68.5149 139.034L140.142 67.8755L68.0927 67.6984L68.5149 139.034Z" fill="#ECE0FF" fill-opacity="0.5"/>
<path d="M190.182 17.9336L190.182 361.8" stroke="#C0B8C9" stroke-width="0.610878"/>
<path d="M313.094 66.5894L67.2643 312.599" stroke="#C0B8C9" stroke-width="0.610878"/>
<path d="M363.576 189.594L17.8784 189.594" stroke="#C0B8C9" stroke-width="0.610878"/>
<path d="M313.094 312.052L67.2643 67.1358" stroke="#C0B8C9" stroke-width="0.610878"/>
<rect x="0.43276" width="173.682" height="172.78" transform="matrix(0.708422 -0.705789 0.708422 0.705789 67.5774 189.926)" stroke="#C0B8C9" stroke-width="0.610878"/>
<rect x="103.784" y="276.333" width="173.357" height="173.102" transform="rotate(-90 103.784 276.333)" stroke="#C0B8C9" stroke-width="0.610878"/>
<g filter="url(#filter0_d_273_3931)">
<rect x="68.178" y="67.5047" width="244.546" height="244.177" stroke="url(#paint0_angular_273_3931)" stroke-width="1.83263" shape-rendering="crispEdges"/>
</g>
<g filter="url(#filter1_d_273_3931)">
<rect x="1.29828" width="242.954" height="242.954" transform="matrix(0.708422 -0.705789 0.708422 0.705789 17.1578 190.524)" stroke="url(#paint1_angular_273_3931)" stroke-width="1.83263" shape-rendering="crispEdges"/>
</g>
<g filter="url(#filter2_d_273_3931)">
<ellipse cx="190.181" cy="189.594" rx="15.3072" ry="15.3643" transform="rotate(-90 190.181 189.594)" fill="white"/>
<path d="M206.461 189.594C206.461 180.631 199.169 173.371 190.181 173.371C181.192 173.371 173.9 180.631 173.9 189.594C173.9 198.557 181.192 205.818 190.181 205.818C199.169 205.818 206.461 198.557 206.461 189.594Z" stroke="#9071AF" stroke-width="1.83263"/>
</g>
<path d="M324.92 190.066C324.92 183.858 319.868 178.827 313.64 178.827C307.411 178.827 302.36 183.858 302.36 190.066C302.36 196.275 307.411 201.306 313.64 201.306C319.868 201.306 324.92 196.275 324.92 190.066Z" fill="white" stroke="#9071AF" stroke-width="0.610878"/>
<path d="M289.802 190.066C289.802 183.858 284.751 178.827 278.522 178.827C272.294 178.827 267.242 183.858 267.242 190.066C267.242 196.275 272.294 201.306 278.522 201.306C284.751 201.306 289.802 196.275 289.802 190.066Z" fill="white" stroke="#C0B8C9" stroke-width="0.610878"/>
<path d="M349.612 190.066C349.612 183.858 344.561 178.827 338.332 178.827C332.103 178.827 327.052 183.858 327.052 190.066C327.052 196.275 332.103 201.306 338.332 201.306C344.561 201.306 349.612 196.275 349.612 190.066Z" fill="white" stroke="#9071AF" stroke-width="0.610878"/>
<g filter="url(#filter3_d_273_3931)">
<ellipse cx="363.025" cy="190.066" rx="10.9337" ry="10.9745" transform="rotate(-90 363.025 190.066)" fill="white"/>
<path d="M374.916 190.066C374.916 183.519 369.589 178.216 363.025 178.216C356.461 178.216 351.134 183.519 351.134 190.066C351.134 196.614 356.461 201.917 363.025 201.917C369.589 201.917 374.916 196.614 374.916 190.066Z" stroke="#9071AF" stroke-width="1.83263"/>
</g>
<path d="M95.4925 154.606C95.4925 149.907 99.3155 146.1 104.029 146.1C108.742 146.1 112.565 149.907 112.565 154.606C112.565 159.305 108.742 163.112 104.029 163.112C99.3155 163.112 95.4925 159.305 95.4925 154.606Z" fill="white" stroke="#C0B8C9" stroke-width="0.610878"/>
<path d="M268.889 154.606C268.889 149.907 272.712 146.1 277.425 146.1C282.139 146.1 285.962 149.907 285.962 154.606C285.962 159.305 282.139 163.112 277.425 163.112C272.712 163.112 268.889 159.305 268.889 154.606Z" fill="white" stroke="#C0B8C9" stroke-width="0.610878"/>
<path d="M268.889 225.129C268.889 220.43 272.712 216.623 277.425 216.623C282.139 216.623 285.962 220.43 285.962 225.129C285.962 229.828 282.139 233.635 277.425 233.635C272.712 233.635 268.889 229.828 268.889 225.129Z" fill="white" stroke="#C0B8C9" stroke-width="0.610878"/>
<path d="M95.4925 225.129C95.4925 220.43 99.3155 216.623 104.029 216.623C108.742 216.623 112.565 220.43 112.565 225.129C112.565 229.828 108.742 233.635 104.029 233.635C99.3155 233.635 95.4925 229.828 95.4925 225.129Z" fill="white" stroke="#C0B8C9" stroke-width="0.610878"/>
<path d="M57.0814 190.066C57.0814 183.858 62.1327 178.827 68.3614 178.827C74.5901 178.827 79.6414 183.858 79.6414 190.066C79.6414 196.275 74.5901 201.306 68.3614 201.306C62.1327 201.306 57.0814 196.275 57.0814 190.066Z" fill="white" stroke="#9071AF" stroke-width="0.610878"/>
<path d="M91.1068 190.066C91.1068 183.858 96.1581 178.827 102.387 178.827C108.615 178.827 113.667 183.858 113.667 190.066C113.667 196.275 108.615 201.306 102.387 201.306C96.1581 201.306 91.1068 196.275 91.1068 190.066Z" fill="white" stroke="#C0B8C9" stroke-width="0.610878"/>
<path d="M190.024 89.7912C183.795 89.7912 178.744 94.8221 178.744 101.03C178.744 107.239 183.795 112.27 190.024 112.27C196.252 112.27 201.303 107.239 201.303 101.03C201.303 94.8221 196.252 89.7912 190.024 89.7912Z" fill="white" stroke="#C0B8C9" stroke-width="0.610878"/>
<path d="M190.024 288.303C183.795 288.303 178.744 283.272 178.744 277.064C178.744 270.856 183.795 265.825 190.024 265.825C196.252 265.825 201.303 270.856 201.303 277.064C201.303 283.272 196.252 288.303 190.024 288.303Z" fill="white" stroke="#C0B8C9" stroke-width="0.610878"/>
<path d="M120.409 119.39C116.004 123.779 116.004 130.895 120.409 135.284C124.815 139.673 131.957 139.673 136.362 135.284C140.768 130.895 140.768 123.779 136.362 119.39C131.957 115.001 124.815 115.001 120.409 119.39Z" fill="white" stroke="#C0B8C9" stroke-width="0.610878"/>
<path d="M260.476 259.266C256.07 263.655 248.928 263.655 244.522 259.266C240.117 254.878 240.117 247.762 244.522 243.373C248.928 238.984 256.07 238.984 260.476 243.373C264.881 247.762 264.881 254.878 260.476 259.266Z" fill="white" stroke="#C0B8C9" stroke-width="0.610878"/>
<circle cx="10.9542" cy="10.9542" r="11.2596" transform="matrix(0.708422 0.705789 -0.708422 0.705789 129.114 236.953)" fill="white" stroke="#C0B8C9" stroke-width="0.610878"/>
<path d="M261.824 119.793C266.229 124.182 266.229 131.298 261.824 135.687C257.419 140.076 250.276 140.076 245.871 135.687C241.466 131.298 241.466 124.182 245.871 119.793C250.276 115.404 257.419 115.404 261.824 119.793Z" fill="white" stroke="#C0B8C9" stroke-width="0.610878"/>
<path d="M32.3881 190.066C32.3881 183.858 37.4394 178.827 43.668 178.827C49.8967 178.827 54.948 183.858 54.948 190.066C54.948 196.275 49.8967 201.306 43.668 201.306C37.4394 201.306 32.3881 196.275 32.3881 190.066Z" fill="white" stroke="#9071AF" stroke-width="0.610878"/>
<g filter="url(#filter4_d_273_3931)">
<ellipse cx="10.9337" cy="10.9745" rx="10.9337" ry="10.9745" transform="matrix(4.38744e-08 -1 -1 -4.3549e-08 29.9541 201)" fill="white"/>
<path d="M7.08872 190.066C7.08872 183.519 12.4157 178.216 18.9796 178.216C25.5435 178.216 30.8704 183.519 30.8704 190.066C30.8704 196.614 25.5435 201.917 18.9796 201.917C12.4157 201.917 7.08872 196.614 7.08872 190.066Z" stroke="#9071AF" stroke-width="1.83263"/>
</g>
<path d="M284.007 267.093C279.601 262.704 272.459 262.704 268.054 267.093C263.648 271.482 263.648 278.597 268.054 282.986C272.459 287.375 279.601 287.375 284.007 282.986C288.412 278.597 288.412 271.482 284.007 267.093Z" fill="white" stroke="#9071AF" stroke-width="0.610878"/>
<path d="M301.438 284.525C297.033 280.136 289.891 280.136 285.485 284.525C281.08 288.914 281.08 296.03 285.485 300.419C289.891 304.808 297.033 304.808 301.438 300.419C305.844 296.03 305.844 288.914 301.438 284.525Z" fill="white" stroke="#9071AF" stroke-width="0.610878"/>
<g filter="url(#filter5_d_273_3931)">
<ellipse cx="10.9542" cy="10.9542" rx="10.9542" ry="10.9542" transform="matrix(-0.708422 -0.705789 0.708422 -0.705789 310.884 325.356)" fill="white"/>
<path d="M319.293 301.515C314.649 296.888 307.119 296.888 302.474 301.515C297.83 306.142 297.83 313.644 302.474 318.271C307.119 322.898 314.649 322.898 319.293 318.271C323.937 313.644 323.937 306.142 319.293 301.515Z" stroke="#9071AF" stroke-width="1.83263"/>
</g>
<path d="M97.7814 112.657C93.3761 108.268 93.3761 101.152 97.7814 96.7628C102.187 92.3739 109.329 92.3739 113.735 96.7628C118.14 101.152 118.14 108.268 113.735 112.657C109.329 117.046 102.187 117.046 97.7814 112.657Z" fill="white" stroke="#9071AF" stroke-width="0.610878"/>
<path d="M80.424 95.2269C76.0187 90.838 76.0187 83.7221 80.424 79.3331C84.8294 74.9442 91.9718 74.9442 96.3771 79.3331C100.782 83.7221 100.782 90.838 96.3771 95.2269C91.9718 99.6159 84.8293 99.6159 80.424 95.2269Z" fill="white" stroke="#9071AF" stroke-width="0.610878"/>
<g filter="url(#filter6_d_273_3931)">
<ellipse cx="10.9542" cy="10.9542" rx="10.9542" ry="10.9542" transform="matrix(-0.708422 -0.705789 -0.708422 0.705789 86.2295 69.5898)" fill="white"/>
<path d="M62.2999 77.9679C57.6555 73.3408 57.6555 65.8389 62.2999 61.2118C66.9442 56.5847 74.4741 56.5847 79.1185 61.2118C83.7628 65.8389 83.7628 73.3408 79.1185 77.9679C74.4741 82.595 66.9442 82.595 62.2999 77.9679Z" stroke="#9071AF" stroke-width="1.83263"/>
</g>
<path d="M284.222 97.5255C279.816 93.1365 272.674 93.1365 268.269 97.5255C263.863 101.914 263.863 109.03 268.269 113.419C272.674 117.808 279.816 117.808 284.222 113.419C288.627 109.03 288.627 101.914 284.222 97.5255Z" fill="white" stroke="#9071AF" stroke-width="0.610878"/>
<path d="M301.868 79.8788C297.463 75.4898 290.32 75.4898 285.915 79.8788C281.51 84.2677 281.51 91.3836 285.915 95.7726C290.32 100.162 297.463 100.162 301.868 95.7726C306.273 91.3836 306.273 84.2677 301.868 79.8788Z" fill="white" stroke="#9071AF" stroke-width="0.610878"/>
<g filter="url(#filter7_d_273_3931)">
<ellipse cx="10.9542" cy="10.9542" rx="10.9542" ry="10.9542" transform="matrix(-0.708422 -0.705789 0.708422 -0.705789 311.316 85.8638)" fill="white"/>
<path d="M319.726 62.0231C315.081 57.396 307.551 57.396 302.907 62.0231C298.263 66.6501 298.263 74.1521 302.907 78.7792C307.551 83.4062 315.081 83.4062 319.726 78.7792C324.37 74.1521 324.37 66.6501 319.726 62.0231Z" stroke="#9071AF" stroke-width="1.83263"/>
</g>
<path d="M99.26 282.37C94.8546 277.981 94.8546 270.865 99.26 266.476C103.665 262.087 110.808 262.087 115.213 266.476C119.618 270.865 119.618 277.981 115.213 282.37C110.808 286.759 103.665 286.759 99.26 282.37Z" fill="white" stroke="#9071AF" stroke-width="0.610878"/>
<path d="M81.6848 299.946C77.2794 295.557 77.2794 288.441 81.6848 284.052C86.0901 279.663 93.2325 279.663 97.6379 284.052C102.043 288.441 102.043 295.557 97.6379 299.946C93.2325 304.335 86.0901 304.335 81.6848 299.946Z" fill="white" stroke="#9071AF" stroke-width="0.610878"/>
<g filter="url(#filter8_d_273_3931)">
<ellipse cx="10.9542" cy="10.9542" rx="10.9542" ry="10.9542" transform="matrix(-0.708422 -0.705789 -0.708422 0.705789 87.0586 310.121)" fill="white"/>
<path d="M63.129 318.499C58.4846 313.872 58.4846 306.37 63.129 301.743C67.7733 297.116 75.3032 297.116 79.9476 301.743C84.5919 306.37 84.5919 313.872 79.9476 318.499C75.3032 323.126 67.7733 323.126 63.129 318.499Z" stroke="#9071AF" stroke-width="1.83263"/>
</g>
<path d="M153.416 94.7114C148.702 94.7114 144.879 98.5185 144.879 103.217C144.879 107.916 148.702 111.723 153.416 111.723C158.129 111.723 161.952 107.916 161.952 103.217C161.952 98.5185 158.129 94.7114 153.416 94.7114Z" fill="white" stroke="#C0B8C9" stroke-width="0.610878"/>
<path d="M228.589 94.7114C223.876 94.7114 220.053 98.5185 220.053 103.217C220.053 107.916 223.876 111.723 228.589 111.723C233.303 111.723 237.126 107.916 237.126 103.217C237.126 98.5185 233.303 94.7114 228.589 94.7114Z" fill="white" stroke="#C0B8C9" stroke-width="0.610878"/>
<path d="M190.024 55.8964C183.795 55.8964 178.744 60.9273 178.744 67.1356C178.744 73.3439 183.795 78.3748 190.024 78.3748C196.252 78.3748 201.303 73.3439 201.303 67.1356C201.303 60.9273 196.252 55.8964 190.024 55.8964Z" fill="white" stroke="#9071AF" stroke-width="0.610878"/>
<path d="M190.024 31.2958C183.795 31.2958 178.744 36.3267 178.744 42.535C178.744 48.7433 183.795 53.7742 190.024 53.7742C196.252 53.7742 201.303 48.7433 201.303 42.535C201.303 36.3267 196.252 31.2958 190.024 31.2958Z" fill="white" stroke="#9071AF" stroke-width="0.610878"/>
<g filter="url(#filter9_d_273_3931)">
<ellipse cx="190.024" cy="17.9344" rx="10.9745" ry="10.9337" transform="rotate(180 190.024 17.9344)" fill="white"/>
<path d="M190.024 6.08435C183.46 6.08435 178.133 11.3866 178.133 17.9344C178.133 24.4822 183.46 29.7845 190.024 29.7845C196.587 29.7845 201.914 24.4822 201.914 17.9344C201.914 11.3866 196.587 6.08435 190.024 6.08435Z" stroke="#9071AF" stroke-width="1.83263"/>
</g>
<path d="M153.416 284.476C148.702 284.476 144.879 280.669 144.879 275.97C144.879 271.272 148.702 267.465 153.416 267.465C158.129 267.465 161.952 271.272 161.952 275.97C161.952 280.669 158.129 284.476 153.416 284.476Z" fill="white" stroke="#C0B8C9" stroke-width="0.610878"/>
<path d="M228.589 285.023C223.876 285.023 220.053 281.216 220.053 276.517C220.053 271.819 223.876 268.011 228.589 268.011C233.303 268.011 237.126 271.819 237.126 276.517C237.126 281.216 233.303 285.023 228.589 285.023Z" fill="white" stroke="#C0B8C9" stroke-width="0.610878"/>
<path d="M190.024 321.105C183.795 321.105 178.744 316.074 178.744 309.865C178.744 303.657 183.795 298.626 190.024 298.626C196.252 298.626 201.303 303.657 201.303 309.865C201.303 316.074 196.252 321.105 190.024 321.105Z" fill="white" stroke="#9071AF" stroke-width="0.610878"/>
<path d="M190.024 345.705C183.795 345.705 178.744 340.674 178.744 334.466C178.744 328.258 183.795 323.227 190.024 323.227C196.252 323.227 201.303 328.258 201.303 334.466C201.303 340.674 196.252 345.705 190.024 345.705Z" fill="white" stroke="#9071AF" stroke-width="0.610878"/>
<g filter="url(#filter10_d_273_3931)">
<ellipse cx="10.9745" cy="10.9337" rx="10.9745" ry="10.9337" transform="matrix(-1 0 0 1 200.998 348.133)" fill="white"/>
<path d="M190.024 370.917C183.46 370.917 178.133 365.614 178.133 359.067C178.133 352.519 183.46 347.216 190.024 347.216C196.587 347.216 201.914 352.519 201.914 359.067C201.914 365.614 196.587 370.917 190.024 370.917Z" stroke="#9071AF" stroke-width="1.83263"/>
</g>
<path d="M203.074 211.22C207.636 211.22 211.336 207.536 211.336 202.988C211.336 198.44 207.636 194.756 203.074 194.756C198.512 194.756 194.812 198.44 194.812 202.988C194.812 207.536 198.512 211.22 203.074 211.22Z" fill="white" stroke="#9071AF" stroke-width="0.610878"/>
<path d="M174.519 343.302C174.519 344.799 173.302 346.012 171.8 346.012C170.298 346.012 169.081 344.799 169.081 343.302C169.081 341.806 170.298 340.593 171.8 340.593C173.302 340.593 174.519 341.806 174.519 343.302Z" fill="white" stroke="#FFA3DA" stroke-width="0.369912"/>
<path d="M154.773 323.462C154.773 324.959 153.556 326.172 152.054 326.172C150.552 326.172 149.335 324.959 149.335 323.462C149.335 321.966 150.552 320.753 152.054 320.753C153.556 320.753 154.773 321.966 154.773 323.462Z" fill="white" stroke="#FFA3DA" stroke-width="0.369912"/>
<path d="M164.687 333.342C164.687 334.838 163.47 336.051 161.968 336.051C160.466 336.051 159.249 334.838 159.249 333.342C159.249 331.846 160.466 330.633 161.968 330.633C163.47 330.633 164.687 331.846 164.687 333.342Z" fill="white" stroke="#FFA3DA" stroke-width="0.369912"/>
<path d="M145.093 312.196C145.093 314.274 143.402 315.958 141.317 315.958C139.232 315.958 137.542 314.274 137.542 312.196C137.542 310.119 139.232 308.435 141.317 308.435C143.402 308.435 145.093 310.119 145.093 312.196Z" fill="#FFF9FD" stroke="url(#paint2_linear_273_3931)" stroke-width="0.369912"/>
<path d="M208.019 345.746C206.517 345.746 205.3 344.534 205.3 343.038C205.3 341.542 206.517 340.329 208.019 340.329C209.52 340.329 210.738 341.542 210.738 343.038C210.738 344.534 209.52 345.746 208.019 345.746Z" fill="white" stroke="#9071AF" stroke-width="0.369912"/>
<path d="M227.929 326.069C226.427 326.069 225.21 324.856 225.21 323.36C225.21 321.864 226.427 320.651 227.929 320.651C229.43 320.651 230.648 321.864 230.648 323.36C230.648 324.856 229.43 326.069 227.929 326.069Z" fill="white" stroke="#9071AF" stroke-width="0.369912"/>
<path d="M218.019 335.948C216.517 335.948 215.3 334.735 215.3 333.239C215.3 331.743 216.517 330.53 218.019 330.53C219.52 330.53 220.738 331.743 220.738 333.239C220.738 334.735 219.52 335.948 218.019 335.948Z" fill="white" stroke="#9071AF" stroke-width="0.369912"/>
<path d="M239.24 316.423C237.155 316.423 235.465 314.739 235.465 312.662C235.465 310.585 237.155 308.901 239.24 308.901C241.325 308.901 243.015 310.585 243.015 312.662C243.015 314.739 241.325 316.423 239.24 316.423Z" fill="#FFF9FD" stroke="url(#paint3_linear_273_3931)" stroke-width="0.369912"/>
<path d="M69.9043 286.915C68.8423 287.973 67.1206 287.973 66.0586 286.915C64.9966 285.857 64.9966 284.142 66.0586 283.084C67.1206 282.026 68.8423 282.026 69.9043 283.084C70.9662 284.142 70.9662 285.857 69.9043 286.915Z" fill="white" stroke="#FFA3DA" stroke-width="0.369912"/>
<path d="M70.0137 258.972C68.9517 260.03 67.2299 260.03 66.168 258.972C65.106 257.914 65.106 256.199 66.168 255.141C67.2299 254.083 68.9517 254.083 70.0137 255.141C71.0756 256.199 71.0756 257.914 70.0137 258.972Z" fill="white" stroke="#FFA3DA" stroke-width="0.369912"/>
<path d="M70.0137 272.943C68.9517 274.001 67.2299 274.001 66.168 272.943C65.106 271.885 65.106 270.17 66.168 269.112C67.2299 268.054 68.9517 268.054 70.0137 269.112C71.0756 270.17 71.0756 271.885 70.0137 272.943Z" fill="white" stroke="#FFA3DA" stroke-width="0.369912"/>
<path d="M70.6746 241.745C69.2001 243.214 66.8096 243.214 65.3352 241.745C63.8607 240.276 63.8607 237.894 65.3352 236.425C66.8096 234.956 69.2001 234.956 70.6746 236.425C72.149 237.894 72.149 240.276 70.6746 241.745Z" fill="#FFF9FD" stroke="url(#paint4_linear_273_3931)" stroke-width="0.369912"/>
<path d="M92.8376 313.705C91.7756 312.647 91.7756 310.931 92.8376 309.873C93.8995 308.815 95.6213 308.815 96.6833 309.873C97.7452 310.931 97.7452 312.647 96.6833 313.705C95.6213 314.763 93.8995 314.763 92.8376 313.705Z" fill="white" stroke="#9071AF" stroke-width="0.369912"/>
<path d="M120.881 313.82C119.819 312.762 119.819 311.047 120.881 309.989C121.943 308.931 123.664 308.931 124.726 309.989C125.788 311.047 125.788 312.762 124.726 313.82C123.664 314.878 121.943 314.878 120.881 313.82Z" fill="white" stroke="#9071AF" stroke-width="0.369912"/>
<path d="M106.853 313.82C105.791 312.762 105.791 311.046 106.853 309.988C107.915 308.93 109.637 308.93 110.699 309.988C111.761 311.046 111.761 312.762 110.699 313.82C109.637 314.878 107.915 314.878 106.853 313.82Z" fill="white" stroke="#9071AF" stroke-width="0.369912"/>
<path d="M289.16 309.875C290.222 310.933 290.222 312.648 289.16 313.706C288.099 314.764 286.377 314.764 285.315 313.706C284.253 312.648 284.253 310.933 285.315 309.875C286.377 308.817 288.099 308.817 289.16 309.875Z" fill="white" stroke="#FFA3DA" stroke-width="0.369912"/>
<path d="M261.117 309.759C262.179 310.817 262.179 312.533 261.117 313.591C260.056 314.649 258.334 314.649 257.272 313.591C256.21 312.533 256.21 310.817 257.272 309.759C258.334 308.701 260.056 308.701 261.117 309.759Z" fill="white" stroke="#FFA3DA" stroke-width="0.369912"/>
<path d="M275.149 309.76C276.211 310.818 276.211 312.533 275.149 313.591C274.087 314.649 272.365 314.649 271.303 313.591C270.241 312.533 270.241 310.818 271.303 309.76C272.365 308.702 274.087 308.702 275.149 309.76Z" fill="white" stroke="#FFA3DA" stroke-width="0.369912"/>
<path d="M314.596 287.027C313.534 288.085 311.812 288.085 310.75 287.027C309.688 285.969 309.688 284.254 310.75 283.196C311.812 282.138 313.534 282.138 314.596 283.196C315.658 284.254 315.658 285.969 314.596 287.027Z" fill="white" stroke="#9071AF" stroke-width="0.369912"/>
<path d="M314.709 259.085C313.647 260.143 311.925 260.143 310.863 259.085C309.801 258.027 309.801 256.312 310.863 255.253C311.925 254.195 313.647 254.195 314.709 255.253C315.771 256.312 315.771 258.027 314.709 259.085Z" fill="white" stroke="#9071AF" stroke-width="0.369912"/>
<path d="M314.709 273.056C313.647 274.114 311.925 274.114 310.863 273.056C309.801 271.998 309.801 270.283 310.863 269.225C311.925 268.167 313.647 268.167 314.709 269.225C315.771 270.283 315.771 271.998 314.709 273.056Z" fill="white" stroke="#9071AF" stroke-width="0.369912"/>
<path d="M36.3008 173.453C34.7991 173.453 33.5818 172.24 33.5818 170.744C33.5818 169.248 34.7991 168.035 36.3008 168.035C37.8025 168.035 39.0198 169.248 39.0198 170.744C39.0198 172.24 37.8025 173.453 36.3008 173.453Z" fill="white" stroke="#FFA3DA" stroke-width="0.369912"/>
<path d="M56.2109 154.264C54.7092 154.264 53.4919 153.051 53.4919 151.555C53.4919 150.059 54.7092 148.846 56.2109 148.846C57.7127 148.846 58.93 150.059 58.93 151.555C58.93 153.051 57.7127 154.264 56.2109 154.264Z" fill="white" stroke="#FFA3DA" stroke-width="0.369912"/>
<path d="M46.2969 163.655C44.7952 163.655 43.5779 162.443 43.5779 160.946C43.5779 159.45 44.7952 158.238 46.2969 158.238C47.7986 158.238 49.0159 159.45 49.0159 160.946C49.0159 162.443 47.7986 163.655 46.2969 163.655Z" fill="white" stroke="#FFA3DA" stroke-width="0.369912"/>
<path d="M33.5918 208.063C33.5918 206.567 34.8093 205.354 36.3112 205.354C37.813 205.354 39.0305 206.567 39.0305 208.063C39.0305 209.56 37.813 210.773 36.3112 210.773C34.8093 210.773 33.5918 209.56 33.5918 208.063Z" fill="white" stroke="#9071AF" stroke-width="0.369912"/>
<path d="M53.334 227.415C53.334 225.919 54.5515 224.706 56.0534 224.706C57.5552 224.706 58.7727 225.919 58.7727 227.415C58.7727 228.912 57.5552 230.125 56.0534 230.125C54.5515 230.125 53.334 228.912 53.334 227.415Z" fill="white" stroke="#9071AF" stroke-width="0.369912"/>
<path d="M43.9083 218.024C43.9083 216.528 45.1257 215.315 46.6276 215.315C48.1294 215.315 49.3469 216.528 49.3469 218.024C49.3469 219.52 48.1294 220.733 46.6276 220.733C45.1257 220.733 43.9083 219.52 43.9083 218.024Z" fill="white" stroke="#9071AF" stroke-width="0.369912"/>
<path d="M93.322 69.1477C92.26 68.0896 92.26 66.3742 93.322 65.3162C94.3839 64.2582 96.1057 64.2582 97.1676 65.3162C98.2296 66.3742 98.2296 68.0896 97.1676 69.1477C96.1057 70.2057 94.3839 70.2057 93.322 69.1477Z" fill="white" stroke="#FFA3DA" stroke-width="0.369912"/>
<path d="M120.881 69.2624C119.819 68.2044 119.819 66.489 120.881 65.4309C121.943 64.3729 123.664 64.3729 124.726 65.4309C125.788 66.489 125.788 68.2044 124.726 69.2624C123.664 70.3205 121.943 70.3205 120.881 69.2624Z" fill="white" stroke="#FFA3DA" stroke-width="0.369912"/>
<path d="M106.861 69.2624C105.799 68.2044 105.799 66.489 106.861 65.4309C107.923 64.3729 109.645 64.3729 110.707 65.4309C111.769 66.489 111.769 68.2044 110.707 69.2624C109.645 70.3205 107.923 70.3205 106.861 69.2624Z" fill="white" stroke="#FFA3DA" stroke-width="0.369912"/>
<path d="M138.66 69.9196C137.185 68.4506 137.185 66.0689 138.66 64.5999C140.134 63.1309 142.524 63.1309 143.999 64.5999C145.473 66.0689 145.473 68.4506 143.999 69.9196C142.524 71.3886 140.134 71.3886 138.66 69.9196Z" fill="#FFF9FD" stroke="url(#paint5_linear_273_3931)" stroke-width="0.369912"/>
<path d="M66.4258 92.9717C67.4877 91.9136 69.2095 91.9136 70.2715 92.9717C71.3334 94.0297 71.3334 95.7451 70.2715 96.8032C69.2095 97.8612 67.4877 97.8612 66.4258 96.8032C65.3638 95.7451 65.3638 94.0297 66.4258 92.9717Z" fill="white" stroke="#9071AF" stroke-width="0.369912"/>
<path d="M66.3125 120.915C67.3745 119.857 69.0962 119.857 70.1582 120.915C71.2201 121.973 71.2201 123.688 70.1582 124.746C69.0962 125.804 67.3745 125.804 66.3125 124.746C65.2506 123.688 65.2506 121.973 66.3125 120.915Z" fill="white" stroke="#9071AF" stroke-width="0.369912"/>
<path d="M66.3125 106.943C67.3745 105.885 69.0962 105.885 70.1582 106.943C71.2201 108.001 71.2201 109.717 70.1582 110.775C69.0962 111.833 67.3745 111.833 66.3125 110.775C65.2506 109.717 65.2506 108.001 66.3125 106.943Z" fill="white" stroke="#9071AF" stroke-width="0.369912"/>
<path d="M66.531 141.611C64.7217 140.574 64.1095 138.282 65.1636 136.492C66.2177 134.702 68.539 134.092 70.3484 135.13C72.1577 136.167 72.7699 138.459 71.7158 140.249C70.6616 142.039 68.3403 142.648 66.531 141.611Z" fill="#FFF9FD" stroke="url(#paint6_linear_273_3931)" stroke-width="0.369912"/>
<path d="M311.012 93.1997C312.074 92.1417 313.795 92.1417 314.857 93.1997C315.919 94.2577 315.919 95.9732 314.857 97.0312C313.795 98.0892 312.074 98.0892 311.012 97.0312C309.95 95.9732 309.95 94.2577 311.012 93.1997Z" fill="white" stroke="#FFA3DA" stroke-width="0.369912"/>
<path d="M310.895 121.143C311.956 120.085 313.678 120.085 314.74 121.143C315.802 122.201 315.802 123.916 314.74 124.974C313.678 126.032 311.956 126.032 310.895 124.974C309.833 123.916 309.833 122.201 310.895 121.143Z" fill="white" stroke="#FFA3DA" stroke-width="0.369912"/>
<path d="M310.895 107.171C311.956 106.113 313.678 106.113 314.74 107.171C315.802 108.229 315.802 109.945 314.74 111.003C313.678 112.061 311.956 112.061 310.895 111.003C309.833 109.945 309.833 108.229 310.895 107.171Z" fill="white" stroke="#FFA3DA" stroke-width="0.369912"/>
<path d="M309.745 135.93C311.22 134.461 313.61 134.461 315.085 135.93C316.559 137.399 316.559 139.78 315.085 141.249C313.61 142.718 311.22 142.718 309.745 141.249C308.271 139.78 308.271 137.399 309.745 135.93Z" fill="#FFF9FD" stroke="url(#paint7_linear_273_3931)" stroke-width="0.369912"/>
<path d="M289.051 65.4334C290.113 66.4914 290.113 68.2068 289.051 69.2649C287.989 70.3229 286.267 70.3229 285.205 69.2649C284.143 68.2068 284.143 66.4914 285.205 65.4334C286.267 64.3753 287.989 64.3753 289.051 65.4334Z" fill="white" stroke="#9071AF" stroke-width="0.369912"/>
<path d="M261.008 65.3181C262.07 66.3762 262.07 68.0916 261.008 69.1496C259.946 70.2077 258.224 70.2077 257.162 69.1496C256.1 68.0916 256.1 66.3762 257.162 65.3181C258.224 64.2601 259.946 64.2601 261.008 65.3181Z" fill="white" stroke="#9071AF" stroke-width="0.369912"/>
<path d="M275.035 65.3186C276.097 66.3767 276.097 68.0921 275.035 69.1501C273.974 70.2081 272.252 70.2081 271.19 69.1501C270.128 68.0921 270.128 66.3767 271.19 65.3186C272.252 64.2606 273.974 64.2606 275.035 65.3186Z" fill="white" stroke="#9071AF" stroke-width="0.369912"/>
<path d="M343.565 205.876C345.067 205.876 346.284 207.089 346.284 208.584C346.284 210.08 345.067 211.293 343.565 211.293C342.064 211.293 340.846 210.08 340.846 208.584C340.846 207.089 342.064 205.876 343.565 205.876Z" fill="white" stroke="#FFA3DA" stroke-width="0.369912"/>
<path d="M323.655 225.553C325.157 225.553 326.374 226.766 326.374 228.262C326.374 229.758 325.157 230.971 323.655 230.971C322.153 230.971 320.936 229.758 320.936 228.262C320.936 226.766 322.153 225.553 323.655 225.553Z" fill="white" stroke="#FFA3DA" stroke-width="0.369912"/>
<path d="M333.565 215.674C335.067 215.674 336.284 216.887 336.284 218.383C336.284 219.878 335.067 221.091 333.565 221.091C332.064 221.091 330.846 219.878 330.846 218.383C330.846 216.887 332.064 215.674 333.565 215.674Z" fill="white" stroke="#FFA3DA" stroke-width="0.369912"/>
<path d="M312.344 235.199C314.429 235.199 316.119 236.883 316.119 238.96C316.119 241.037 314.429 242.721 312.344 242.721C310.259 242.721 308.569 241.037 308.569 238.96C308.569 236.883 310.259 235.199 312.344 235.199Z" fill="#FFF9FD" stroke="url(#paint8_linear_273_3931)" stroke-width="0.369912"/>
<path d="M346.277 170.776C346.277 172.272 345.06 173.485 343.558 173.485C342.056 173.485 340.839 172.272 340.839 170.776C340.839 169.28 342.056 168.067 343.558 168.067C345.06 168.067 346.277 169.28 346.277 170.776Z" fill="white" stroke="#9071AF" stroke-width="0.369912"/>
<ellipse cx="323.812" cy="150.936" rx="2.90461" ry="2.89388" fill="white" stroke="#9071AF" stroke-width="0.369912"/>
<ellipse cx="333.722" cy="160.816" rx="2.90461" ry="2.89388" fill="white" stroke="#9071AF" stroke-width="0.369912"/>
<path d="M206.151 35.8117C206.151 34.3154 207.368 33.1024 208.87 33.1024C210.372 33.1024 211.589 34.3154 211.589 35.8117C211.589 37.308 210.372 38.521 208.87 38.521C207.368 38.521 206.151 37.308 206.151 35.8117Z" fill="white" stroke="#FFA3DA" stroke-width="0.369912"/>
<path d="M225.901 56.1398C225.901 54.6435 227.118 53.4305 228.62 53.4305C230.122 53.4305 231.339 54.6435 231.339 56.1398C231.339 57.6361 230.122 58.8491 228.62 58.8491C227.118 58.8491 225.901 57.6361 225.901 56.1398Z" fill="white" stroke="#FFA3DA" stroke-width="0.369912"/>
<path d="M215.486 45.7731C215.486 44.2768 216.704 43.0638 218.206 43.0638C219.708 43.0638 220.925 44.2768 220.925 45.7731C220.925 47.2694 219.708 48.4824 218.206 48.4824C216.704 48.4824 215.486 47.2694 215.486 45.7731Z" fill="white" stroke="#FFA3DA" stroke-width="0.369912"/>
<path d="M235.577 66.9176C235.577 64.8401 237.267 63.156 239.353 63.156C241.438 63.156 243.128 64.8401 243.128 66.9176C243.128 68.995 241.438 70.6792 239.353 70.6792C237.267 70.6792 235.577 68.995 235.577 66.9176Z" fill="#FFF9FD" stroke="url(#paint9_linear_273_3931)" stroke-width="0.369912"/>
<path d="M171.882 33.1058C173.384 33.1058 174.601 34.3188 174.601 35.8151C174.601 37.3114 173.384 38.5244 171.882 38.5244C170.38 38.5244 169.163 37.3114 169.163 35.8151C169.163 34.3188 170.38 33.1058 171.882 33.1058Z" fill="white" stroke="#9071AF" stroke-width="0.369912"/>
<path d="M151.968 53.2709C153.47 53.2709 154.687 54.4839 154.687 55.9801C154.687 57.4764 153.47 58.6894 151.968 58.6894C150.466 58.6894 149.249 57.4764 149.249 55.9801C149.249 54.4839 150.466 53.2709 151.968 53.2709Z" fill="white" stroke="#9071AF" stroke-width="0.369912"/>
<path d="M162.378 42.9042C163.88 42.9042 165.098 44.1172 165.098 45.6134C165.098 47.1097 163.88 48.3227 162.378 48.3227C160.876 48.3227 159.659 47.1097 159.659 45.6134C159.659 44.1172 160.876 42.9042 162.378 42.9042Z" fill="white" stroke="#9071AF" stroke-width="0.369912"/>
<defs>
<filter id="filter0_d_273_3931" x="61.1529" y="61.7014" width="258.595" height="258.227" filterUnits="userSpaceOnUse" color-interpolation-filters="sRGB">
<feFlood flood-opacity="0" result="BackgroundImageFix"/>
<feColorMatrix in="SourceAlpha" type="matrix" values="0 0 0 0 0 0 0 0 0 0 0 0 0 0 0 0 0 0 127 0" result="hardAlpha"/>
<feOffset dy="1.22176"/>
<feGaussianBlur stdDeviation="3.05439"/>
<feComposite in2="hardAlpha" operator="out"/>
<feColorMatrix type="matrix" values="0 0 0 0 0.745098 0 0 0 0 0.580392 0 0 0 0 0.909804 0 0 0 1 0"/>
<feBlend mode="normal" in2="BackgroundImageFix" result="effect1_dropShadow_273_3931"/>
<feBlend mode="normal" in="SourceGraphic" in2="effect1_dropShadow_273_3931" result="shape"/>
</filter>
<filter id="filter1_d_273_3931" x="10.6705" y="11.9528" width="359.042" height="357.753" filterUnits="userSpaceOnUse" color-interpolation-filters="sRGB">
<feFlood flood-opacity="0" result="BackgroundImageFix"/>
<feColorMatrix in="SourceAlpha" type="matrix" values="0 0 0 0 0 0 0 0 0 0 0 0 0 0 0 0 0 0 127 0" result="hardAlpha"/>
<feOffset dy="1.22176"/>
<feGaussianBlur stdDeviation="3.05439"/>
<feComposite in2="hardAlpha" operator="out"/>
<feColorMatrix type="matrix" values="0 0 0 0 0.745098 0 0 0 0 0.580392 0 0 0 0 0.909804 0 0 0 1 0"/>
<feBlend mode="normal" in2="BackgroundImageFix" result="effect1_dropShadow_273_3931"/>
<feBlend mode="normal" in="SourceGraphic" in2="effect1_dropShadow_273_3931" result="shape"/>
</filter>
<filter id="filter2_d_273_3931" x="166.875" y="167.567" width="46.6121" height="46.4971" filterUnits="userSpaceOnUse" color-interpolation-filters="sRGB">
<feFlood flood-opacity="0" result="BackgroundImageFix"/>
<feColorMatrix in="SourceAlpha" type="matrix" values="0 0 0 0 0 0 0 0 0 0 0 0 0 0 0 0 0 0 127 0" result="hardAlpha"/>
<feOffset dy="1.22176"/>
<feGaussianBlur stdDeviation="3.05439"/>
<feComposite in2="hardAlpha" operator="out"/>
<feColorMatrix type="matrix" values="0 0 0 0 0.745098 0 0 0 0 0.580392 0 0 0 0 0.909804 0 0 0 1 0"/>
<feBlend mode="normal" in2="BackgroundImageFix" result="effect1_dropShadow_273_3931"/>
<feBlend mode="normal" in="SourceGraphic" in2="effect1_dropShadow_273_3931" result="shape"/>
</filter>
<filter id="filter3_d_273_3931" x="344.109" y="172.413" width="37.8318" height="37.7503" filterUnits="userSpaceOnUse" color-interpolation-filters="sRGB">
<feFlood flood-opacity="0" result="BackgroundImageFix"/>
<feColorMatrix in="SourceAlpha" type="matrix" values="0 0 0 0 0 0 0 0 0 0 0 0 0 0 0 0 0 0 127 0" result="hardAlpha"/>
<feOffset dy="1.22176"/>
<feGaussianBlur stdDeviation="3.05439"/>
<feComposite in2="hardAlpha" operator="out"/>
<feColorMatrix type="matrix" values="0 0 0 0 0.745098 0 0 0 0 0.580392 0 0 0 0 0.909804 0 0 0 1 0"/>
<feBlend mode="normal" in2="BackgroundImageFix" result="effect1_dropShadow_273_3931"/>
<feBlend mode="normal" in="SourceGraphic" in2="effect1_dropShadow_273_3931" result="shape"/>
</filter>
<filter id="filter4_d_273_3931" x="0.0640683" y="172.413" width="37.8318" height="37.7503" filterUnits="userSpaceOnUse" color-interpolation-filters="sRGB">
<feFlood flood-opacity="0" result="BackgroundImageFix"/>
<feColorMatrix in="SourceAlpha" type="matrix" values="0 0 0 0 0 0 0 0 0 0 0 0 0 0 0 0 0 0 127 0" result="hardAlpha"/>
<feOffset dy="1.22176"/>
<feGaussianBlur stdDeviation="3.05439"/>
<feComposite in2="hardAlpha" operator="out"/>
<feColorMatrix type="matrix" values="0 0 0 0 0.745098 0 0 0 0 0.580392 0 0 0 0 0.909804 0 0 0 1 0"/>
<feBlend mode="normal" in2="BackgroundImageFix" result="effect1_dropShadow_273_3931"/>
<feBlend mode="normal" in="SourceGraphic" in2="effect1_dropShadow_273_3931" result="shape"/>
</filter>
<filter id="filter5_d_273_3931" x="291.964" y="292.243" width="37.8387" height="37.7434" filterUnits="userSpaceOnUse" color-interpolation-filters="sRGB">
<feFlood flood-opacity="0" result="BackgroundImageFix"/>
<feColorMatrix in="SourceAlpha" type="matrix" values="0 0 0 0 0 0 0 0 0 0 0 0 0 0 0 0 0 0 127 0" result="hardAlpha"/>
<feOffset dy="1.22176"/>
<feGaussianBlur stdDeviation="3.05439"/>
<feComposite in2="hardAlpha" operator="out"/>
<feColorMatrix type="matrix" values="0 0 0 0 0.745098 0 0 0 0 0.580392 0 0 0 0 0.909804 0 0 0 1 0"/>
<feBlend mode="normal" in2="BackgroundImageFix" result="effect1_dropShadow_273_3931"/>
<feBlend mode="normal" in="SourceGraphic" in2="effect1_dropShadow_273_3931" result="shape"/>
</filter>
<filter id="filter6_d_273_3931" x="51.7897" y="51.9396" width="37.8387" height="37.7437" filterUnits="userSpaceOnUse" color-interpolation-filters="sRGB">
<feFlood flood-opacity="0" result="BackgroundImageFix"/>
<feColorMatrix in="SourceAlpha" type="matrix" values="0 0 0 0 0 0 0 0 0 0 0 0 0 0 0 0 0 0 127 0" result="hardAlpha"/>
<feOffset dy="1.22176"/>
<feGaussianBlur stdDeviation="3.05439"/>
<feComposite in2="hardAlpha" operator="out"/>
<feColorMatrix type="matrix" values="0 0 0 0 0.745098 0 0 0 0 0.580392 0 0 0 0 0.909804 0 0 0 1 0"/>
<feBlend mode="normal" in2="BackgroundImageFix" result="effect1_dropShadow_273_3931"/>
<feBlend mode="normal" in="SourceGraphic" in2="effect1_dropShadow_273_3931" result="shape"/>
</filter>
<filter id="filter7_d_273_3931" x="292.397" y="52.7512" width="37.8387" height="37.7434" filterUnits="userSpaceOnUse" color-interpolation-filters="sRGB">
<feFlood flood-opacity="0" result="BackgroundImageFix"/>
<feColorMatrix in="SourceAlpha" type="matrix" values="0 0 0 0 0 0 0 0 0 0 0 0 0 0 0 0 0 0 127 0" result="hardAlpha"/>
<feOffset dy="1.22176"/>
<feGaussianBlur stdDeviation="3.05439"/>
<feComposite in2="hardAlpha" operator="out"/>
<feColorMatrix type="matrix" values="0 0 0 0 0.745098 0 0 0 0 0.580392 0 0 0 0 0.909804 0 0 0 1 0"/>
<feBlend mode="normal" in2="BackgroundImageFix" result="effect1_dropShadow_273_3931"/>
<feBlend mode="normal" in="SourceGraphic" in2="effect1_dropShadow_273_3931" result="shape"/>
</filter>
<filter id="filter8_d_273_3931" x="52.6188" y="292.471" width="37.8387" height="37.7434" filterUnits="userSpaceOnUse" color-interpolation-filters="sRGB">
<feFlood flood-opacity="0" result="BackgroundImageFix"/>
<feColorMatrix in="SourceAlpha" type="matrix" values="0 0 0 0 0 0 0 0 0 0 0 0 0 0 0 0 0 0 127 0" result="hardAlpha"/>
<feOffset dy="1.22176"/>
<feGaussianBlur stdDeviation="3.05439"/>
<feComposite in2="hardAlpha" operator="out"/>
<feColorMatrix type="matrix" values="0 0 0 0 0.745098 0 0 0 0 0.580392 0 0 0 0 0.909804 0 0 0 1 0"/>
<feBlend mode="normal" in2="BackgroundImageFix" result="effect1_dropShadow_273_3931"/>
<feBlend mode="normal" in="SourceGraphic" in2="effect1_dropShadow_273_3931" result="shape"/>
</filter>
<filter id="filter9_d_273_3931" x="171.108" y="0.280942" width="37.8318" height="37.7503" filterUnits="userSpaceOnUse" color-interpolation-filters="sRGB">
<feFlood flood-opacity="0" result="BackgroundImageFix"/>
<feColorMatrix in="SourceAlpha" type="matrix" values="0 0 0 0 0 0 0 0 0 0 0 0 0 0 0 0 0 0 127 0" result="hardAlpha"/>
<feOffset dy="1.22176"/>
<feGaussianBlur stdDeviation="3.05439"/>
<feComposite in2="hardAlpha" operator="out"/>
<feColorMatrix type="matrix" values="0 0 0 0 0.745098 0 0 0 0 0.580392 0 0 0 0 0.909804 0 0 0 1 0"/>
<feBlend mode="normal" in2="BackgroundImageFix" result="effect1_dropShadow_273_3931"/>
<feBlend mode="normal" in="SourceGraphic" in2="effect1_dropShadow_273_3931" result="shape"/>
</filter>
<filter id="filter10_d_273_3931" x="171.108" y="341.413" width="37.8318" height="37.7503" filterUnits="userSpaceOnUse" color-interpolation-filters="sRGB">
<feFlood flood-opacity="0" result="BackgroundImageFix"/>
<feColorMatrix in="SourceAlpha" type="matrix" values="0 0 0 0 0 0 0 0 0 0 0 0 0 0 0 0 0 0 127 0" result="hardAlpha"/>
<feOffset dy="1.22176"/>
<feGaussianBlur stdDeviation="3.05439"/>
<feComposite in2="hardAlpha" operator="out"/>
<feColorMatrix type="matrix" values="0 0 0 0 0.745098 0 0 0 0 0.580392 0 0 0 0 0.909804 0 0 0 1 0"/>
<feBlend mode="normal" in2="BackgroundImageFix" result="effect1_dropShadow_273_3931"/>
<feBlend mode="normal" in="SourceGraphic" in2="effect1_dropShadow_273_3931" result="shape"/>
</filter>
<radialGradient id="paint0_angular_273_3931" cx="0" cy="0" r="1" gradientUnits="userSpaceOnUse" gradientTransform="translate(190.451 189.593) rotate(-135.023) scale(127.564 127.564)">
<stop offset="0.00328769" stop-color="#FFA3DA"/>
<stop offset="0.247065" stop-color="#9071AF"/>
<stop offset="0.25248" stop-color="#FFA3DA"/>
<stop offset="0.497995" stop-color="#9372B0"/>
<stop offset="0.501785" stop-color="#FAA1D8"/>
<stop offset="0.747279" stop-color="#9774B2"/>
<stop offset="0.753239" stop-color="#F59ED5" stop-opacity="0.983524"/>
<stop offset="0.996591" stop-color="#9473B1"/>
</radialGradient>
<radialGradient id="paint1_angular_273_3931" cx="0" cy="0" r="1" gradientUnits="userSpaceOnUse" gradientTransform="translate(122.393 122.393) rotate(-134.98) scale(126.835)">
<stop offset="0.00328769" stop-color="#FFA3DA"/>
<stop offset="0.247065" stop-color="#9071AF"/>
<stop offset="0.25248" stop-color="#FFA3DA"/>
<stop offset="0.497995" stop-color="#9372B0"/>
<stop offset="0.501785" stop-color="#FAA1D8"/>
<stop offset="0.747279" stop-color="#9774B2"/>
<stop offset="0.753239" stop-color="#F59ED5" stop-opacity="0.983524"/>
<stop offset="0.996591" stop-color="#9473B1"/>
</radialGradient>
<linearGradient id="paint2_linear_273_3931" x1="139.139" y1="312.887" x2="143.199" y2="312.887" gradientUnits="userSpaceOnUse">
<stop stop-color="#9071AF"/>
<stop offset="1" stop-color="#FFA3DA"/>
</linearGradient>
<linearGradient id="paint3_linear_273_3931" x1="238.547" y1="310.492" x2="238.547" y2="314.536" gradientUnits="userSpaceOnUse">
<stop stop-color="#9071AF"/>
<stop offset="1" stop-color="#FFA3DA"/>
</linearGradient>
<linearGradient id="paint4_linear_273_3931" x1="65.9744" y1="238.038" x2="68.8345" y2="240.909" gradientUnits="userSpaceOnUse">
<stop stop-color="#9071AF"/>
<stop offset="1" stop-color="#FFA3DA"/>
</linearGradient>
<linearGradient id="paint5_linear_273_3931" x1="142.379" y1="65.2367" x2="139.519" y2="68.1075" gradientUnits="userSpaceOnUse">
<stop stop-color="#9071AF"/>
<stop offset="1" stop-color="#FFA3DA"/>
</linearGradient>
<linearGradient id="paint6_linear_273_3931" x1="68.9395" y1="136.156" x2="66.9281" y2="139.664" gradientUnits="userSpaceOnUse">
<stop stop-color="#9071AF"/>
<stop offset="1" stop-color="#FFA3DA"/>
</linearGradient>
<linearGradient id="paint7_linear_273_3931" x1="314.446" y1="139.636" x2="311.585" y2="136.765" gradientUnits="userSpaceOnUse">
<stop stop-color="#9071AF"/>
<stop offset="1" stop-color="#FFA3DA"/>
</linearGradient>
<linearGradient id="paint8_linear_273_3931" x1="313.037" y1="241.13" x2="313.037" y2="237.086" gradientUnits="userSpaceOnUse">
<stop stop-color="#9071AF"/>
<stop offset="1" stop-color="#FFA3DA"/>
</linearGradient>
<linearGradient id="paint9_linear_273_3931" x1="241.531" y1="66.227" x2="237.471" y2="66.227" gradientUnits="userSpaceOnUse">
<stop stop-color="#9071AF"/>
<stop offset="1" stop-color="#FFA3DA"/>
</linearGradient>
</defs>
</svg>
