<svg width="382" height="380" viewBox="0 0 382 380" fill="none" xmlns="http://www.w3.org/2000/svg">
<path d="M190.182 17.9336L190.182 361.8" stroke="#C0B8C9" stroke-width="0.610878"/>
<path d="M313.094 66.5894L67.2643 312.599" stroke="#C0B8C9" stroke-width="0.610878"/>
<path d="M363.576 189.594L17.8784 189.594" stroke="#C0B8C9" stroke-width="0.610878"/>
<path d="M313.094 312.052L67.2643 67.1358" stroke="#C0B8C9" stroke-width="0.610878"/>
<rect x="0.21638" width="138.917" height="138.731" transform="matrix(0.708422 -0.705789 0.708422 0.705789 91.6119 190.151)" stroke="#C0B8C9" stroke-width="0.305439"/>
<rect x="120.737" y="259.779" width="139.231" height="139.752" transform="rotate(-90 120.737 259.779)" stroke="#C0B8C9" stroke-width="0.305439"/>
<rect x="0.21638" width="210.338" height="210.338" transform="matrix(0.708422 -0.705789 0.708422 0.705789 41.0104 189.619)" stroke="#C0B8C9" stroke-width="0.305439"/>
<rect x="83.8734" y="83.6886" width="212.052" height="211.263" stroke="#C0B8C9" stroke-width="0.305439"/>
<rect x="0.43276" width="173.682" height="172.78" transform="matrix(0.708422 -0.705789 0.708422 0.705789 67.5774 189.926)" stroke="#9071AF" stroke-width="0.610878"/>
<rect x="103.784" y="276.333" width="173.357" height="173.102" transform="rotate(-90 103.784 276.333)" stroke="#9071AF" stroke-width="0.610878"/>
<g filter="url(#filter0_d_273_3150)">
<rect x="68.178" y="67.5047" width="244.546" height="244.177" stroke="#9071AF" stroke-width="1.83263" shape-rendering="crispEdges"/>
</g>
<g filter="url(#filter1_d_273_3150)">
<rect x="1.29828" width="242.954" height="242.954" transform="matrix(0.708422 -0.705789 0.708422 0.705789 17.1578 190.524)" stroke="#9071AF" stroke-width="1.83263" shape-rendering="crispEdges"/>
</g>
<path d="M128.154 41.3024L189.902 17.004L251.651 41.3024L251.656 41.3042L312.591 67.5545L338.981 128.167L338.983 128.172L363.41 189.593L338.983 251.014L338.981 251.019L312.591 311.632L251.656 337.882L251.651 337.884L189.902 362.182L128.154 337.884L128.149 337.882L67.2137 311.632L40.824 251.019L40.8221 251.014L16.3948 189.593L40.8221 128.172L40.824 128.167L67.2137 67.5544L128.149 41.3042L128.154 41.3024Z" stroke="#C0B8C9" stroke-width="0.305439"/>
<g filter="url(#filter2_d_273_3150)">
<ellipse cx="190.181" cy="189.594" rx="15.3072" ry="15.3643" transform="rotate(-90 190.181 189.594)" fill="white"/>
<path d="M206.461 189.594C206.461 180.631 199.169 173.37 190.181 173.37C181.192 173.37 173.9 180.631 173.9 189.594C173.9 198.557 181.192 205.817 190.181 205.817C199.169 205.817 206.461 198.557 206.461 189.594Z" stroke="#9071AF" stroke-width="1.83263"/>
</g>
<path d="M324.919 190.066C324.919 183.858 319.867 178.827 313.639 178.827C307.41 178.827 302.359 183.858 302.359 190.066C302.359 196.275 307.41 201.305 313.639 201.305C319.867 201.305 324.919 196.275 324.919 190.066Z" fill="white" stroke="#9071AF" stroke-width="0.610878"/>
<path d="M289.801 190.066C289.801 183.858 284.75 178.827 278.521 178.827C272.293 178.827 267.241 183.858 267.241 190.066C267.241 196.275 272.293 201.305 278.521 201.305C284.75 201.305 289.801 196.275 289.801 190.066Z" fill="white" stroke="#C0B8C9" stroke-width="0.610878"/>
<path d="M349.612 190.066C349.612 183.858 344.561 178.827 338.332 178.827C332.103 178.827 327.052 183.858 327.052 190.066C327.052 196.275 332.103 201.305 338.332 201.305C344.561 201.305 349.612 196.275 349.612 190.066Z" fill="white" stroke="#9071AF" stroke-width="0.610878"/>
<g filter="url(#filter3_d_273_3150)">
<ellipse cx="363.023" cy="190.066" rx="10.9337" ry="10.9745" transform="rotate(-90 363.023 190.066)" fill="white"/>
<path d="M374.914 190.066C374.914 183.518 369.587 178.216 363.023 178.216C356.459 178.216 351.133 183.518 351.133 190.066C351.133 196.614 356.459 201.916 363.023 201.916C369.587 201.916 374.914 196.614 374.914 190.066Z" stroke="#9071AF" stroke-width="1.83263"/>
</g>
<path d="M95.4925 154.606C95.4925 149.907 99.3155 146.1 104.029 146.1C108.742 146.1 112.565 149.907 112.565 154.606C112.565 159.304 108.742 163.111 104.029 163.111C99.3155 163.111 95.4925 159.304 95.4925 154.606Z" fill="white" stroke="#9071AF" stroke-width="0.610878"/>
<path d="M268.889 154.606C268.889 149.907 272.712 146.1 277.425 146.1C282.139 146.1 285.962 149.907 285.962 154.606C285.962 159.304 282.139 163.111 277.425 163.111C272.712 163.111 268.889 159.304 268.889 154.606Z" fill="white" stroke="#9071AF" stroke-width="0.610878"/>
<path d="M268.889 225.129C268.889 220.43 272.712 216.623 277.425 216.623C282.139 216.623 285.962 220.43 285.962 225.129C285.962 229.827 282.139 233.635 277.425 233.635C272.712 233.635 268.889 229.827 268.889 225.129Z" fill="white" stroke="#9071AF" stroke-width="0.610878"/>
<path d="M95.4925 225.129C95.4925 220.43 99.3155 216.623 104.029 216.623C108.742 216.623 112.565 220.43 112.565 225.129C112.565 229.827 108.742 233.635 104.029 233.635C99.3155 233.635 95.4925 229.827 95.4925 225.129Z" fill="white" stroke="#9071AF" stroke-width="0.610878"/>
<path d="M57.0814 190.066C57.0814 183.858 62.1327 178.827 68.3614 178.827C74.5901 178.827 79.6414 183.858 79.6414 190.066C79.6414 196.275 74.5901 201.305 68.3614 201.305C62.1327 201.305 57.0814 196.275 57.0814 190.066Z" fill="white" stroke="#9071AF" stroke-width="0.610878"/>
<path d="M91.1049 190.066C91.1049 183.858 96.1562 178.827 102.385 178.827C108.614 178.827 113.665 183.858 113.665 190.066C113.665 196.275 108.614 201.305 102.385 201.305C96.1562 201.305 91.1049 196.275 91.1049 190.066Z" fill="white" stroke="#C0B8C9" stroke-width="0.610878"/>
<path d="M190.024 89.7912C183.795 89.7912 178.744 94.8221 178.744 101.03C178.744 107.239 183.795 112.27 190.024 112.27C196.252 112.27 201.303 107.239 201.303 101.03C201.303 94.8221 196.252 89.7912 190.024 89.7912Z" fill="white" stroke="#C0B8C9" stroke-width="0.610878"/>
<path d="M190.024 288.303C183.795 288.303 178.744 283.272 178.744 277.064C178.744 270.856 183.795 265.825 190.024 265.825C196.252 265.825 201.303 270.856 201.303 277.064C201.303 283.272 196.252 288.303 190.024 288.303Z" fill="white" stroke="#C0B8C9" stroke-width="0.610878"/>
<path d="M120.407 119.39C116.002 123.779 116.002 130.895 120.407 135.284C124.813 139.673 131.955 139.673 136.361 135.284C140.766 130.895 140.766 123.779 136.361 119.39C131.955 115.001 124.813 115.001 120.407 119.39Z" fill="white" stroke="#9071AF" stroke-width="0.610878"/>
<path d="M260.475 259.266C256.069 263.655 248.927 263.655 244.522 259.266C240.116 254.878 240.116 247.762 244.522 243.373C248.927 238.984 256.069 238.984 260.475 243.373C264.88 247.762 264.88 254.878 260.475 259.266Z" fill="white" stroke="#9071AF" stroke-width="0.610878"/>
<circle cx="10.9542" cy="10.9542" r="11.2596" transform="matrix(0.708422 0.705789 -0.708422 0.705789 129.113 236.953)" fill="white" stroke="#9071AF" stroke-width="0.610878"/>
<path d="M261.823 119.793C266.228 124.182 266.228 131.298 261.823 135.687C257.418 140.076 250.275 140.076 245.87 135.687C241.465 131.298 241.465 124.182 245.87 119.793C250.275 115.404 257.418 115.404 261.823 119.793Z" fill="white" stroke="#9071AF" stroke-width="0.610878"/>
<path d="M32.3881 190.066C32.3881 183.858 37.4394 178.827 43.668 178.827C49.8967 178.827 54.948 183.858 54.948 190.066C54.948 196.275 49.8967 201.305 43.668 201.305C37.4394 201.305 32.3881 196.275 32.3881 190.066Z" fill="white" stroke="#9071AF" stroke-width="0.610878"/>
<g filter="url(#filter4_d_273_3150)">
<ellipse cx="10.9337" cy="10.9745" rx="10.9337" ry="10.9745" transform="matrix(4.38744e-08 -1 -1 -4.3549e-08 29.9531 201)" fill="white"/>
<path d="M7.08774 190.066C7.08774 183.518 12.4147 178.216 18.9786 178.216C25.5425 178.216 30.8694 183.518 30.8694 190.066C30.8694 196.614 25.5425 201.916 18.9786 201.916C12.4147 201.916 7.08774 196.614 7.08774 190.066Z" stroke="#9071AF" stroke-width="1.83263"/>
</g>
<path d="M284.006 267.093C279.601 262.704 272.458 262.704 268.053 267.093C263.647 271.482 263.647 278.597 268.053 282.986C272.458 287.375 279.601 287.375 284.006 282.986C288.411 278.597 288.411 271.482 284.006 267.093Z" fill="white" stroke="#9071AF" stroke-width="0.610878"/>
<path d="M301.437 284.525C297.032 280.136 289.89 280.136 285.484 284.525C281.079 288.914 281.079 296.03 285.484 300.419C289.89 304.808 297.032 304.808 301.437 300.419C305.843 296.03 305.843 288.914 301.437 284.525Z" fill="white" stroke="#9071AF" stroke-width="0.610878"/>
<g filter="url(#filter5_d_273_3150)">
<ellipse cx="10.9542" cy="10.9542" rx="10.9542" ry="10.9542" transform="matrix(-0.708422 -0.705789 0.708422 -0.705789 310.883 325.356)" fill="white"/>
<path d="M319.292 301.515C314.648 296.888 307.118 296.888 302.474 301.515C297.829 306.142 297.829 313.644 302.474 318.271C307.118 322.898 314.648 322.898 319.292 318.271C323.936 313.644 323.936 306.142 319.292 301.515Z" stroke="#9071AF" stroke-width="1.83263"/>
</g>
<path d="M97.7805 112.657C93.3751 108.268 93.3751 101.152 97.7805 96.7628C102.186 92.3739 109.328 92.3739 113.734 96.7628C118.139 101.152 118.139 108.268 113.734 112.657C109.328 117.046 102.186 117.046 97.7805 112.657Z" fill="white" stroke="#9071AF" stroke-width="0.610878"/>
<path d="M80.423 95.2269C76.0177 90.838 76.0177 83.7221 80.4231 79.3331C84.8284 74.9442 91.9708 74.9442 96.3761 79.3331C100.781 83.7221 100.781 90.838 96.3761 95.2269C91.9708 99.6159 84.8284 99.6159 80.423 95.2269Z" fill="white" stroke="#9071AF" stroke-width="0.610878"/>
<g filter="url(#filter6_d_273_3150)">
<ellipse cx="10.9542" cy="10.9542" rx="10.9542" ry="10.9542" transform="matrix(-0.708422 -0.705789 -0.708422 0.705789 86.2285 69.5898)" fill="white"/>
<path d="M62.2989 77.9679C57.6546 73.3408 57.6546 65.8389 62.2989 61.2118C66.9432 56.5847 74.4732 56.5847 79.1175 61.2118C83.7618 65.8389 83.7618 73.3408 79.1175 77.9679C74.4732 82.595 66.9432 82.595 62.2989 77.9679Z" stroke="#9071AF" stroke-width="1.83263"/>
</g>
<path d="M284.221 97.5255C279.815 93.1365 272.673 93.1365 268.268 97.5255C263.862 101.914 263.862 109.03 268.268 113.419C272.673 117.808 279.815 117.808 284.221 113.419C288.626 109.03 288.626 101.914 284.221 97.5255Z" fill="white" stroke="#9071AF" stroke-width="0.610878"/>
<path d="M301.867 79.8788C297.462 75.4898 290.319 75.4898 285.914 79.8788C281.509 84.2677 281.509 91.3836 285.914 95.7726C290.319 100.162 297.462 100.162 301.867 95.7726C306.272 91.3836 306.272 84.2677 301.867 79.8788Z" fill="white" stroke="#9071AF" stroke-width="0.610878"/>
<g filter="url(#filter7_d_273_3150)">
<ellipse cx="10.9542" cy="10.9542" rx="10.9542" ry="10.9542" transform="matrix(-0.708422 -0.705789 0.708422 -0.705789 311.314 85.8638)" fill="white"/>
<path d="M319.724 62.0231C315.079 57.396 307.549 57.396 302.905 62.0231C298.261 66.6501 298.261 74.1521 302.905 78.7792C307.549 83.4062 315.079 83.4062 319.724 78.7792C324.368 74.1521 324.368 66.6501 319.724 62.0231Z" stroke="#9071AF" stroke-width="1.83263"/>
</g>
<path d="M99.259 282.37C94.8537 277.981 94.8537 270.865 99.259 266.476C103.664 262.087 110.807 262.087 115.212 266.476C119.617 270.865 119.617 277.981 115.212 282.37C110.807 286.759 103.664 286.759 99.259 282.37Z" fill="white" stroke="#9071AF" stroke-width="0.610878"/>
<path d="M81.6828 299.946C77.2775 295.557 77.2775 288.441 81.6828 284.052C86.0881 279.663 93.2306 279.663 97.6359 284.052C102.041 288.441 102.041 295.557 97.6359 299.946C93.2306 304.335 86.0881 304.335 81.6828 299.946Z" fill="white" stroke="#9071AF" stroke-width="0.610878"/>
<g filter="url(#filter8_d_273_3150)">
<ellipse cx="10.9542" cy="10.9542" rx="10.9542" ry="10.9542" transform="matrix(-0.708422 -0.705789 -0.708422 0.705789 87.0586 310.121)" fill="white"/>
<path d="M63.129 318.499C58.4846 313.872 58.4846 306.37 63.129 301.743C67.7733 297.116 75.3032 297.116 79.9476 301.743C84.5919 306.37 84.5919 313.872 79.9476 318.499C75.3032 323.126 67.7733 323.126 63.129 318.499Z" stroke="#9071AF" stroke-width="1.83263"/>
</g>
<path d="M153.416 94.7114C148.702 94.7114 144.879 98.5185 144.879 103.217C144.879 107.916 148.702 111.723 153.416 111.723C158.129 111.723 161.952 107.916 161.952 103.217C161.952 98.5185 158.129 94.7114 153.416 94.7114Z" fill="white" stroke="#9071AF" stroke-width="0.610878"/>
<path d="M228.589 94.7114C223.876 94.7114 220.053 98.5185 220.053 103.217C220.053 107.916 223.876 111.723 228.589 111.723C233.303 111.723 237.126 107.916 237.126 103.217C237.126 98.5185 233.303 94.7114 228.589 94.7114Z" fill="white" stroke="#9071AF" stroke-width="0.610878"/>
<path d="M190.024 55.8964C183.795 55.8964 178.744 60.9273 178.744 67.1356C178.744 73.3439 183.795 78.3748 190.024 78.3748C196.252 78.3748 201.303 73.3439 201.303 67.1356C201.303 60.9273 196.252 55.8964 190.024 55.8964Z" fill="white" stroke="#9071AF" stroke-width="0.610878"/>
<path d="M190.024 31.2958C183.795 31.2958 178.744 36.3267 178.744 42.535C178.744 48.7433 183.795 53.7742 190.024 53.7742C196.252 53.7742 201.303 48.7433 201.303 42.535C201.303 36.3267 196.252 31.2958 190.024 31.2958Z" fill="white" stroke="#9071AF" stroke-width="0.610878"/>
<g filter="url(#filter9_d_273_3150)">
<ellipse cx="190.024" cy="17.9344" rx="10.9745" ry="10.9337" transform="rotate(180 190.024 17.9344)" fill="white"/>
<path d="M190.024 6.08435C183.46 6.08435 178.133 11.3866 178.133 17.9344C178.133 24.4822 183.46 29.7845 190.024 29.7845C196.587 29.7845 201.914 24.4822 201.914 17.9344C201.914 11.3866 196.587 6.08435 190.024 6.08435Z" stroke="#9071AF" stroke-width="1.83263"/>
</g>
<path d="M153.416 284.476C148.702 284.476 144.879 280.669 144.879 275.97C144.879 271.272 148.702 267.465 153.416 267.465C158.129 267.465 161.952 271.272 161.952 275.97C161.952 280.669 158.129 284.476 153.416 284.476Z" fill="white" stroke="#9071AF" stroke-width="0.610878"/>
<path d="M228.589 285.023C223.876 285.023 220.053 281.216 220.053 276.517C220.053 271.819 223.876 268.011 228.589 268.011C233.303 268.011 237.126 271.819 237.126 276.517C237.126 281.216 233.303 285.023 228.589 285.023Z" fill="white" stroke="#9071AF" stroke-width="0.610878"/>
<path d="M190.024 321.105C183.795 321.105 178.744 316.074 178.744 309.865C178.744 303.657 183.795 298.626 190.024 298.626C196.252 298.626 201.303 303.657 201.303 309.865C201.303 316.074 196.252 321.105 190.024 321.105Z" fill="white" stroke="#9071AF" stroke-width="0.610878"/>
<path d="M190.024 345.705C183.795 345.705 178.744 340.674 178.744 334.466C178.744 328.258 183.795 323.227 190.024 323.227C196.252 323.227 201.303 328.258 201.303 334.466C201.303 340.674 196.252 345.705 190.024 345.705Z" fill="white" stroke="#9071AF" stroke-width="0.610878"/>
<g filter="url(#filter10_d_273_3150)">
<ellipse cx="10.9745" cy="10.9337" rx="10.9745" ry="10.9337" transform="matrix(-1 0 0 1 200.998 348.133)" fill="white"/>
<path d="M190.024 370.917C183.46 370.917 178.133 365.614 178.133 359.067C178.133 352.519 183.46 347.216 190.024 347.216C196.587 347.216 201.914 352.519 201.914 359.067C201.914 365.614 196.587 370.917 190.024 370.917Z" stroke="#9071AF" stroke-width="1.83263"/>
</g>
<path d="M203.074 211.22C207.636 211.22 211.336 207.535 211.336 202.988C211.336 198.44 207.636 194.755 203.074 194.755C198.512 194.755 194.812 198.44 194.812 202.988C194.812 207.535 198.512 211.22 203.074 211.22Z" fill="white" stroke="#9071AF" stroke-width="0.610878"/>
<defs>
<filter id="filter0_d_273_3150" x="61.1529" y="61.7014" width="258.596" height="258.227" filterUnits="userSpaceOnUse" color-interpolation-filters="sRGB">
<feFlood flood-opacity="0" result="BackgroundImageFix"/>
<feColorMatrix in="SourceAlpha" type="matrix" values="0 0 0 0 0 0 0 0 0 0 0 0 0 0 0 0 0 0 127 0" result="hardAlpha"/>
<feOffset dy="1.22176"/>
<feGaussianBlur stdDeviation="3.05439"/>
<feComposite in2="hardAlpha" operator="out"/>
<feColorMatrix type="matrix" values="0 0 0 0 0.745098 0 0 0 0 0.580392 0 0 0 0 0.909804 0 0 0 1 0"/>
<feBlend mode="normal" in2="BackgroundImageFix" result="effect1_dropShadow_273_3150"/>
<feBlend mode="normal" in="SourceGraphic" in2="effect1_dropShadow_273_3150" result="shape"/>
</filter>
<filter id="filter1_d_273_3150" x="10.6705" y="11.9528" width="359.042" height="357.753" filterUnits="userSpaceOnUse" color-interpolation-filters="sRGB">
<feFlood flood-opacity="0" result="BackgroundImageFix"/>
<feColorMatrix in="SourceAlpha" type="matrix" values="0 0 0 0 0 0 0 0 0 0 0 0 0 0 0 0 0 0 127 0" result="hardAlpha"/>
<feOffset dy="1.22176"/>
<feGaussianBlur stdDeviation="3.05439"/>
<feComposite in2="hardAlpha" operator="out"/>
<feColorMatrix type="matrix" values="0 0 0 0 0.745098 0 0 0 0 0.580392 0 0 0 0 0.909804 0 0 0 1 0"/>
<feBlend mode="normal" in2="BackgroundImageFix" result="effect1_dropShadow_273_3150"/>
<feBlend mode="normal" in="SourceGraphic" in2="effect1_dropShadow_273_3150" result="shape"/>
</filter>
<filter id="filter2_d_273_3150" x="166.876" y="167.567" width="46.6101" height="46.4971" filterUnits="userSpaceOnUse" color-interpolation-filters="sRGB">
<feFlood flood-opacity="0" result="BackgroundImageFix"/>
<feColorMatrix in="SourceAlpha" type="matrix" values="0 0 0 0 0 0 0 0 0 0 0 0 0 0 0 0 0 0 127 0" result="hardAlpha"/>
<feOffset dy="1.22176"/>
<feGaussianBlur stdDeviation="3.05439"/>
<feComposite in2="hardAlpha" operator="out"/>
<feColorMatrix type="matrix" values="0 0 0 0 0.745098 0 0 0 0 0.580392 0 0 0 0 0.909804 0 0 0 1 0"/>
<feBlend mode="normal" in2="BackgroundImageFix" result="effect1_dropShadow_273_3150"/>
<feBlend mode="normal" in="SourceGraphic" in2="effect1_dropShadow_273_3150" result="shape"/>
</filter>
<filter id="filter3_d_273_3150" x="344.108" y="172.413" width="37.8308" height="37.7503" filterUnits="userSpaceOnUse" color-interpolation-filters="sRGB">
<feFlood flood-opacity="0" result="BackgroundImageFix"/>
<feColorMatrix in="SourceAlpha" type="matrix" values="0 0 0 0 0 0 0 0 0 0 0 0 0 0 0 0 0 0 127 0" result="hardAlpha"/>
<feOffset dy="1.22176"/>
<feGaussianBlur stdDeviation="3.05439"/>
<feComposite in2="hardAlpha" operator="out"/>
<feColorMatrix type="matrix" values="0 0 0 0 0.745098 0 0 0 0 0.580392 0 0 0 0 0.909804 0 0 0 1 0"/>
<feBlend mode="normal" in2="BackgroundImageFix" result="effect1_dropShadow_273_3150"/>
<feBlend mode="normal" in="SourceGraphic" in2="effect1_dropShadow_273_3150" result="shape"/>
</filter>
<filter id="filter4_d_273_3150" x="0.0630918" y="172.413" width="37.8308" height="37.7503" filterUnits="userSpaceOnUse" color-interpolation-filters="sRGB">
<feFlood flood-opacity="0" result="BackgroundImageFix"/>
<feColorMatrix in="SourceAlpha" type="matrix" values="0 0 0 0 0 0 0 0 0 0 0 0 0 0 0 0 0 0 127 0" result="hardAlpha"/>
<feOffset dy="1.22176"/>
<feGaussianBlur stdDeviation="3.05439"/>
<feComposite in2="hardAlpha" operator="out"/>
<feColorMatrix type="matrix" values="0 0 0 0 0.745098 0 0 0 0 0.580392 0 0 0 0 0.909804 0 0 0 1 0"/>
<feBlend mode="normal" in2="BackgroundImageFix" result="effect1_dropShadow_273_3150"/>
<feBlend mode="normal" in="SourceGraphic" in2="effect1_dropShadow_273_3150" result="shape"/>
</filter>
<filter id="filter5_d_273_3150" x="291.963" y="292.243" width="37.8387" height="37.7434" filterUnits="userSpaceOnUse" color-interpolation-filters="sRGB">
<feFlood flood-opacity="0" result="BackgroundImageFix"/>
<feColorMatrix in="SourceAlpha" type="matrix" values="0 0 0 0 0 0 0 0 0 0 0 0 0 0 0 0 0 0 127 0" result="hardAlpha"/>
<feOffset dy="1.22176"/>
<feGaussianBlur stdDeviation="3.05439"/>
<feComposite in2="hardAlpha" operator="out"/>
<feColorMatrix type="matrix" values="0 0 0 0 0.745098 0 0 0 0 0.580392 0 0 0 0 0.909804 0 0 0 1 0"/>
<feBlend mode="normal" in2="BackgroundImageFix" result="effect1_dropShadow_273_3150"/>
<feBlend mode="normal" in="SourceGraphic" in2="effect1_dropShadow_273_3150" result="shape"/>
</filter>
<filter id="filter6_d_273_3150" x="51.7897" y="51.9396" width="37.8387" height="37.7437" filterUnits="userSpaceOnUse" color-interpolation-filters="sRGB">
<feFlood flood-opacity="0" result="BackgroundImageFix"/>
<feColorMatrix in="SourceAlpha" type="matrix" values="0 0 0 0 0 0 0 0 0 0 0 0 0 0 0 0 0 0 127 0" result="hardAlpha"/>
<feOffset dy="1.22176"/>
<feGaussianBlur stdDeviation="3.05439"/>
<feComposite in2="hardAlpha" operator="out"/>
<feColorMatrix type="matrix" values="0 0 0 0 0.745098 0 0 0 0 0.580392 0 0 0 0 0.909804 0 0 0 1 0"/>
<feBlend mode="normal" in2="BackgroundImageFix" result="effect1_dropShadow_273_3150"/>
<feBlend mode="normal" in="SourceGraphic" in2="effect1_dropShadow_273_3150" result="shape"/>
</filter>
<filter id="filter7_d_273_3150" x="292.395" y="52.7512" width="37.8387" height="37.7434" filterUnits="userSpaceOnUse" color-interpolation-filters="sRGB">
<feFlood flood-opacity="0" result="BackgroundImageFix"/>
<feColorMatrix in="SourceAlpha" type="matrix" values="0 0 0 0 0 0 0 0 0 0 0 0 0 0 0 0 0 0 127 0" result="hardAlpha"/>
<feOffset dy="1.22176"/>
<feGaussianBlur stdDeviation="3.05439"/>
<feComposite in2="hardAlpha" operator="out"/>
<feColorMatrix type="matrix" values="0 0 0 0 0.745098 0 0 0 0 0.580392 0 0 0 0 0.909804 0 0 0 1 0"/>
<feBlend mode="normal" in2="BackgroundImageFix" result="effect1_dropShadow_273_3150"/>
<feBlend mode="normal" in="SourceGraphic" in2="effect1_dropShadow_273_3150" result="shape"/>
</filter>
<filter id="filter8_d_273_3150" x="52.6197" y="292.471" width="37.8387" height="37.7434" filterUnits="userSpaceOnUse" color-interpolation-filters="sRGB">
<feFlood flood-opacity="0" result="BackgroundImageFix"/>
<feColorMatrix in="SourceAlpha" type="matrix" values="0 0 0 0 0 0 0 0 0 0 0 0 0 0 0 0 0 0 127 0" result="hardAlpha"/>
<feOffset dy="1.22176"/>
<feGaussianBlur stdDeviation="3.05439"/>
<feComposite in2="hardAlpha" operator="out"/>
<feColorMatrix type="matrix" values="0 0 0 0 0.745098 0 0 0 0 0.580392 0 0 0 0 0.909804 0 0 0 1 0"/>
<feBlend mode="normal" in2="BackgroundImageFix" result="effect1_dropShadow_273_3150"/>
<feBlend mode="normal" in="SourceGraphic" in2="effect1_dropShadow_273_3150" result="shape"/>
</filter>
<filter id="filter9_d_273_3150" x="171.108" y="0.280942" width="37.8308" height="37.7503" filterUnits="userSpaceOnUse" color-interpolation-filters="sRGB">
<feFlood flood-opacity="0" result="BackgroundImageFix"/>
<feColorMatrix in="SourceAlpha" type="matrix" values="0 0 0 0 0 0 0 0 0 0 0 0 0 0 0 0 0 0 127 0" result="hardAlpha"/>
<feOffset dy="1.22176"/>
<feGaussianBlur stdDeviation="3.05439"/>
<feComposite in2="hardAlpha" operator="out"/>
<feColorMatrix type="matrix" values="0 0 0 0 0.745098 0 0 0 0 0.580392 0 0 0 0 0.909804 0 0 0 1 0"/>
<feBlend mode="normal" in2="BackgroundImageFix" result="effect1_dropShadow_273_3150"/>
<feBlend mode="normal" in="SourceGraphic" in2="effect1_dropShadow_273_3150" result="shape"/>
</filter>
<filter id="filter10_d_273_3150" x="171.108" y="341.413" width="37.8308" height="37.7503" filterUnits="userSpaceOnUse" color-interpolation-filters="sRGB">
<feFlood flood-opacity="0" result="BackgroundImageFix"/>
<feColorMatrix in="SourceAlpha" type="matrix" values="0 0 0 0 0 0 0 0 0 0 0 0 0 0 0 0 0 0 127 0" result="hardAlpha"/>
<feOffset dy="1.22176"/>
<feGaussianBlur stdDeviation="3.05439"/>
<feComposite in2="hardAlpha" operator="out"/>
<feColorMatrix type="matrix" values="0 0 0 0 0.745098 0 0 0 0 0.580392 0 0 0 0 0.909804 0 0 0 1 0"/>
<feBlend mode="normal" in2="BackgroundImageFix" result="effect1_dropShadow_273_3150"/>
<feBlend mode="normal" in="SourceGraphic" in2="effect1_dropShadow_273_3150" result="shape"/>
</filter>
</defs>
</svg>
