<svg width="382" height="380" viewBox="0 0 382 380" fill="none" xmlns="http://www.w3.org/2000/svg">
<path d="M190.178 17.9331L190.178 361.8" stroke="#C0B8C9" stroke-width="0.610878"/>
<path d="M313.09 66.5889L67.2604 312.598" stroke="#C0B8C9" stroke-width="0.610878"/>
<path d="M363.572 189.594L17.8745 189.594" stroke="#C0B8C9" stroke-width="0.610878"/>
<path d="M313.09 312.051L67.2604 67.1353" stroke="#C0B8C9" stroke-width="0.610878"/>
<rect x="0.21638" width="138.917" height="138.731" transform="matrix(0.708422 -0.705789 0.708422 0.705789 91.608 190.151)" stroke="#C0B8C9" stroke-width="0.305439"/>
<rect x="0.21638" width="210.338" height="210.338" transform="matrix(0.708422 -0.705789 0.708422 0.705789 41.0065 189.619)" stroke="#C0B8C9" stroke-width="0.305439"/>
<rect x="83.8695" y="83.6881" width="212.052" height="211.263" stroke="#C0B8C9" stroke-width="0.305439"/>
<rect x="0.43276" width="173.682" height="172.78" transform="matrix(0.708422 -0.705789 0.708422 0.705789 67.5734 189.926)" stroke="#9071AF" stroke-width="0.610878"/>
<rect x="103.78" y="276.333" width="173.357" height="173.102" transform="rotate(-90 103.78 276.333)" stroke="#9071AF" stroke-width="0.610878"/>
<g filter="url(#filter0_d_273_3150)">
<rect x="68.1741" y="67.5042" width="244.546" height="244.177" stroke="#9071AF" stroke-width="1.83263" shape-rendering="crispEdges"/>
</g>
<g filter="url(#filter1_d_273_3150)">
<rect x="1.29828" width="242.954" height="242.954" transform="matrix(0.708422 -0.705789 0.708422 0.705789 17.1539 190.523)" stroke="#9071AF" stroke-width="1.83263" shape-rendering="crispEdges"/>
</g>
<path d="M128.15 41.3019L189.899 17.0035L251.647 41.3019L251.652 41.3038L312.587 67.554L338.977 128.167L338.979 128.171L363.406 189.593L338.979 251.014L338.977 251.018L312.587 311.631L251.652 337.881L251.647 337.883L189.899 362.182L128.15 337.883L128.145 337.881L67.2098 311.631L40.8201 251.018L40.8182 251.014L16.3909 189.593L40.8182 128.171L40.8201 128.167L67.2098 67.554L128.145 41.3038L128.15 41.3019Z" stroke="#C0B8C9" stroke-width="0.305439"/>
<g filter="url(#filter2_d_273_3150)">
<ellipse cx="190.177" cy="189.593" rx="15.3072" ry="15.3643" transform="rotate(-90 190.177 189.593)" fill="white"/>
<path d="M206.458 189.593C206.458 180.63 199.165 173.37 190.177 173.37C181.189 173.37 173.896 180.63 173.896 189.593C173.896 198.557 181.189 205.817 190.177 205.817C199.165 205.817 206.458 198.557 206.458 189.593Z" stroke="#9071AF" stroke-width="1.83263"/>
</g>
<path d="M324.915 190.066C324.915 183.857 319.863 178.827 313.635 178.827C307.406 178.827 302.355 183.857 302.355 190.066C302.355 196.274 307.406 201.305 313.635 201.305C319.863 201.305 324.915 196.274 324.915 190.066Z" fill="white" stroke="#9071AF" stroke-width="0.610878"/>
<path d="M289.797 190.066C289.797 183.857 284.746 178.827 278.517 178.827C272.289 178.827 267.238 183.857 267.238 190.066C267.238 196.274 272.289 201.305 278.518 201.305C284.746 201.305 289.797 196.274 289.797 190.066Z" fill="white" stroke="#C0B8C9" stroke-width="0.610878"/>
<path d="M349.608 190.066C349.608 183.857 344.557 178.827 338.328 178.827C332.099 178.827 327.048 183.857 327.048 190.066C327.048 196.274 332.099 201.305 338.328 201.305C344.557 201.305 349.608 196.274 349.608 190.066Z" fill="white" stroke="#9071AF" stroke-width="0.610878"/>
<g filter="url(#filter3_d_273_3150)">
<ellipse cx="363.019" cy="190.066" rx="10.9337" ry="10.9745" transform="rotate(-90 363.019 190.066)" fill="white"/>
<path d="M374.91 190.066C374.91 183.518 369.583 178.216 363.019 178.216C356.456 178.216 351.129 183.518 351.129 190.066C351.129 196.614 356.456 201.916 363.019 201.916C369.583 201.916 374.91 196.614 374.91 190.066Z" stroke="#9071AF" stroke-width="1.83263"/>
</g>
<path d="M95.4886 154.605C95.4886 149.906 99.3115 146.099 104.025 146.099C108.738 146.099 112.561 149.906 112.561 154.605C112.561 159.304 108.738 163.111 104.025 163.111C99.3115 163.111 95.4886 159.304 95.4886 154.605Z" fill="white" stroke="#9071AF" stroke-width="0.610878"/>
<path d="M268.885 154.605C268.885 149.906 272.708 146.099 277.421 146.099C282.135 146.099 285.958 149.906 285.958 154.605C285.958 159.304 282.135 163.111 277.421 163.111C272.708 163.111 268.885 159.304 268.885 154.605Z" fill="white" stroke="#9071AF" stroke-width="0.610878"/>
<path d="M268.885 225.128C268.885 220.43 272.708 216.623 277.421 216.623C282.135 216.623 285.958 220.43 285.958 225.128C285.958 229.827 282.135 233.634 277.421 233.634C272.708 233.634 268.885 229.827 268.885 225.128Z" fill="white" stroke="#9071AF" stroke-width="0.610878"/>
<path d="M95.4886 225.128C95.4886 220.43 99.3115 216.623 104.025 216.623C108.738 216.623 112.561 220.43 112.561 225.128C112.561 229.827 108.738 233.634 104.025 233.634C99.3115 233.634 95.4886 229.827 95.4886 225.128Z" fill="white" stroke="#9071AF" stroke-width="0.610878"/>
<path d="M57.0775 190.066C57.0775 183.857 62.1288 178.827 68.3575 178.827C74.5862 178.827 79.6375 183.857 79.6375 190.066C79.6375 196.274 74.5862 201.305 68.3575 201.305C62.1288 201.305 57.0775 196.274 57.0775 190.066Z" fill="white" stroke="#9071AF" stroke-width="0.610878"/>
<path d="M91.101 190.066C91.101 183.857 96.1523 178.827 102.381 178.827C108.61 178.827 113.661 183.857 113.661 190.066C113.661 196.274 108.61 201.305 102.381 201.305C96.1523 201.305 91.101 196.274 91.101 190.066Z" fill="white" stroke="#C0B8C9" stroke-width="0.610878"/>
<path d="M190.02 89.7907C183.791 89.7907 178.74 94.8216 178.74 101.03C178.74 107.238 183.791 112.269 190.02 112.269C196.248 112.269 201.3 107.238 201.3 101.03C201.3 94.8216 196.248 89.7907 190.02 89.7907Z" fill="white" stroke="#C0B8C9" stroke-width="0.610878"/>
<path d="M190.02 288.303C183.791 288.303 178.74 283.272 178.74 277.063C178.74 270.855 183.791 265.824 190.02 265.824C196.248 265.824 201.3 270.855 201.3 277.063C201.3 283.272 196.248 288.303 190.02 288.303Z" fill="white" stroke="#C0B8C9" stroke-width="0.610878"/>
<path d="M120.404 119.39C115.998 123.778 115.998 130.894 120.404 135.283C124.809 139.672 131.951 139.672 136.357 135.283C140.762 130.894 140.762 123.778 136.357 119.39C131.951 115.001 124.809 115.001 120.404 119.39Z" fill="white" stroke="#9071AF" stroke-width="0.610878"/>
<path d="M260.471 259.266C256.065 263.655 248.923 263.655 244.518 259.266C240.112 254.877 240.112 247.761 244.518 243.372C248.923 238.983 256.065 238.983 260.471 243.372C264.876 247.761 264.876 254.877 260.471 259.266Z" fill="white" stroke="#9071AF" stroke-width="0.610878"/>
<circle cx="10.9542" cy="10.9542" r="11.2596" transform="matrix(0.708422 0.705789 -0.708422 0.705789 129.109 236.952)" fill="white" stroke="#9071AF" stroke-width="0.610878"/>
<path d="M261.819 119.792C266.224 124.181 266.224 131.297 261.819 135.686C257.414 140.075 250.271 140.075 245.866 135.686C241.461 131.297 241.461 124.181 245.866 119.792C250.271 115.403 257.414 115.403 261.819 119.792Z" fill="white" stroke="#9071AF" stroke-width="0.610878"/>
<path d="M32.3842 190.066C32.3842 183.857 37.4355 178.827 43.6641 178.827C49.8928 178.827 54.9441 183.857 54.9441 190.066C54.9441 196.274 49.8928 201.305 43.6641 201.305C37.4355 201.305 32.3842 196.274 32.3842 190.066Z" fill="white" stroke="#9071AF" stroke-width="0.610878"/>
<g filter="url(#filter4_d_273_3150)">
<ellipse cx="10.9337" cy="10.9745" rx="10.9337" ry="10.9745" transform="matrix(4.38744e-08 -1 -1 -4.3549e-08 29.9492 201)" fill="white"/>
<path d="M7.08384 190.066C7.08384 183.518 12.4108 178.216 18.9747 178.216C25.5386 178.216 30.8655 183.518 30.8655 190.066C30.8655 196.614 25.5386 201.916 18.9747 201.916C12.4108 201.916 7.08384 196.614 7.08384 190.066Z" stroke="#9071AF" stroke-width="1.83263"/>
</g>
<path d="M284.002 267.092C279.597 262.703 272.454 262.703 268.049 267.092C263.644 271.481 263.644 278.597 268.049 282.986C272.454 287.375 279.597 287.375 284.002 282.986C288.407 278.597 288.407 271.481 284.002 267.092Z" fill="white" stroke="#9071AF" stroke-width="0.610878"/>
<path d="M301.434 284.525C297.028 280.136 289.886 280.136 285.48 284.525C281.075 288.913 281.075 296.029 285.48 300.418C289.886 304.807 297.028 304.807 301.434 300.418C305.839 296.029 305.839 288.913 301.434 284.525Z" fill="white" stroke="#9071AF" stroke-width="0.610878"/>
<g filter="url(#filter5_d_273_3150)">
<ellipse cx="10.9542" cy="10.9542" rx="10.9542" ry="10.9542" transform="matrix(-0.708422 -0.705789 0.708422 -0.705789 310.879 325.355)" fill="white"/>
<path d="M319.288 301.515C314.644 296.888 307.114 296.888 302.47 301.515C297.825 306.142 297.825 313.644 302.47 318.271C307.114 322.898 314.644 322.898 319.288 318.271C323.933 313.644 323.933 306.142 319.288 301.515Z" stroke="#9071AF" stroke-width="1.83263"/>
</g>
<path d="M97.7766 112.656C93.3712 108.267 93.3712 101.151 97.7766 96.7623C102.182 92.3734 109.324 92.3734 113.73 96.7623C118.135 101.151 118.135 108.267 113.73 112.656C109.324 117.045 102.182 117.045 97.7766 112.656Z" fill="white" stroke="#9071AF" stroke-width="0.610878"/>
<path d="M80.4191 95.2264C76.0138 90.8375 76.0138 83.7216 80.4191 79.3326C84.8245 74.9437 91.9669 74.9437 96.3722 79.3326C100.778 83.7216 100.778 90.8375 96.3722 95.2264C91.9669 99.6154 84.8245 99.6154 80.4191 95.2264Z" fill="white" stroke="#9071AF" stroke-width="0.610878"/>
<g filter="url(#filter6_d_273_3150)">
<ellipse cx="10.9542" cy="10.9542" rx="10.9542" ry="10.9542" transform="matrix(-0.708422 -0.705789 -0.708422 0.705789 86.2246 69.5894)" fill="white"/>
<path d="M62.295 77.9674C57.6506 73.3403 57.6506 65.8384 62.295 61.2113C66.9393 56.5842 74.4693 56.5842 79.1136 61.2113C83.7579 65.8384 83.7579 73.3403 79.1136 77.9674C74.4693 82.5945 66.9393 82.5945 62.295 77.9674Z" stroke="#9071AF" stroke-width="1.83263"/>
</g>
<path d="M284.217 97.525C279.811 93.1361 272.669 93.1361 268.264 97.525C263.858 101.914 263.858 109.03 268.264 113.419C272.669 117.808 279.811 117.808 284.217 113.419C288.622 109.03 288.622 101.914 284.217 97.525Z" fill="white" stroke="#9071AF" stroke-width="0.610878"/>
<path d="M301.863 79.8783C297.458 75.4893 290.316 75.4893 285.91 79.8783C281.505 84.2672 281.505 91.3831 285.91 95.7721C290.315 100.161 297.458 100.161 301.863 95.7721C306.269 91.3831 306.269 84.2672 301.863 79.8783Z" fill="white" stroke="#9071AF" stroke-width="0.610878"/>
<g filter="url(#filter7_d_273_3150)">
<ellipse cx="10.9542" cy="10.9542" rx="10.9542" ry="10.9542" transform="matrix(-0.708422 -0.705789 0.708422 -0.705789 311.311 85.8633)" fill="white"/>
<path d="M319.72 62.0226C315.076 57.3955 307.546 57.3955 302.901 62.0226C298.257 66.6496 298.257 74.1516 302.901 78.7787C307.546 83.4058 315.076 83.4058 319.72 78.7787C324.364 74.1516 324.364 66.6496 319.72 62.0226Z" stroke="#9071AF" stroke-width="1.83263"/>
</g>
<path d="M99.2551 282.369C94.8498 277.98 94.8498 270.864 99.2551 266.475C103.66 262.087 110.803 262.087 115.208 266.475C119.613 270.864 119.613 277.98 115.208 282.369C110.803 286.758 103.66 286.758 99.2551 282.369Z" fill="white" stroke="#9071AF" stroke-width="0.610878"/>
<path d="M81.6789 299.945C77.2736 295.556 77.2736 288.44 81.6789 284.051C86.0842 279.662 93.2267 279.662 97.632 284.051C102.037 288.44 102.037 295.556 97.632 299.945C93.2267 304.334 86.0842 304.334 81.6789 299.945Z" fill="white" stroke="#9071AF" stroke-width="0.610878"/>
<g filter="url(#filter8_d_273_3150)">
<ellipse cx="10.9542" cy="10.9542" rx="10.9542" ry="10.9542" transform="matrix(-0.708422 -0.705789 -0.708422 0.705789 87.0547 310.121)" fill="white"/>
<path d="M63.1251 318.499C58.4807 313.872 58.4807 306.37 63.1251 301.743C67.7694 297.115 75.2993 297.115 79.9437 301.743C84.588 306.37 84.588 313.872 79.9437 318.499C75.2993 323.126 67.7694 323.126 63.1251 318.499Z" stroke="#9071AF" stroke-width="1.83263"/>
</g>
<path d="M153.412 94.7109C148.698 94.7109 144.875 98.518 144.875 103.217C144.875 107.915 148.698 111.722 153.412 111.722C158.125 111.722 161.948 107.915 161.948 103.217C161.948 98.518 158.125 94.7109 153.412 94.7109Z" fill="white" stroke="#9071AF" stroke-width="0.610878"/>
<path d="M228.586 94.7109C223.872 94.7109 220.049 98.518 220.049 103.217C220.049 107.915 223.872 111.722 228.586 111.722C233.299 111.722 237.122 107.915 237.122 103.217C237.122 98.518 233.299 94.7109 228.586 94.7109Z" fill="white" stroke="#9071AF" stroke-width="0.610878"/>
<path d="M190.02 55.8959C183.791 55.8959 178.74 60.9268 178.74 67.1351C178.74 73.3434 183.791 78.3743 190.02 78.3743C196.248 78.3743 201.3 73.3434 201.3 67.1351C201.3 60.9268 196.248 55.8959 190.02 55.8959Z" fill="white" stroke="#9071AF" stroke-width="0.610878"/>
<path d="M190.02 31.2953C183.791 31.2953 178.74 36.3262 178.74 42.5345C178.74 48.7428 183.791 53.7737 190.02 53.7737C196.248 53.7737 201.3 48.7428 201.3 42.5345C201.3 36.3262 196.248 31.2953 190.02 31.2953Z" fill="white" stroke="#9071AF" stroke-width="0.610878"/>
<g filter="url(#filter9_d_273_3150)">
<ellipse cx="190.02" cy="17.9339" rx="10.9745" ry="10.9337" transform="rotate(180 190.02 17.9339)" fill="white"/>
<path d="M190.02 6.08386C183.456 6.08386 178.129 11.3861 178.129 17.9339C178.129 24.4818 183.456 29.784 190.02 29.784C196.584 29.784 201.91 24.4818 201.91 17.9339C201.91 11.3861 196.584 6.08386 190.02 6.08386Z" stroke="#9071AF" stroke-width="1.83263"/>
</g>
<path d="M153.412 284.476C148.698 284.476 144.875 280.669 144.875 275.97C144.875 271.271 148.698 267.464 153.412 267.464C158.125 267.464 161.948 271.271 161.948 275.97C161.948 280.669 158.125 284.476 153.412 284.476Z" fill="white" stroke="#9071AF" stroke-width="0.610878"/>
<path d="M228.586 285.022C223.872 285.022 220.049 281.215 220.049 276.517C220.049 271.818 223.872 268.011 228.586 268.011C233.299 268.011 237.122 271.818 237.122 276.517C237.122 281.215 233.299 285.022 228.586 285.022Z" fill="white" stroke="#9071AF" stroke-width="0.610878"/>
<path d="M190.02 321.104C183.791 321.104 178.74 316.073 178.74 309.865C178.74 303.657 183.791 298.626 190.02 298.626C196.248 298.626 201.3 303.657 201.3 309.865C201.3 316.073 196.248 321.104 190.02 321.104Z" fill="white" stroke="#9071AF" stroke-width="0.610878"/>
<path d="M190.02 345.705C183.791 345.705 178.74 340.674 178.74 334.465C178.74 328.257 183.791 323.226 190.02 323.226C196.248 323.226 201.3 328.257 201.3 334.465C201.3 340.674 196.248 345.705 190.02 345.705Z" fill="white" stroke="#9071AF" stroke-width="0.610878"/>
<g filter="url(#filter10_d_273_3150)">
<ellipse cx="10.9745" cy="10.9337" rx="10.9745" ry="10.9337" transform="matrix(-1 0 0 1 200.994 348.132)" fill="white"/>
<path d="M190.02 370.916C183.456 370.916 178.129 365.614 178.129 359.066C178.129 352.518 183.456 347.216 190.02 347.216C196.584 347.216 201.91 352.518 201.91 359.066C201.91 365.614 196.584 370.916 190.02 370.916Z" stroke="#9071AF" stroke-width="1.83263"/>
</g>
<path d="M203.07 211.22C207.632 211.22 211.332 207.535 211.332 202.987C211.332 198.44 207.632 194.755 203.07 194.755C198.508 194.755 194.808 198.44 194.808 202.987C194.808 207.535 198.508 211.22 203.07 211.22Z" fill="white" stroke="#9071AF" stroke-width="0.610878"/>
<defs>
<filter id="filter0_d_273_3150" x="61.149" y="61.7009" width="258.596" height="258.227" filterUnits="userSpaceOnUse" color-interpolation-filters="sRGB">
<feFlood flood-opacity="0" result="BackgroundImageFix"/>
<feColorMatrix in="SourceAlpha" type="matrix" values="0 0 0 0 0 0 0 0 0 0 0 0 0 0 0 0 0 0 127 0" result="hardAlpha"/>
<feOffset dy="1.22176"/>
<feGaussianBlur stdDeviation="3.05439"/>
<feComposite in2="hardAlpha" operator="out"/>
<feColorMatrix type="matrix" values="0 0 0 0 0.745098 0 0 0 0 0.580392 0 0 0 0 0.909804 0 0 0 1 0"/>
<feBlend mode="normal" in2="BackgroundImageFix" result="effect1_dropShadow_273_3150"/>
<feBlend mode="normal" in="SourceGraphic" in2="effect1_dropShadow_273_3150" result="shape"/>
</filter>
<filter id="filter1_d_273_3150" x="10.6666" y="11.9523" width="359.042" height="357.753" filterUnits="userSpaceOnUse" color-interpolation-filters="sRGB">
<feFlood flood-opacity="0" result="BackgroundImageFix"/>
<feColorMatrix in="SourceAlpha" type="matrix" values="0 0 0 0 0 0 0 0 0 0 0 0 0 0 0 0 0 0 127 0" result="hardAlpha"/>
<feOffset dy="1.22176"/>
<feGaussianBlur stdDeviation="3.05439"/>
<feComposite in2="hardAlpha" operator="out"/>
<feColorMatrix type="matrix" values="0 0 0 0 0.745098 0 0 0 0 0.580392 0 0 0 0 0.909804 0 0 0 1 0"/>
<feBlend mode="normal" in2="BackgroundImageFix" result="effect1_dropShadow_273_3150"/>
<feBlend mode="normal" in="SourceGraphic" in2="effect1_dropShadow_273_3150" result="shape"/>
</filter>
<filter id="filter2_d_273_3150" x="166.872" y="167.567" width="46.6101" height="46.4971" filterUnits="userSpaceOnUse" color-interpolation-filters="sRGB">
<feFlood flood-opacity="0" result="BackgroundImageFix"/>
<feColorMatrix in="SourceAlpha" type="matrix" values="0 0 0 0 0 0 0 0 0 0 0 0 0 0 0 0 0 0 127 0" result="hardAlpha"/>
<feOffset dy="1.22176"/>
<feGaussianBlur stdDeviation="3.05439"/>
<feComposite in2="hardAlpha" operator="out"/>
<feColorMatrix type="matrix" values="0 0 0 0 0.745098 0 0 0 0 0.580392 0 0 0 0 0.909804 0 0 0 1 0"/>
<feBlend mode="normal" in2="BackgroundImageFix" result="effect1_dropShadow_273_3150"/>
<feBlend mode="normal" in="SourceGraphic" in2="effect1_dropShadow_273_3150" result="shape"/>
</filter>
<filter id="filter3_d_273_3150" x="344.104" y="172.412" width="37.8308" height="37.7503" filterUnits="userSpaceOnUse" color-interpolation-filters="sRGB">
<feFlood flood-opacity="0" result="BackgroundImageFix"/>
<feColorMatrix in="SourceAlpha" type="matrix" values="0 0 0 0 0 0 0 0 0 0 0 0 0 0 0 0 0 0 127 0" result="hardAlpha"/>
<feOffset dy="1.22176"/>
<feGaussianBlur stdDeviation="3.05439"/>
<feComposite in2="hardAlpha" operator="out"/>
<feColorMatrix type="matrix" values="0 0 0 0 0.745098 0 0 0 0 0.580392 0 0 0 0 0.909804 0 0 0 1 0"/>
<feBlend mode="normal" in2="BackgroundImageFix" result="effect1_dropShadow_273_3150"/>
<feBlend mode="normal" in="SourceGraphic" in2="effect1_dropShadow_273_3150" result="shape"/>
</filter>
<filter id="filter4_d_273_3150" x="0.0591855" y="172.412" width="37.8308" height="37.7503" filterUnits="userSpaceOnUse" color-interpolation-filters="sRGB">
<feFlood flood-opacity="0" result="BackgroundImageFix"/>
<feColorMatrix in="SourceAlpha" type="matrix" values="0 0 0 0 0 0 0 0 0 0 0 0 0 0 0 0 0 0 127 0" result="hardAlpha"/>
<feOffset dy="1.22176"/>
<feGaussianBlur stdDeviation="3.05439"/>
<feComposite in2="hardAlpha" operator="out"/>
<feColorMatrix type="matrix" values="0 0 0 0 0.745098 0 0 0 0 0.580392 0 0 0 0 0.909804 0 0 0 1 0"/>
<feBlend mode="normal" in2="BackgroundImageFix" result="effect1_dropShadow_273_3150"/>
<feBlend mode="normal" in="SourceGraphic" in2="effect1_dropShadow_273_3150" result="shape"/>
</filter>
<filter id="filter5_d_273_3150" x="291.96" y="292.243" width="37.8387" height="37.7434" filterUnits="userSpaceOnUse" color-interpolation-filters="sRGB">
<feFlood flood-opacity="0" result="BackgroundImageFix"/>
<feColorMatrix in="SourceAlpha" type="matrix" values="0 0 0 0 0 0 0 0 0 0 0 0 0 0 0 0 0 0 127 0" result="hardAlpha"/>
<feOffset dy="1.22176"/>
<feGaussianBlur stdDeviation="3.05439"/>
<feComposite in2="hardAlpha" operator="out"/>
<feColorMatrix type="matrix" values="0 0 0 0 0.745098 0 0 0 0 0.580392 0 0 0 0 0.909804 0 0 0 1 0"/>
<feBlend mode="normal" in2="BackgroundImageFix" result="effect1_dropShadow_273_3150"/>
<feBlend mode="normal" in="SourceGraphic" in2="effect1_dropShadow_273_3150" result="shape"/>
</filter>
<filter id="filter6_d_273_3150" x="51.7857" y="51.9391" width="37.8387" height="37.7437" filterUnits="userSpaceOnUse" color-interpolation-filters="sRGB">
<feFlood flood-opacity="0" result="BackgroundImageFix"/>
<feColorMatrix in="SourceAlpha" type="matrix" values="0 0 0 0 0 0 0 0 0 0 0 0 0 0 0 0 0 0 127 0" result="hardAlpha"/>
<feOffset dy="1.22176"/>
<feGaussianBlur stdDeviation="3.05439"/>
<feComposite in2="hardAlpha" operator="out"/>
<feColorMatrix type="matrix" values="0 0 0 0 0.745098 0 0 0 0 0.580392 0 0 0 0 0.909804 0 0 0 1 0"/>
<feBlend mode="normal" in2="BackgroundImageFix" result="effect1_dropShadow_273_3150"/>
<feBlend mode="normal" in="SourceGraphic" in2="effect1_dropShadow_273_3150" result="shape"/>
</filter>
<filter id="filter7_d_273_3150" x="292.391" y="52.7507" width="37.8387" height="37.7434" filterUnits="userSpaceOnUse" color-interpolation-filters="sRGB">
<feFlood flood-opacity="0" result="BackgroundImageFix"/>
<feColorMatrix in="SourceAlpha" type="matrix" values="0 0 0 0 0 0 0 0 0 0 0 0 0 0 0 0 0 0 127 0" result="hardAlpha"/>
<feOffset dy="1.22176"/>
<feGaussianBlur stdDeviation="3.05439"/>
<feComposite in2="hardAlpha" operator="out"/>
<feColorMatrix type="matrix" values="0 0 0 0 0.745098 0 0 0 0 0.580392 0 0 0 0 0.909804 0 0 0 1 0"/>
<feBlend mode="normal" in2="BackgroundImageFix" result="effect1_dropShadow_273_3150"/>
<feBlend mode="normal" in="SourceGraphic" in2="effect1_dropShadow_273_3150" result="shape"/>
</filter>
<filter id="filter8_d_273_3150" x="52.6158" y="292.471" width="37.8387" height="37.7434" filterUnits="userSpaceOnUse" color-interpolation-filters="sRGB">
<feFlood flood-opacity="0" result="BackgroundImageFix"/>
<feColorMatrix in="SourceAlpha" type="matrix" values="0 0 0 0 0 0 0 0 0 0 0 0 0 0 0 0 0 0 127 0" result="hardAlpha"/>
<feOffset dy="1.22176"/>
<feGaussianBlur stdDeviation="3.05439"/>
<feComposite in2="hardAlpha" operator="out"/>
<feColorMatrix type="matrix" values="0 0 0 0 0.745098 0 0 0 0 0.580392 0 0 0 0 0.909804 0 0 0 1 0"/>
<feBlend mode="normal" in2="BackgroundImageFix" result="effect1_dropShadow_273_3150"/>
<feBlend mode="normal" in="SourceGraphic" in2="effect1_dropShadow_273_3150" result="shape"/>
</filter>
<filter id="filter9_d_273_3150" x="171.104" y="0.280454" width="37.8308" height="37.7503" filterUnits="userSpaceOnUse" color-interpolation-filters="sRGB">
<feFlood flood-opacity="0" result="BackgroundImageFix"/>
<feColorMatrix in="SourceAlpha" type="matrix" values="0 0 0 0 0 0 0 0 0 0 0 0 0 0 0 0 0 0 127 0" result="hardAlpha"/>
<feOffset dy="1.22176"/>
<feGaussianBlur stdDeviation="3.05439"/>
<feComposite in2="hardAlpha" operator="out"/>
<feColorMatrix type="matrix" values="0 0 0 0 0.745098 0 0 0 0 0.580392 0 0 0 0 0.909804 0 0 0 1 0"/>
<feBlend mode="normal" in2="BackgroundImageFix" result="effect1_dropShadow_273_3150"/>
<feBlend mode="normal" in="SourceGraphic" in2="effect1_dropShadow_273_3150" result="shape"/>
</filter>
<filter id="filter10_d_273_3150" x="171.104" y="341.413" width="37.8308" height="37.7503" filterUnits="userSpaceOnUse" color-interpolation-filters="sRGB">
<feFlood flood-opacity="0" result="BackgroundImageFix"/>
<feColorMatrix in="SourceAlpha" type="matrix" values="0 0 0 0 0 0 0 0 0 0 0 0 0 0 0 0 0 0 127 0" result="hardAlpha"/>
<feOffset dy="1.22176"/>
<feGaussianBlur stdDeviation="3.05439"/>
<feComposite in2="hardAlpha" operator="out"/>
<feColorMatrix type="matrix" values="0 0 0 0 0.745098 0 0 0 0 0.580392 0 0 0 0 0.909804 0 0 0 1 0"/>
<feBlend mode="normal" in2="BackgroundImageFix" result="effect1_dropShadow_273_3150"/>
<feBlend mode="normal" in="SourceGraphic" in2="effect1_dropShadow_273_3150" result="shape"/>
</filter>
</defs>
</svg>
