<svg width="421" height="423" viewBox="0 0 421 423" fill="none" xmlns="http://www.w3.org/2000/svg">
<path d="M171.958 117.592L397.915 210.608L171.958 303.623L171.958 117.592Z" fill="#B363BF" fill-opacity="0.07" stroke="white" stroke-width="1.11082"/>
<path d="M117.154 171.368L249.081 117.347L249.234 305.383L21.868 212.018L117.147 171.371L117.154 171.368Z" fill="#B363BF" fill-opacity="0.07" stroke="white" stroke-width="1.11082"/>
<path d="M304.738 172.038L210.568 398.215L116.399 172.038L304.738 172.038Z" fill="#B363BF" fill-opacity="0.07" stroke="white" stroke-width="1.11082"/>
<line x1="21.8913" y1="211.785" x2="398.043" y2="210.435" stroke="white" stroke-width="1.11082"/>
<path d="M257.23 136.521L303.211 249.807L116.255 250.474L209.636 24.6911L257.227 136.512L257.23 136.521Z" fill="#B363BF" fill-opacity="0.07" stroke="white" stroke-width="1.11082"/>
<path d="M210.58 397.605L209.966 24.9372" stroke="white" stroke-width="1.11082"/>
<path d="M116.315 171.834L342.397 79.2324L249.054 305.751L116.315 171.834Z" stroke="white" stroke-width="1.11082"/>
<line x1="78.6981" y1="341.146" x2="342.476" y2="78.7147" stroke="white" stroke-width="1.11082"/>
<path d="M116.3 172.159L342.399 79.2344L249.475 305.333L116.3 172.159Z" fill="#B363BF" fill-opacity="0.07" stroke="white" stroke-width="1.11082"/>
<path d="M341.958 343.794L78.4194 78.4335" stroke="white" stroke-width="1.11082"/>
<path d="M171.408 304.172L78.3531 78.3531L304.172 171.408L171.408 304.172Z" fill="#B363BF" fill-opacity="0.07" stroke="white" stroke-width="1.11082"/>
<path d="M249.542 117.858L342.33 343.964L116.225 251.175L249.542 117.858Z" fill="#B363BF" fill-opacity="0.07" stroke="white" stroke-width="1.11082"/>
<path d="M303.53 248.909L78.7029 341.555L171.349 116.728L303.53 248.909Z" stroke="white" stroke-width="1.11082"/>
<path d="M303.53 248.909L78.7029 341.555L171.349 116.728L303.53 248.909Z" fill="#B363BF" fill-opacity="0.07" stroke="white" stroke-width="1.11082"/>
<path d="M171.946 116.789L247.984 303.856" stroke="white" stroke-width="1.11082"/>
<line x1="115.882" y1="250.859" x2="304.294" y2="171.457" stroke="white" stroke-width="1.11082"/>
<path d="M116.432 172.304L303.499 249.014" stroke="white" stroke-width="1.11082"/>
<line x1="171.437" y1="303.64" x2="249.432" y2="117.493" stroke="white" stroke-width="1.11082"/>
<circle cx="210.994" cy="288.674" r="6.02353" fill="white"/>
<circle cx="130.373" cy="210.83" r="6.02353" fill="white"/>
<circle cx="289.763" cy="210.823" r="6.02353" fill="white"/>
<circle cx="248.525" cy="173.302" r="3.70678" fill="white"/>
<circle cx="248.521" cy="250.209" r="3.70678" fill="white"/>
<circle cx="171.611" cy="250.216" r="3.70678" fill="white"/>
<circle cx="171.601" cy="173.299" r="3.70678" fill="white"/>
<circle cx="210.993" cy="131.131" r="6.02353" fill="white"/>
<path d="M220.183 222.54L218.864 224.605C216.928 227.636 213.99 229.891 210.562 230.977V230.977C210.559 230.978 210.559 230.978 210.557 230.979C210.469 231.012 205.187 232.981 198.059 230.304C194.403 228.585 191.423 225.664 189.599 222.011C187.775 218.359 187.528 214.067 188.32 210.05C189.113 206.034 191.226 203.253 194.295 200.599C197.363 197.945 201.596 196.978 203.92 196.891C207.945 196.74 210.89 197.556 210.89 197.556L208.616 197.779C198.418 198.782 192.457 209.768 197.176 218.865V218.865C201.575 227.344 212.833 229.319 219.855 222.842L220.183 222.54Z" fill="white"/>
</svg>
