<svg width="312" height="351" viewBox="0 0 312 351" fill="none" xmlns="http://www.w3.org/2000/svg">
<path d="M133.08 339.08C135.545 338.91 138.001 338.622 140.445 338.207C137.768 337.822 135.058 337.636 132.36 337.606C132.347 337.551 132.338 337.487 132.33 337.428C133.296 336.208 134.206 334.955 135.011 333.62C134.016 334.455 133.05 335.336 132.152 336.267C131.729 333.506 131.11 330.77 130.229 328.102C130.242 330.757 130.322 333.421 130.483 336.077C129.526 335.141 128.505 334.268 127.4 333.498C128.421 334.904 129.463 336.276 130.551 337.619C127.006 337.682 123.465 338.029 119.958 338.61C123.19 339.101 126.443 339.27 129.696 339.211C128.92 340.3 128.226 341.456 127.662 342.684C128.692 341.604 129.725 340.507 130.708 339.381C131.008 342.807 131.479 346.221 132.199 349.588C132.406 350.52 132.415 351.13 132.508 349.728C132.847 346.5 132.864 343.264 132.609 340.058C133.52 341.079 134.469 342.083 135.481 343.078C134.795 341.672 133.99 340.329 133.08 339.08Z" fill="white"/>
<path d="M141.702 300.237C141.702 300.22 141.702 300.211 141.694 300.19C143.96 299.779 146.2 299.254 148.432 298.682C146.098 298.577 143.782 298.716 141.486 299.017C141.469 298.945 141.448 298.869 141.44 298.793C142.079 297.751 142.676 296.7 143.21 295.603C142.52 296.328 141.863 297.086 141.245 297.874C140.766 295.68 140.127 293.511 139.275 291.419C139.368 293.981 139.601 296.544 139.97 299.085C138.805 298.344 137.636 297.619 136.433 296.954C137.242 297.857 138.11 298.67 139.051 299.411C136.789 299.826 134.553 300.36 132.329 300.991C134.701 301.071 137.064 300.893 139.407 300.559C138.767 301.635 138.208 302.761 137.746 303.943C138.627 302.901 139.445 301.804 140.22 300.69C140.69 303.485 141.346 306.243 142.227 308.945C142.32 306.412 142.198 303.871 141.872 301.364C143.07 302.079 144.337 302.685 145.637 303.202C144.362 302.143 143.053 301.169 141.702 300.237Z" fill="white"/>
<path d="M91.5586 314.358C93.9304 313.075 96.171 311.507 98.3437 309.885C95.9888 310.652 93.761 311.702 91.584 312.85C91.8593 311.723 92.0541 310.588 92.1473 309.424C91.7153 310.495 91.2282 311.808 90.7793 313.13C90.1058 311.207 89.3265 309.322 88.4455 307.471C88.615 309.508 89.0004 311.516 89.5595 313.477C88.5768 313.1 87.5646 312.774 86.5227 312.549C87.4163 313.13 88.3608 313.625 89.3265 314.07C87.5646 315.053 85.8111 316.078 84.0322 317.035C86.1669 316.696 88.166 316.01 90.0677 315.108C90.0847 315.146 90.0974 315.192 90.1143 315.23C89.7035 316.628 89.4027 317.941 89.335 318.873C89.7585 318.017 90.1439 317.136 90.487 316.243C91.0715 317.738 91.7619 319.182 92.5963 320.559C92.7106 320.758 92.825 320.944 92.9351 321.143C92.5412 319.021 92.0075 316.937 91.3595 314.892C92.1558 315.175 92.9647 315.429 93.7864 315.624C93.0749 315.154 92.3252 314.743 91.5586 314.358Z" fill="white"/>
<path d="M29.4931 265.269C32.3393 264.503 35.1517 263.533 37.8708 262.326C35.1601 262.66 32.4622 263.13 29.7811 263.702C30.1581 262.974 30.5139 262.232 30.823 261.47C30.7299 261.584 30.6367 261.686 30.5435 261.8C30.0056 262.436 29.5016 263.105 29.023 263.787C28.3199 260.945 27.4008 258.158 26.2318 255.464C26.4267 258.158 26.7909 260.822 27.3161 263.461C26.5029 262.876 25.6389 262.364 24.7113 261.94C25.5626 262.698 26.397 263.486 27.2314 264.274C23.9786 265.074 20.7851 266.057 17.6636 267.29C21.0858 267.035 24.4699 266.519 27.7862 265.722C27.7862 265.739 27.7947 265.748 27.7947 265.769C27.206 266.836 26.6977 267.954 26.3335 269.115C26.9349 268.327 27.4855 267.522 28.0277 266.697C28.7223 269.454 29.5948 272.165 30.6833 274.812C30.5223 272.025 30.1581 269.251 29.6244 266.51C30.7299 267.522 31.865 268.509 33.0721 269.39C31.9836 267.933 30.8019 266.519 29.4931 265.269Z" fill="white"/>
<mask id="mask0_17_4515" style="mask-type:luminance" maskUnits="userSpaceOnUse" x="0" y="178" width="16" height="17">
<path d="M0.116699 178.437H15.6734V194.702H0.116699V178.437Z" fill="white"/>
</mask>
<g mask="url(#mask0_17_4515)">
<path d="M8.49878 187.427C10.68 187.312 12.874 186.995 15.0213 186.495C12.874 186.309 10.7266 186.262 8.58349 186.283C9.14257 185.466 9.65082 184.61 10.0701 183.699C9.42634 184.432 8.79526 185.156 8.17689 185.876C7.80417 183.373 7.19427 180.904 6.36836 178.503C6.40648 180.616 6.58437 183.251 6.87661 185.83C5.99564 185.025 5.0935 184.246 4.14053 183.522C4.8309 184.517 5.61869 185.436 6.43613 186.33C4.32688 186.385 2.21764 186.478 0.108398 186.58C2.31082 187.202 4.55983 187.465 6.80885 187.473C5.80928 188.685 4.85208 189.904 3.96264 191.196C5.11467 190.26 6.19047 189.227 7.15615 188.109C7.51193 190.616 7.96512 192.895 8.48608 194.352C8.64702 192.344 8.6089 190.324 8.43949 188.337C9.29504 189.125 10.176 189.883 11.0824 190.607C10.3158 189.46 9.43481 188.422 8.49878 187.427Z" fill="white"/>
</g>
<path d="M63.8039 151.624C66.1291 150.993 68.3993 150.167 70.5806 149.184C68.3146 149.447 66.0825 149.887 63.8716 150.412C64.2528 149.447 64.6001 148.46 64.8754 147.448C64.3037 148.299 63.7573 149.231 63.2617 150.188C62.7747 147.664 62.0631 145.186 61.0381 142.793C61.2923 145.241 61.6226 147.689 62.0801 150.112C61.3854 149.565 60.6739 149.04 59.9242 148.574C60.5257 149.332 61.2372 150.12 61.9953 150.882C59.7929 151.463 57.599 152.119 55.4177 152.793C57.7684 152.805 60.1021 152.496 62.3892 151.971C61.864 153.14 61.432 154.305 61.1228 155.393C61.7073 154.614 62.2114 153.779 62.6688 152.924C63.0542 154.567 63.5032 156.189 64.058 157.786C64.0029 155.965 63.842 154.165 63.6006 152.373C64.507 153.161 65.426 153.864 66.2689 154.381C65.5404 153.386 64.6933 152.475 63.8039 151.624Z" fill="white"/>
<path d="M104.821 160.714C103.114 160.613 101.411 160.735 99.7211 160.93C100.17 160.058 100.594 159.177 100.932 158.249C100.238 159.109 99.5432 160.049 98.9079 161.015C98.6241 158.885 98.1963 156.784 97.5568 154.73C97.4932 156.5 97.5398 158.436 97.6965 160.367C97.1629 159.766 96.6207 159.177 96.049 158.605C96.4513 159.524 96.9469 160.397 97.5186 161.214C95.4179 161.532 93.3298 161.904 91.2883 162.12C93.478 162.667 95.6932 162.637 97.8829 162.328C97.8956 162.413 97.9125 162.497 97.921 162.582C97.3238 163.624 96.7986 164.674 96.3963 165.695C97.0019 165.03 97.5483 164.319 98.0735 163.586C98.3446 165.331 98.73 166.983 99.234 168.38C99.3018 166.644 99.2552 164.907 99.1112 163.175C99.6829 163.793 100.284 164.382 100.894 164.937C100.386 163.942 99.7677 163.014 99.1112 162.12C101.064 161.786 102.965 161.248 104.821 160.714Z" fill="white"/>
<path d="M115.401 199.395C117.951 197.811 120.276 195.905 122.593 194.004C120.221 195.033 117.904 196.181 115.63 197.418C116.023 195.927 116.248 194.376 116.235 192.801C115.748 194.376 115.113 196.011 114.473 197.634C113.05 194.855 111.39 192.191 109.518 189.675C110.399 192.492 111.58 195.418 112.889 198.26C111.627 197.697 110.361 197.155 109.048 196.545C110.06 197.532 111.288 198.404 112.618 199.124C110.145 200.577 107.726 202.127 105.384 203.771C108.082 202.83 110.801 201.911 113.342 200.59C112.758 202.165 112.271 203.711 112.008 205.185C112.864 203.889 113.639 202.53 114.287 201.124C115.608 203.724 117.015 206.181 118.412 208.281C117.802 205.626 116.921 203.068 115.854 200.577C117.099 201.03 118.328 201.356 119.433 201.526C118.056 200.7 116.727 200.018 115.401 199.395Z" fill="white"/>
<path d="M173.384 153.001C176.459 152.683 179.398 152.137 181.706 151.302C179.102 151.218 176.493 151.285 173.909 151.51C174.574 150.489 175.171 149.418 175.696 148.312C174.815 149.231 173.896 150.282 173.045 151.37C172.774 149.185 172.342 147.016 171.685 144.907C171.601 146.969 171.63 149.202 171.77 151.425C170.957 150.705 170.093 150.044 169.157 149.464C169.69 150.227 170.317 151.04 171.012 151.849C168.64 152.175 166.289 152.653 163.973 153.331C166.383 153.403 169.081 153.357 171.74 153.153C170.965 154.305 170.3 155.47 169.868 156.567C170.618 155.779 171.33 154.962 172.016 154.127C172.287 156.482 172.706 158.744 173.346 160.658C173.447 158.528 173.447 156.381 173.308 154.25C174.197 155.055 175.116 155.758 176.018 156.258C175.209 155.114 174.337 154.026 173.384 153.001Z" fill="white"/>
<path d="M148.056 125.336C146.277 125.005 144.494 124.76 142.706 124.548C145.413 121.994 147.924 119.228 150.139 116.179C146.988 118.534 143.79 120.961 140.707 123.591C141.41 117.746 141.656 111.842 141.215 105.942C140.063 111.101 138.611 116.196 137.73 121.414C136.349 119.499 134.888 117.64 133.409 115.81C134.633 118.568 135.921 121.299 137.289 123.993C131.232 123.515 125.15 123.383 119.085 123.066C124.917 124.942 130.906 126.141 136.959 126.865C136.959 126.89 136.959 126.92 136.95 126.937C135.459 128.335 134.015 129.8 132.63 131.329C132.122 131.96 129.284 134.904 130.932 133.62C132.91 132.362 134.833 131.02 136.696 129.614C136.256 134.679 136.171 139.766 136.434 144.84C137.831 139.605 139.03 134.294 139.924 128.936C141.889 132.447 144.019 135.861 146.37 139.118C144.9 135.103 143.388 131.066 141.393 127.276C147.158 127.746 152.96 127.839 158.725 127.691C159.025 127.691 159.322 127.678 159.622 127.678C155.806 126.772 151.948 125.98 148.056 125.336Z" fill="white"/>
<path d="M104.024 66.6826C106.18 66.5047 108.314 66.1956 110.39 65.7466C108.39 65.5857 106.421 65.5687 104.481 65.645C104.989 64.9673 105.476 64.2642 105.9 63.523C105.252 64.1033 104.604 64.7513 103.986 65.4162C103.931 63.5865 103.761 61.7695 103.46 59.9483C103.143 61.8627 102.973 63.7856 102.918 65.7085C102.88 65.7085 102.842 65.717 102.795 65.717C102.232 65.1536 101.66 64.6115 101.072 64.0778C101.389 64.675 101.783 65.2299 102.207 65.7635C100.136 65.933 98.0899 66.2252 96.0569 66.6276C98.289 66.8521 100.563 66.8817 102.825 66.7504C102.194 67.5382 101.622 68.3472 101.156 69.1349C101.775 68.6182 102.346 68.0549 102.897 67.4704C102.935 69.5161 103.113 71.5618 103.443 73.5906C103.77 71.6 103.939 69.6008 103.986 67.5933C104.426 67.9617 104.875 68.2963 105.354 68.6098C104.934 68.0464 104.473 67.5085 104.007 66.9833C104.024 66.8986 104.024 66.7885 104.024 66.6826Z" fill="white"/>
<path d="M135.761 57.3777C135.778 57.3015 135.799 57.2379 135.816 57.1617C138.526 58.102 141.254 58.7923 143.719 59.0465C141.301 57.8012 138.806 56.6831 136.248 55.7725C136.942 55.3235 137.607 54.8619 138.217 54.3833C137.552 54.5908 136.913 54.8534 136.277 55.1372C136.743 52.939 137.082 50.7365 137.29 48.5595C136.303 50.7365 135.528 53.0067 134.897 55.3235H134.888C134.469 54.4044 134.016 53.5023 133.503 52.6298C133.643 53.4557 133.829 54.2731 134.062 55.0779C132.059 54.4764 130.013 54.019 127.925 53.7649C129.78 54.7221 131.834 55.6412 133.922 56.4501C133.181 56.9372 132.47 57.4539 131.796 58.0257C132.715 57.6869 133.634 57.2549 134.524 56.7763C133.914 59.3302 133.482 61.9096 133.202 64.4509C134.1 62.5661 134.825 60.6051 135.405 58.5975C135.875 59.6013 136.396 60.5585 136.98 61.4691C136.688 60.0799 136.265 58.7076 135.761 57.3777Z" fill="white"/>
<path d="M81.1912 52.5356C83.724 52.3027 86.2271 51.9427 88.6159 51.6166C86.3584 51.3158 84.0797 51.0702 81.8011 51.0914C82.7583 49.7868 83.6181 48.4146 84.3804 46.983C83.3216 48.0418 82.2331 49.2151 81.1912 50.4433C81.1658 47.919 81.0133 45.3947 80.6956 42.8704C80.1323 45.5091 79.7681 48.1986 79.5902 50.9008C78.8193 50.1045 78.0061 49.3464 77.1167 48.6687C77.6419 49.448 78.2687 50.3586 78.9506 51.2692C76.5237 51.5615 74.1519 52.1714 71.7546 52.5653C74.2662 52.8745 76.8541 52.8448 79.4208 52.6754C78.472 53.9418 77.6292 55.2082 76.9727 56.4195C77.8537 55.6317 78.7007 54.7889 79.4843 53.9164C79.4504 57.2073 79.7003 60.5025 80.3314 63.6918C80.7507 60.4728 81.0429 57.2454 81.1446 54.0096C82.0806 55.0769 82.9997 55.9706 83.779 56.4492C82.9828 55.1616 82.1314 53.9164 81.1912 52.7305C81.1912 52.6669 81.1912 52.5992 81.1912 52.5356Z" fill="white"/>
<mask id="mask1_17_4515" style="mask-type:luminance" maskUnits="userSpaceOnUse" x="31" y="0" width="14" height="13">
<path d="M31.9368 0H44.948V12.5453H31.9368V0Z" fill="white"/>
</mask>
<g mask="url(#mask1_17_4515)">
<path d="M39.832 6.14129C41.2552 6.35729 42.6994 6.46742 44.1522 6.48859C42.7164 6.00152 41.2552 5.61609 39.7812 5.27726C39.7939 5.23067 39.7939 5.18408 39.8024 5.14596C40.6071 4.59959 41.378 4.02781 42.0429 3.43061C41.2933 3.7398 40.569 4.10405 39.8659 4.50641C40.0353 3.08331 40.1497 1.6475 40.1751 0.203217C39.6033 1.62632 39.1756 3.10025 38.8537 4.59112C38.4344 3.98122 38.0023 3.39249 37.5534 2.808C37.8075 3.57038 38.1421 4.30311 38.536 4.99349C36.6512 4.59959 34.7495 4.29041 32.8394 4.04899C34.4869 4.83678 36.2023 5.39162 37.9473 5.78551C37.4602 6.1667 36.9901 6.5733 36.5496 7.02226C37.2146 6.69189 37.888 6.31917 38.5572 5.92528C38.5657 5.92528 38.5657 5.92528 38.5741 5.92528C38.2183 7.97099 38.0574 10.0506 38.0108 12.1259C38.7435 10.3344 39.2306 8.46654 39.5695 6.58177C39.9506 7.10696 40.3657 7.62369 40.785 8.10229C40.5224 7.41615 40.1878 6.76813 39.832 6.14129Z" fill="white"/>
</g>
<path d="M238.965 129.685C241.599 128.974 244.191 128.084 246.754 127.191C244.166 127.284 241.646 127.678 239.143 128.203C239.964 126.975 240.689 125.691 241.277 124.319C240.18 125.615 239.083 126.92 238.046 128.271C237.745 125.081 237.228 121.909 236.441 118.796C236.123 121.892 236.076 124.997 236.275 128.084C235.187 127.559 234.043 127.136 232.815 126.92C233.967 127.513 235.072 128.194 236.161 128.898C233.48 129.567 230.82 130.346 228.156 131.075C230.968 131.244 233.734 130.918 236.453 130.333C236.453 130.371 236.462 130.41 236.47 130.456C235.737 131.528 235.064 132.625 234.475 133.789C235.204 133.057 235.915 132.294 236.601 131.515C236.94 134.264 237.465 136.987 238.224 139.66C238.418 136.526 238.418 133.383 238.215 130.261C239.753 131.282 241.299 132.286 242.946 133.129C241.701 131.883 240.379 130.702 238.965 129.685Z" fill="white"/>
<path d="M292.97 64.1407C294.533 64.6659 296.117 65.1149 297.739 65.4622C296.24 64.5727 294.673 63.7934 293.063 63.12C293.08 63.0438 293.101 62.9591 293.118 62.8828C293.898 62.3873 294.656 61.879 295.397 61.3284C294.664 61.5698 293.97 61.8705 293.288 62.2009C293.758 60.3331 294.169 58.4356 294.478 56.5339C293.474 58.5119 292.661 60.566 292.013 62.6795C292.005 62.6795 291.992 62.6668 291.983 62.6668C291.471 61.9722 290.924 61.3072 290.336 60.6804C290.598 61.2522 290.886 61.8155 291.179 62.3788C289.434 61.7477 287.655 61.2437 285.846 60.8498C287.532 61.8705 289.315 62.7261 291.132 63.4461C290.361 63.9628 289.633 64.5262 288.947 65.1657C289.887 64.7337 290.793 64.2424 291.695 63.7299C291.064 66.0255 290.636 68.3719 290.42 70.748C291.255 68.8209 291.958 66.8514 292.555 64.8523C293.351 66.1695 294.224 67.4359 295.19 68.643C294.609 67.0759 293.86 65.5596 292.97 64.1407Z" fill="white"/>
<path d="M265.355 203.101C263.293 202.568 261.175 202.127 259.04 201.818C260.099 200.784 261.073 199.658 261.908 198.43C260.663 199.416 259.413 200.412 258.214 201.454C258.316 198.853 258.231 196.244 257.867 193.644C257.494 195.88 257.126 197.934 256.829 199.959C256.33 199.255 255.826 198.552 255.3 197.866C255.665 199.048 256.114 200.196 256.639 201.301C256.63 201.377 256.622 201.441 256.613 201.517C253.873 201.272 251.12 201.31 248.409 201.809C250.231 201.873 253.301 202.551 254.466 202.644C255.123 202.737 255.788 202.801 256.453 202.868C256.444 202.936 256.444 203.008 256.436 203.076C255.457 204.003 254.521 204.961 253.661 206.003C254.568 205.422 255.457 204.8 256.321 204.143C256.173 205.833 256.076 207.57 256.105 209.437C256.143 210.28 256.067 215.282 256.444 213.131C257.211 210.119 257.765 207.044 258.045 203.94C259.163 205.803 260.463 207.548 261.899 209.192C261.027 207.053 259.985 204.99 258.816 203.017C260.989 203.131 263.174 203.131 265.355 203.101Z" fill="white"/>
<path d="M243.75 276.924C248.926 275.404 253.932 273.358 258.748 270.91C253.771 271.829 248.757 272.68 243.827 273.862C244.661 272.223 245.364 270.503 245.86 268.703C244.568 270.402 243.31 272.13 242.111 273.892C241.052 268.131 239.468 261.469 237.977 256.158C237.753 261.816 237.977 267.522 238.842 273.121C237.38 272.1 235.881 271.134 234.322 270.241C235.868 271.914 237.49 273.527 239.168 275.073V275.082C237.846 275.476 236.525 275.899 235.233 276.386C231.154 277.877 228.41 279.372 224.483 280.664C228.765 280.524 232.937 279.419 237.118 278.546C237.905 278.385 238.689 278.216 239.477 278.03C238.524 279.626 237.622 281.257 236.796 282.926C238.007 281.837 239.13 280.656 240.163 279.419C241.23 283.536 242.598 287.572 243.996 291.587C244.081 291.833 244.174 292.066 244.259 292.299C244.051 288.423 243.704 284.561 243.17 280.723C243.085 279.944 242.975 279.097 242.844 278.216C245.334 280.207 247.982 281.998 250.819 283.51C248.562 281.202 246.215 278.987 243.75 276.924Z" fill="white"/>
<mask id="mask2_17_4515" style="mask-type:luminance" maskUnits="userSpaceOnUse" x="303" y="208" width="9" height="13">
<path d="M303.004 208.798H311.572V220.725H303.004V208.798Z" fill="white"/>
</mask>
<g mask="url(#mask2_17_4515)">
<path d="M307.964 215.037C309.201 214.418 310.404 213.715 311.564 212.944C310.319 213.262 309.12 213.694 307.947 214.219C308.142 213.669 308.32 213.105 308.451 212.533C308.095 213.131 307.769 213.787 307.452 214.448C306.888 212.868 306.194 211.331 305.351 209.869C305.69 211.369 306.092 212.86 306.541 214.333C306.054 214.126 305.558 213.931 305.05 213.77C305.558 214.126 306.109 214.456 306.664 214.774C306.664 214.782 306.672 214.804 306.672 214.812C305.512 215.401 304.385 216.078 303.318 216.82C304.555 216.502 305.753 216.062 306.905 215.536C306.914 215.553 306.914 215.562 306.926 215.583C306.617 216.324 306.333 217.074 306.147 217.785C306.511 217.252 306.821 216.697 307.113 216.125C307.655 217.675 308.273 219.192 309.023 220.665C308.735 218.865 308.32 217.091 307.769 215.354C308.498 215.723 309.239 216.04 309.942 216.294C309.315 215.833 308.65 215.413 307.964 215.037Z" fill="white"/>
</g>
<path d="M264.327 315.523C262.882 315.053 261.413 314.604 259.922 314.236C260.828 313.617 261.692 312.952 262.425 312.266C261.531 312.652 260.688 313.113 259.875 313.626C260.045 312.321 260.117 311 260.07 309.678C259.735 310.758 259.388 312.08 259.079 313.439C258.626 312.69 258.16 311.949 257.614 311.254C257.923 312.156 258.308 313.062 258.74 313.965C256.949 313.6 255.132 313.393 253.285 313.524C254.924 313.948 256.555 314.405 258.206 314.812C257.698 315.214 257.203 315.633 256.733 316.095C257.41 315.777 258.084 315.392 258.757 314.99C258.338 317.128 258.067 319.208 258.185 320.479C258.778 318.882 259.257 317.247 259.583 315.578C260.032 316.387 260.519 317.145 261.027 317.832C260.756 316.929 260.409 316.057 260.015 315.214C261.214 315.439 262.412 315.608 263.653 315.646C264.102 315.646 265.356 315.803 264.327 315.523Z" fill="white"/>
<path d="M96.1589 316.943L125.227 334.308L125.028 334.647L95.9556 317.281L96.1589 316.943Z" fill="white"/>
<path d="M101.208 308.76L130.119 302.242L130.204 302.627L101.292 309.145L101.208 308.76Z" fill="white"/>
<path d="M35.0075 269.79L85.6209 309.586L85.3795 309.895L34.7661 270.099L35.0075 269.79Z" fill="white"/>
<path d="M10.2686 197.023L25.4061 252.681L25.0249 252.783L9.88745 197.129L10.2686 197.023Z" fill="white"/>
<path d="M11.4541 182.102L53.3425 154.805L53.5585 155.135L11.6701 182.432L11.4541 182.102Z" fill="white"/>
<path d="M73.2326 149.312L93.8888 157.415L93.7448 157.779L73.0886 149.676L73.2326 149.312Z" fill="white"/>
<path d="M103.787 157.173L128.844 135.979L129.098 136.28L104.041 157.474L103.787 157.173Z" fill="white"/>
<path d="M101.576 171.328L108.412 186.572L108.056 186.733L101.22 171.489L101.576 171.328Z" fill="white"/>
<path d="M166.835 157.398L124.396 193.285L124.142 192.984L166.581 157.097L166.835 157.398Z" fill="white"/>
<path d="M147.45 131.997L167.716 147.935L167.475 148.244L147.204 132.306L147.45 131.997Z" fill="white"/>
<path d="M107.061 71.316L132.122 112.984L131.787 113.187L106.722 71.5193L107.061 71.316Z" fill="white"/>
<path d="M129.907 57.8436L111.737 63.9511L111.61 63.5783L129.78 57.4709L129.907 57.8436Z" fill="white"/>
<path d="M86.1631 55.2817L99.3522 63.3629L99.1447 63.6975L85.9556 55.6163L86.1631 55.2817Z" fill="white"/>
<path d="M42.0471 9.39478L75.8077 46.5141L75.5155 46.7767L41.7549 9.66161L42.0471 9.39478Z" fill="white"/>
<path d="M178.694 147.126L224.348 131.776L224.471 132.149L178.821 147.498L178.694 147.126Z" fill="white"/>
<path d="M242.866 120.77L287.545 70.771L287.838 71.0336L243.158 121.033L242.866 120.77Z" fill="white"/>
<path d="M240.828 139.85L254.894 191.569L254.513 191.67L240.447 139.952L240.828 139.85Z" fill="white"/>
<path d="M268.638 203.648L303.568 212.754L303.47 213.135L268.541 204.029L268.638 203.648Z" fill="white"/>
<path d="M255.682 219.163L247.029 265.202L246.639 265.13L255.292 219.091L255.682 219.163Z" fill="white"/>
<path d="M256.283 308.903L247.749 287.908L248.113 287.76L256.648 308.755L256.283 308.903Z" fill="white"/>
</svg>
