<svg width="382" height="380" viewBox="0 0 382 380" fill="none" xmlns="http://www.w3.org/2000/svg">
<path d="M190.177 17.9333L190.177 361.8" stroke="#C0B8C9" stroke-width="0.610878"/>
<path d="M313.089 66.5891L67.2594 312.598" stroke="#C0B8C9" stroke-width="0.610878"/>
<path d="M363.571 189.594L17.8736 189.594" stroke="#C0B8C9" stroke-width="0.610878"/>
<path d="M313.089 312.051L67.2594 67.1355" stroke="#C0B8C9" stroke-width="0.610878"/>
<path d="M155 103.5L68 67L104 154L19 189.5L104 225L68.5 311.5L154.5 276L190 361L226 276L312.5 311.5L276.5 225L361 189.5L276.5 153.5L312 67.5L225.5 102.5L190.5 18.5L155 103.5Z" fill="url(#paint0_radial_1195_771)" fill-opacity="0.3"/>
<g filter="url(#filter0_d_1195_771)">
<path d="M184.016 173.635L168.013 166.921L174.635 182.924L159 189.454L174.635 195.984L168.105 211.895L183.924 205.365L190.454 221L197.076 205.365L212.987 211.895L206.365 195.984L221.908 189.454L206.365 182.832L212.895 167.013L196.984 173.451L190.546 158L184.016 173.635Z" fill="white"/>
<path d="M184.016 173.635L168.013 166.921L174.635 182.924L159 189.454L174.635 195.984L168.105 211.895L183.924 205.365L190.454 221L197.076 205.365L212.987 211.895L206.365 195.984L221.908 189.454L206.365 182.832L212.895 167.013L196.984 173.451L190.546 158L184.016 173.635Z" stroke="#9071AF" stroke-width="1.3"/>
</g>
<rect x="1.29828" width="242.954" height="242.954" transform="matrix(0.708422 -0.705789 0.708422 0.705789 17.153 190.523)" stroke="#C0B8C9" stroke-width="1.83263"/>
<g filter="url(#filter1_d_1195_771)">
<path d="M361.75 189.645L68.25 311.645L68.25 67.1448L361.75 189.645Z" stroke="#9071AF" stroke-width="1.8" shape-rendering="crispEdges"/>
</g>
<g filter="url(#filter2_d_1195_771)">
<path d="M18.75 189.355L312.25 67.3553V311.855L18.75 189.355Z" stroke="#9071AF" stroke-width="1.8" shape-rendering="crispEdges"/>
</g>
<g filter="url(#filter3_d_1195_771)">
<path d="M190 361L68 67.5001H312.5L190 361Z" stroke="#9071AF" stroke-width="1.8" shape-rendering="crispEdges"/>
</g>
<g filter="url(#filter4_d_1195_771)">
<path d="M190.5 18L312.5 311.5L68 311.5L190.5 18Z" stroke="#9071AF" stroke-width="1.8" shape-rendering="crispEdges"/>
</g>
<g filter="url(#filter5_d_1195_771)">
<ellipse cx="363.02" cy="190.066" rx="10.9337" ry="10.9745" transform="rotate(-90 363.02 190.066)" fill="white"/>
<path d="M374.911 190.066C374.911 183.518 369.584 178.216 363.02 178.216C356.457 178.216 351.13 183.518 351.13 190.066C351.13 196.614 356.457 201.916 363.02 201.916C369.584 201.916 374.911 196.614 374.911 190.066Z" stroke="#9071AF" stroke-width="1.83263"/>
</g>
<g filter="url(#filter6_d_1195_771)">
<ellipse cx="10.9337" cy="10.9745" rx="10.9337" ry="10.9745" transform="matrix(4.38744e-08 -1 -1 -4.3549e-08 29.9492 201)" fill="white"/>
<path d="M7.08384 190.066C7.08384 183.518 12.4108 178.216 18.9747 178.216C25.5386 178.216 30.8655 183.518 30.8655 190.066C30.8655 196.614 25.5386 201.916 18.9747 201.916C12.4108 201.916 7.08384 196.614 7.08384 190.066Z" stroke="#9071AF" stroke-width="1.83263"/>
</g>
<g filter="url(#filter7_d_1195_771)">
<ellipse cx="10.9542" cy="10.9542" rx="10.9542" ry="10.9542" transform="matrix(-0.708422 -0.705789 0.708422 -0.705789 310.879 325.356)" fill="white"/>
<path d="M319.288 301.515C314.644 296.888 307.114 296.888 302.47 301.515C297.825 306.142 297.825 313.644 302.47 318.271C307.114 322.898 314.644 322.898 319.288 318.271C323.933 313.644 323.933 306.142 319.288 301.515Z" stroke="#9071AF" stroke-width="1.83263"/>
</g>
<g filter="url(#filter8_d_1195_771)">
<ellipse cx="10.9542" cy="10.9542" rx="10.9542" ry="10.9542" transform="matrix(-0.708422 -0.705789 -0.708422 0.705789 86.2246 69.5894)" fill="white"/>
<path d="M62.295 77.9674C57.6506 73.3403 57.6506 65.8384 62.295 61.2113C66.9393 56.5842 74.4693 56.5842 79.1136 61.2113C83.7579 65.8384 83.7579 73.3403 79.1136 77.9674C74.4693 82.5945 66.9393 82.5945 62.295 77.9674Z" stroke="#9071AF" stroke-width="1.83263"/>
</g>
<g filter="url(#filter9_d_1195_771)">
<ellipse cx="10.9542" cy="10.9542" rx="10.9542" ry="10.9542" transform="matrix(-0.708422 -0.705789 0.708422 -0.705789 311.312 85.8634)" fill="white"/>
<path d="M319.721 62.0227C315.076 57.3956 307.547 57.3956 302.902 62.0227C298.258 66.6498 298.258 74.1517 302.902 78.7788C307.547 83.4059 315.076 83.4059 319.721 78.7788C324.365 74.1517 324.365 66.6498 319.721 62.0227Z" stroke="#9071AF" stroke-width="1.83263"/>
</g>
<g filter="url(#filter10_d_1195_771)">
<ellipse cx="10.9542" cy="10.9542" rx="10.9542" ry="10.9542" transform="matrix(-0.708422 -0.705789 -0.708422 0.705789 87.0537 310.121)" fill="white"/>
<path d="M63.1241 318.499C58.4797 313.872 58.4797 306.37 63.1241 301.743C67.7684 297.116 75.2984 297.116 79.9427 301.743C84.587 306.37 84.587 313.872 79.9427 318.499C75.2984 323.126 67.7684 323.126 63.1241 318.499Z" stroke="#9071AF" stroke-width="1.83263"/>
</g>
<g filter="url(#filter11_d_1195_771)">
<ellipse cx="190.019" cy="17.934" rx="10.9745" ry="10.9337" transform="rotate(180 190.019 17.934)" fill="white"/>
<path d="M190.019 6.08398C183.455 6.08399 178.128 11.3862 178.128 17.9341C178.128 24.4819 183.455 29.7841 190.019 29.7841C196.583 29.7841 201.909 24.4819 201.909 17.934C201.909 11.3862 196.583 6.08398 190.019 6.08398Z" stroke="#9071AF" stroke-width="1.83263"/>
</g>
<path d="M324.915 190.066C324.915 183.858 319.863 178.827 313.635 178.827C307.406 178.827 302.355 183.858 302.355 190.066C302.355 196.274 307.406 201.305 313.635 201.305C319.863 201.305 324.915 196.274 324.915 190.066Z" fill="white" stroke="#9071AF" stroke-width="0.610878"/>
<path d="M57.0766 190.066C57.0766 183.858 62.1278 178.827 68.3565 178.827C74.5852 178.827 79.6365 183.858 79.6365 190.066C79.6365 196.274 74.5852 201.305 68.3565 201.305C62.1278 201.305 57.0766 196.274 57.0766 190.066Z" fill="white" stroke="#9071AF" stroke-width="0.610878"/>
<path d="M190.019 55.8963C183.79 55.8963 178.739 60.9272 178.739 67.1355C178.739 73.3438 183.79 78.3747 190.019 78.3747C196.247 78.3747 201.299 73.3438 201.299 67.1355C201.299 60.9272 196.247 55.8963 190.019 55.8963Z" fill="white" stroke="#9071AF" stroke-width="0.610878"/>
<path d="M190.019 321.104C183.79 321.104 178.739 316.073 178.739 309.865C178.739 303.657 183.79 298.626 190.019 298.626C196.247 298.626 201.299 303.657 201.299 309.865C201.299 316.073 196.247 321.104 190.019 321.104Z" fill="white" stroke="#9071AF" stroke-width="0.610878"/>
<g filter="url(#filter12_d_1195_771)">
<ellipse cx="10.9745" cy="10.9337" rx="10.9745" ry="10.9337" transform="matrix(-1 0 0 1 200.993 348.133)" fill="white"/>
<path d="M190.019 370.916C183.455 370.916 178.128 365.614 178.128 359.066C178.128 352.518 183.455 347.216 190.019 347.216C196.583 347.216 201.909 352.518 201.909 359.066C201.909 365.614 196.583 370.916 190.019 370.916Z" stroke="#9071AF" stroke-width="1.83263"/>
</g>
<defs>
<filter id="filter0_d_1195_771" x="151.299" y="151.498" width="78.2918" height="78.3941" filterUnits="userSpaceOnUse" color-interpolation-filters="sRGB">
<feFlood flood-opacity="0" result="BackgroundImageFix"/>
<feColorMatrix in="SourceAlpha" type="matrix" values="0 0 0 0 0 0 0 0 0 0 0 0 0 0 0 0 0 0 127 0" result="hardAlpha"/>
<feOffset dy="1.20094"/>
<feGaussianBlur stdDeviation="3.00727"/>
<feComposite in2="hardAlpha" operator="out"/>
<feColorMatrix type="matrix" values="0 0 0 0 0 0 0 0 0 0 0 0 0 0 0 0 0 0 0.25 0"/>
<feBlend mode="normal" in2="BackgroundImageFix" result="effect1_dropShadow_1195_771"/>
<feBlend mode="normal" in="SourceGraphic" in2="effect1_dropShadow_1195_771" result="shape"/>
</filter>
<filter id="filter1_d_1195_771" x="61.2396" y="60.9039" width="308.961" height="259.42" filterUnits="userSpaceOnUse" color-interpolation-filters="sRGB">
<feFlood flood-opacity="0" result="BackgroundImageFix"/>
<feColorMatrix in="SourceAlpha" type="matrix" values="0 0 0 0 0 0 0 0 0 0 0 0 0 0 0 0 0 0 127 0" result="hardAlpha"/>
<feOffset dy="1.22"/>
<feGaussianBlur stdDeviation="3.055"/>
<feComposite in2="hardAlpha" operator="out"/>
<feColorMatrix type="matrix" values="0 0 0 0 0 0 0 0 0 0 0 0 0 0 0 0 0 0 0.25 0"/>
<feBlend mode="normal" in2="BackgroundImageFix" result="effect1_dropShadow_1195_771"/>
<feBlend mode="normal" in="SourceGraphic" in2="effect1_dropShadow_1195_771" result="shape"/>
</filter>
<filter id="filter2_d_1195_771" x="10.2992" y="61.1166" width="308.961" height="259.42" filterUnits="userSpaceOnUse" color-interpolation-filters="sRGB">
<feFlood flood-opacity="0" result="BackgroundImageFix"/>
<feColorMatrix in="SourceAlpha" type="matrix" values="0 0 0 0 0 0 0 0 0 0 0 0 0 0 0 0 0 0 127 0" result="hardAlpha"/>
<feOffset dy="1.22"/>
<feGaussianBlur stdDeviation="3.055"/>
<feComposite in2="hardAlpha" operator="out"/>
<feColorMatrix type="matrix" values="0 0 0 0 0 0 0 0 0 0 0 0 0 0 0 0 0 0 0.25 0"/>
<feBlend mode="normal" in2="BackgroundImageFix" result="effect1_dropShadow_1195_771"/>
<feBlend mode="normal" in="SourceGraphic" in2="effect1_dropShadow_1195_771" result="shape"/>
</filter>
<filter id="filter3_d_1195_771" x="60.5414" y="61.7101" width="259.419" height="308.961" filterUnits="userSpaceOnUse" color-interpolation-filters="sRGB">
<feFlood flood-opacity="0" result="BackgroundImageFix"/>
<feColorMatrix in="SourceAlpha" type="matrix" values="0 0 0 0 0 0 0 0 0 0 0 0 0 0 0 0 0 0 127 0" result="hardAlpha"/>
<feOffset dy="1.22"/>
<feGaussianBlur stdDeviation="3.055"/>
<feComposite in2="hardAlpha" operator="out"/>
<feColorMatrix type="matrix" values="0 0 0 0 0 0 0 0 0 0 0 0 0 0 0 0 0 0 0.25 0"/>
<feBlend mode="normal" in2="BackgroundImageFix" result="effect1_dropShadow_1195_771"/>
<feBlend mode="normal" in="SourceGraphic" in2="effect1_dropShadow_1195_771" result="shape"/>
</filter>
<filter id="filter4_d_1195_771" x="60.5394" y="10.7693" width="259.419" height="308.961" filterUnits="userSpaceOnUse" color-interpolation-filters="sRGB">
<feFlood flood-opacity="0" result="BackgroundImageFix"/>
<feColorMatrix in="SourceAlpha" type="matrix" values="0 0 0 0 0 0 0 0 0 0 0 0 0 0 0 0 0 0 127 0" result="hardAlpha"/>
<feOffset dy="1.22"/>
<feGaussianBlur stdDeviation="3.055"/>
<feComposite in2="hardAlpha" operator="out"/>
<feColorMatrix type="matrix" values="0 0 0 0 0 0 0 0 0 0 0 0 0 0 0 0 0 0 0.25 0"/>
<feBlend mode="normal" in2="BackgroundImageFix" result="effect1_dropShadow_1195_771"/>
<feBlend mode="normal" in="SourceGraphic" in2="effect1_dropShadow_1195_771" result="shape"/>
</filter>
<filter id="filter5_d_1195_771" x="344.104" y="172.413" width="37.8318" height="37.7503" filterUnits="userSpaceOnUse" color-interpolation-filters="sRGB">
<feFlood flood-opacity="0" result="BackgroundImageFix"/>
<feColorMatrix in="SourceAlpha" type="matrix" values="0 0 0 0 0 0 0 0 0 0 0 0 0 0 0 0 0 0 127 0" result="hardAlpha"/>
<feOffset dy="1.22176"/>
<feGaussianBlur stdDeviation="3.05439"/>
<feComposite in2="hardAlpha" operator="out"/>
<feColorMatrix type="matrix" values="0 0 0 0 0.745098 0 0 0 0 0.580392 0 0 0 0 0.909804 0 0 0 1 0"/>
<feBlend mode="normal" in2="BackgroundImageFix" result="effect1_dropShadow_1195_771"/>
<feBlend mode="normal" in="SourceGraphic" in2="effect1_dropShadow_1195_771" result="shape"/>
</filter>
<filter id="filter6_d_1195_771" x="0.0591855" y="172.413" width="37.8318" height="37.7503" filterUnits="userSpaceOnUse" color-interpolation-filters="sRGB">
<feFlood flood-opacity="0" result="BackgroundImageFix"/>
<feColorMatrix in="SourceAlpha" type="matrix" values="0 0 0 0 0 0 0 0 0 0 0 0 0 0 0 0 0 0 127 0" result="hardAlpha"/>
<feOffset dy="1.22176"/>
<feGaussianBlur stdDeviation="3.05439"/>
<feComposite in2="hardAlpha" operator="out"/>
<feColorMatrix type="matrix" values="0 0 0 0 0.745098 0 0 0 0 0.580392 0 0 0 0 0.909804 0 0 0 1 0"/>
<feBlend mode="normal" in2="BackgroundImageFix" result="effect1_dropShadow_1195_771"/>
<feBlend mode="normal" in="SourceGraphic" in2="effect1_dropShadow_1195_771" result="shape"/>
</filter>
<filter id="filter7_d_1195_771" x="291.96" y="292.243" width="37.8387" height="37.7434" filterUnits="userSpaceOnUse" color-interpolation-filters="sRGB">
<feFlood flood-opacity="0" result="BackgroundImageFix"/>
<feColorMatrix in="SourceAlpha" type="matrix" values="0 0 0 0 0 0 0 0 0 0 0 0 0 0 0 0 0 0 127 0" result="hardAlpha"/>
<feOffset dy="1.22176"/>
<feGaussianBlur stdDeviation="3.05439"/>
<feComposite in2="hardAlpha" operator="out"/>
<feColorMatrix type="matrix" values="0 0 0 0 0.745098 0 0 0 0 0.580392 0 0 0 0 0.909804 0 0 0 1 0"/>
<feBlend mode="normal" in2="BackgroundImageFix" result="effect1_dropShadow_1195_771"/>
<feBlend mode="normal" in="SourceGraphic" in2="effect1_dropShadow_1195_771" result="shape"/>
</filter>
<filter id="filter8_d_1195_771" x="51.7848" y="51.9394" width="37.8387" height="37.7434" filterUnits="userSpaceOnUse" color-interpolation-filters="sRGB">
<feFlood flood-opacity="0" result="BackgroundImageFix"/>
<feColorMatrix in="SourceAlpha" type="matrix" values="0 0 0 0 0 0 0 0 0 0 0 0 0 0 0 0 0 0 127 0" result="hardAlpha"/>
<feOffset dy="1.22176"/>
<feGaussianBlur stdDeviation="3.05439"/>
<feComposite in2="hardAlpha" operator="out"/>
<feColorMatrix type="matrix" values="0 0 0 0 0.745098 0 0 0 0 0.580392 0 0 0 0 0.909804 0 0 0 1 0"/>
<feBlend mode="normal" in2="BackgroundImageFix" result="effect1_dropShadow_1195_771"/>
<feBlend mode="normal" in="SourceGraphic" in2="effect1_dropShadow_1195_771" result="shape"/>
</filter>
<filter id="filter9_d_1195_771" x="292.392" y="52.7508" width="37.8387" height="37.7434" filterUnits="userSpaceOnUse" color-interpolation-filters="sRGB">
<feFlood flood-opacity="0" result="BackgroundImageFix"/>
<feColorMatrix in="SourceAlpha" type="matrix" values="0 0 0 0 0 0 0 0 0 0 0 0 0 0 0 0 0 0 127 0" result="hardAlpha"/>
<feOffset dy="1.22176"/>
<feGaussianBlur stdDeviation="3.05439"/>
<feComposite in2="hardAlpha" operator="out"/>
<feColorMatrix type="matrix" values="0 0 0 0 0.745098 0 0 0 0 0.580392 0 0 0 0 0.909804 0 0 0 1 0"/>
<feBlend mode="normal" in2="BackgroundImageFix" result="effect1_dropShadow_1195_771"/>
<feBlend mode="normal" in="SourceGraphic" in2="effect1_dropShadow_1195_771" result="shape"/>
</filter>
<filter id="filter10_d_1195_771" x="52.6139" y="292.471" width="37.8387" height="37.7434" filterUnits="userSpaceOnUse" color-interpolation-filters="sRGB">
<feFlood flood-opacity="0" result="BackgroundImageFix"/>
<feColorMatrix in="SourceAlpha" type="matrix" values="0 0 0 0 0 0 0 0 0 0 0 0 0 0 0 0 0 0 127 0" result="hardAlpha"/>
<feOffset dy="1.22176"/>
<feGaussianBlur stdDeviation="3.05439"/>
<feComposite in2="hardAlpha" operator="out"/>
<feColorMatrix type="matrix" values="0 0 0 0 0.745098 0 0 0 0 0.580392 0 0 0 0 0.909804 0 0 0 1 0"/>
<feBlend mode="normal" in2="BackgroundImageFix" result="effect1_dropShadow_1195_771"/>
<feBlend mode="normal" in="SourceGraphic" in2="effect1_dropShadow_1195_771" result="shape"/>
</filter>
<filter id="filter11_d_1195_771" x="171.103" y="0.280698" width="37.8318" height="37.7503" filterUnits="userSpaceOnUse" color-interpolation-filters="sRGB">
<feFlood flood-opacity="0" result="BackgroundImageFix"/>
<feColorMatrix in="SourceAlpha" type="matrix" values="0 0 0 0 0 0 0 0 0 0 0 0 0 0 0 0 0 0 127 0" result="hardAlpha"/>
<feOffset dy="1.22176"/>
<feGaussianBlur stdDeviation="3.05439"/>
<feComposite in2="hardAlpha" operator="out"/>
<feColorMatrix type="matrix" values="0 0 0 0 0.745098 0 0 0 0 0.580392 0 0 0 0 0.909804 0 0 0 1 0"/>
<feBlend mode="normal" in2="BackgroundImageFix" result="effect1_dropShadow_1195_771"/>
<feBlend mode="normal" in="SourceGraphic" in2="effect1_dropShadow_1195_771" result="shape"/>
</filter>
<filter id="filter12_d_1195_771" x="171.103" y="341.413" width="37.8318" height="37.7503" filterUnits="userSpaceOnUse" color-interpolation-filters="sRGB">
<feFlood flood-opacity="0" result="BackgroundImageFix"/>
<feColorMatrix in="SourceAlpha" type="matrix" values="0 0 0 0 0 0 0 0 0 0 0 0 0 0 0 0 0 0 127 0" result="hardAlpha"/>
<feOffset dy="1.22176"/>
<feGaussianBlur stdDeviation="3.05439"/>
<feComposite in2="hardAlpha" operator="out"/>
<feColorMatrix type="matrix" values="0 0 0 0 0.745098 0 0 0 0 0.580392 0 0 0 0 0.909804 0 0 0 1 0"/>
<feBlend mode="normal" in2="BackgroundImageFix" result="effect1_dropShadow_1195_771"/>
<feBlend mode="normal" in="SourceGraphic" in2="effect1_dropShadow_1195_771" result="shape"/>
</filter>
<radialGradient id="paint0_radial_1195_771" cx="0" cy="0" r="1" gradientUnits="userSpaceOnUse" gradientTransform="translate(189.374 190.317) rotate(90) scale(171.243 170.737)">
<stop offset="0.494792" stop-color="white"/>
<stop offset="1" stop-color="#986BC6"/>
</radialGradient>
</defs>
</svg>
