<svg width="1234" height="1508" viewBox="0 0 1234 1508" fill="none" xmlns="http://www.w3.org/2000/svg">
<g filter="url(#filter0_f_519_93)">
<ellipse cx="778" cy="754" rx="378" ry="354" fill="white"/>
</g>
<path d="M787 428L787 1057" stroke="#C0B8C9"/>
<path d="M1011 517L563 967" stroke="#C0B8C9"/>
<path d="M1103 742L473 742" stroke="#C0B8C9"/>
<path d="M1011 966L563 518" stroke="#C0B8C9"/>
<rect x="607.613" y="742.742" width="253.692" height="253.351" transform="rotate(-45 607.613 742.742)" stroke="#C0B8C9" stroke-width="0.5"/>
<rect x="660.428" y="870.41" width="254.74" height="254.74" transform="rotate(-90 660.428 870.41)" stroke="#C0B8C9" stroke-width="0.5"/>
<rect x="515.402" y="741.766" width="384.091" height="384.091" transform="rotate(-45 515.402 741.766)" stroke="#C0B8C9" stroke-width="0.5"/>
<rect x="593.25" y="548.25" width="386.5" height="386.5" stroke="#C0B8C9" stroke-width="0.5"/>
<rect x="564.051" y="742.047" width="317.222" height="315.575" transform="rotate(-45 564.051 742.047)" stroke="#9071AF"/>
<rect x="629.5" y="900.723" width="317.222" height="315.575" transform="rotate(-90 629.5 900.723)" stroke="#9071AF"/>
<g filter="url(#filter1_d_519_93)">
<rect x="564.5" y="518.5" width="446" height="447" stroke="#9071AF" stroke-width="3" shape-rendering="crispEdges"/>
</g>
<g filter="url(#filter2_d_519_93)">
<rect x="473.121" y="742.027" width="443.929" height="443.929" transform="rotate(-45 473.121 742.027)" stroke="#9071AF" stroke-width="3" shape-rendering="crispEdges"/>
</g>
<path d="M673.958 470.72L786.5 426.269L899.042 470.72L899.049 470.723L1010.11 518.744L1058.21 629.629L1058.21 629.636L1102.73 742L1058.21 854.364L1058.21 854.371L1010.11 965.255L899.049 1013.28L899.042 1013.28L786.5 1057.73L673.958 1013.28L673.951 1013.28L562.891 965.255L514.793 854.371L514.79 854.364L470.269 742L514.79 629.636L514.793 629.629L562.891 518.744L673.951 470.723L673.958 470.72Z" stroke="#C0B8C9" stroke-width="0.5"/>
<g filter="url(#filter3_d_519_93)">
<ellipse cx="787" cy="742" rx="28" ry="28" transform="rotate(-90 787 742)" fill="white"/>
<path d="M816.5 742C816.5 725.708 803.292 712.5 787 712.5C770.708 712.5 757.5 725.708 757.5 742C757.5 758.292 770.708 771.5 787 771.5C803.292 771.5 816.5 758.292 816.5 742Z" stroke="#9071AF" stroke-width="3"/>
</g>
<path d="M1032.5 741C1032.5 729.678 1023.32 720.5 1012 720.5C1000.68 720.5 991.5 729.678 991.5 741C991.5 752.322 1000.68 761.5 1012 761.5C1023.32 761.5 1032.5 752.322 1032.5 741Z" fill="white" stroke="#9071AF"/>
<path d="M968.5 741C968.5 729.678 959.322 720.5 948 720.5C936.678 720.5 927.5 729.678 927.5 741C927.5 752.322 936.678 761.5 948 761.5C959.322 761.5 968.5 752.322 968.5 741Z" fill="white" stroke="#C0B8C9"/>
<path d="M1077.5 741C1077.5 729.678 1068.32 720.5 1057 720.5C1045.68 720.5 1036.5 729.678 1036.5 741C1036.5 752.322 1045.68 761.5 1057 761.5C1068.32 761.5 1077.5 752.322 1077.5 741Z" fill="white" stroke="#9071AF"/>
<g filter="url(#filter4_d_519_93)">
<ellipse cx="1102" cy="741" rx="20" ry="20" transform="rotate(-90 1102 741)" fill="white"/>
<path d="M1123.5 741C1123.5 729.126 1113.87 719.5 1102 719.5C1090.13 719.5 1080.5 729.126 1080.5 741C1080.5 752.874 1090.13 762.5 1102 762.5C1113.87 762.5 1123.5 752.874 1123.5 741Z" stroke="#9071AF" stroke-width="3"/>
</g>
<path d="M614.5 678C614.5 669.44 621.44 662.5 630 662.5C638.56 662.5 645.5 669.44 645.5 678C645.5 686.56 638.56 693.5 630 693.5C621.44 693.5 614.5 686.56 614.5 678Z" fill="white" stroke="#9071AF"/>
<path d="M930.5 678C930.5 669.44 937.44 662.5 946 662.5C954.56 662.5 961.5 669.44 961.5 678C961.5 686.56 954.56 693.5 946 693.5C937.44 693.5 930.5 686.56 930.5 678Z" fill="white" stroke="#9071AF"/>
<path d="M930.5 807C930.5 798.44 937.44 791.5 946 791.5C954.56 791.5 961.5 798.44 961.5 807C961.5 815.56 954.56 822.5 946 822.5C937.44 822.5 930.5 815.56 930.5 807Z" fill="white" stroke="#9071AF"/>
<path d="M614.5 807C614.5 798.44 621.44 791.5 630 791.5C638.56 791.5 645.5 798.44 645.5 807C645.5 815.56 638.56 822.5 630 822.5C621.44 822.5 614.5 815.56 614.5 807Z" fill="white" stroke="#9071AF"/>
<path d="M544.5 741C544.5 729.678 553.678 720.5 565 720.5C576.322 720.5 585.5 729.678 585.5 741C585.5 752.322 576.322 761.5 565 761.5C553.678 761.5 544.5 752.322 544.5 741Z" fill="white" stroke="#9071AF"/>
<path d="M606.5 742C606.5 730.678 615.678 721.5 627 721.5C638.322 721.5 647.5 730.678 647.5 742C647.5 753.322 638.322 762.5 627 762.5C615.678 762.5 606.5 753.322 606.5 742Z" fill="white" stroke="#C0B8C9"/>
<path d="M788 559.5C776.678 559.5 767.5 568.678 767.5 580C767.5 591.322 776.678 600.5 788 600.5C799.322 600.5 808.5 591.322 808.5 580C808.5 568.678 799.322 559.5 788 559.5Z" fill="white" stroke="#C0B8C9"/>
<path d="M788 922.5C776.678 922.5 767.5 913.322 767.5 902C767.5 890.678 776.678 881.5 788 881.5C799.322 881.5 808.5 890.678 808.5 902C808.5 913.322 799.322 922.5 788 922.5Z" fill="white" stroke="#C0B8C9"/>
<path d="M659.513 613.012C651.507 621.018 651.507 633.998 659.513 642.004C667.519 650.009 680.499 650.009 688.504 642.004C696.51 633.998 696.51 621.018 688.504 613.012C680.499 605.006 667.519 605.006 659.513 613.012Z" fill="white" stroke="#9071AF"/>
<path d="M916.193 868.28C908.187 876.286 895.207 876.286 887.202 868.28C879.196 860.274 879.196 847.294 887.202 839.289C895.207 831.283 908.187 831.283 916.193 839.289C924.199 847.294 924.199 860.274 916.193 868.28Z" fill="white" stroke="#9071AF"/>
<path d="M658.807 868.987C666.813 876.993 679.793 876.993 687.798 868.987C695.804 860.981 695.804 848.001 687.798 839.996C679.793 831.99 666.813 831.99 658.807 839.996C650.801 848.001 650.801 860.981 658.807 868.987Z" fill="white" stroke="#9071AF"/>
<path d="M915.487 612.309C923.493 620.315 923.493 633.295 915.487 641.3C907.481 649.306 894.501 649.306 886.496 641.3C878.49 633.295 878.49 620.315 886.496 612.309C894.501 604.303 907.481 604.303 915.487 612.309Z" fill="white" stroke="#9071AF"/>
<path d="M499.5 741C499.5 729.678 508.678 720.5 520 720.5C531.322 720.5 540.5 729.678 540.5 741C540.5 752.322 531.322 761.5 520 761.5C508.678 761.5 499.5 752.322 499.5 741Z" fill="white" stroke="#9071AF"/>
<g filter="url(#filter5_d_519_93)">
<ellipse rx="20" ry="20" transform="matrix(4.37114e-08 -1 -1 -4.37114e-08 475 741)" fill="white"/>
<path d="M453.5 741C453.5 729.126 463.126 719.5 475 719.5C486.874 719.5 496.5 729.126 496.5 741C496.5 752.874 486.874 762.5 475 762.5C463.126 762.5 453.5 752.874 453.5 741Z" stroke="#9071AF" stroke-width="3"/>
</g>
<path d="M958.935 882.814C950.929 874.808 937.95 874.808 929.944 882.814C921.938 890.82 921.938 903.799 929.944 911.805C937.95 919.811 950.929 919.811 958.935 911.805C966.941 903.799 966.941 890.82 958.935 882.814Z" fill="white" stroke="#9071AF"/>
<path d="M990.744 914.658C982.738 906.652 969.758 906.652 961.752 914.658C953.747 922.663 953.747 935.643 961.752 943.649C969.758 951.655 982.738 951.655 990.744 943.649C998.749 935.643 998.749 922.663 990.744 914.658Z" fill="white" stroke="#9071AF"/>
<g filter="url(#filter6_d_519_93)">
<ellipse cx="1007.33" cy="961.692" rx="20" ry="20" transform="rotate(-135 1007.33 961.692)" fill="white"/>
<path d="M1022.54 946.489C1014.14 938.093 1000.53 938.093 992.131 946.489C983.735 954.886 983.735 968.499 992.131 976.895C1000.53 985.291 1014.14 985.291 1022.54 976.895C1030.93 968.499 1030.93 954.886 1022.54 946.489Z" stroke="#9071AF" stroke-width="3"/>
</g>
<path d="M618.939 601.043C610.933 593.037 610.933 580.057 618.939 572.051C626.945 564.045 639.924 564.045 647.93 572.051C655.936 580.057 655.936 593.037 647.93 601.043C639.924 609.048 626.945 609.048 618.939 601.043Z" fill="white" stroke="#9071AF"/>
<path d="M586.14 570.23C578.134 562.224 578.134 549.244 586.14 541.239C594.146 533.233 607.126 533.233 615.131 541.239C623.137 549.244 623.137 562.224 615.131 570.23C607.126 578.236 594.146 578.236 586.14 570.23Z" fill="white" stroke="#9071AF"/>
<g filter="url(#filter7_d_519_93)">
<ellipse rx="20" ry="20" transform="matrix(-0.707107 -0.707107 -0.707107 0.707107 567.89 523.883)" fill="white"/>
<path d="M552.687 539.086C544.29 530.689 544.29 517.076 552.687 508.68C561.083 500.284 574.696 500.284 583.092 508.68C591.489 517.076 591.489 530.689 583.092 539.086C574.696 547.482 561.083 547.482 552.687 539.086Z" stroke="#9071AF" stroke-width="3"/>
</g>
<path d="M957.666 572.943C949.66 564.937 936.68 564.937 928.674 572.943C920.668 580.948 920.668 593.928 928.674 601.934C936.68 609.94 949.66 609.94 957.666 601.934C965.671 593.928 965.671 580.948 957.666 572.943Z" fill="white" stroke="#9071AF"/>
<path d="M989.949 540.79C981.943 532.785 968.963 532.785 960.957 540.79C952.952 548.796 952.952 561.776 960.957 569.782C968.963 577.787 981.943 577.787 989.949 569.782C997.955 561.776 997.955 548.796 989.949 540.79Z" fill="white" stroke="#9071AF"/>
<g filter="url(#filter8_d_519_93)">
<ellipse cx="1006.83" cy="523.028" rx="20" ry="20" transform="rotate(-135 1006.83 523.028)" fill="white"/>
<path d="M1022.03 507.825C1013.64 499.429 1000.02 499.429 991.627 507.825C983.231 516.222 983.231 529.835 991.627 538.231C1000.02 546.627 1013.64 546.627 1022.03 538.231C1030.43 529.835 1030.43 516.222 1022.03 507.825Z" stroke="#9071AF" stroke-width="3"/>
</g>
<path d="M618.755 909.066C610.749 901.06 610.749 888.08 618.755 880.075C626.761 872.069 639.741 872.069 647.747 880.075C655.752 888.08 655.752 901.06 647.747 909.066C639.741 917.072 626.761 917.072 618.755 909.066Z" fill="white" stroke="#9071AF"/>
<path d="M588.577 943.078C580.572 935.072 580.572 922.092 588.577 914.086C596.583 906.081 609.563 906.081 617.569 914.086C625.575 922.092 625.575 935.072 617.569 943.078C609.563 951.083 596.583 951.083 588.577 943.078Z" fill="white" stroke="#9071AF"/>
<g filter="url(#filter9_d_519_93)">
<ellipse rx="20" ry="20" transform="matrix(-0.707107 -0.707107 -0.707107 0.707107 571.472 963.156)" fill="white"/>
<path d="M556.269 978.359C547.873 969.963 547.873 956.35 556.269 947.953C564.665 939.557 578.278 939.557 586.674 947.953C595.071 956.35 595.071 969.963 586.674 978.359C578.278 986.755 564.665 986.755 556.269 978.359Z" stroke="#9071AF" stroke-width="3"/>
</g>
<path d="M720 568.637C711.516 568.637 704.637 575.516 704.637 584C704.638 592.484 711.516 599.363 720 599.363C728.484 599.363 735.362 592.484 735.362 584C735.362 575.516 728.484 568.637 720 568.637Z" fill="white" stroke="#9071AF" stroke-width="0.725"/>
<path d="M857 568.587C848.488 568.587 841.587 575.488 841.587 584C841.587 592.512 848.488 599.413 857 599.413C865.512 599.413 872.412 592.512 872.412 584C872.412 575.488 865.512 568.587 857 568.587Z" fill="white" stroke="#9071AF" stroke-width="0.825"/>
<path d="M788 497.5C776.678 497.5 767.5 506.678 767.5 518C767.5 529.322 776.678 538.5 788 538.5C799.322 538.5 808.5 529.322 808.5 518C808.5 506.678 799.322 497.5 788 497.5Z" fill="white" stroke="#9071AF"/>
<path d="M788 452.5C776.678 452.5 767.5 461.678 767.5 473C767.5 484.322 776.678 493.5 788 493.5C799.322 493.5 808.5 484.322 808.5 473C808.5 461.678 799.322 452.5 788 452.5Z" fill="white" stroke="#9071AF"/>
<g filter="url(#filter10_d_519_93)">
<ellipse cx="788" cy="428" rx="20" ry="20" transform="rotate(180 788 428)" fill="white"/>
<path d="M788 406.5C776.126 406.5 766.5 416.126 766.5 428C766.5 439.874 776.126 449.5 788 449.5C799.874 449.5 809.5 439.874 809.5 428C809.5 416.126 799.874 406.5 788 406.5Z" stroke="#9071AF" stroke-width="3"/>
</g>
<path d="M720 915.5C711.44 915.5 704.5 908.56 704.5 900C704.5 891.44 711.44 884.5 720 884.5C728.56 884.5 735.5 891.44 735.5 900C735.5 908.56 728.56 915.5 720 915.5Z" fill="white" stroke="#9071AF"/>
<path d="M857 916.5C848.44 916.5 841.5 909.56 841.5 901C841.5 892.44 848.44 885.5 857 885.5C865.56 885.5 872.5 892.44 872.5 901C872.5 909.56 865.56 916.5 857 916.5Z" fill="white" stroke="#9071AF"/>
<path d="M788 982.5C776.678 982.5 767.5 973.322 767.5 962C767.5 950.678 776.678 941.5 788 941.5C799.322 941.5 808.5 950.678 808.5 962C808.5 973.322 799.322 982.5 788 982.5Z" fill="white" stroke="#9071AF"/>
<path d="M788 1027.5C776.678 1027.5 767.5 1018.32 767.5 1007C767.5 995.678 776.678 986.5 788 986.5C799.322 986.5 808.5 995.678 808.5 1007C808.5 1018.32 799.322 1027.5 788 1027.5Z" fill="white" stroke="#9071AF"/>
<g filter="url(#filter11_d_519_93)">
<ellipse rx="20" ry="20" transform="matrix(-1 0 0 1 787 1052)" fill="white"/>
<path d="M787 1073.5C775.126 1073.5 765.5 1063.87 765.5 1052C765.5 1040.13 775.126 1030.5 787 1030.5C798.874 1030.5 808.5 1040.13 808.5 1052C808.5 1063.87 798.874 1073.5 787 1073.5Z" stroke="#9071AF" stroke-width="3"/>
</g>
<circle cx="806.5" cy="759.5" r="15" fill="white" stroke="#9071AF"/>
<defs>
<filter id="filter0_f_519_93" x="0" y="0" width="1556" height="1508" filterUnits="userSpaceOnUse" color-interpolation-filters="sRGB">
<feFlood flood-opacity="0" result="BackgroundImageFix"/>
<feBlend mode="normal" in="SourceGraphic" in2="BackgroundImageFix" result="shape"/>
<feGaussianBlur stdDeviation="200" result="effect1_foregroundBlur_519_93"/>
</filter>
<filter id="filter1_d_519_93" x="553" y="509" width="469" height="470" filterUnits="userSpaceOnUse" color-interpolation-filters="sRGB">
<feFlood flood-opacity="0" result="BackgroundImageFix"/>
<feColorMatrix in="SourceAlpha" type="matrix" values="0 0 0 0 0 0 0 0 0 0 0 0 0 0 0 0 0 0 127 0" result="hardAlpha"/>
<feOffset dy="2"/>
<feGaussianBlur stdDeviation="5"/>
<feComposite in2="hardAlpha" operator="out"/>
<feColorMatrix type="matrix" values="0 0 0 0 0.745098 0 0 0 0 0.580392 0 0 0 0 0.909804 0 0 0 1 0"/>
<feBlend mode="normal" in2="BackgroundImageFix" result="effect1_dropShadow_519_93"/>
<feBlend mode="normal" in="SourceGraphic" in2="effect1_dropShadow_519_93" result="shape"/>
</filter>
<filter id="filter2_d_519_93" x="461" y="418" width="652.054" height="652.055" filterUnits="userSpaceOnUse" color-interpolation-filters="sRGB">
<feFlood flood-opacity="0" result="BackgroundImageFix"/>
<feColorMatrix in="SourceAlpha" type="matrix" values="0 0 0 0 0 0 0 0 0 0 0 0 0 0 0 0 0 0 127 0" result="hardAlpha"/>
<feOffset dy="2"/>
<feGaussianBlur stdDeviation="5"/>
<feComposite in2="hardAlpha" operator="out"/>
<feColorMatrix type="matrix" values="0 0 0 0 0.745098 0 0 0 0 0.580392 0 0 0 0 0.909804 0 0 0 1 0"/>
<feBlend mode="normal" in2="BackgroundImageFix" result="effect1_dropShadow_519_93"/>
<feBlend mode="normal" in="SourceGraphic" in2="effect1_dropShadow_519_93" result="shape"/>
</filter>
<filter id="filter3_d_519_93" x="746" y="703" width="82" height="82" filterUnits="userSpaceOnUse" color-interpolation-filters="sRGB">
<feFlood flood-opacity="0" result="BackgroundImageFix"/>
<feColorMatrix in="SourceAlpha" type="matrix" values="0 0 0 0 0 0 0 0 0 0 0 0 0 0 0 0 0 0 127 0" result="hardAlpha"/>
<feOffset dy="2"/>
<feGaussianBlur stdDeviation="5"/>
<feComposite in2="hardAlpha" operator="out"/>
<feColorMatrix type="matrix" values="0 0 0 0 0.745098 0 0 0 0 0.580392 0 0 0 0 0.909804 0 0 0 1 0"/>
<feBlend mode="normal" in2="BackgroundImageFix" result="effect1_dropShadow_519_93"/>
<feBlend mode="normal" in="SourceGraphic" in2="effect1_dropShadow_519_93" result="shape"/>
</filter>
<filter id="filter4_d_519_93" x="1069" y="710" width="66" height="66" filterUnits="userSpaceOnUse" color-interpolation-filters="sRGB">
<feFlood flood-opacity="0" result="BackgroundImageFix"/>
<feColorMatrix in="SourceAlpha" type="matrix" values="0 0 0 0 0 0 0 0 0 0 0 0 0 0 0 0 0 0 127 0" result="hardAlpha"/>
<feOffset dy="2"/>
<feGaussianBlur stdDeviation="5"/>
<feComposite in2="hardAlpha" operator="out"/>
<feColorMatrix type="matrix" values="0 0 0 0 0.745098 0 0 0 0 0.580392 0 0 0 0 0.909804 0 0 0 1 0"/>
<feBlend mode="normal" in2="BackgroundImageFix" result="effect1_dropShadow_519_93"/>
<feBlend mode="normal" in="SourceGraphic" in2="effect1_dropShadow_519_93" result="shape"/>
</filter>
<filter id="filter5_d_519_93" x="442" y="710" width="66" height="66" filterUnits="userSpaceOnUse" color-interpolation-filters="sRGB">
<feFlood flood-opacity="0" result="BackgroundImageFix"/>
<feColorMatrix in="SourceAlpha" type="matrix" values="0 0 0 0 0 0 0 0 0 0 0 0 0 0 0 0 0 0 127 0" result="hardAlpha"/>
<feOffset dy="2"/>
<feGaussianBlur stdDeviation="5"/>
<feComposite in2="hardAlpha" operator="out"/>
<feColorMatrix type="matrix" values="0 0 0 0 0.745098 0 0 0 0 0.580392 0 0 0 0 0.909804 0 0 0 1 0"/>
<feBlend mode="normal" in2="BackgroundImageFix" result="effect1_dropShadow_519_93"/>
<feBlend mode="normal" in="SourceGraphic" in2="effect1_dropShadow_519_93" result="shape"/>
</filter>
<filter id="filter6_d_519_93" x="974.334" y="930.691" width="66" height="66" filterUnits="userSpaceOnUse" color-interpolation-filters="sRGB">
<feFlood flood-opacity="0" result="BackgroundImageFix"/>
<feColorMatrix in="SourceAlpha" type="matrix" values="0 0 0 0 0 0 0 0 0 0 0 0 0 0 0 0 0 0 127 0" result="hardAlpha"/>
<feOffset dy="2"/>
<feGaussianBlur stdDeviation="5"/>
<feComposite in2="hardAlpha" operator="out"/>
<feColorMatrix type="matrix" values="0 0 0 0 0.745098 0 0 0 0 0.580392 0 0 0 0 0.909804 0 0 0 1 0"/>
<feBlend mode="normal" in2="BackgroundImageFix" result="effect1_dropShadow_519_93"/>
<feBlend mode="normal" in="SourceGraphic" in2="effect1_dropShadow_519_93" result="shape"/>
</filter>
<filter id="filter7_d_519_93" x="534.89" y="492.883" width="66" height="66" filterUnits="userSpaceOnUse" color-interpolation-filters="sRGB">
<feFlood flood-opacity="0" result="BackgroundImageFix"/>
<feColorMatrix in="SourceAlpha" type="matrix" values="0 0 0 0 0 0 0 0 0 0 0 0 0 0 0 0 0 0 127 0" result="hardAlpha"/>
<feOffset dy="2"/>
<feGaussianBlur stdDeviation="5"/>
<feComposite in2="hardAlpha" operator="out"/>
<feColorMatrix type="matrix" values="0 0 0 0 0.745098 0 0 0 0 0.580392 0 0 0 0 0.909804 0 0 0 1 0"/>
<feBlend mode="normal" in2="BackgroundImageFix" result="effect1_dropShadow_519_93"/>
<feBlend mode="normal" in="SourceGraphic" in2="effect1_dropShadow_519_93" result="shape"/>
</filter>
<filter id="filter8_d_519_93" x="973.83" y="492.027" width="66" height="66" filterUnits="userSpaceOnUse" color-interpolation-filters="sRGB">
<feFlood flood-opacity="0" result="BackgroundImageFix"/>
<feColorMatrix in="SourceAlpha" type="matrix" values="0 0 0 0 0 0 0 0 0 0 0 0 0 0 0 0 0 0 127 0" result="hardAlpha"/>
<feOffset dy="2"/>
<feGaussianBlur stdDeviation="5"/>
<feComposite in2="hardAlpha" operator="out"/>
<feColorMatrix type="matrix" values="0 0 0 0 0.745098 0 0 0 0 0.580392 0 0 0 0 0.909804 0 0 0 1 0"/>
<feBlend mode="normal" in2="BackgroundImageFix" result="effect1_dropShadow_519_93"/>
<feBlend mode="normal" in="SourceGraphic" in2="effect1_dropShadow_519_93" result="shape"/>
</filter>
<filter id="filter9_d_519_93" x="538.472" y="932.156" width="66" height="66" filterUnits="userSpaceOnUse" color-interpolation-filters="sRGB">
<feFlood flood-opacity="0" result="BackgroundImageFix"/>
<feColorMatrix in="SourceAlpha" type="matrix" values="0 0 0 0 0 0 0 0 0 0 0 0 0 0 0 0 0 0 127 0" result="hardAlpha"/>
<feOffset dy="2"/>
<feGaussianBlur stdDeviation="5"/>
<feComposite in2="hardAlpha" operator="out"/>
<feColorMatrix type="matrix" values="0 0 0 0 0.745098 0 0 0 0 0.580392 0 0 0 0 0.909804 0 0 0 1 0"/>
<feBlend mode="normal" in2="BackgroundImageFix" result="effect1_dropShadow_519_93"/>
<feBlend mode="normal" in="SourceGraphic" in2="effect1_dropShadow_519_93" result="shape"/>
</filter>
<filter id="filter10_d_519_93" x="755" y="397" width="66" height="66" filterUnits="userSpaceOnUse" color-interpolation-filters="sRGB">
<feFlood flood-opacity="0" result="BackgroundImageFix"/>
<feColorMatrix in="SourceAlpha" type="matrix" values="0 0 0 0 0 0 0 0 0 0 0 0 0 0 0 0 0 0 127 0" result="hardAlpha"/>
<feOffset dy="2"/>
<feGaussianBlur stdDeviation="5"/>
<feComposite in2="hardAlpha" operator="out"/>
<feColorMatrix type="matrix" values="0 0 0 0 0.745098 0 0 0 0 0.580392 0 0 0 0 0.909804 0 0 0 1 0"/>
<feBlend mode="normal" in2="BackgroundImageFix" result="effect1_dropShadow_519_93"/>
<feBlend mode="normal" in="SourceGraphic" in2="effect1_dropShadow_519_93" result="shape"/>
</filter>
<filter id="filter11_d_519_93" x="754" y="1021" width="66" height="66" filterUnits="userSpaceOnUse" color-interpolation-filters="sRGB">
<feFlood flood-opacity="0" result="BackgroundImageFix"/>
<feColorMatrix in="SourceAlpha" type="matrix" values="0 0 0 0 0 0 0 0 0 0 0 0 0 0 0 0 0 0 127 0" result="hardAlpha"/>
<feOffset dy="2"/>
<feGaussianBlur stdDeviation="5"/>
<feComposite in2="hardAlpha" operator="out"/>
<feColorMatrix type="matrix" values="0 0 0 0 0.745098 0 0 0 0 0.580392 0 0 0 0 0.909804 0 0 0 1 0"/>
<feBlend mode="normal" in2="BackgroundImageFix" result="effect1_dropShadow_519_93"/>
<feBlend mode="normal" in="SourceGraphic" in2="effect1_dropShadow_519_93" result="shape"/>
</filter>
</defs>
</svg>
