<svg viewBox="0 0 1948 1948" fill="none" xmlns="http://www.w3.org/2000/svg">
<rect x="294.407" y="294.127" width="1362.44" height="1356.51" stroke="#9071AF" stroke-width="11.8731"/>
<rect x="976.212" y="8.39606" width="1362.44" height="1368.7" transform="rotate(45 976.212 8.39606)" stroke="#9071AF" stroke-width="11.8731"/>
<path d="M1702.86 979.801C1702.86 1385.57 1376.57 1714.45 974.143 1714.45C571.72 1714.45 245.43 1385.57 245.43 979.801C245.43 574.031 571.72 245.151 974.143 245.151C1376.57 245.151 1702.86 574.031 1702.86 979.801Z" stroke="#9071AF" stroke-width="8.90485"/>
<path d="M294.406 300.064L1652.4 1658.05" stroke="#9071AF" stroke-width="11.8731"/>
<path d="M15.3916 975.348H1935.88" stroke="#9071AF" stroke-width="11.8731"/>
<path d="M1649.43 297.096L291.437 1655.09" stroke="#9071AF" stroke-width="11.8731"/>
<path d="M968.396 18.6216L971.172 1935.58" stroke="#9071AF" stroke-width="11.8731"/>
<path d="M288.926 1268.39L687.521 287.804L1663.83 685.277L1268.67 1660.59L288.926 1268.39Z" fill="#B56DFE" fill-opacity="0.13" stroke="#9071AF" stroke-width="2.96828"/>
<path d="M297.233 691.163L1268.91 290.56L1649.84 1264.4L688.461 1660.59L297.233 691.163Z" fill="#B56DFE" fill-opacity="0.13" stroke="#9071AF" stroke-width="2.96828"/>
<path d="M1266.52 288.189L285.504 1248.43" stroke="#9071AF" stroke-width="2.96828"/>
<path d="M1670.21 691.877L689.188 1652.12" stroke="#9071AF" stroke-width="2.96828"/>
<path d="M1457.97 783.894L751.522 1475.5" stroke="#9071AF" stroke-width="2.96828"/>
<path d="M1175.99 493.001L487.347 1172.74" stroke="#9071AF" stroke-width="2.96828"/>
<path d="M760.427 481.129L1472.81 1178.68" stroke="#9071AF" stroke-width="2.96828"/>
<path d="M487.347 763.116L1178.96 1469.57" stroke="#9071AF" stroke-width="2.96828"/>
<rect x="494.767" y="770.536" width="970.628" height="403.686" stroke="#9071AF" stroke-width="2.96828"/>
<path d="M689.188 297.095L689.188 1661.02" stroke="#9071AF" stroke-width="2.96828"/>
<path d="M772.3 484.097L772.3 1463.63" stroke="#9071AF" stroke-width="2.96828"/>
<path d="M1178.96 481.128L1178.96 1475.5" stroke="#9071AF" stroke-width="2.96828"/>
<path d="M1273.94 288.189V1652.12" stroke="#9071AF" stroke-width="2.96828"/>
<path d="M1665.75 691.877L288.469 691.877" stroke="#9071AF" stroke-width="2.96828"/>
<path d="M1659.82 1264.75L282.533 1264.76" stroke="#9071AF" stroke-width="2.96828"/>
<path d="M1256.42 1659.83L282.537 685.941" stroke="#9071AF" stroke-width="2.96828"/>
<path d="M1671.98 1270.98L698.091 297.096" stroke="#9071AF" stroke-width="2.96828"/>
<circle cx="980.08" cy="964.958" r="378.456" stroke="#9071AF" stroke-width="2.96828"/>
<circle cx="975.627" cy="972.379" r="201.843" stroke="#9071AF" stroke-width="2.96828"/>
<circle cx="294.407" cy="288.191" r="46.0084" fill="white" stroke="#9071AF" stroke-width="2.96828"/>
<circle cx="294.407" cy="1656.57" r="46.0084" fill="white" stroke="#9071AF" stroke-width="2.96828"/>
<circle cx="1659.81" cy="1656.57" r="46.0084" fill="white" stroke="#9071AF" stroke-width="2.96828"/>
<circle cx="1659.81" cy="288.191" r="46.0084" fill="white" stroke="#9071AF" stroke-width="2.96828"/>
<circle cx="970.062" cy="974.103" r="46.0084" fill="white" stroke="#9071AF" stroke-width="2.96828"/>
<circle cx="767.848" cy="479.645" r="23.7463" fill="white" stroke="#9071AF" stroke-width="2.96828"/>
<circle cx="494.767" cy="1171.25" r="23.7463" fill="white" stroke="#9071AF" stroke-width="2.96828"/>
<circle cx="1468.36" cy="1171.25" r="23.7463" fill="white" stroke="#9071AF" stroke-width="2.96828"/>
<circle cx="1474.3" cy="776.473" r="23.7463" fill="white" stroke="#9071AF" stroke-width="2.96828"/>
<circle cx="494.767" cy="776.473" r="23.7463" fill="white" stroke="#9071AF" stroke-width="2.96828"/>
<circle cx="770.815" cy="1468.08" r="23.7463" fill="white" stroke="#9071AF" stroke-width="2.96828"/>
<circle cx="1177.47" cy="1468.08" r="23.7463" fill="white" stroke="#9071AF" stroke-width="2.96828"/>
<circle cx="1174.5" cy="479.645" r="23.7463" fill="white" stroke="#9071AF" stroke-width="2.96828"/>
<circle cx="1658.33" cy="693.361" r="32.6511" fill="white" stroke="#9071AF" stroke-width="2.96828"/>
<circle cx="295.891" cy="690.392" r="32.6511" fill="white" stroke="#9071AF" stroke-width="2.96828"/>
<circle cx="295.891" cy="1263.27" r="32.6511" fill="white" stroke="#9071AF" stroke-width="2.96828"/>
<circle cx="1658.33" cy="1263.27" r="32.6511" fill="white" stroke="#9071AF" stroke-width="2.96828"/>
<circle cx="1266.52" cy="1658.05" r="32.6511" fill="white" stroke="#9071AF" stroke-width="2.96828"/>
<circle cx="687.706" cy="1658.05" r="32.6511" fill="white" stroke="#9071AF" stroke-width="2.96828"/>
<circle cx="687.706" cy="289.674" r="32.6511" fill="white" stroke="#9071AF" stroke-width="2.96828"/>
<circle cx="1272.46" cy="289.674" r="32.6511" fill="white" stroke="#9071AF" stroke-width="2.96828"/>
</svg>
