<svg width="693" height="690" viewBox="0 0 693 690" fill="none" xmlns="http://www.w3.org/2000/svg">
<path d="M345 31L345 660" stroke="#C0B8C9"/>
<path d="M569 120L121 570" stroke="#C0B8C9"/>
<path d="M661 345L31 345" stroke="#C0B8C9"/>
<path d="M569 569L121 121" stroke="#C0B8C9"/>
<rect x="165.613" y="345.74" width="253.692" height="253.351" transform="rotate(-45 165.613 345.74)" stroke="#C0B8C9" stroke-width="0.5"/>
<rect x="218.678" y="473.16" width="254.24" height="254.24" transform="rotate(-90 218.678 473.16)" stroke="#C0B8C9"/>
<rect x="122.051" y="345.048" width="317.222" height="315.575" transform="rotate(-45 122.051 345.048)" stroke="#9071AF"/>
<rect x="187.5" y="503.722" width="317.222" height="315.575" transform="rotate(-90 187.5 503.722)" stroke="#9071AF"/>
<rect x="73.4024" y="344.768" width="384.091" height="384.091" transform="rotate(-45 73.4024 344.768)" stroke="#C0B8C9" stroke-width="0.5"/>
<rect x="151.5" y="151.499" width="386" height="386" stroke="#C0B8C9"/>
<g filter="url(#filter0_d_204_732)">
<rect x="122.5" y="121.5" width="446" height="447" stroke="#9071AF" stroke-width="3" shape-rendering="crispEdges"/>
</g>
<g filter="url(#filter1_d_204_732)">
<rect x="31.1213" y="345.027" width="443.929" height="443.929" transform="rotate(-45 31.1213 345.027)" stroke="#9071AF" stroke-width="3" shape-rendering="crispEdges"/>
</g>
<path d="M231.958 73.7198L344.5 29.2688L457.042 73.7198L457.049 73.7228L568.109 121.744L616.207 232.629L616.21 232.636L660.731 345L616.21 457.364L616.207 457.371L568.109 568.255L457.049 616.277L457.042 616.28L344.5 660.731L231.958 616.28L231.951 616.277L120.891 568.255L72.7931 457.371L72.79 457.364L28.2689 345L72.79 232.636L72.7931 232.629L120.891 121.744L231.951 73.7228L231.958 73.7198Z" stroke="#C0B8C9" stroke-width="0.5"/>
<path d="M345.5 309.5C364.258 309.5 379.5 325.374 379.5 345C379.5 364.626 364.258 380.5 345.5 380.5C326.742 380.5 311.5 364.626 311.5 345C311.5 325.374 326.742 309.5 345.5 309.5Z" fill="white" stroke="#C0B8C9"/>
<path d="M570 324.5C580.77 324.5 589.5 333.23 589.5 344C589.5 354.77 580.77 363.5 570 363.5C559.23 363.5 550.5 354.77 550.5 344C550.5 333.23 559.23 324.5 570 324.5Z" fill="white" stroke="#9071AF"/>
<path d="M506 324.5C516.77 324.5 525.5 333.23 525.5 344C525.5 354.77 516.77 363.5 506 363.5C495.23 363.5 486.5 354.77 486.5 344C486.5 333.23 495.23 324.5 506 324.5Z" fill="white" stroke="#C0B8C9"/>
<path d="M615 324.5C625.77 324.5 634.5 333.23 634.5 344C634.5 354.77 625.77 363.5 615 363.5C604.23 363.5 595.5 354.77 595.5 344C595.5 333.23 604.23 324.5 615 324.5Z" fill="white" stroke="#9071AF"/>
<g filter="url(#filter2_d_204_732)">
<ellipse cx="660" cy="344" rx="20" ry="20" transform="rotate(-90 660 344)" fill="white"/>
<path d="M681.5 344C681.5 332.126 671.874 322.5 660 322.5C648.126 322.5 638.5 332.126 638.5 344C638.5 355.874 648.126 365.5 660 365.5C671.874 365.5 681.5 355.874 681.5 344Z" stroke="#9071AF" stroke-width="3"/>
</g>
<path d="M188 266.5C179.992 266.5 173.5 272.992 173.5 281C173.5 289.008 179.992 295.5 188 295.5C196.008 295.5 202.5 289.008 202.5 281C202.5 272.992 196.008 266.5 188 266.5Z" fill="white" stroke="#9071AF"/>
<path d="M504 266.5C495.992 266.5 489.5 272.992 489.5 281C489.5 289.008 495.992 295.5 504 295.5C512.008 295.5 518.5 289.008 518.5 281C518.5 272.992 512.008 266.5 504 266.5Z" fill="white" stroke="#9071AF"/>
<path d="M504 395.5C495.992 395.5 489.5 401.992 489.5 410C489.5 418.008 495.992 424.5 504 424.5C512.008 424.5 518.5 418.008 518.5 410C518.5 401.992 512.008 395.5 504 395.5Z" fill="white" stroke="#9071AF"/>
<path d="M188 395.5C179.992 395.5 173.5 401.992 173.5 410C173.5 418.008 179.992 424.5 188 424.5C196.008 424.5 202.5 418.008 202.5 410C202.5 401.992 196.008 395.5 188 395.5Z" fill="white" stroke="#9071AF"/>
<path d="M123 324.5C112.23 324.5 103.5 333.23 103.5 344C103.5 354.77 112.23 363.5 123 363.5C133.77 363.5 142.5 354.77 142.5 344C142.5 333.23 133.77 324.5 123 324.5Z" fill="white" stroke="#9071AF"/>
<path d="M185 325.5C174.23 325.5 165.5 334.23 165.5 345C165.5 355.77 174.23 364.5 185 364.5C195.77 364.5 204.5 355.77 204.5 345C204.5 334.23 195.77 325.5 185 325.5Z" fill="white" stroke="#C0B8C9"/>
<path d="M326.5 183C326.5 172.23 335.23 163.5 346 163.5C356.77 163.5 365.5 172.23 365.5 183C365.5 193.77 356.77 202.5 346 202.5C335.23 202.5 326.5 193.77 326.5 183Z" fill="white" stroke="#C0B8C9"/>
<path d="M326.5 505C326.5 515.77 335.23 524.5 346 524.5C356.77 524.5 365.5 515.77 365.5 505C365.5 494.23 356.77 485.5 346 485.5C335.23 485.5 326.5 494.23 326.5 505Z" fill="white" stroke="#C0B8C9"/>
<path d="M218.22 244.298C210.605 236.683 210.605 224.336 218.22 216.721C225.835 209.106 238.182 209.106 245.797 216.721C253.413 224.336 253.413 236.683 245.797 244.298C238.182 251.914 225.835 251.914 218.22 244.298Z" fill="white" stroke="#C0B8C9"/>
<path d="M445.909 470.572C453.524 478.187 465.871 478.187 473.486 470.572C481.101 462.957 481.101 450.61 473.486 442.995C465.871 435.379 453.524 435.379 445.909 442.995C438.293 450.61 438.293 462.957 445.909 470.572Z" fill="white" stroke="#C0B8C9"/>
<path d="M245.091 471.279C237.476 478.894 225.129 478.894 217.514 471.279C209.899 463.664 209.899 451.317 217.514 443.702C225.129 436.087 237.476 436.087 245.091 443.702C252.707 451.317 252.707 463.664 245.091 471.279Z" fill="white" stroke="#C0B8C9"/>
<path d="M472.78 243.591C480.395 235.976 480.395 223.629 472.78 216.014C465.165 208.399 452.818 208.399 445.203 216.014C437.587 223.629 437.587 235.976 445.203 243.591C452.818 251.207 465.165 251.207 472.78 243.591Z" fill="white" stroke="#C0B8C9"/>
<path d="M78 324.5C67.2304 324.5 58.5 333.23 58.5 344C58.5 354.77 67.2304 363.5 78 363.5C88.7696 363.5 97.5 354.77 97.5 344C97.5 333.23 88.7696 324.5 78 324.5Z" fill="white" stroke="#9071AF"/>
<g filter="url(#filter3_d_204_732)">
<ellipse rx="20" ry="20" transform="matrix(4.37114e-08 -1 -1 -4.37114e-08 33 344)" fill="white"/>
<path d="M11.5 344C11.5 332.126 21.1259 322.5 33 322.5C44.8741 322.5 54.5 332.126 54.5 344C54.5 355.874 44.8741 365.5 33 365.5C21.1259 365.5 11.5 355.874 11.5 344Z" stroke="#9071AF" stroke-width="3"/>
</g>
<path d="M488.651 486.521C496.266 478.906 508.613 478.906 516.228 486.521C523.843 494.136 523.843 506.483 516.228 514.098C508.613 521.713 496.266 521.713 488.651 514.098C481.036 506.483 481.036 494.136 488.651 486.521Z" fill="white" stroke="#9071AF"/>
<path d="M520.459 518.367C528.075 510.751 540.421 510.751 548.037 518.367C555.652 525.982 555.652 538.329 548.037 545.944C540.421 553.559 528.075 553.559 520.459 545.944C512.844 538.329 512.844 525.982 520.459 518.367Z" fill="white" stroke="#9071AF"/>
<g filter="url(#filter4_d_204_732)">
<ellipse cx="565.334" cy="564.692" rx="20" ry="20" transform="rotate(-135 565.334 564.692)" fill="white"/>
<path d="M580.537 549.489C572.141 541.093 558.527 541.093 550.131 549.489C541.735 557.886 541.735 571.499 550.131 579.895C558.527 588.291 572.141 588.291 580.537 579.895C588.933 571.499 588.933 557.886 580.537 549.489Z" stroke="#9071AF" stroke-width="3"/>
</g>
<path d="M177.646 175.758C170.031 183.374 170.031 195.72 177.646 203.335C185.261 210.951 197.608 210.951 205.223 203.335C212.838 195.72 212.838 183.374 205.223 175.758C197.608 168.143 185.261 168.143 177.646 175.758Z" fill="white" stroke="#9071AF"/>
<path d="M144.847 144.948C137.232 152.563 137.232 164.91 144.847 172.525C152.462 180.14 164.809 180.14 172.424 172.525C180.039 164.91 180.039 152.563 172.424 144.948C164.809 137.333 152.462 137.333 144.847 144.948Z" fill="white" stroke="#9071AF"/>
<g filter="url(#filter5_d_204_732)">
<ellipse rx="20" ry="20" transform="matrix(-0.707107 -0.707107 -0.707107 0.707107 125.89 126.884)" fill="white"/>
<path d="M110.687 142.087C102.29 133.69 102.29 120.077 110.687 111.681C119.083 103.285 132.696 103.285 141.092 111.681C149.489 120.077 149.489 133.69 141.092 142.087C132.696 150.483 119.083 150.483 110.687 142.087Z" stroke="#9071AF" stroke-width="3"/>
</g>
<path d="M487.381 176.65C494.997 169.035 507.343 169.035 514.959 176.65C522.574 184.265 522.574 196.612 514.959 204.227C507.343 211.842 494.997 211.842 487.381 204.227C479.766 196.612 479.766 184.265 487.381 176.65Z" fill="white" stroke="#9071AF"/>
<path d="M519.665 144.497C527.28 136.882 539.626 136.882 547.242 144.497C554.857 152.113 554.857 164.459 547.242 172.075C539.626 179.69 527.28 179.69 519.665 172.075C512.049 164.459 512.049 152.113 519.665 144.497Z" fill="white" stroke="#9071AF"/>
<g filter="url(#filter6_d_204_732)">
<ellipse cx="564.83" cy="126.03" rx="20" ry="20" transform="rotate(-135 564.83 126.03)" fill="white"/>
<path d="M580.033 110.827C571.637 102.431 558.024 102.431 549.627 110.827C541.231 119.224 541.231 132.837 549.627 141.233C558.024 149.629 571.637 149.629 580.033 141.233C588.429 132.837 588.429 119.224 580.033 110.827Z" stroke="#9071AF" stroke-width="3"/>
</g>
<path d="M177.462 483.781C169.847 491.396 169.847 503.743 177.462 511.358C185.078 518.973 197.424 518.973 205.039 511.358C212.655 503.743 212.655 491.396 205.039 483.781C197.424 476.166 185.078 476.166 177.462 483.781Z" fill="white" stroke="#9071AF"/>
<path d="M147.285 517.792C139.669 525.408 139.669 537.754 147.285 545.37C154.9 552.985 167.247 552.985 174.862 545.37C182.477 537.754 182.477 525.408 174.862 517.792C167.247 510.177 154.9 510.177 147.285 517.792Z" fill="white" stroke="#9071AF"/>
<g filter="url(#filter7_d_204_732)">
<ellipse rx="20" ry="20" transform="matrix(-0.707107 -0.707107 -0.707107 0.707107 129.472 566.155)" fill="white"/>
<path d="M114.269 581.358C105.873 572.962 105.873 559.349 114.269 550.952C122.665 542.556 136.278 542.556 144.674 550.952C153.071 559.349 153.071 572.962 144.674 581.358C136.278 589.754 122.665 589.754 114.269 581.358Z" stroke="#9071AF" stroke-width="3"/>
</g>
<path d="M263.362 187C263.362 178.916 269.916 172.362 278 172.362C286.084 172.362 292.637 178.916 292.637 187C292.637 195.084 286.084 201.638 278 201.638C269.916 201.638 263.362 195.084 263.362 187Z" fill="white" stroke="#9071AF" stroke-width="0.725"/>
<path d="M400.412 187C400.412 178.944 406.944 172.412 415 172.412C423.056 172.412 429.587 178.944 429.587 187C429.587 195.056 423.056 201.588 415 201.588C406.944 201.588 400.412 195.056 400.412 187Z" fill="white" stroke="#9071AF" stroke-width="0.825"/>
<path d="M326.5 121C326.5 110.23 335.23 101.5 346 101.5C356.77 101.5 365.5 110.23 365.5 121C365.5 131.77 356.77 140.5 346 140.5C335.23 140.5 326.5 131.77 326.5 121Z" fill="white" stroke="#9071AF"/>
<path d="M326.5 76C326.5 65.2305 335.23 56.5 346 56.5C356.77 56.5 365.5 65.2304 365.5 76C365.5 86.7696 356.77 95.5 346 95.5C335.23 95.5 326.5 86.7696 326.5 76Z" fill="white" stroke="#9071AF"/>
<g filter="url(#filter8_d_204_732)">
<ellipse cx="346" cy="31" rx="20" ry="20" transform="rotate(180 346 31)" fill="white"/>
<path d="M346 9.5C334.126 9.5 324.5 19.1259 324.5 31C324.5 42.8741 334.126 52.5 346 52.5C357.874 52.5 367.5 42.8741 367.5 31C367.5 19.1259 357.874 9.5 346 9.5Z" stroke="#9071AF" stroke-width="3"/>
</g>
<path d="M263.5 503C263.5 511.008 269.992 517.5 278 517.5C286.008 517.5 292.5 511.008 292.5 503C292.5 494.992 286.008 488.5 278 488.5C269.992 488.5 263.5 494.992 263.5 503Z" fill="white" stroke="#9071AF"/>
<path d="M400.5 504C400.5 512.008 406.992 518.5 415 518.5C423.008 518.5 429.5 512.008 429.5 504C429.5 495.992 423.008 489.5 415 489.5C406.992 489.5 400.5 495.992 400.5 504Z" fill="white" stroke="#9071AF"/>
<path d="M326.5 565C326.5 575.77 335.23 584.5 346 584.5C356.77 584.5 365.5 575.77 365.5 565C365.5 554.23 356.77 545.5 346 545.5C335.23 545.5 326.5 554.23 326.5 565Z" fill="white" stroke="#9071AF"/>
<path d="M326.5 610C326.5 620.77 335.23 629.5 346 629.5C356.77 629.5 365.5 620.77 365.5 610C365.5 599.23 356.77 590.5 346 590.5C335.23 590.5 326.5 599.23 326.5 610Z" fill="white" stroke="#9071AF"/>
<g filter="url(#filter9_d_204_732)">
<ellipse rx="20" ry="20" transform="matrix(-1 0 0 1 345 655)" fill="white"/>
<path d="M345 676.5C333.126 676.5 323.5 666.874 323.5 655C323.5 643.126 333.126 633.5 345 633.5C356.874 633.5 366.5 643.126 366.5 655C366.5 666.874 356.874 676.5 345 676.5Z" stroke="#9071AF" stroke-width="3"/>
</g>
<circle cx="367.5" cy="367.5" r="14" fill="white" stroke="#9071AF"/>
<defs>
<filter id="filter0_d_204_732" x="111" y="112" width="469" height="470" filterUnits="userSpaceOnUse" color-interpolation-filters="sRGB">
<feFlood flood-opacity="0" result="BackgroundImageFix"/>
<feColorMatrix in="SourceAlpha" type="matrix" values="0 0 0 0 0 0 0 0 0 0 0 0 0 0 0 0 0 0 127 0" result="hardAlpha"/>
<feOffset dy="2"/>
<feGaussianBlur stdDeviation="5"/>
<feComposite in2="hardAlpha" operator="out"/>
<feColorMatrix type="matrix" values="0 0 0 0 0.745098 0 0 0 0 0.580392 0 0 0 0 0.909804 0 0 0 1 0"/>
<feBlend mode="normal" in2="BackgroundImageFix" result="effect1_dropShadow_204_732"/>
<feBlend mode="normal" in="SourceGraphic" in2="effect1_dropShadow_204_732" result="shape"/>
</filter>
<filter id="filter1_d_204_732" x="19" y="21" width="652.055" height="652.055" filterUnits="userSpaceOnUse" color-interpolation-filters="sRGB">
<feFlood flood-opacity="0" result="BackgroundImageFix"/>
<feColorMatrix in="SourceAlpha" type="matrix" values="0 0 0 0 0 0 0 0 0 0 0 0 0 0 0 0 0 0 127 0" result="hardAlpha"/>
<feOffset dy="2"/>
<feGaussianBlur stdDeviation="5"/>
<feComposite in2="hardAlpha" operator="out"/>
<feColorMatrix type="matrix" values="0 0 0 0 0.745098 0 0 0 0 0.580392 0 0 0 0 0.909804 0 0 0 1 0"/>
<feBlend mode="normal" in2="BackgroundImageFix" result="effect1_dropShadow_204_732"/>
<feBlend mode="normal" in="SourceGraphic" in2="effect1_dropShadow_204_732" result="shape"/>
</filter>
<filter id="filter2_d_204_732" x="627" y="313" width="66" height="66" filterUnits="userSpaceOnUse" color-interpolation-filters="sRGB">
<feFlood flood-opacity="0" result="BackgroundImageFix"/>
<feColorMatrix in="SourceAlpha" type="matrix" values="0 0 0 0 0 0 0 0 0 0 0 0 0 0 0 0 0 0 127 0" result="hardAlpha"/>
<feOffset dy="2"/>
<feGaussianBlur stdDeviation="5"/>
<feComposite in2="hardAlpha" operator="out"/>
<feColorMatrix type="matrix" values="0 0 0 0 0.745098 0 0 0 0 0.580392 0 0 0 0 0.909804 0 0 0 1 0"/>
<feBlend mode="normal" in2="BackgroundImageFix" result="effect1_dropShadow_204_732"/>
<feBlend mode="normal" in="SourceGraphic" in2="effect1_dropShadow_204_732" result="shape"/>
</filter>
<filter id="filter3_d_204_732" x="0" y="313" width="66" height="66" filterUnits="userSpaceOnUse" color-interpolation-filters="sRGB">
<feFlood flood-opacity="0" result="BackgroundImageFix"/>
<feColorMatrix in="SourceAlpha" type="matrix" values="0 0 0 0 0 0 0 0 0 0 0 0 0 0 0 0 0 0 127 0" result="hardAlpha"/>
<feOffset dy="2"/>
<feGaussianBlur stdDeviation="5"/>
<feComposite in2="hardAlpha" operator="out"/>
<feColorMatrix type="matrix" values="0 0 0 0 0.745098 0 0 0 0 0.580392 0 0 0 0 0.909804 0 0 0 1 0"/>
<feBlend mode="normal" in2="BackgroundImageFix" result="effect1_dropShadow_204_732"/>
<feBlend mode="normal" in="SourceGraphic" in2="effect1_dropShadow_204_732" result="shape"/>
</filter>
<filter id="filter4_d_204_732" x="532.334" y="533.692" width="66" height="66" filterUnits="userSpaceOnUse" color-interpolation-filters="sRGB">
<feFlood flood-opacity="0" result="BackgroundImageFix"/>
<feColorMatrix in="SourceAlpha" type="matrix" values="0 0 0 0 0 0 0 0 0 0 0 0 0 0 0 0 0 0 127 0" result="hardAlpha"/>
<feOffset dy="2"/>
<feGaussianBlur stdDeviation="5"/>
<feComposite in2="hardAlpha" operator="out"/>
<feColorMatrix type="matrix" values="0 0 0 0 0.745098 0 0 0 0 0.580392 0 0 0 0 0.909804 0 0 0 1 0"/>
<feBlend mode="normal" in2="BackgroundImageFix" result="effect1_dropShadow_204_732"/>
<feBlend mode="normal" in="SourceGraphic" in2="effect1_dropShadow_204_732" result="shape"/>
</filter>
<filter id="filter5_d_204_732" x="92.8887" y="95.8838" width="66" height="66" filterUnits="userSpaceOnUse" color-interpolation-filters="sRGB">
<feFlood flood-opacity="0" result="BackgroundImageFix"/>
<feColorMatrix in="SourceAlpha" type="matrix" values="0 0 0 0 0 0 0 0 0 0 0 0 0 0 0 0 0 0 127 0" result="hardAlpha"/>
<feOffset dy="2"/>
<feGaussianBlur stdDeviation="5"/>
<feComposite in2="hardAlpha" operator="out"/>
<feColorMatrix type="matrix" values="0 0 0 0 0.745098 0 0 0 0 0.580392 0 0 0 0 0.909804 0 0 0 1 0"/>
<feBlend mode="normal" in2="BackgroundImageFix" result="effect1_dropShadow_204_732"/>
<feBlend mode="normal" in="SourceGraphic" in2="effect1_dropShadow_204_732" result="shape"/>
</filter>
<filter id="filter6_d_204_732" x="531.83" y="95.0303" width="66" height="66" filterUnits="userSpaceOnUse" color-interpolation-filters="sRGB">
<feFlood flood-opacity="0" result="BackgroundImageFix"/>
<feColorMatrix in="SourceAlpha" type="matrix" values="0 0 0 0 0 0 0 0 0 0 0 0 0 0 0 0 0 0 127 0" result="hardAlpha"/>
<feOffset dy="2"/>
<feGaussianBlur stdDeviation="5"/>
<feComposite in2="hardAlpha" operator="out"/>
<feColorMatrix type="matrix" values="0 0 0 0 0.745098 0 0 0 0 0.580392 0 0 0 0 0.909804 0 0 0 1 0"/>
<feBlend mode="normal" in2="BackgroundImageFix" result="effect1_dropShadow_204_732"/>
<feBlend mode="normal" in="SourceGraphic" in2="effect1_dropShadow_204_732" result="shape"/>
</filter>
<filter id="filter7_d_204_732" x="96.4707" y="535.155" width="66" height="66" filterUnits="userSpaceOnUse" color-interpolation-filters="sRGB">
<feFlood flood-opacity="0" result="BackgroundImageFix"/>
<feColorMatrix in="SourceAlpha" type="matrix" values="0 0 0 0 0 0 0 0 0 0 0 0 0 0 0 0 0 0 127 0" result="hardAlpha"/>
<feOffset dy="2"/>
<feGaussianBlur stdDeviation="5"/>
<feComposite in2="hardAlpha" operator="out"/>
<feColorMatrix type="matrix" values="0 0 0 0 0.745098 0 0 0 0 0.580392 0 0 0 0 0.909804 0 0 0 1 0"/>
<feBlend mode="normal" in2="BackgroundImageFix" result="effect1_dropShadow_204_732"/>
<feBlend mode="normal" in="SourceGraphic" in2="effect1_dropShadow_204_732" result="shape"/>
</filter>
<filter id="filter8_d_204_732" x="313" y="0" width="66" height="66" filterUnits="userSpaceOnUse" color-interpolation-filters="sRGB">
<feFlood flood-opacity="0" result="BackgroundImageFix"/>
<feColorMatrix in="SourceAlpha" type="matrix" values="0 0 0 0 0 0 0 0 0 0 0 0 0 0 0 0 0 0 127 0" result="hardAlpha"/>
<feOffset dy="2"/>
<feGaussianBlur stdDeviation="5"/>
<feComposite in2="hardAlpha" operator="out"/>
<feColorMatrix type="matrix" values="0 0 0 0 0.745098 0 0 0 0 0.580392 0 0 0 0 0.909804 0 0 0 1 0"/>
<feBlend mode="normal" in2="BackgroundImageFix" result="effect1_dropShadow_204_732"/>
<feBlend mode="normal" in="SourceGraphic" in2="effect1_dropShadow_204_732" result="shape"/>
</filter>
<filter id="filter9_d_204_732" x="312" y="624" width="66" height="66" filterUnits="userSpaceOnUse" color-interpolation-filters="sRGB">
<feFlood flood-opacity="0" result="BackgroundImageFix"/>
<feColorMatrix in="SourceAlpha" type="matrix" values="0 0 0 0 0 0 0 0 0 0 0 0 0 0 0 0 0 0 127 0" result="hardAlpha"/>
<feOffset dy="2"/>
<feGaussianBlur stdDeviation="5"/>
<feComposite in2="hardAlpha" operator="out"/>
<feColorMatrix type="matrix" values="0 0 0 0 0.745098 0 0 0 0 0.580392 0 0 0 0 0.909804 0 0 0 1 0"/>
<feBlend mode="normal" in2="BackgroundImageFix" result="effect1_dropShadow_204_732"/>
<feBlend mode="normal" in="SourceGraphic" in2="effect1_dropShadow_204_732" result="shape"/>
</filter>
</defs>
</svg>
