<svg width="1283" height="1308" viewBox="0 0 1283 1308" fill="none" xmlns="http://www.w3.org/2000/svg">
<g clip-path="url(#clip0_263_621)">
<path d="M1006.44 289.797L1006.44 1010.9L285.345 1010.9L285.345 289.797L1006.44 289.797Z" stroke="black" stroke-width="10.7697"/>
<rect x="645.895" y="140.315" width="721.292" height="721.292" transform="rotate(45 645.895 140.315)" stroke="black" stroke-width="10.7697"/>
<path d="M970 315.784L976.97 315.784L976.97 318.126L978.114 318.126L978.114 319.27L980.455 319.27L980.455 326.24L978.114 326.24L978.114 333.21L980.455 333.21L980.455 340.18L978.114 340.18L978.114 347.15L980.455 347.15L980.455 354.12L978.114 354.12L978.114 361.09L980.455 361.09L980.455 368.06L978.114 368.06L978.114 375.03L980.455 375.03L980.455 382L978.114 382L978.114 388.97L980.455 388.97L980.455 395.94L978.114 395.94L978.114 402.91L980.455 402.91L980.455 409.88L978.114 409.88L978.114 416.85L980.455 416.85L980.455 423.82L978.114 423.82L978.114 430.79L980.455 430.79L980.455 437.76L978.114 437.76L978.114 444.73L980.455 444.73L980.455 451.7L978.114 451.7L978.114 458.67L980.455 458.67L980.455 465.64L978.114 465.64L978.114 472.61L980.455 472.61L980.455 479.581L978.114 479.581L978.114 486.551L980.455 486.551L980.455 493.521L978.114 493.521L978.114 500.491L980.455 500.491L980.455 507.461L978.114 507.461L978.114 514.431L980.455 514.431L980.455 521.401L978.114 521.401L978.114 528.371L980.455 528.371L980.455 535.341L978.114 535.341L978.114 542.311L980.455 542.311L980.455 549.281L978.114 549.281L978.114 556.251L980.455 556.251L980.455 563.221L978.114 563.221L978.114 570.191L980.455 570.191L980.455 577.161L978.114 577.161L978.114 584.131L980.455 584.131L980.455 591.101L978.114 591.101L978.114 598.071L980.455 598.071L980.455 605.041L978.114 605.041L978.114 612.011L980.455 612.011L980.455 618.981L978.114 618.981L978.114 625.951L980.455 625.951L980.455 632.921L978.114 632.921L978.114 639.891L980.455 639.891L980.455 646.861L978.114 646.861L978.114 653.831L980.455 653.831L980.455 660.801L978.114 660.801L978.114 667.771L980.455 667.771L980.455 674.741L978.114 674.741L978.114 681.711L980.455 681.711L980.455 688.681L978.114 688.681L978.114 695.652L980.455 695.652L980.455 702.622L978.114 702.622L978.114 709.592L980.455 709.592L980.455 716.562L978.114 716.562L978.114 723.532L980.455 723.532L980.455 730.502L978.114 730.502L978.114 737.472L980.455 737.472L980.455 744.442L978.114 744.442L978.114 751.412L980.455 751.412L980.455 758.382L978.114 758.382L978.114 765.352L980.455 765.352L980.455 772.322L978.114 772.322L978.114 779.292L980.455 779.292L980.455 786.262L978.114 786.262L978.114 793.232L980.455 793.232L980.455 800.202L978.114 800.202L978.114 807.172L980.455 807.172L980.455 814.142L978.114 814.142L978.114 821.112L980.455 821.112L980.455 828.082L978.114 828.082L978.114 835.052L980.455 835.052L980.455 842.022L978.114 842.022L978.114 848.992L980.455 848.992L980.455 855.962L978.114 855.962L978.114 862.932L980.455 862.932L980.455 869.902L978.114 869.902L978.114 876.872L980.455 876.872L980.455 883.842L978.114 883.842L978.114 890.812L980.455 890.812L980.455 897.782L978.114 897.782L978.114 904.753L980.455 904.753L980.455 911.723L978.114 911.723L978.114 918.693L980.455 918.693L980.455 925.663L978.114 925.663L978.114 932.633L980.455 932.633L980.455 939.603L978.114 939.603L978.114 946.573L980.455 946.573L980.455 953.543L978.114 953.543L978.114 960.513L980.455 960.513L980.455 967.483L978.114 967.483L978.114 974.453L980.455 974.453L980.455 981.423L978.114 981.423L978.114 982.567L976.97 982.567L976.97 984.908L970 984.908L970 982.567L963.03 982.567L963.03 984.908L956.06 984.908L956.06 982.567L949.09 982.567L949.09 984.908L942.12 984.908L942.12 982.567L935.15 982.567L935.15 984.908L928.18 984.908L928.18 982.567L921.209 982.567L921.209 984.908L914.239 984.908L914.239 982.567L907.269 982.567L907.269 984.908L900.299 984.908L900.299 982.567L893.329 982.567L893.329 984.908L886.359 984.908L886.359 982.567L879.389 982.567L879.389 984.908L872.419 984.908L872.419 982.567L865.449 982.567L865.449 984.908L858.479 984.908L858.479 982.567L851.509 982.567L851.509 984.908L844.539 984.908L844.539 982.567L837.569 982.567L837.569 984.908L830.599 984.908L830.599 982.567L823.629 982.567L823.629 984.908L816.659 984.908L816.659 982.567L809.689 982.567L809.689 984.908L802.719 984.908L802.719 982.567L795.749 982.567L795.749 984.908L788.779 984.908L788.779 982.567L781.809 982.567L781.809 984.908L774.839 984.908L774.839 982.567L767.869 982.567L767.869 984.908L760.899 984.908L760.899 982.567L753.929 982.567L753.929 984.908L746.959 984.908L746.959 982.567L739.989 982.567L739.989 984.908L733.019 984.908L733.019 982.567L726.049 982.567L726.049 984.908L719.079 984.908L719.079 982.567L712.109 982.567L712.109 984.908L705.138 984.908L705.138 982.567L698.168 982.567L698.168 984.908L691.198 984.908L691.198 982.567L684.228 982.567L684.228 984.908L677.258 984.908L677.258 982.567L670.288 982.567L670.288 984.908L663.318 984.908L663.318 982.567L656.348 982.567L656.348 984.908L649.378 984.908L649.378 982.567L642.408 982.567L642.408 984.908L635.438 984.908L635.438 982.567L628.468 982.567L628.468 984.908L621.498 984.908L621.498 982.567L614.528 982.567L614.528 984.908L607.558 984.908L607.558 982.567L600.588 982.567L600.588 984.908L593.618 984.908L593.618 982.567L586.648 982.567L586.648 984.908L579.678 984.908L579.678 982.567L572.708 982.567L572.708 984.908L565.738 984.908L565.738 982.567L558.768 982.567L558.768 984.908L551.798 984.908L551.798 982.567L544.828 982.567L544.828 984.908L537.858 984.908L537.858 982.567L530.888 982.567L530.888 984.908L523.918 984.908L523.918 982.567L516.948 982.567L516.948 984.908L509.978 984.908L509.978 982.567L503.008 982.567L503.008 984.908L496.038 984.908L496.038 982.567L489.067 982.567L489.067 984.908L482.097 984.908L482.097 982.567L475.127 982.567L475.127 984.908L468.157 984.908L468.157 982.567L461.187 982.567L461.187 984.908L454.217 984.908L454.217 982.567L447.247 982.567L447.247 984.908L440.277 984.908L440.277 982.567L433.307 982.567L433.307 984.908L426.337 984.908L426.337 982.567L419.367 982.567L419.367 984.908L412.397 984.908L412.397 982.567L405.427 982.567L405.427 984.908L398.457 984.908L398.457 982.567L391.487 982.567L391.487 984.908L384.517 984.908L384.517 982.567L377.547 982.567L377.547 984.908L370.577 984.908L370.577 982.567L363.607 982.567L363.607 984.908L356.637 984.908L356.637 982.567L349.667 982.567L349.667 984.908L342.697 984.908L342.697 982.567L335.727 982.567L335.727 984.908L328.757 984.908L328.757 982.567L321.787 982.567L321.787 984.908L314.817 984.908L314.817 982.567L313.673 982.567L313.673 981.423L311.332 981.423L311.332 974.453L313.673 974.453L313.673 967.483L311.332 967.483L311.332 960.512L313.673 960.512L313.673 953.542L311.332 953.542L311.332 946.572L313.673 946.572L313.673 939.602L311.332 939.602L311.332 932.632L313.673 932.632L313.673 925.662L311.332 925.662L311.332 918.692L313.673 918.692L313.673 911.722L311.332 911.722L311.332 904.752L313.673 904.752L313.673 897.782L311.332 897.782L311.332 890.812L313.673 890.812L313.673 883.842L311.332 883.842L311.332 876.872L313.673 876.872L313.673 869.902L311.332 869.902L311.332 862.932L313.673 862.932L313.673 855.962L311.332 855.962L311.332 848.992L313.673 848.992L313.673 842.022L311.332 842.022L311.332 835.052L313.673 835.052L313.673 828.082L311.332 828.082L311.332 821.112L313.673 821.112L313.673 814.142L311.332 814.142L311.332 807.172L313.673 807.172L313.673 800.202L311.332 800.202L311.332 793.232L313.673 793.232L313.673 786.262L311.332 786.262L311.332 779.292L313.673 779.292L313.673 772.322L311.332 772.322L311.332 765.352L313.673 765.352L313.673 758.382L311.332 758.382L311.332 751.412L313.673 751.412L313.673 744.441L311.332 744.441L311.332 737.471L313.673 737.471L313.673 730.501L311.332 730.501L311.332 723.531L313.673 723.531L313.673 716.561L311.332 716.561L311.332 709.591L313.673 709.591L313.673 702.621L311.332 702.621L311.332 695.651L313.673 695.651L313.673 688.681L311.332 688.681L311.332 681.711L313.673 681.711L313.673 674.741L311.332 674.741L311.332 667.771L313.673 667.771L313.673 660.801L311.332 660.801L311.332 653.831L313.673 653.831L313.673 646.861L311.332 646.861L311.332 639.891L313.673 639.891L313.673 632.921L311.332 632.921L311.332 625.951L313.673 625.951L313.673 618.981L311.332 618.981L311.332 612.011L313.673 612.011L313.673 605.041L311.332 605.041L311.332 598.071L313.673 598.071L313.673 591.101L311.332 591.101L311.332 584.131L313.673 584.131L313.673 577.161L311.332 577.161L311.332 570.191L313.673 570.191L313.673 563.221L311.332 563.221L311.332 556.251L313.673 556.251L313.673 549.281L311.332 549.281L311.332 542.311L313.673 542.311L313.673 535.341L311.332 535.341L311.332 528.37L313.673 528.37L313.673 521.4L311.332 521.4L311.332 514.43L313.673 514.43L313.673 507.46L311.332 507.46L311.332 500.49L313.673 500.49L313.673 493.52L311.332 493.52L311.332 486.55L313.673 486.55L313.673 479.58L311.332 479.58L311.332 472.61L313.673 472.61L313.673 465.64L311.332 465.64L311.332 458.67L313.673 458.67L313.673 451.7L311.332 451.7L311.332 444.73L313.673 444.73L313.673 437.76L311.332 437.76L311.332 430.79L313.673 430.79L313.673 423.82L311.332 423.82L311.332 416.85L313.673 416.85L313.673 409.88L311.332 409.88L311.332 402.91L313.673 402.91L313.673 395.94L311.332 395.94L311.332 388.97L313.673 388.97L313.673 382L311.332 382L311.332 375.03L313.673 375.03L313.673 368.06L311.332 368.06L311.332 361.09L313.673 361.09L313.673 354.12L311.332 354.12L311.332 347.15L313.673 347.15L313.673 340.18L311.332 340.18L311.332 333.209L313.673 333.209L313.673 326.239L311.332 326.239L311.332 319.269L313.673 319.269L313.673 318.126L314.817 318.126L314.817 315.784L321.787 315.784L321.787 318.126L328.757 318.126L328.757 315.784L335.727 315.784L335.727 318.126L342.697 318.126L342.697 315.784L349.667 315.784L349.667 318.126L356.637 318.126L356.637 315.784L363.607 315.784L363.607 318.126L370.577 318.126L370.577 315.784L377.547 315.784L377.547 318.126L384.517 318.126L384.517 315.784L391.487 315.784L391.487 318.126L398.457 318.126L398.457 315.784L405.427 315.784L405.427 318.126L412.397 318.126L412.397 315.784L419.367 315.784L419.367 318.126L426.337 318.126L426.337 315.784L433.307 315.784L433.307 318.126L440.278 318.126L440.278 315.784L447.248 315.784L447.248 318.126L454.218 318.126L454.218 315.784L461.188 315.784L461.188 318.126L468.158 318.126L468.158 315.784L475.128 315.784L475.128 318.126L482.098 318.126L482.098 315.784L489.068 315.784L489.068 318.126L496.038 318.126L496.038 315.784L503.008 315.784L503.008 318.126L509.978 318.126L509.978 315.784L516.948 315.784L516.948 318.126L523.918 318.126L523.918 315.784L530.888 315.784L530.888 318.126L537.858 318.126L537.858 315.784L544.828 315.784L544.828 318.126L551.798 318.126L551.798 315.784L558.768 315.784L558.768 318.126L565.738 318.126L565.738 315.784L572.708 315.784L572.708 318.126L579.678 318.126L579.678 315.784L586.648 315.784L586.648 318.126L593.618 318.126L593.618 315.784L600.588 315.784L600.588 318.126L607.558 318.126L607.558 315.784L614.528 315.784L614.528 318.126L621.498 318.126L621.498 315.784L628.468 315.784L628.468 318.126L635.438 318.126L635.438 315.784L642.408 315.784L642.408 318.126L649.379 318.126L649.379 315.784L656.349 315.784L656.349 318.126L663.319 318.126L663.319 315.784L670.289 315.784L670.289 318.126L677.259 318.126L677.259 315.784L684.229 315.784L684.229 318.126L691.199 318.126L691.199 315.784L698.169 315.784L698.169 318.126L705.139 318.126L705.139 315.784L712.109 315.784L712.109 318.126L719.079 318.126L719.079 315.784L726.049 315.784L726.049 318.126L733.019 318.126L733.019 315.784L739.989 315.784L739.989 318.126L746.959 318.126L746.959 315.784L753.929 315.784L753.929 318.126L760.899 318.126L760.899 315.784L767.869 315.784L767.869 318.126L774.839 318.126L774.839 315.784L781.809 315.784L781.809 318.126L788.779 318.126L788.779 315.784L795.749 315.784L795.749 318.126L802.719 318.126L802.719 315.784L809.689 315.784L809.689 318.126L816.659 318.126L816.659 315.784L823.629 315.784L823.629 318.126L830.599 318.126L830.599 315.784L837.569 315.784L837.569 318.126L844.539 318.126L844.539 315.784L851.509 315.784L851.509 318.126L858.479 318.126L858.479 315.784L865.45 315.784L865.45 318.126L872.42 318.126L872.42 315.784L879.39 315.784L879.39 318.126L886.36 318.126L886.36 315.784L893.33 315.784L893.33 318.126L900.3 318.126L900.3 315.784L907.27 315.784L907.27 318.126L914.24 318.126L914.24 315.784L921.21 315.784L921.21 318.126L928.18 318.126L928.18 315.784L935.15 315.784L935.15 318.126L942.12 318.126L942.12 315.784L949.09 315.784L949.09 318.126L956.06 318.126L956.06 315.784L963.03 315.784L963.03 318.126L970 318.126L970 315.784Z" stroke="black" stroke-width="4.68246" stroke-dasharray="7.02 7.02"/>
<rect x="645.895" y="180.401" width="664.603" height="664.603" transform="rotate(45 645.895 180.401)" stroke="black" stroke-width="4.68246" stroke-dasharray="7.02 7.02"/>
<path d="M641.68 16.8092L28.7461 458.131L261.464 1181.34L1023.77 1182.98L1263.04 459.068L641.68 16.8092Z" stroke="#7E3992" stroke-width="10.7697"/>
<path d="M1013.51 123.196L258.23 126.151L27.3396 849.943L646.757 1294.28L1262.17 844.204L1013.51 123.196Z" stroke="#7E3992" stroke-width="10.7697"/>
<path d="M968.752 118.653L910.46 211.825" stroke="#7E3992" stroke-opacity="0.5" stroke-width="4.68246"/>
<path d="M1033.33 168.841L970.161 253.445" stroke="#7E3992" stroke-opacity="0.5" stroke-width="4.68246"/>
<path d="M1065.29 257.37L1027.04 294.809" stroke="#7E3992" stroke-opacity="0.5" stroke-width="4.68246"/>
<path d="M872.762 121.462L852.259 171.665" stroke="#7E3992" stroke-opacity="0.5" stroke-width="4.68246"/>
<path d="M242.512 171.781L310.261 258.322" stroke="#7E3992" stroke-opacity="0.5" stroke-width="4.68246"/>
<path d="M311.695 128.158L369.726 216.364" stroke="#7E3992" stroke-opacity="0.5" stroke-width="4.68246"/>
<path d="M405.816 128.258L427.991 176.968" stroke="#7E3992" stroke-opacity="0.5" stroke-width="4.68246"/>
<path d="M212.461 262.989L252.679 299.364" stroke="#7E3992" stroke-opacity="0.5" stroke-width="4.68246"/>
<path d="M1041.39 1141.48L974.491 1054.28" stroke="#7E3992" stroke-opacity="0.5" stroke-width="4.68246"/>
<path d="M971.791 1184.43L914.621 1095.66" stroke="#7E3992" stroke-opacity="0.5" stroke-width="4.68246"/>
<path d="M877.674 1183.41L855.974 1134.49" stroke="#7E3992" stroke-opacity="0.5" stroke-width="4.68246"/>
<path d="M1072.33 1050.57L1032.47 1013.8" stroke="#7E3992" stroke-opacity="0.5" stroke-width="4.68246"/>
<path d="M314.611 1187.66L370.463 1093" stroke="#7E3992" stroke-opacity="0.5" stroke-width="4.68246"/>
<path d="M248.75 1139.16L309.699 1052.95" stroke="#7E3992" stroke-opacity="0.5" stroke-width="4.68246"/>
<path d="M214.5 1051.49L251.76 1013.07" stroke="#7E3992" stroke-opacity="0.5" stroke-width="4.68246"/>
<path d="M410.496 1182.35L429.687 1131.64" stroke="#7E3992" stroke-opacity="0.5" stroke-width="4.68246"/>
<path d="M37.6562 502.796L133.925 531.76" stroke="#7E3992" stroke-opacity="0.5" stroke-width="4.68246"/>
<path d="M63.8945 427.613L156.548 462.589" stroke="#7E3992" stroke-opacity="0.5" stroke-width="4.68246"/>
<path d="M138.551 375.719L179.741 396.188" stroke="#7E3992" stroke-opacity="0.5" stroke-width="4.68246"/>
<path d="M70.4082 593.056L112.263 599.072" stroke="#7E3992" stroke-opacity="0.5" stroke-width="4.68246"/>
<path d="M1248.76 795.736L1156.22 770.916" stroke="#7E3992" stroke-opacity="0.5" stroke-width="4.68246"/>
<path d="M1228.56 873.471L1135.14 840.575" stroke="#7E3992" stroke-opacity="0.5" stroke-width="4.68246"/>
<path d="M1155.08 927.021L1113.44 907.478" stroke="#7E3992" stroke-opacity="0.5" stroke-width="4.68246"/>
<path d="M1218.35 708.215L1176.37 703.136" stroke="#7E3992" stroke-opacity="0.5" stroke-width="4.68246"/>
<path d="M1216.17 431.632L1127.13 467.024" stroke="#7E3992" stroke-opacity="0.5" stroke-width="4.68246"/>
<path d="M1246.41 506.038L1151.85 535.473" stroke="#7E3992" stroke-opacity="0.5" stroke-width="4.68246"/>
<path d="M1219.49 592.88L1174.43 602.087" stroke="#7E3992" stroke-opacity="0.5" stroke-width="4.68246"/>
<path d="M1143.88 375.252L1102.79 400.634" stroke="#7E3992" stroke-opacity="0.5" stroke-width="4.68246"/>
<path d="M564.422 77.6812L570.977 122.399" stroke="#7E3992" stroke-opacity="0.5" stroke-width="4.68246"/>
<path d="M642.385 24.301V120.291" stroke="#7E3992" stroke-opacity="0.5" stroke-width="4.68246"/>
<path d="M722.221 78.6177L716.602 120.292" stroke="#7E3992" stroke-opacity="0.5" stroke-width="4.68246"/>
<path d="M724.672 1232L718.409 1187.24" stroke="#7E3992" stroke-opacity="0.5" stroke-width="4.68246"/>
<path d="M646.129 1288.33L646.99 1188.88" stroke="#7E3992" stroke-opacity="0.5" stroke-width="4.68246"/>
<path d="M566.881 1230.03L572.773 1188.4" stroke="#7E3992" stroke-opacity="0.5" stroke-width="4.68246"/>
<path d="M59.418 878.147L155.116 847.352" stroke="#7E3992" stroke-opacity="0.5" stroke-width="4.68246"/>
<path d="M38.3457 801.355L134.481 777.562" stroke="#7E3992" stroke-opacity="0.5" stroke-width="4.68246"/>
<path d="M65.9727 714.261L115.888 709.729" stroke="#7E3992" stroke-opacity="0.5" stroke-width="4.68246"/>
<path d="M137.613 933.869L175.487 915.065" stroke="#7E3992" stroke-opacity="0.5" stroke-width="4.68246"/>
<path d="M578.258 372.678L586.868 422.872" stroke="#8416AA" stroke-width="3.39515" stroke-linecap="square"/>
<path d="M632.58 365.887L633.172 416.811" stroke="#8416AA" stroke-width="3.39515" stroke-linecap="square"/>
<path d="M608.812 393.048L609.736 416.781" stroke="#8416AA" stroke-width="3.39515" stroke-linecap="square"/>
<path d="M659.008 394.175L656.18 417.757" stroke="#8416AA" stroke-width="3.39515" stroke-linecap="square"/>
<path d="M689.811 370.303L680.644 420.399" stroke="#8416AA" stroke-width="3.39515" stroke-linecap="square"/>
<path d="M744.244 389.799L725.123 437" stroke="#8416AA" stroke-width="3.39515" stroke-linecap="square"/>
<path d="M708.109 403.332L700.82 425.937" stroke="#8416AA" stroke-width="3.39515" stroke-linecap="square"/>
<path d="M758.775 423.604L748.014 444.777" stroke="#8416AA" stroke-width="3.39515" stroke-linecap="square"/>
<path d="M794.09 413.42L764.992 455.215" stroke="#8416AA" stroke-width="3.39515" stroke-linecap="square"/>
<path d="M837.549 450.111L802.227 486.799" stroke="#8416AA" stroke-width="3.39515" stroke-linecap="square"/>
<path d="M798.16 452.766L782.16 470.319" stroke="#8416AA" stroke-width="3.39515" stroke-linecap="square"/>
<path d="M836.518 488.809L817.951 503.621" stroke="#8416AA" stroke-width="3.39515" stroke-linecap="square"/>
<path d="M871.816 493.418L830.125 522.666" stroke="#8416AA" stroke-width="3.39515" stroke-linecap="square"/>
<path d="M900.301 542.122L853.551 562.322" stroke="#8416AA" stroke-width="3.39515" stroke-linecap="square"/>
<path d="M865.062 529.789L844.004 540.773" stroke="#8416AA" stroke-width="3.39515" stroke-linecap="square"/>
<path d="M883.531 576.4L861.005 583.928" stroke="#8416AA" stroke-width="3.39515" stroke-linecap="square"/>
<path d="M352.812 707.631L402.649 697.146" stroke="#8416AA" stroke-width="3.39515" stroke-linecap="square"/>
<path d="M347.387 653.598L398.253 651.099" stroke="#8416AA" stroke-width="3.39515" stroke-linecap="square"/>
<path d="M375.42 676.338L399.102 674.525" stroke="#8416AA" stroke-width="3.39515" stroke-linecap="square"/>
<path d="M374.664 626.133L398.335 628.076" stroke="#8416AA" stroke-width="3.39515" stroke-linecap="square"/>
<path d="M353.051 599.636L403.455 606.919" stroke="#8416AA" stroke-width="3.39515" stroke-linecap="square"/>
<path d="M367.098 544.511L414.982 561.85" stroke="#8416AA" stroke-width="3.39515" stroke-linecap="square"/>
<path d="M385.373 580.121L408.235 586.558" stroke="#8416AA" stroke-width="3.39515" stroke-linecap="square"/>
<path d="M403.729 532.123L425.29 542.083" stroke="#8416AA" stroke-width="3.39515" stroke-linecap="square"/>
<path d="M395.623 493.823L438.48 521.335" stroke="#8416AA" stroke-width="3.39515" stroke-linecap="square"/>
<path d="M430.658 452.409L468.643 486.331" stroke="#8416AA" stroke-width="3.39515" stroke-linecap="square"/>
<path d="M434.793 488.277L452.933 503.608" stroke="#8416AA" stroke-width="3.39515" stroke-linecap="square"/>
<path d="M469.369 451.986L484.866 469.985" stroke="#8416AA" stroke-width="3.39515" stroke-linecap="square"/>
<path d="M472.652 416.542L503.442 457.108" stroke="#8416AA" stroke-width="3.39515" stroke-linecap="square"/>
<path d="M523.654 389.652L545.592 435.612" stroke="#8416AA" stroke-width="3.39515" stroke-linecap="square"/>
<path d="M512.646 425.329L524.412 445.961" stroke="#8416AA" stroke-width="3.39515" stroke-linecap="square"/>
<path d="M558.533 405.129L566.9 427.358" stroke="#8416AA" stroke-width="3.39515" stroke-linecap="square"/>
<path d="M914.58 600.153L864.301 608.256" stroke="#8416AA" stroke-width="3.39515" stroke-linecap="square"/>
<path d="M920.818 654.548L869.891 654.625" stroke="#8416AA" stroke-width="3.39515" stroke-linecap="square"/>
<path d="M893.898 630.501L870.157 631.185" stroke="#8416AA" stroke-width="3.39515" stroke-linecap="square"/>
<path d="M892.27 680.68L868.717 677.614" stroke="#8416AA" stroke-width="3.39515" stroke-linecap="square"/>
<path d="M915.828 711.729L865.828 702.056" stroke="#8416AA" stroke-width="3.39515" stroke-linecap="square"/>
<path d="M895.779 765.964L848.773 746.367" stroke="#8416AA" stroke-width="3.39515" stroke-linecap="square"/>
<path d="M882.613 729.691L860.084 722.173" stroke="#8416AA" stroke-width="3.39515" stroke-linecap="square"/>
<path d="M861.832 780.149L840.769 769.174" stroke="#8416AA" stroke-width="3.39515" stroke-linecap="square"/>
<path d="M871.66 815.565L830.161 786.046" stroke="#8416AA" stroke-width="3.39515" stroke-linecap="square"/>
<path d="M834.527 858.657L798.199 822.966" stroke="#8416AA" stroke-width="3.39515" stroke-linecap="square"/>
<path d="M832.268 819.239L814.877 803.062" stroke="#8416AA" stroke-width="3.39515" stroke-linecap="square"/>
<path d="M795.844 857.228L781.22 838.513" stroke="#8416AA" stroke-width="3.39515" stroke-linecap="square"/>
<path d="M790.877 892.481L762.052 850.496" stroke="#8416AA" stroke-width="3.39515" stroke-linecap="square"/>
<path d="M741.887 920.468L722.16 873.516" stroke="#8416AA" stroke-width="3.39515" stroke-linecap="square"/>
<path d="M754.578 881.963L743.807 860.795" stroke="#8416AA" stroke-width="3.39515" stroke-linecap="square"/>
<path d="M687.941 933.287L679.878 883.003" stroke="#8416AA" stroke-width="3.39515" stroke-linecap="square"/>
<path d="M633.547 939.488L633.509 888.561" stroke="#8416AA" stroke-width="3.39515" stroke-linecap="square"/>
<path d="M657.605 912.585L656.94 888.844" stroke="#8416AA" stroke-width="3.39515" stroke-linecap="square"/>
<path d="M607.43 910.913L610.514 887.363" stroke="#8416AA" stroke-width="3.39515" stroke-linecap="square"/>
<path d="M576.367 934.448L586.078 884.455" stroke="#8416AA" stroke-width="3.39515" stroke-linecap="square"/>
<path d="M522.15 917.752L541.784 870.761" stroke="#8416AA" stroke-width="3.39515" stroke-linecap="square"/>
<path d="M558.428 901.234L565.963 878.71" stroke="#8416AA" stroke-width="3.39515" stroke-linecap="square"/>
<path d="M511.381 880.405L522.372 859.35" stroke="#8416AA" stroke-width="3.39515" stroke-linecap="square"/>
<path d="M475.957 890.206L505.508 848.729" stroke="#8416AA" stroke-width="3.39515" stroke-linecap="square"/>
<path d="M432.9 856.439L468.619 820.138" stroke="#8416AA" stroke-width="3.39515" stroke-linecap="square"/>
<path d="M468.92 850.817L485.11 833.439" stroke="#8416AA" stroke-width="3.39515" stroke-linecap="square"/>
<path d="M434.352 817.759L453.078 803.15" stroke="#8416AA" stroke-width="3.39515" stroke-linecap="square"/>
<path d="M395.711 812.755L437.718 783.962" stroke="#8416AA" stroke-width="3.39515" stroke-linecap="square"/>
<path d="M367.758 763.744L414.725 744.054" stroke="#8416AA" stroke-width="3.39515" stroke-linecap="square"/>
<path d="M406.256 776.462L427.432 765.708" stroke="#8416AA" stroke-width="3.39515" stroke-linecap="square"/>
<path d="M384.9 729.658L407.507 722.376" stroke="#8416AA" stroke-width="3.39515" stroke-linecap="square"/>
<path d="M707.783 903.354L700.483 880.753" stroke="#8416AA" stroke-width="3.39515" stroke-linecap="square"/>
<mask id="path-109-inside-1_263_621" fill="white">
<path d="M856.658 652.778C856.658 695.418 844.114 737.1 820.611 772.554C797.108 808.008 763.702 835.641 724.618 851.959C685.534 868.277 642.527 872.546 601.035 864.227C559.544 855.909 521.431 835.376 491.517 805.225C461.604 775.073 441.232 736.659 432.979 694.838C424.726 653.017 428.962 609.669 445.151 570.274C461.34 530.88 488.756 497.209 523.93 473.519C559.105 449.83 600.459 437.186 642.764 437.186V448.421C602.664 448.421 563.465 460.406 530.123 482.861C496.781 505.316 470.795 537.232 455.449 574.574C440.104 611.915 436.089 653.004 443.912 692.646C451.735 732.287 471.045 768.7 499.399 797.28C527.754 825.86 563.88 845.323 603.21 853.208C642.539 861.093 683.305 857.046 720.352 841.579C757.399 826.112 789.064 799.919 811.342 766.312C833.621 732.706 845.512 693.196 845.512 652.778H856.658Z"/>
</mask>
<path d="M856.658 652.778C856.658 695.418 844.114 737.1 820.611 772.554C797.108 808.008 763.702 835.641 724.618 851.959C685.534 868.277 642.527 872.546 601.035 864.227C559.544 855.909 521.431 835.376 491.517 805.225C461.604 775.073 441.232 736.659 432.979 694.838C424.726 653.017 428.962 609.669 445.151 570.274C461.34 530.88 488.756 497.209 523.93 473.519C559.105 449.83 600.459 437.186 642.764 437.186V448.421C602.664 448.421 563.465 460.406 530.123 482.861C496.781 505.316 470.795 537.232 455.449 574.574C440.104 611.915 436.089 653.004 443.912 692.646C451.735 732.287 471.045 768.7 499.399 797.28C527.754 825.86 563.88 845.323 603.21 853.208C642.539 861.093 683.305 857.046 720.352 841.579C757.399 826.112 789.064 799.919 811.342 766.312C833.621 732.706 845.512 693.196 845.512 652.778H856.658Z" stroke="#7E3992" stroke-width="27.1612" mask="url(#path-109-inside-1_263_621)"/>
<path d="M639.371 442.277H647.859V442.277C649.469 442.277 649.872 444.788 648.349 445.31C617.623 455.831 561.314 482.473 544.307 515.273" stroke="#8416AA" stroke-width="10.1855" stroke-linecap="round"/>
<path d="M848.171 681.63L851.319 653.303C851.401 652.566 850.508 652.139 849.986 652.665V652.665C849.907 652.744 849.848 652.836 849.809 652.94C839.625 680.075 824.314 717.35 776.873 751.235" stroke="#8416AA" stroke-width="10.1855" stroke-linecap="round"/>
<circle cx="537.515" cy="528.854" r="6.79031" fill="#7E3992"/>
<circle cx="527.331" cy="552.621" r="6.79031" fill="#7E3992"/>
<circle cx="520.54" cy="579.783" r="6.79031" fill="#7E3992"/>
<circle cx="517.144" cy="603.548" r="6.79031" fill="#7E3992"/>
<circle cx="520.54" cy="630.709" r="6.79031" fill="#7E3992"/>
<circle cx="523.935" cy="654.475" r="6.79031" fill="#7E3992"/>
<circle cx="534.118" cy="678.243" r="6.79031" fill="#7E3992"/>
<circle cx="547.7" cy="702.008" r="6.79031" fill="#7E3992"/>
<circle cx="564.675" cy="722.378" r="6.79031" fill="#7E3992"/>
<circle cx="581.652" cy="739.353" r="6.79031" fill="#7E3992"/>
<circle cx="605.419" cy="752.934" r="6.79031" fill="#7E3992"/>
<circle cx="605.419" cy="756.33" r="6.79031" fill="#7E3992"/>
<circle cx="629.183" cy="766.514" r="6.79031" fill="#7E3992"/>
<circle cx="652.95" cy="773.307" r="6.79031" fill="#7E3992"/>
<circle cx="680.113" cy="776.7" r="6.79031" fill="#7E3992"/>
<circle cx="707.273" cy="776.7" r="6.79031" fill="#7E3992"/>
<circle cx="731.038" cy="769.912" r="6.79031" fill="#7E3992"/>
<circle cx="754.804" cy="763.118" r="6.79031" fill="#7E3992"/>
</g>
<defs>
<clipPath id="clip0_263_621">
<rect width="1283" height="1308" fill="white"/>
</clipPath>
</defs>
</svg>
