<svg width="382" height="380" viewBox="0 0 382 380" fill="none" xmlns="http://www.w3.org/2000/svg">
<path d="M190.182 17.9336L190.182 361.8" stroke="#C0B8C9" stroke-width="0.610878"/>
<path d="M313.093 66.5894L67.2633 312.599" stroke="#C0B8C9" stroke-width="0.610878"/>
<path d="M363.575 189.594L17.8775 189.594" stroke="#C0B8C9" stroke-width="0.610878"/>
<path d="M313.093 312.052L67.2633 67.1358" stroke="#C0B8C9" stroke-width="0.610878"/>
<rect x="0.566738" width="138.423" height="138.236" transform="matrix(0.708422 -0.705789 0.708422 0.705789 91.7141 190.399)" stroke="#9071AF" stroke-width="0.8"/>
<rect x="120.984" y="259.531" width="138.736" height="139.257" transform="rotate(-90 120.984 259.531)" stroke="#9071AF" stroke-width="0.8"/>
<rect x="0.21638" width="210.338" height="210.338" transform="matrix(0.708422 -0.705789 0.708422 0.705789 41.0104 189.619)" stroke="#C0B8C9" stroke-width="0.305439"/>
<rect x="83.8734" y="83.6886" width="212.052" height="211.263" stroke="#C0B8C9" stroke-width="0.305439"/>
<rect x="0.219611" width="173.982" height="173.08" transform="matrix(0.708422 -0.705789 0.708422 0.705789 67.5152 189.776)" stroke="#C0B8C9" stroke-width="0.31"/>
<rect x="103.634" y="276.484" width="173.658" height="173.403" transform="rotate(-90 103.634 276.484)" stroke="#C0B8C9" stroke-width="0.31"/>
<g filter="url(#filter0_d_273_5079)">
<rect x="68.178" y="67.5047" width="244.546" height="244.177" stroke="url(#paint0_linear_273_5079)" stroke-width="1.83263" shape-rendering="crispEdges"/>
</g>
<g filter="url(#filter1_d_273_5079)">
<rect x="1.29828" width="242.954" height="242.954" transform="matrix(0.708422 -0.705789 0.708422 0.705789 17.1578 190.524)" stroke="url(#paint1_linear_273_5079)" stroke-width="1.83263" shape-rendering="crispEdges"/>
</g>
<path d="M128.284 41.6245L189.902 17.3772L251.521 41.6245L251.528 41.6274L312.328 67.819L338.658 128.296L338.664 128.311L363.036 189.593L338.664 250.876L338.658 250.89L312.328 311.367L251.528 337.559L251.514 337.565L189.902 361.809L128.291 337.565L128.276 337.559L67.4773 311.367L41.1467 250.89L41.1437 250.883L16.7686 189.593L41.1437 128.303L67.4773 67.819L128.284 41.6245Z" stroke="url(#paint2_linear_273_5079)"/>
<g filter="url(#filter2_d_273_5079)">
<ellipse cx="190.181" cy="189.594" rx="15.3072" ry="15.3643" transform="rotate(-90 190.181 189.594)" fill="#FFFFDE"/>
<path d="M206.461 189.594C206.461 180.631 199.169 173.37 190.181 173.37C181.192 173.37 173.9 180.631 173.9 189.594C173.9 198.557 181.192 205.817 190.181 205.817C199.169 205.817 206.461 198.557 206.461 189.594Z" stroke="#EEEA80" stroke-width="1.83263"/>
</g>
<path d="M324.919 190.066C324.919 183.858 319.867 178.827 313.639 178.827C307.41 178.827 302.359 183.858 302.359 190.066C302.359 196.275 307.41 201.305 313.639 201.305C319.867 201.305 324.919 196.275 324.919 190.066Z" fill="#FFEFD6" stroke="#F5AC56" stroke-width="0.610878"/>
<path d="M289.801 190.066C289.801 183.858 284.75 178.827 278.521 178.827C272.293 178.827 267.241 183.858 267.241 190.066C267.241 196.275 272.293 201.305 278.521 201.305C284.75 201.305 289.801 196.275 289.801 190.066Z" fill="white" stroke="#C0B8C9" stroke-width="0.610878"/>
<path d="M349.611 190.066C349.611 183.858 344.56 178.827 338.331 178.827C332.102 178.827 327.051 183.858 327.051 190.066C327.051 196.275 332.102 201.305 338.331 201.305C344.56 201.305 349.611 196.275 349.611 190.066Z" fill="white" stroke="#C0B8C9" stroke-width="0.610878"/>
<g filter="url(#filter3_d_273_5079)">
<ellipse cx="363.024" cy="190.066" rx="10.9337" ry="10.9745" transform="rotate(-90 363.024 190.066)" fill="#FFE0E0"/>
<path d="M374.915 190.066C374.915 183.518 369.588 178.216 363.024 178.216C356.46 178.216 351.133 183.518 351.133 190.066C351.133 196.614 356.46 201.916 363.024 201.916C369.588 201.916 374.915 196.614 374.915 190.066Z" stroke="#FF8392" stroke-width="1.83263"/>
</g>
<path d="M57.0814 190.066C57.0814 183.858 62.1327 178.827 68.3614 178.827C74.5901 178.827 79.6414 183.858 79.6414 190.066C79.6414 196.275 74.5901 201.305 68.3614 201.305C62.1327 201.305 57.0814 196.275 57.0814 190.066Z" fill="#D6F2F3" stroke="#78CCE7" stroke-width="0.610878"/>
<path d="M91.1049 190.066C91.1049 183.858 96.1562 178.827 102.385 178.827C108.614 178.827 113.665 183.858 113.665 190.066C113.665 196.275 108.614 201.305 102.385 201.305C96.1562 201.305 91.1049 196.275 91.1049 190.066Z" fill="#D9FEE2" stroke="#61E185" stroke-width="0.610878"/>
<path d="M190.024 89.7912C183.795 89.7912 178.744 94.8221 178.744 101.03C178.744 107.239 183.795 112.27 190.024 112.27C196.252 112.27 201.303 107.239 201.303 101.03C201.303 94.8221 196.252 89.7912 190.024 89.7912Z" fill="#D9FEE2" stroke="#61E185" stroke-width="0.610878"/>
<path d="M190.024 288.303C183.795 288.303 178.744 283.272 178.744 277.064C178.744 270.856 183.795 265.825 190.024 265.825C196.252 265.825 201.303 270.856 201.303 277.064C201.303 283.272 196.252 288.303 190.024 288.303Z" fill="white" stroke="#C0B8C9" stroke-width="0.610878"/>
<path d="M120.407 119.39C116.002 123.779 116.002 130.895 120.407 135.284C124.813 139.673 131.955 139.673 136.361 135.284C140.766 130.895 140.766 123.779 136.361 119.39C131.955 115.001 124.813 115.001 120.407 119.39Z" fill="#D9FEE2" stroke="#61E185" stroke-width="0.610878"/>
<path d="M260.475 259.266C256.069 263.655 248.927 263.655 244.522 259.266C240.116 254.878 240.116 247.762 244.522 243.373C248.927 238.984 256.069 238.984 260.475 243.373C264.88 247.762 264.88 254.878 260.475 259.266Z" fill="white" stroke="#C0B8C9" stroke-width="0.610878"/>
<circle cx="10.9542" cy="10.9542" r="11.2596" transform="matrix(0.708422 0.705789 -0.708422 0.705789 129.113 236.953)" fill="white" stroke="#C0B8C9" stroke-width="0.610878"/>
<path d="M261.823 119.793C266.228 124.182 266.228 131.298 261.823 135.687C257.418 140.076 250.275 140.076 245.87 135.687C241.465 131.298 241.465 124.182 245.87 119.793C250.275 115.404 257.418 115.404 261.823 119.793Z" fill="#D9FEE2" stroke="#61E185" stroke-width="0.610878"/>
<path d="M32.3881 190.066C32.3881 183.858 37.4394 178.827 43.668 178.827C49.8967 178.827 54.948 183.858 54.948 190.066C54.948 196.275 49.8967 201.305 43.668 201.305C37.4394 201.305 32.3881 196.275 32.3881 190.066Z" fill="#E6E5FF" stroke="#7F72D1" stroke-width="0.610878"/>
<g filter="url(#filter4_d_273_5079)">
<ellipse cx="10.9337" cy="10.9745" rx="10.9337" ry="10.9745" transform="matrix(4.38744e-08 -1 -1 -4.3549e-08 29.9531 201)" fill="#F1E5FD"/>
<path d="M7.08774 190.066C7.08774 183.518 12.4147 178.216 18.9786 178.216C25.5425 178.216 30.8694 183.518 30.8694 190.066C30.8694 196.614 25.5425 201.916 18.9786 201.916C12.4147 201.916 7.08774 196.614 7.08774 190.066Z" stroke="#9071AF" stroke-width="1.83263"/>
</g>
<path d="M284.006 267.093C279.601 262.704 272.458 262.704 268.053 267.093C263.647 271.482 263.647 278.597 268.053 282.986C272.458 287.375 279.601 287.375 284.006 282.986C288.411 278.597 288.411 271.482 284.006 267.093Z" fill="#FFEFD6" stroke="#F5AC56" stroke-width="0.610878"/>
<path d="M301.437 284.525C297.032 280.136 289.89 280.136 285.484 284.525C281.079 288.914 281.079 296.03 285.484 300.419C289.89 304.808 297.032 304.808 301.437 300.419C305.843 296.03 305.843 288.914 301.437 284.525Z" fill="white" stroke="#C0B8C9" stroke-width="0.610878"/>
<g filter="url(#filter5_d_273_5079)">
<ellipse cx="10.9542" cy="10.9542" rx="10.9542" ry="10.9542" transform="matrix(-0.708422 -0.705789 0.708422 -0.705789 310.883 325.356)" fill="#FFE0E0"/>
<path d="M319.292 301.515C314.648 296.888 307.118 296.888 302.474 301.515C297.829 306.142 297.829 313.644 302.474 318.271C307.118 322.898 314.648 322.898 319.292 318.271C323.936 313.644 323.936 306.142 319.292 301.515Z" stroke="#FF8392" stroke-width="1.83263"/>
</g>
<path d="M97.7805 112.657C93.3751 108.268 93.3751 101.152 97.7805 96.7628C102.186 92.3739 109.328 92.3739 113.734 96.7628C118.139 101.152 118.139 108.268 113.734 112.657C109.328 117.046 102.186 117.046 97.7805 112.657Z" fill="#D6F2F3" stroke="#78CCE7" stroke-width="0.610878"/>
<path d="M80.423 95.2269C76.0177 90.838 76.0177 83.7221 80.4231 79.3331C84.8284 74.9442 91.9708 74.9442 96.3761 79.3331C100.781 83.7221 100.781 90.838 96.3761 95.2269C91.9708 99.6159 84.8284 99.6159 80.423 95.2269Z" fill="#E6E5FF" stroke="#7F72D1" stroke-width="0.610878"/>
<g filter="url(#filter6_d_273_5079)">
<ellipse cx="10.9542" cy="10.9542" rx="10.9542" ry="10.9542" transform="matrix(-0.708422 -0.705789 -0.708422 0.705789 86.2285 69.5898)" fill="#F1E5FD"/>
<path d="M62.2989 77.9679C57.6546 73.3408 57.6546 65.8389 62.2989 61.2118C66.9432 56.5847 74.4732 56.5847 79.1175 61.2118C83.7618 65.8389 83.7618 73.3408 79.1175 77.9679C74.4732 82.595 66.9432 82.595 62.2989 77.9679Z" stroke="#9071AF" stroke-width="1.83263"/>
</g>
<path d="M284.221 97.5255C279.815 93.1365 272.673 93.1365 268.268 97.5255C263.862 101.914 263.862 109.03 268.268 113.419C272.673 117.808 279.815 117.808 284.221 113.419C288.626 109.03 288.626 101.914 284.221 97.5255Z" fill="#D6F2F3" stroke="#78CCE7" stroke-width="0.610878"/>
<path d="M301.867 79.8788C297.462 75.4898 290.319 75.4898 285.914 79.8788C281.509 84.2677 281.509 91.3836 285.914 95.7726C290.319 100.162 297.462 100.162 301.867 95.7726C306.272 91.3836 306.272 84.2677 301.867 79.8788Z" fill="#E6E5FF" stroke="#7F72D1" stroke-width="0.610878"/>
<g filter="url(#filter7_d_273_5079)">
<ellipse cx="10.9542" cy="10.9542" rx="10.9542" ry="10.9542" transform="matrix(-0.708422 -0.705789 0.708422 -0.705789 311.315 85.8638)" fill="#F1E5FD"/>
<path d="M319.725 62.0231C315.08 57.396 307.55 57.396 302.906 62.0231C298.262 66.6501 298.262 74.1521 302.906 78.7792C307.55 83.4062 315.08 83.4062 319.725 78.7792C324.369 74.1521 324.369 66.6501 319.725 62.0231Z" stroke="#9071AF" stroke-width="1.83263"/>
</g>
<path d="M99.259 282.37C94.8537 277.981 94.8537 270.865 99.259 266.476C103.664 262.087 110.807 262.087 115.212 266.476C119.617 270.865 119.617 277.981 115.212 282.37C110.807 286.759 103.664 286.759 99.259 282.37Z" fill="#FFEFD6" stroke="#F5AC56" stroke-width="0.610878"/>
<path d="M81.6828 299.946C77.2775 295.557 77.2775 288.441 81.6828 284.052C86.0881 279.663 93.2306 279.663 97.6359 284.052C102.041 288.441 102.041 295.557 97.6359 299.946C93.2306 304.335 86.0881 304.335 81.6828 299.946Z" fill="white" stroke="#C0B8C9" stroke-width="0.610878"/>
<g filter="url(#filter8_d_273_5079)">
<ellipse cx="10.9542" cy="10.9542" rx="10.9542" ry="10.9542" transform="matrix(-0.708422 -0.705789 -0.708422 0.705789 87.0586 310.121)" fill="#FFE0E0"/>
<path d="M63.129 318.499C58.4846 313.872 58.4846 306.37 63.129 301.743C67.7733 297.116 75.3032 297.116 79.9476 301.743C84.5919 306.37 84.5919 313.872 79.9476 318.499C75.3032 323.126 67.7733 323.126 63.129 318.499Z" stroke="#FF8392" stroke-width="1.83263"/>
</g>
<path d="M190.024 55.8964C183.795 55.8964 178.744 60.9273 178.744 67.1356C178.744 73.3439 183.795 78.3748 190.024 78.3748C196.252 78.3748 201.303 73.3439 201.303 67.1356C201.303 60.9273 196.252 55.8964 190.024 55.8964Z" fill="#D6F2F3" stroke="#78CCE7" stroke-width="0.610878"/>
<path d="M190.024 31.2958C183.795 31.2958 178.744 36.3267 178.744 42.535C178.744 48.7433 183.795 53.7742 190.024 53.7742C196.252 53.7742 201.303 48.7433 201.303 42.535C201.303 36.3267 196.252 31.2958 190.024 31.2958Z" fill="#E6E5FF" stroke="#7F72D1" stroke-width="0.610878"/>
<g filter="url(#filter9_d_273_5079)">
<ellipse cx="190.024" cy="17.9344" rx="10.9745" ry="10.9337" transform="rotate(180 190.024 17.9344)" fill="#F1E5FD"/>
<path d="M190.024 6.08435C183.46 6.08435 178.133 11.3866 178.133 17.9344C178.133 24.4822 183.46 29.7845 190.024 29.7845C196.587 29.7845 201.914 24.4822 201.914 17.9344C201.914 11.3866 196.587 6.08435 190.024 6.08435Z" stroke="#9071AF" stroke-width="1.83263"/>
</g>
<path d="M190.024 321.105C183.795 321.105 178.744 316.074 178.744 309.865C178.744 303.657 183.795 298.626 190.024 298.626C196.252 298.626 201.303 303.657 201.303 309.865C201.303 316.074 196.252 321.105 190.024 321.105Z" fill="#FFEFD6" stroke="#F5AC56" stroke-width="0.610878"/>
<path d="M190.024 345.705C183.795 345.705 178.744 340.674 178.744 334.466C178.744 328.258 183.795 323.227 190.024 323.227C196.252 323.227 201.303 328.258 201.303 334.466C201.303 340.674 196.252 345.705 190.024 345.705Z" fill="white" stroke="#C0B8C9" stroke-width="0.610878"/>
<g filter="url(#filter10_d_273_5079)">
<ellipse cx="10.9745" cy="10.9337" rx="10.9745" ry="10.9337" transform="matrix(-1 0 0 1 200.998 348.133)" fill="#FFE0E0"/>
<path d="M190.024 370.917C183.46 370.917 178.133 365.614 178.133 359.067C178.133 352.519 183.46 347.216 190.024 347.216C196.587 347.216 201.914 352.519 201.914 359.067C201.914 365.614 196.587 370.917 190.024 370.917Z" stroke="#FF8392" stroke-width="1.83263"/>
</g>
<path d="M203.074 211.22C207.636 211.22 211.336 207.535 211.336 202.988C211.336 198.44 207.636 194.755 203.074 194.755C198.512 194.755 194.812 198.44 194.812 202.988C194.812 207.535 198.512 211.22 203.074 211.22Z" fill="#FFFFDE" stroke="#EEEA80" stroke-width="0.610878"/>
<defs>
<filter id="filter0_d_273_5079" x="61.1529" y="61.7014" width="258.595" height="258.227" filterUnits="userSpaceOnUse" color-interpolation-filters="sRGB">
<feFlood flood-opacity="0" result="BackgroundImageFix"/>
<feColorMatrix in="SourceAlpha" type="matrix" values="0 0 0 0 0 0 0 0 0 0 0 0 0 0 0 0 0 0 127 0" result="hardAlpha"/>
<feOffset dy="1.22176"/>
<feGaussianBlur stdDeviation="3.05439"/>
<feComposite in2="hardAlpha" operator="out"/>
<feColorMatrix type="matrix" values="0 0 0 0 0.745098 0 0 0 0 0.580392 0 0 0 0 0.909804 0 0 0 1 0"/>
<feBlend mode="normal" in2="BackgroundImageFix" result="effect1_dropShadow_273_5079"/>
<feBlend mode="normal" in="SourceGraphic" in2="effect1_dropShadow_273_5079" result="shape"/>
</filter>
<filter id="filter1_d_273_5079" x="10.6705" y="11.9528" width="359.042" height="357.753" filterUnits="userSpaceOnUse" color-interpolation-filters="sRGB">
<feFlood flood-opacity="0" result="BackgroundImageFix"/>
<feColorMatrix in="SourceAlpha" type="matrix" values="0 0 0 0 0 0 0 0 0 0 0 0 0 0 0 0 0 0 127 0" result="hardAlpha"/>
<feOffset dy="1.22176"/>
<feGaussianBlur stdDeviation="3.05439"/>
<feComposite in2="hardAlpha" operator="out"/>
<feColorMatrix type="matrix" values="0 0 0 0 0.745098 0 0 0 0 0.580392 0 0 0 0 0.909804 0 0 0 1 0"/>
<feBlend mode="normal" in2="BackgroundImageFix" result="effect1_dropShadow_273_5079"/>
<feBlend mode="normal" in="SourceGraphic" in2="effect1_dropShadow_273_5079" result="shape"/>
</filter>
<filter id="filter2_d_273_5079" x="168.984" y="172.454" width="42.3926" height="42.2795" filterUnits="userSpaceOnUse" color-interpolation-filters="sRGB">
<feFlood flood-opacity="0" result="BackgroundImageFix"/>
<feColorMatrix in="SourceAlpha" type="matrix" values="0 0 0 0 0 0 0 0 0 0 0 0 0 0 0 0 0 0 127 0" result="hardAlpha"/>
<feOffset dy="4"/>
<feGaussianBlur stdDeviation="2"/>
<feComposite in2="hardAlpha" operator="out"/>
<feColorMatrix type="matrix" values="0 0 0 0 0.975 0 0 0 0 0.890256 0 0 0 0 0.127563 0 0 0 0.26 0"/>
<feBlend mode="normal" in2="BackgroundImageFix" result="effect1_dropShadow_273_5079"/>
<feBlend mode="normal" in="SourceGraphic" in2="effect1_dropShadow_273_5079" result="shape"/>
</filter>
<filter id="filter3_d_273_5079" x="344.108" y="172.413" width="37.8318" height="37.7503" filterUnits="userSpaceOnUse" color-interpolation-filters="sRGB">
<feFlood flood-opacity="0" result="BackgroundImageFix"/>
<feColorMatrix in="SourceAlpha" type="matrix" values="0 0 0 0 0 0 0 0 0 0 0 0 0 0 0 0 0 0 127 0" result="hardAlpha"/>
<feOffset dy="1.22176"/>
<feGaussianBlur stdDeviation="3.05439"/>
<feComposite in2="hardAlpha" operator="out"/>
<feColorMatrix type="matrix" values="0 0 0 0 0.745098 0 0 0 0 0.580392 0 0 0 0 0.909804 0 0 0 1 0"/>
<feBlend mode="normal" in2="BackgroundImageFix" result="effect1_dropShadow_273_5079"/>
<feBlend mode="normal" in="SourceGraphic" in2="effect1_dropShadow_273_5079" result="shape"/>
</filter>
<filter id="filter4_d_273_5079" x="0.0630918" y="172.413" width="37.8308" height="37.7503" filterUnits="userSpaceOnUse" color-interpolation-filters="sRGB">
<feFlood flood-opacity="0" result="BackgroundImageFix"/>
<feColorMatrix in="SourceAlpha" type="matrix" values="0 0 0 0 0 0 0 0 0 0 0 0 0 0 0 0 0 0 127 0" result="hardAlpha"/>
<feOffset dy="1.22176"/>
<feGaussianBlur stdDeviation="3.05439"/>
<feComposite in2="hardAlpha" operator="out"/>
<feColorMatrix type="matrix" values="0 0 0 0 0.745098 0 0 0 0 0.580392 0 0 0 0 0.909804 0 0 0 1 0"/>
<feBlend mode="normal" in2="BackgroundImageFix" result="effect1_dropShadow_273_5079"/>
<feBlend mode="normal" in="SourceGraphic" in2="effect1_dropShadow_273_5079" result="shape"/>
</filter>
<filter id="filter5_d_273_5079" x="291.963" y="292.243" width="37.8387" height="37.7434" filterUnits="userSpaceOnUse" color-interpolation-filters="sRGB">
<feFlood flood-opacity="0" result="BackgroundImageFix"/>
<feColorMatrix in="SourceAlpha" type="matrix" values="0 0 0 0 0 0 0 0 0 0 0 0 0 0 0 0 0 0 127 0" result="hardAlpha"/>
<feOffset dy="1.22176"/>
<feGaussianBlur stdDeviation="3.05439"/>
<feComposite in2="hardAlpha" operator="out"/>
<feColorMatrix type="matrix" values="0 0 0 0 0.745098 0 0 0 0 0.580392 0 0 0 0 0.909804 0 0 0 1 0"/>
<feBlend mode="normal" in2="BackgroundImageFix" result="effect1_dropShadow_273_5079"/>
<feBlend mode="normal" in="SourceGraphic" in2="effect1_dropShadow_273_5079" result="shape"/>
</filter>
<filter id="filter6_d_273_5079" x="51.7897" y="51.9396" width="37.8387" height="37.7437" filterUnits="userSpaceOnUse" color-interpolation-filters="sRGB">
<feFlood flood-opacity="0" result="BackgroundImageFix"/>
<feColorMatrix in="SourceAlpha" type="matrix" values="0 0 0 0 0 0 0 0 0 0 0 0 0 0 0 0 0 0 127 0" result="hardAlpha"/>
<feOffset dy="1.22176"/>
<feGaussianBlur stdDeviation="3.05439"/>
<feComposite in2="hardAlpha" operator="out"/>
<feColorMatrix type="matrix" values="0 0 0 0 0.745098 0 0 0 0 0.580392 0 0 0 0 0.909804 0 0 0 1 0"/>
<feBlend mode="normal" in2="BackgroundImageFix" result="effect1_dropShadow_273_5079"/>
<feBlend mode="normal" in="SourceGraphic" in2="effect1_dropShadow_273_5079" result="shape"/>
</filter>
<filter id="filter7_d_273_5079" x="292.396" y="52.7512" width="37.8387" height="37.7434" filterUnits="userSpaceOnUse" color-interpolation-filters="sRGB">
<feFlood flood-opacity="0" result="BackgroundImageFix"/>
<feColorMatrix in="SourceAlpha" type="matrix" values="0 0 0 0 0 0 0 0 0 0 0 0 0 0 0 0 0 0 127 0" result="hardAlpha"/>
<feOffset dy="1.22176"/>
<feGaussianBlur stdDeviation="3.05439"/>
<feComposite in2="hardAlpha" operator="out"/>
<feColorMatrix type="matrix" values="0 0 0 0 0.745098 0 0 0 0 0.580392 0 0 0 0 0.909804 0 0 0 1 0"/>
<feBlend mode="normal" in2="BackgroundImageFix" result="effect1_dropShadow_273_5079"/>
<feBlend mode="normal" in="SourceGraphic" in2="effect1_dropShadow_273_5079" result="shape"/>
</filter>
<filter id="filter8_d_273_5079" x="52.6197" y="292.471" width="37.8387" height="37.7434" filterUnits="userSpaceOnUse" color-interpolation-filters="sRGB">
<feFlood flood-opacity="0" result="BackgroundImageFix"/>
<feColorMatrix in="SourceAlpha" type="matrix" values="0 0 0 0 0 0 0 0 0 0 0 0 0 0 0 0 0 0 127 0" result="hardAlpha"/>
<feOffset dy="1.22176"/>
<feGaussianBlur stdDeviation="3.05439"/>
<feComposite in2="hardAlpha" operator="out"/>
<feColorMatrix type="matrix" values="0 0 0 0 0.745098 0 0 0 0 0.580392 0 0 0 0 0.909804 0 0 0 1 0"/>
<feBlend mode="normal" in2="BackgroundImageFix" result="effect1_dropShadow_273_5079"/>
<feBlend mode="normal" in="SourceGraphic" in2="effect1_dropShadow_273_5079" result="shape"/>
</filter>
<filter id="filter9_d_273_5079" x="171.108" y="0.280942" width="37.8308" height="37.7503" filterUnits="userSpaceOnUse" color-interpolation-filters="sRGB">
<feFlood flood-opacity="0" result="BackgroundImageFix"/>
<feColorMatrix in="SourceAlpha" type="matrix" values="0 0 0 0 0 0 0 0 0 0 0 0 0 0 0 0 0 0 127 0" result="hardAlpha"/>
<feOffset dy="1.22176"/>
<feGaussianBlur stdDeviation="3.05439"/>
<feComposite in2="hardAlpha" operator="out"/>
<feColorMatrix type="matrix" values="0 0 0 0 0.745098 0 0 0 0 0.580392 0 0 0 0 0.909804 0 0 0 1 0"/>
<feBlend mode="normal" in2="BackgroundImageFix" result="effect1_dropShadow_273_5079"/>
<feBlend mode="normal" in="SourceGraphic" in2="effect1_dropShadow_273_5079" result="shape"/>
</filter>
<filter id="filter10_d_273_5079" x="171.108" y="341.413" width="37.8308" height="37.7503" filterUnits="userSpaceOnUse" color-interpolation-filters="sRGB">
<feFlood flood-opacity="0" result="BackgroundImageFix"/>
<feColorMatrix in="SourceAlpha" type="matrix" values="0 0 0 0 0 0 0 0 0 0 0 0 0 0 0 0 0 0 127 0" result="hardAlpha"/>
<feOffset dy="1.22176"/>
<feGaussianBlur stdDeviation="3.05439"/>
<feComposite in2="hardAlpha" operator="out"/>
<feColorMatrix type="matrix" values="0 0 0 0 0.745098 0 0 0 0 0.580392 0 0 0 0 0.909804 0 0 0 1 0"/>
<feBlend mode="normal" in2="BackgroundImageFix" result="effect1_dropShadow_273_5079"/>
<feBlend mode="normal" in="SourceGraphic" in2="effect1_dropShadow_273_5079" result="shape"/>
</filter>
<linearGradient id="paint0_linear_273_5079" x1="190" y1="67" x2="190.369" y2="312.999" gradientUnits="userSpaceOnUse">
<stop offset="0.405466" stop-color="#9071AF"/>
<stop offset="0.596779" stop-color="#FF7687"/>
</linearGradient>
<linearGradient id="paint1_linear_273_5079" x1="247.66" y1="-2.7696" x2="0.0589958" y2="244.831" gradientUnits="userSpaceOnUse">
<stop offset="0.391051" stop-color="#9071AF"/>
<stop offset="0.652323" stop-color="#FF7687"/>
</linearGradient>
<linearGradient id="paint2_linear_273_5079" x1="123.5" y1="42" x2="260.061" y2="336.276" gradientUnits="userSpaceOnUse">
<stop stop-color="#9071AF"/>
<stop offset="1" stop-color="#FF7687"/>
</linearGradient>
</defs>
</svg>
