<svg viewBox="0 0 576 515" fill="none" xmlns="http://www.w3.org/2000/svg">
<path d="M274.866 281.694L76.2436 183.108L286.709 113.291L274.866 281.694Z" fill="#9163BF" fill-opacity="0.07" stroke="white" stroke-width="0.554753"/>
<path d="M327.562 236.543L204.866 276.991L216.698 106.772L416.561 205.757L327.566 236.541L327.562 236.543Z" fill="#9163BF" fill-opacity="0.07" stroke="white" stroke-width="0.554753"/>
<path d="M158.047 224.034L257.689 25.2914L328.533 236.023L158.047 224.034Z" fill="#9163BF" fill-opacity="0.07" stroke="white" stroke-width="0.554753"/>
<line x1="415.96" y1="205.706" x2="76.7212" y2="183.073" stroke="white" stroke-width="0.554753"/>
<path d="M198.768 258.942L164.39 153.563L333.667 164.86L234.765 363.296L198.77 258.946L198.768 258.942Z" fill="#9163BF" fill-opacity="0.07" stroke="white" stroke-width="0.554753"/>
<path d="M257.598 26.4225L234.522 362.474" stroke="white" stroke-width="0.554753"/>
<path d="M328.665 236.072L118.118 305.504L217.034 106.399L328.665 236.072Z" stroke="white" stroke-width="0.554753"/>
<line x1="372.783" y1="85.5204" x2="118.31" y2="305.413" stroke="white" stroke-width="0.554753"/>
<path d="M328.701 235.78L118.118 305.503L216.627 106.751L328.701 235.78Z" fill="#9163BF" fill-opacity="0.07" stroke="white" stroke-width="0.554753"/>
<path d="M135.731 66.6104L356.521 322.58" stroke="white" stroke-width="0.554753"/>
<path d="M287.1 112.759L356.959 323.098L158.468 224.488L287.1 112.759Z" fill="#9163BF" fill-opacity="0.07" stroke="white" stroke-width="0.554753"/>
<path d="M204.623 276.573L135.024 65.9936L333.789 164.381L204.623 276.573Z" fill="#9163BF" fill-opacity="0.07" stroke="white" stroke-width="0.554753"/>
<path d="M163.972 154.491L373.392 84.9371L275.213 282.56L163.972 154.491Z" stroke="white" stroke-width="0.554753"/>
<path d="M163.972 154.491L373.392 84.9371L275.213 282.56L163.972 154.491Z" fill="#9163BF" fill-opacity="0.07" stroke="white" stroke-width="0.554753"/>
<path d="M274.625 282.066L217.928 108.578" stroke="white" stroke-width="0.554753"/>
<line x1="333.605" y1="164.528" x2="158.69" y2="224.173" stroke="white" stroke-width="0.554753"/>
<path d="M328.199 235.532L164.397 154.505" stroke="white" stroke-width="0.554753"/>
<line x1="286.732" y1="113.525" x2="204.606" y2="276.418" stroke="white" stroke-width="0.554753"/>
<path d="M384.49 105.588L388.328 108.22L392.444 107.135L390.314 110.82L391.841 115.216L388.002 112.585L383.886 113.669L386.017 109.984L384.49 105.588Z" fill="white"/>
<path d="M409.854 164.677L409.456 169.53L404.751 168.278L408.297 171.615L404.385 174.513L409.204 173.821L409.031 178.686L411.495 174.487L415.191 177.656L413.444 173.112L418.226 172.198L413.584 170.73L415.851 166.421L411.809 169.136L409.854 164.677Z" fill="white"/>
<path d="M366.093 141.267L368.232 142.965L369.525 140.559L369.53 143.291L372.217 142.801L370.085 144.509L372.143 146.305L369.479 145.702L369.358 148.431L368.168 145.972L365.959 147.579L367.14 145.116L364.506 144.391L367.168 143.778L366.093 141.267Z" fill="white"/>
<line y1="-0.138688" x2="23.5439" y2="-0.138688" transform="matrix(-0.822459 -0.568825 -0.568825 0.822459 440.063 190.613)" stroke="white" stroke-width="0.277376" stroke-dasharray="1.11 1.11"/>
<line y1="-0.138688" x2="19.8874" y2="-0.138688" transform="matrix(0.924898 0.380215 0.380215 -0.924898 382.534 162.603)" stroke="white" stroke-width="0.277376" stroke-dasharray="1.11 1.11"/>
<line y1="-0.138688" x2="16.429" y2="-0.138688" transform="matrix(-0.519332 -0.854572 -0.854572 0.519332 378.497 162.345)" stroke="white" stroke-width="0.277376" stroke-dasharray="1.11 1.11"/>
<line x1="386.609" y1="115.438" x2="368.254" y2="144.076" stroke="white" stroke-width="0.277376" stroke-dasharray="1.11 1.11"/>
<circle cx="2.01887" cy="2.01887" r="2.01887" transform="matrix(-0.99791 -0.0646115 -0.0646115 0.99791 381.369 159.83)" fill="white"/>
<circle cx="2.9662" cy="2.9662" r="2.9662" transform="matrix(-0.99791 -0.0646115 -0.0646115 0.99791 445.959 189.919)" fill="white"/>
<circle cx="10.0943" cy="10.0943" r="10.0389" transform="matrix(-0.99791 -0.0646115 -0.0646115 0.99791 421.653 162.441)" stroke="white" stroke-width="0.110951"/>
<circle cx="12.1132" cy="12.1132" r="12.0577" transform="matrix(-0.99791 -0.0646115 -0.0646115 0.99791 423.25 158.497)" stroke="white" stroke-width="0.110951"/>
<path d="M209.846 70.3405L205.64 69.0033L205.069 73.3796L203.492 69.2576L199.715 71.5401L201.955 67.7372L197.815 66.2072L202.184 65.587L200.8 61.3966L204.009 64.4262L206.422 60.7309L206.054 65.1288L210.448 64.7113L206.78 67.1658L209.846 70.3405Z" fill="white"/>
<path d="M199.679 31.5016L196.293 33.5864L195.672 37.5139L193.587 34.128L189.659 33.5066L193.045 31.4217L193.667 27.4942L195.752 30.8802L199.679 31.5016Z" fill="white"/>
<path d="M189.727 49.662L187.611 51.0653L187.299 53.5848L185.896 51.4692L183.376 51.1574L185.492 49.754L185.804 47.2345L187.207 49.3501L189.727 49.662Z" fill="white"/>
<path d="M216.831 3.37775L214.728 2.70917L214.442 4.8973L213.654 2.83631L211.765 3.97756L212.885 2.07612L210.815 1.31109L213 1.00104L212.308 -1.09418L213.912 0.420624L215.119 -1.42704L214.935 0.771937L217.132 0.563152L215.298 1.79043L216.831 3.37775Z" fill="white"/>
<path d="M210.767 49.0222L209.687 48.0229L208.895 49.2625L209.003 47.7954L207.54 47.9489L208.755 47.1188L207.723 46.0706L209.129 46.5026L209.305 45.0421L209.844 46.4108L211.095 45.6377L210.361 46.9126L211.746 47.4091L210.292 47.63L210.767 49.0222Z" fill="white"/>
<line x1="193.942" y1="33.0542" x2="186.649" y2="50.6209" stroke="white" stroke-width="0.277376" stroke-dasharray="1.11 1.11"/>
<line x1="194.583" y1="32.2835" x2="213.049" y2="2.39518" stroke="white" stroke-width="0.277376" stroke-dasharray="1.11 1.11"/>
<line x1="202.869" y1="65.5681" x2="186.441" y2="50.671" stroke="white" stroke-width="0.277376" stroke-dasharray="1.11 1.11"/>
<line x1="202.869" y1="65.5681" x2="186.441" y2="50.671" stroke="white" stroke-width="0.277376" stroke-dasharray="1.11 1.11"/>
<line x1="202.832" y1="65.4183" x2="209.479" y2="46.9774" stroke="white" stroke-width="0.277376" stroke-dasharray="1.11 1.11"/>
<line x1="193.266" y1="32.0174" x2="209.695" y2="46.9144" stroke="white" stroke-width="0.277376" stroke-dasharray="1.11 1.11"/>
<circle cx="194.952" cy="32.4897" r="7.55583" transform="rotate(82.1803 194.952 32.4897)" stroke="white" stroke-width="0.110951"/>
<circle cx="250.318" cy="124.613" r="5.44446" transform="rotate(-175.977 250.318 124.613)" fill="white"/>
<circle cx="318.072" cy="199.914" r="5.44446" transform="rotate(-175.977 318.072 199.914)" fill="white"/>
<circle cx="174.36" cy="189.812" r="5.44446" transform="rotate(-175.977 174.36 189.812)" fill="white"/>
<circle cx="209.162" cy="226.258" r="3.35044" transform="rotate(-175.977 209.162 226.258)" fill="white"/>
<circle cx="214.043" cy="156.915" r="3.35044" transform="rotate(-175.977 214.043 156.915)" fill="white"/>
<circle cx="283.388" cy="161.787" r="3.35044" transform="rotate(-175.977 283.388 161.787)" fill="white"/>
<circle cx="278.519" cy="231.139" r="3.35044" transform="rotate(-175.977 278.519 231.139)" fill="white"/>
<circle cx="240.33" cy="266.659" r="5.44446" transform="rotate(-175.977 240.33 266.659)" fill="white"/>
<path d="M237.339 184.751L238.659 182.972C240.596 180.362 243.388 178.515 246.548 177.754C246.551 177.753 246.551 177.753 246.553 177.752C246.635 177.728 251.522 176.287 257.779 179.153C260.966 180.935 263.468 183.758 264.881 187.167C266.294 190.576 266.245 194.462 265.275 198.033C264.306 201.604 262.224 203.977 259.289 206.176C256.355 208.374 252.476 208.977 250.376 208.908C246.737 208.789 244.134 207.867 244.134 207.867L246.198 207.81C255.456 207.552 261.527 198.025 257.85 189.524C254.421 181.599 244.395 179.105 237.653 184.5L237.339 184.751Z" fill="white"/>
</svg>
