<svg  viewBox="0 0 87 13" fill="none" xmlns="http://www.w3.org/2000/svg">
<path d="M11.2991 3.67219C10.0181 3.67219 9.02172 4.28547 8.3891 5.3076C7.91464 4.25402 6.99734 3.67219 5.74792 3.67219C4.60921 3.67219 3.7868 4.14394 3.17 5.00883V3.86089H0.892578V12.5097H3.17L3.15418 7.96515C3.15418 6.59706 3.78681 5.81081 4.97296 5.81081C6.06423 5.81081 6.47543 6.42409 6.47543 7.52484V12.5097H8.73704V7.96515C8.73704 6.59706 9.35385 5.81081 10.54 5.81081C11.6313 5.81081 12.0425 6.42409 12.0425 7.52484V12.5097H14.3041V7.03737C14.3041 4.94593 13.1496 3.67219 11.2991 3.67219Z" fill="#373434"/>
<path d="M20.3461 3.67219C17.8472 3.67219 15.8229 5.57493 15.8229 8.1853C15.8229 10.7799 17.8156 12.6984 20.3461 12.6984C22.8924 12.6984 24.8851 10.7957 24.8851 8.1853C24.8851 5.57493 22.8607 3.67219 20.3461 3.67219ZM20.3461 5.81081C21.6113 5.81081 22.5919 6.77004 22.5919 8.1853C22.5919 9.61628 21.6113 10.5598 20.3461 10.5598C19.0808 10.5598 18.1003 9.61628 18.1003 8.1853C18.1003 6.77004 19.0808 5.81081 20.3461 5.81081Z" fill="#373434"/>
<path d="M31.4352 3.67219C30.2332 3.67219 29.3633 4.15967 28.7307 5.04028V3.86089H26.4691V12.5097H28.7307V7.96515C28.7307 6.54989 29.4108 5.81081 30.6918 5.81081C31.8938 5.81081 32.3208 6.43981 32.3208 7.57202V12.5097H34.5824V7.08454C34.5824 4.96165 33.3963 3.67219 31.4352 3.67219Z" fill="#373434"/>
<path d="M40.625 3.67219C38.1262 3.67219 36.1018 5.57493 36.1018 8.1853C36.1018 10.7799 38.0946 12.6984 40.625 12.6984C43.1713 12.6984 45.1641 10.7957 45.1641 8.1853C45.1641 5.57493 43.1397 3.67219 40.625 3.67219ZM40.625 5.81081C41.8903 5.81081 42.8709 6.77004 42.8709 8.1853C42.8709 9.61628 41.8903 10.5598 40.625 10.5598C39.3598 10.5598 38.3793 9.61628 38.3793 8.1853C38.3793 6.77004 39.3598 5.81081 40.625 5.81081Z" fill="#373434"/>
<path d="M51.7616 3.67219C50.5438 3.67219 49.6107 4.2383 49.0097 5.07173V0.401367H46.7481V12.5097H49.0097V11.346C49.6265 12.1638 50.528 12.6984 51.7616 12.6984C54.0232 12.6984 55.7313 10.8428 55.7313 8.1853C55.7313 5.51203 53.9916 3.67219 51.7616 3.67219ZM51.2397 10.5598C49.9745 10.5598 49.0097 9.61628 49.0097 8.1853C49.0097 6.77004 49.9745 5.81081 51.2397 5.81081C52.5049 5.81081 53.438 6.77004 53.438 8.1853C53.438 9.61628 52.4891 10.5598 51.2397 10.5598Z" fill="#373434"/>
<path d="M63.8125 3.86089V5.07173C63.2115 4.2383 62.2942 3.67219 61.0606 3.67219C58.8307 3.67219 57.1067 5.51203 57.1067 8.1853C57.1067 10.8428 58.799 12.6984 61.0764 12.6984C62.2942 12.6984 63.1957 12.1638 63.7967 11.346V12.5097H66.0583L66.0741 3.86089H63.8125ZM61.5825 10.5598C60.3331 10.5598 59.3842 9.61628 59.3842 8.1853C59.3842 6.77004 60.3173 5.81081 61.5825 5.81081C62.8478 5.81081 63.8125 6.77004 63.8125 8.1853C63.8125 9.61628 62.8478 10.5598 61.5825 10.5598Z" fill="#373434"/>
<path d="M72.8426 3.67219C71.6406 3.67219 70.7708 4.15967 70.1382 5.04028V3.86089H67.8766V12.5097H70.1382V7.96515C70.1382 6.54989 70.8182 5.81081 72.0993 5.81081C73.3013 5.81081 73.7283 6.43981 73.7283 7.57202V12.5097H75.9899V7.08454C75.9899 4.96165 74.8037 3.67219 72.8426 3.67219Z" fill="#373434"/>
<path d="M86.5083 12.5097L82.2697 7.98087L86.2394 3.86089H83.361L80.0556 7.46194V0.401367H77.794V12.5097H80.0556V8.73568L83.614 12.5097H86.5083Z" fill="#373434"/>
</svg>
