<svg viewBox="0 0 23 23" fill="none" xmlns="http://www.w3.org/2000/svg">
<rect x="0.101562" y="0.368408" width="21.9722" height="21.9722" rx="5.27332" fill="url(#paint0_linear_339_2052)"/>
<path d="M6.66355 9.15723C6.18035 9.15723 5.80453 9.38855 5.56591 9.77409C5.38694 9.37669 5.04095 9.15723 4.56968 9.15723C4.14016 9.15723 3.82996 9.33517 3.59731 9.66139V9.2284H2.73828V12.4907H3.59731L3.59134 10.7765C3.59134 10.2605 3.82996 9.96389 4.27737 9.96389C4.68898 9.96389 4.84409 10.1952 4.84409 10.6104V12.4907H5.69715V10.7765C5.69715 10.2605 5.9298 9.96389 6.37721 9.96389C6.78883 9.96389 6.94393 10.1952 6.94393 10.6104V12.4907H7.79699V10.4265C7.79699 9.63767 7.36151 9.15723 6.66355 9.15723Z" fill="white"/>
<path d="M10.076 9.15723C9.13344 9.15723 8.36986 9.87492 8.36986 10.8595C8.36986 11.8382 9.1215 12.5618 10.076 12.5618C11.0364 12.5618 11.7881 11.8441 11.7881 10.8595C11.7881 9.87492 11.0245 9.15723 10.076 9.15723ZM10.076 9.96389C10.5532 9.96389 10.9231 10.3257 10.9231 10.8595C10.9231 11.3993 10.5532 11.7552 10.076 11.7552C9.59874 11.7552 9.22888 11.3993 9.22888 10.8595C9.22888 10.3257 9.59874 9.96389 10.076 9.96389Z" fill="white"/>
<path d="M14.2587 9.15723C13.8053 9.15723 13.4772 9.3411 13.2386 9.67326V9.2284H12.3855V12.4907H13.2386V10.7765C13.2386 10.2427 13.4951 9.96389 13.9783 9.96389C14.4317 9.96389 14.5928 10.2012 14.5928 10.6282V12.4907H15.4458V10.4443C15.4458 9.6436 14.9984 9.15723 14.2587 9.15723Z" fill="white"/>
<path d="M17.725 9.15723C16.7825 9.15723 16.0189 9.87492 16.0189 10.8595C16.0189 11.8382 16.7706 12.5618 17.725 12.5618C18.6855 12.5618 19.4371 11.8441 19.4371 10.8595C19.4371 9.87492 18.6735 9.15723 17.725 9.15723ZM17.725 9.96389C18.2023 9.96389 18.5721 10.3257 18.5721 10.8595C18.5721 11.3993 18.2023 11.7552 17.725 11.7552C17.2478 11.7552 16.8779 11.3993 16.8779 10.8595C16.8779 10.3257 17.2478 9.96389 17.725 9.96389Z" fill="white"/>
<defs>
<linearGradient id="paint0_linear_339_2052" x1="18.5582" y1="27.6139" x2="2.29878" y2="1.24729" gradientUnits="userSpaceOnUse">
<stop stop-color="#373434"/>
<stop offset="0.617271" stop-color="#373434"/>
<stop offset="1" stop-color="#7C7878"/>
</linearGradient>
</defs>
</svg>
