<svg viewBox="0 0 83 23" fill="none" xmlns="http://www.w3.org/2000/svg">
<g clip-path="url(#clip0_339_2023)">
<mask id="mask0_339_2023" style="mask-type:luminance" maskUnits="userSpaceOnUse" x="-3" y="-3" width="90" height="30">
<path d="M-2.54883 -2.86008H86.7925V26.1616H-2.54883V-2.86008Z" fill="white"/>
</mask>
<g mask="url(#mask0_339_2023)">
<path d="M15.8985 2.8409C14.9459 1.75514 13.224 1.28966 11.0212 1.28966H4.62785C4.17716 1.28966 3.79419 1.61743 3.72363 2.06186L1.0616 18.9451C1.00868 19.278 1.26646 19.5796 1.60391 19.5796H5.55086L6.54215 13.2921L6.51142 13.489C6.58198 13.0446 6.96211 12.7168 7.41223 12.7168H9.28783C12.9724 12.7168 15.8575 11.2202 16.7003 6.89085C16.7253 6.76281 16.747 6.63819 16.7658 6.51641C17.0167 4.91623 16.764 3.82707 15.8985 2.8409Z" fill="#003087"/>
<path d="M64.2204 10.8751C63.9791 12.4593 62.7693 12.4593 61.5988 12.4593H60.933L61.4002 9.50137C61.4281 9.32269 61.5823 9.19124 61.7632 9.19124H62.0688C62.8655 9.19124 63.6178 9.19123 64.0059 9.64477C64.238 9.91621 64.308 10.3191 64.2204 10.8751ZM63.7111 6.74146H59.2975C58.9954 6.74146 58.7387 6.96112 58.6915 7.2593L56.9069 18.5766C56.8716 18.7997 57.0446 19.0017 57.27 19.0017H59.5348C59.7459 19.0017 59.9258 18.8481 59.9588 18.6398L60.4652 15.4309C60.5119 15.1327 60.7691 14.9131 61.0707 14.9131H62.4671C65.3744 14.9131 67.0526 13.5064 67.4907 10.7174C67.6882 9.49852 67.4987 8.54024 66.9279 7.86933C66.3003 7.13183 65.1878 6.74146 63.7111 6.74146Z" fill="#009CDE"/>
<path d="M32.736 10.8751C32.4948 12.4593 31.2849 12.4593 30.1144 12.4593H29.4486L29.9158 9.50137C29.9437 9.32269 30.0979 9.19124 30.2789 9.19124H30.5844C31.3811 9.19124 32.1334 9.19123 32.5215 9.64477C32.7537 9.91621 32.8237 10.3191 32.736 10.8751ZM32.2267 6.74146H27.8132C27.511 6.74146 27.2543 6.96112 27.2071 7.2593L25.4226 18.5766C25.3873 18.7997 25.5597 19.0017 25.7856 19.0017H27.8934C28.195 19.0017 28.4516 18.7821 28.4989 18.4844L28.9809 15.4309C29.0275 15.1327 29.2847 14.9131 29.5863 14.9131H30.9828C33.8901 14.9131 35.5682 13.5064 36.0064 10.7174C36.2038 9.49852 36.0143 8.54024 35.4436 7.86933C34.8159 7.13183 33.7034 6.74146 32.2267 6.74146Z" fill="#003087"/>
<path d="M42.4773 14.9378C42.273 16.1454 41.3147 16.9563 40.0918 16.9563C39.4789 16.9563 38.9878 16.7588 38.6726 16.3855C38.3602 16.0156 38.2424 15.4881 38.3414 14.9014C38.5315 13.7041 39.5057 12.8676 40.7098 12.8676C41.3101 12.8676 41.7973 13.0668 42.1188 13.4435C42.4426 13.823 42.57 14.3534 42.4773 14.9378ZM45.4227 10.8241H43.3092C43.1283 10.8241 42.9741 10.9556 42.9456 11.1348L42.8529 11.7255L42.7055 11.5116C42.2474 10.8475 41.2271 10.625 40.2085 10.625C37.8736 10.625 35.8791 12.3947 35.491 14.8764C35.289 16.1146 35.5758 17.2977 36.278 18.1234C36.9227 18.8819 37.8429 19.1978 38.9395 19.1978C40.8219 19.1978 41.8655 17.9891 41.8655 17.9891L41.7711 18.5763C41.7358 18.7994 41.9082 19.0014 42.1347 19.0014H44.0376C44.3398 19.0014 44.5964 18.7823 44.6437 18.4842L45.7863 11.2492C45.8216 11.0262 45.6486 10.8241 45.4227 10.8241Z" fill="#003087"/>
<path d="M73.9538 14.9378C73.7495 16.1454 72.7913 16.9563 71.5684 16.9563C70.9555 16.9563 70.4644 16.7588 70.1492 16.3855C69.8362 16.0156 69.7189 15.4881 69.818 14.9014C70.008 13.7041 70.9822 12.8676 72.1864 12.8676C72.7867 12.8676 73.2738 13.0668 73.5953 13.4435C73.9191 13.823 74.0466 14.3534 73.9538 14.9378ZM76.8993 10.8241H74.7858C74.6048 10.8241 74.4506 10.9556 74.4222 11.1348L74.3294 11.7255L74.1815 11.5116C73.7239 10.8475 72.7036 10.625 71.685 10.625C69.3502 10.625 67.3557 12.3947 66.9676 14.8764C66.7656 16.1146 67.0524 17.2977 67.7546 18.1234C68.3993 18.8819 69.3195 19.1978 70.416 19.1978C72.2985 19.1978 73.3421 17.9891 73.3421 17.9891L73.2476 18.5763C73.2124 18.7994 73.3848 19.0014 73.6113 19.0014H75.5142C75.8163 19.0014 76.073 18.7823 76.1202 18.4842L77.2629 11.2492C77.2982 11.0262 77.1252 10.8241 76.8993 10.8241Z" fill="#009CDE"/>
<path d="M56.6776 10.8247H54.5533C54.3502 10.8247 54.1601 10.9254 54.0463 11.0939L51.1157 15.4096L49.874 11.2623C49.796 11.0028 49.557 10.8247 49.2862 10.8247H47.1983C46.9462 10.8247 46.7687 11.0728 46.85 11.3112L49.1889 18.1774L46.9889 21.2816C46.8165 21.5252 46.9906 21.8621 47.2894 21.8621H49.4114C49.6122 21.8621 49.8006 21.7636 49.9155 21.5986L56.9798 11.4023C57.1488 11.1582 56.9746 10.8247 56.6776 10.8247Z" fill="#003087"/>
<path d="M79.394 7.05217L77.5827 18.5766C77.5474 18.7997 77.7199 19.0017 77.9458 19.0017H79.7679C80.0695 19.0017 80.3267 18.7821 80.3734 18.4839L82.1596 7.16654C82.1949 6.94348 82.0225 6.74146 81.796 6.74146H79.7576C79.5761 6.74146 79.4219 6.87291 79.394 7.05217Z" fill="#009CDE"/>
<path d="M15.8985 2.8409C14.9459 1.75514 13.224 1.28966 11.0212 1.28966H4.62785C4.17716 1.28966 3.79419 1.61743 3.72363 2.06186L1.0616 18.9451C1.00868 19.278 1.26646 19.5796 1.60391 19.5796H5.55086L6.54215 13.2921L6.51142 13.489C6.58198 13.0446 6.96211 12.7168 7.41223 12.7168H9.28783C12.9724 12.7168 15.8575 11.2202 16.7003 6.89085C16.7253 6.76281 16.747 6.63819 16.7658 6.51641C17.0167 4.91623 16.764 3.82707 15.8985 2.8409Z" fill="#003087"/>
<path d="M7.60741 6.53803C7.64952 6.27058 7.82138 6.05149 8.05241 5.94053C8.15769 5.89045 8.27491 5.86257 8.39783 5.86257H13.41C14.0036 5.86257 14.5573 5.90126 15.0631 5.98264C15.2083 6.00597 15.3488 6.03271 15.4854 6.06344C15.622 6.0936 15.7545 6.12775 15.8832 6.1653C15.9475 6.18408 16.0106 6.20343 16.0726 6.22392C16.3213 6.307 16.5529 6.40374 16.7658 6.51698C17.0167 4.91623 16.764 3.82763 15.8985 2.84146C14.9454 1.75571 13.224 1.29023 11.0212 1.29023H4.62728C4.17716 1.29023 3.79419 1.618 3.72363 2.06243L1.0616 18.9451C1.00868 19.2786 1.26646 19.5796 1.60334 19.5796H5.55086L6.54215 13.2921L7.60741 6.53803Z" fill="#003087"/>
<path d="M16.765 6.51641C16.7456 6.63875 16.7246 6.76281 16.6995 6.89085C15.8567 11.2196 12.9716 12.7168 9.28703 12.7168H7.41086C6.96074 12.7168 6.58062 13.0446 6.51062 13.489L5.55006 19.579L5.27748 21.3067C5.23139 21.598 5.45674 21.8621 5.75151 21.8621H9.07876C9.47254 21.8621 9.80772 21.5753 9.86917 21.1866L9.90161 21.017L10.5287 17.0428L10.5691 16.8231C10.6306 16.4344 10.9657 16.1476 11.3595 16.1476H11.8574C15.0806 16.1476 17.6043 14.8382 18.3418 11.0512C18.6497 9.46865 18.4903 8.14731 17.676 7.21919C17.429 6.93808 17.1223 6.7059 16.765 6.51641Z" fill="#009CDE"/>
<path d="M15.8835 6.16449C15.7548 6.12693 15.6223 6.09279 15.4857 6.06263C15.3491 6.03247 15.208 6.00572 15.0634 5.98239C14.557 5.90045 14.0039 5.86175 13.4098 5.86175H8.39813C8.27464 5.86175 8.15742 5.88964 8.05271 5.94028C7.82111 6.05125 7.64982 6.26976 7.60771 6.53779L6.54245 13.2919L6.51172 13.4888C6.58171 13.0443 6.96184 12.7166 7.41196 12.7166H9.28813C12.9727 12.7166 15.8578 11.22 16.7006 6.8906C16.7256 6.76256 16.7467 6.63851 16.7661 6.51616C16.5527 6.40349 16.3216 6.30618 16.0729 6.22367C16.0109 6.20318 15.9478 6.18327 15.8835 6.16449Z" fill="#012169"/>
</g>
</g>
<defs>
<clipPath id="clip0_339_2023">
<rect width="82.2034" height="21.6685" fill="white" transform="translate(0.507812 0.741211)"/>
</clipPath>
</defs>
</svg>
