<svg width="382" height="380" viewBox="0 0 382 380" fill="none" xmlns="http://www.w3.org/2000/svg">
<path d="M67.7627 239.355V139.774L18.0329 189.32L67.7627 239.355Z" fill="#F9D6F0" fill-opacity="0.5"/>
<path d="M139.782 67.7734H239.731L190.002 18.2273L139.782 67.7734Z" fill="#F9D6F0" fill-opacity="0.5"/>
<path d="M312.738 139.774V239.354L362.468 189.808L312.738 139.774Z" fill="#F9D6F0" fill-opacity="0.5"/>
<path d="M240.224 312.088L140.274 312.088L190.004 361.634L240.224 312.088Z" fill="#F9D6F0" fill-opacity="0.5"/>
<path d="M240.974 67.7736L312.396 139.135L312.396 67.5296L240.974 67.7736Z" fill="#ECE0FF" fill-opacity="0.5"/>
<path d="M312.179 240.256L240.553 311.414L312.602 311.591L312.179 240.256Z" fill="#ECE0FF" fill-opacity="0.5"/>
<path d="M139.712 311.51L68.29 240.148L68.1123 311.931L139.712 311.51Z" fill="#ECE0FF" fill-opacity="0.5"/>
<path d="M68.512 139.034L140.139 67.8755L68.0897 67.6984L68.512 139.034Z" fill="#ECE0FF" fill-opacity="0.5"/>
<path d="M190.179 17.9336L190.179 361.8" stroke="#C0B8C9" stroke-width="0.610878"/>
<path d="M313.091 66.5894L67.2613 312.599" stroke="#C0B8C9" stroke-width="0.610878"/>
<path d="M363.573 189.594L17.8755 189.594" stroke="#C0B8C9" stroke-width="0.610878"/>
<path d="M313.091 312.052L67.2614 67.1361" stroke="#C0B8C9" stroke-width="0.610878"/>
<rect x="0.43276" width="173.682" height="172.78" transform="matrix(0.708422 -0.705789 0.708422 0.705789 67.5744 189.926)" stroke="#C0B8C9" stroke-width="0.610878"/>
<rect x="103.781" y="276.333" width="173.357" height="173.102" transform="rotate(-90 103.781 276.333)" stroke="#C0B8C9" stroke-width="0.610878"/>
<g filter="url(#filter0_d_297_1785)">
<rect x="68.0088" y="67.3379" width="244.878" height="244.509" stroke="#9071AF" stroke-width="1.5" shape-rendering="crispEdges"/>
</g>
<g filter="url(#filter1_d_297_1785)">
<rect x="0.920948" width="243.487" height="243.487" transform="matrix(0.708422 -0.705789 0.708422 0.705789 17.0449 190.257)" stroke="#9071AF" stroke-width="1.3" shape-rendering="crispEdges"/>
</g>
<path d="M18.5 189.5L68 140" stroke="#FFA3DA" stroke-width="1.9"/>
<path d="M68.5 67.5H141" stroke="#FFA3DA" stroke-width="1.9"/>
<path d="M190 18L239.5 67.5" stroke="#FFA3DA" stroke-width="1.9"/>
<path d="M313 67.5V140.5" stroke="#FFA3DA" stroke-width="1.9"/>
<path d="M362 189.5L312.5 239" stroke="#FFA3DA" stroke-width="1.9"/>
<path d="M312.5 311.5H239.5" stroke="#FFA3DA" stroke-width="1.9"/>
<path d="M190 361L141 312" stroke="#FFA3DA" stroke-width="1.9"/>
<path d="M68 311.5V239.223" stroke="#FFA3DA" stroke-width="1.9"/>
<g filter="url(#filter2_d_297_1785)">
<ellipse cx="190.178" cy="189.594" rx="15.3072" ry="15.3643" transform="rotate(-90 190.178 189.594)" fill="white"/>
<path d="M206.458 189.594C206.458 180.631 199.166 173.37 190.178 173.37C181.189 173.37 173.897 180.631 173.897 189.594C173.897 198.557 181.189 205.817 190.178 205.817C199.166 205.817 206.458 198.557 206.458 189.594Z" stroke="#9071AF" stroke-width="1.83263"/>
</g>
<path d="M324.917 190.066C324.917 183.858 319.865 178.827 313.637 178.827C307.408 178.827 302.357 183.858 302.357 190.066C302.357 196.275 307.408 201.306 313.637 201.306C319.865 201.306 324.917 196.275 324.917 190.066Z" fill="white" stroke="#9071AF" stroke-width="0.610878"/>
<path d="M289.799 190.066C289.799 183.858 284.748 178.827 278.519 178.827C272.291 178.827 267.239 183.858 267.239 190.066C267.239 196.275 272.291 201.306 278.519 201.306C284.748 201.306 289.799 196.275 289.799 190.066Z" fill="white" stroke="#C0B8C9" stroke-width="0.610878"/>
<path d="M349.609 190.066C349.609 183.858 344.558 178.827 338.329 178.827C332.1 178.827 327.049 183.858 327.049 190.066C327.049 196.275 332.1 201.306 338.329 201.306C344.558 201.306 349.609 196.275 349.609 190.066Z" fill="white" stroke="#9071AF" stroke-width="0.610878"/>
<g filter="url(#filter3_d_297_1785)">
<ellipse cx="363.022" cy="190.066" rx="10.9337" ry="10.9745" transform="rotate(-90 363.022 190.066)" fill="white"/>
<path d="M374.913 190.066C374.913 183.519 369.586 178.216 363.022 178.216C356.458 178.216 351.132 183.519 351.132 190.066C351.132 196.614 356.458 201.917 363.022 201.917C369.586 201.917 374.913 196.614 374.913 190.066Z" stroke="#9071AF" stroke-width="1.83263"/>
</g>
<path d="M95.4896 154.606C95.4896 149.907 99.3125 146.1 104.026 146.1C108.739 146.1 112.562 149.907 112.562 154.606C112.562 159.304 108.739 163.111 104.026 163.111C99.3125 163.111 95.4896 159.304 95.4896 154.606Z" fill="white" stroke="#C0B8C9" stroke-width="0.610878"/>
<path d="M268.886 154.606C268.886 149.907 272.709 146.1 277.422 146.1C282.136 146.1 285.959 149.907 285.959 154.606C285.959 159.304 282.136 163.111 277.422 163.111C272.709 163.111 268.886 159.304 268.886 154.606Z" fill="white" stroke="#C0B8C9" stroke-width="0.610878"/>
<path d="M268.886 225.129C268.886 220.43 272.709 216.623 277.422 216.623C282.136 216.623 285.959 220.43 285.959 225.129C285.959 229.827 282.136 233.635 277.422 233.635C272.709 233.635 268.886 229.827 268.886 225.129Z" fill="white" stroke="#C0B8C9" stroke-width="0.610878"/>
<path d="M95.4896 225.129C95.4896 220.43 99.3125 216.623 104.026 216.623C108.739 216.623 112.562 220.43 112.562 225.129C112.562 229.827 108.739 233.635 104.026 233.635C99.3125 233.635 95.4896 229.827 95.4896 225.129Z" fill="white" stroke="#C0B8C9" stroke-width="0.610878"/>
<path d="M57.0785 190.066C57.0785 183.858 62.1298 178.827 68.3585 178.827C74.5872 178.827 79.6384 183.858 79.6384 190.066C79.6384 196.275 74.5872 201.306 68.3585 201.306C62.1298 201.306 57.0785 196.275 57.0785 190.066Z" fill="white" stroke="#9071AF" stroke-width="0.610878"/>
<path d="M91.1039 190.066C91.1039 183.858 96.1552 178.827 102.384 178.827C108.613 178.827 113.664 183.858 113.664 190.066C113.664 196.275 108.613 201.306 102.384 201.306C96.1552 201.306 91.1039 196.275 91.1039 190.066Z" fill="white" stroke="#C0B8C9" stroke-width="0.610878"/>
<path d="M190.021 89.7912C183.792 89.7912 178.741 94.8221 178.741 101.03C178.741 107.239 183.792 112.27 190.021 112.27C196.249 112.27 201.301 107.239 201.301 101.03C201.301 94.8221 196.249 89.7912 190.021 89.7912Z" fill="white" stroke="#C0B8C9" stroke-width="0.610878"/>
<path d="M190.021 288.303C183.792 288.303 178.741 283.272 178.741 277.064C178.741 270.856 183.792 265.825 190.021 265.825C196.249 265.825 201.301 270.856 201.301 277.064C201.301 283.272 196.249 288.303 190.021 288.303Z" fill="white" stroke="#C0B8C9" stroke-width="0.610878"/>
<path d="M120.406 119.39C116.001 123.779 116.001 130.895 120.406 135.284C124.812 139.673 131.954 139.673 136.36 135.284C140.765 130.895 140.765 123.779 136.36 119.39C131.954 115.001 124.812 115.001 120.406 119.39Z" fill="white" stroke="#C0B8C9" stroke-width="0.610878"/>
<path d="M260.473 259.266C256.067 263.655 248.925 263.655 244.52 259.266C240.114 254.878 240.114 247.762 244.52 243.373C248.925 238.984 256.067 238.984 260.473 243.373C264.878 247.762 264.878 254.878 260.473 259.266Z" fill="white" stroke="#C0B8C9" stroke-width="0.610878"/>
<circle cx="10.9542" cy="10.9542" r="11.2596" transform="matrix(0.708422 0.705789 -0.708422 0.705789 129.111 236.953)" fill="white" stroke="#C0B8C9" stroke-width="0.610878"/>
<path d="M261.821 119.793C266.226 124.182 266.226 131.298 261.821 135.687C257.416 140.076 250.273 140.076 245.868 135.687C241.463 131.298 241.463 124.182 245.868 119.793C250.273 115.404 257.416 115.404 261.821 119.793Z" fill="white" stroke="#C0B8C9" stroke-width="0.610878"/>
<path d="M32.3851 190.066C32.3851 183.858 37.4364 178.827 43.6651 178.827C49.8938 178.827 54.9451 183.858 54.9451 190.066C54.9451 196.275 49.8938 201.306 43.6651 201.306C37.4364 201.306 32.3851 196.275 32.3851 190.066Z" fill="white" stroke="#9071AF" stroke-width="0.610878"/>
<g filter="url(#filter4_d_297_1785)">
<ellipse cx="10.9337" cy="10.9745" rx="10.9337" ry="10.9745" transform="matrix(4.38744e-08 -1 -1 -4.3549e-08 29.9512 201)" fill="white"/>
<path d="M7.08579 190.066C7.08579 183.519 12.4127 178.216 18.9766 178.216C25.5406 178.216 30.8675 183.519 30.8675 190.066C30.8675 196.614 25.5406 201.917 18.9766 201.917C12.4127 201.917 7.08579 196.614 7.08579 190.066Z" stroke="#9071AF" stroke-width="1.83263"/>
</g>
<path d="M284.004 267.093C279.599 262.704 272.456 262.704 268.051 267.093C263.645 271.482 263.645 278.597 268.051 282.986C272.456 287.375 279.599 287.375 284.004 282.986C288.409 278.597 288.409 271.482 284.004 267.093Z" fill="white" stroke="#9071AF" stroke-width="0.610878"/>
<path d="M301.436 284.525C297.03 280.136 289.888 280.136 285.482 284.525C281.077 288.914 281.077 296.03 285.482 300.419C289.888 304.808 297.03 304.808 301.436 300.419C305.841 296.03 305.841 288.914 301.436 284.525Z" fill="white" stroke="#9071AF" stroke-width="0.610878"/>
<g filter="url(#filter5_d_297_1785)">
<ellipse cx="10.9542" cy="10.9542" rx="10.9542" ry="10.9542" transform="matrix(-0.708422 -0.705789 0.708422 -0.705789 310.881 325.356)" fill="white"/>
<path d="M319.29 301.515C314.646 296.888 307.116 296.888 302.472 301.515C297.827 306.142 297.827 313.644 302.472 318.271C307.116 322.898 314.646 322.898 319.29 318.271C323.934 313.644 323.934 306.142 319.29 301.515Z" stroke="#9071AF" stroke-width="1.83263"/>
</g>
<path d="M97.7785 112.657C93.3732 108.268 93.3732 101.152 97.7785 96.7628C102.184 92.3739 109.326 92.3739 113.732 96.7628C118.137 101.152 118.137 108.268 113.732 112.657C109.326 117.046 102.184 117.046 97.7785 112.657Z" fill="white" stroke="#9071AF" stroke-width="0.610878"/>
<path d="M80.4211 95.2272C76.0158 90.8382 76.0158 83.7223 80.4211 79.3334C84.8264 74.9444 91.9689 74.9444 96.3742 79.3334C100.78 83.7223 100.78 90.8382 96.3742 95.2272C91.9689 99.6161 84.8264 99.6161 80.4211 95.2272Z" fill="white" stroke="#9071AF" stroke-width="0.610878"/>
<g filter="url(#filter6_d_297_1785)">
<ellipse cx="10.9542" cy="10.9542" rx="10.9542" ry="10.9542" transform="matrix(-0.708422 -0.705789 -0.708422 0.705789 86.2266 69.5898)" fill="white"/>
<path d="M62.2969 77.9679C57.6526 73.3408 57.6526 65.8389 62.2969 61.2118C66.9413 56.5847 74.4712 56.5847 79.1155 61.2118C83.7599 65.8389 83.7599 73.3408 79.1155 77.9679C74.4712 82.595 66.9413 82.595 62.2969 77.9679Z" stroke="#9071AF" stroke-width="1.83263"/>
</g>
<path d="M284.219 97.5255C279.813 93.1365 272.671 93.1365 268.266 97.5255C263.86 101.914 263.86 109.03 268.266 113.419C272.671 117.808 279.813 117.808 284.219 113.419C288.624 109.03 288.624 101.914 284.219 97.5255Z" fill="white" stroke="#9071AF" stroke-width="0.610878"/>
<path d="M301.865 79.8788C297.46 75.4898 290.317 75.4898 285.912 79.8788C281.507 84.2677 281.507 91.3836 285.912 95.7726C290.317 100.162 297.46 100.162 301.865 95.7726C306.271 91.3836 306.271 84.2677 301.865 79.8788Z" fill="white" stroke="#9071AF" stroke-width="0.610878"/>
<g filter="url(#filter7_d_297_1785)">
<ellipse cx="10.9542" cy="10.9542" rx="10.9542" ry="10.9542" transform="matrix(-0.708422 -0.705789 0.708422 -0.705789 311.313 85.8638)" fill="white"/>
<path d="M319.723 62.0231C315.078 57.396 307.549 57.396 302.904 62.0231C298.26 66.6501 298.26 74.1521 302.904 78.7792C307.549 83.4062 315.078 83.4062 319.723 78.7792C324.367 74.1521 324.367 66.6501 319.723 62.0231Z" stroke="#9071AF" stroke-width="1.83263"/>
</g>
<path d="M99.257 282.37C94.8517 277.981 94.8517 270.865 99.257 266.476C103.662 262.087 110.805 262.087 115.21 266.476C119.615 270.865 119.615 277.981 115.21 282.37C110.805 286.759 103.662 286.759 99.257 282.37Z" fill="white" stroke="#9071AF" stroke-width="0.610878"/>
<path d="M81.6818 299.946C77.2765 295.557 77.2765 288.441 81.6818 284.052C86.0872 279.663 93.2296 279.663 97.6349 284.052C102.04 288.441 102.04 295.557 97.6349 299.946C93.2296 304.335 86.0872 304.335 81.6818 299.946Z" fill="white" stroke="#9071AF" stroke-width="0.610878"/>
<g filter="url(#filter8_d_297_1785)">
<ellipse cx="10.9542" cy="10.9542" rx="10.9542" ry="10.9542" transform="matrix(-0.708422 -0.705789 -0.708422 0.705789 87.0557 310.121)" fill="white"/>
<path d="M63.126 318.499C58.4817 313.872 58.4817 306.37 63.126 301.743C67.7704 297.116 75.3003 297.116 79.9446 301.743C84.589 306.37 84.589 313.872 79.9446 318.499C75.3003 323.126 67.7704 323.126 63.126 318.499Z" stroke="#9071AF" stroke-width="1.83263"/>
</g>
<path d="M153.413 94.7114C148.699 94.7114 144.876 98.5185 144.876 103.217C144.876 107.916 148.699 111.723 153.413 111.723C158.126 111.723 161.949 107.916 161.949 103.217C161.949 98.5185 158.126 94.7114 153.413 94.7114Z" fill="white" stroke="#C0B8C9" stroke-width="0.610878"/>
<path d="M228.586 94.7114C223.873 94.7114 220.05 98.5185 220.05 103.217C220.05 107.916 223.873 111.723 228.586 111.723C233.3 111.723 237.123 107.916 237.123 103.217C237.123 98.5185 233.3 94.7114 228.586 94.7114Z" fill="white" stroke="#C0B8C9" stroke-width="0.610878"/>
<path d="M190.021 55.8964C183.792 55.8964 178.741 60.9273 178.741 67.1356C178.741 73.3439 183.792 78.3748 190.021 78.3748C196.249 78.3748 201.301 73.3439 201.301 67.1356C201.301 60.9273 196.249 55.8964 190.021 55.8964Z" fill="white" stroke="#9071AF" stroke-width="0.610878"/>
<path d="M190.021 31.2958C183.792 31.2958 178.741 36.3267 178.741 42.535C178.741 48.7433 183.792 53.7742 190.021 53.7742C196.249 53.7742 201.301 48.7433 201.301 42.535C201.301 36.3267 196.249 31.2958 190.021 31.2958Z" fill="white" stroke="#9071AF" stroke-width="0.610878"/>
<g filter="url(#filter9_d_297_1785)">
<ellipse cx="190.021" cy="17.9344" rx="10.9745" ry="10.9337" transform="rotate(180 190.021 17.9344)" fill="white"/>
<path d="M190.021 6.08435C183.457 6.08435 178.13 11.3866 178.13 17.9344C178.13 24.4822 183.457 29.7845 190.021 29.7845C196.585 29.7845 201.911 24.4822 201.911 17.9344C201.911 11.3866 196.585 6.08435 190.021 6.08435Z" stroke="#9071AF" stroke-width="1.83263"/>
</g>
<path d="M153.413 284.476C148.699 284.476 144.876 280.669 144.876 275.97C144.876 271.272 148.699 267.465 153.413 267.465C158.126 267.465 161.949 271.272 161.949 275.97C161.949 280.669 158.126 284.476 153.413 284.476Z" fill="white" stroke="#C0B8C9" stroke-width="0.610878"/>
<path d="M228.586 285.023C223.873 285.023 220.05 281.216 220.05 276.517C220.05 271.819 223.873 268.011 228.586 268.011C233.3 268.011 237.123 271.819 237.123 276.517C237.123 281.216 233.3 285.023 228.586 285.023Z" fill="white" stroke="#C0B8C9" stroke-width="0.610878"/>
<path d="M190.021 321.105C183.792 321.105 178.741 316.074 178.741 309.865C178.741 303.657 183.792 298.626 190.021 298.626C196.249 298.626 201.301 303.657 201.301 309.865C201.301 316.074 196.249 321.105 190.021 321.105Z" fill="white" stroke="#9071AF" stroke-width="0.610878"/>
<path d="M190.021 345.705C183.792 345.705 178.741 340.674 178.741 334.466C178.741 328.258 183.792 323.227 190.021 323.227C196.249 323.227 201.301 328.258 201.301 334.466C201.301 340.674 196.249 345.705 190.021 345.705Z" fill="white" stroke="#9071AF" stroke-width="0.610878"/>
<g filter="url(#filter10_d_297_1785)">
<ellipse cx="10.9745" cy="10.9337" rx="10.9745" ry="10.9337" transform="matrix(-1 0 0 1 200.995 348.133)" fill="white"/>
<path d="M190.021 370.917C183.457 370.917 178.13 365.614 178.13 359.067C178.13 352.519 183.457 347.216 190.021 347.216C196.585 347.216 201.911 352.519 201.911 359.067C201.911 365.614 196.585 370.917 190.021 370.917Z" stroke="#9071AF" stroke-width="1.83263"/>
</g>
<path d="M203.071 211.22C207.633 211.22 211.333 207.535 211.333 202.988C211.333 198.44 207.633 194.755 203.071 194.755C198.509 194.755 194.809 198.44 194.809 202.988C194.809 207.535 198.509 211.22 203.071 211.22Z" fill="white" stroke="#9071AF" stroke-width="0.610878"/>
<path d="M174.516 343.302C174.516 344.799 173.299 346.012 171.797 346.012C170.295 346.012 169.078 344.799 169.078 343.302C169.078 341.806 170.295 340.593 171.797 340.593C173.299 340.593 174.516 341.806 174.516 343.302Z" fill="white" stroke="#FFA3DA" stroke-width="0.369912"/>
<path d="M154.77 323.462C154.77 324.959 153.553 326.172 152.051 326.172C150.549 326.172 149.332 324.959 149.332 323.462C149.332 321.966 150.549 320.753 152.051 320.753C153.553 320.753 154.77 321.966 154.77 323.462Z" fill="white" stroke="#FFA3DA" stroke-width="0.369912"/>
<path d="M164.684 333.342C164.684 334.838 163.467 336.051 161.965 336.051C160.463 336.051 159.246 334.838 159.246 333.342C159.246 331.846 160.463 330.633 161.965 330.633C163.467 330.633 164.684 331.846 164.684 333.342Z" fill="white" stroke="#FFA3DA" stroke-width="0.369912"/>
<path d="M145.09 312.196C145.09 314.274 143.4 315.958 141.314 315.958C139.229 315.958 137.539 314.274 137.539 312.196C137.539 310.119 139.229 308.435 141.314 308.435C143.4 308.435 145.09 310.119 145.09 312.196Z" fill="#FFF9FD" stroke="url(#paint0_linear_297_1785)" stroke-width="0.369912"/>
<path d="M208.016 345.746C206.514 345.746 205.297 344.534 205.297 343.038C205.297 341.542 206.514 340.329 208.016 340.329C209.517 340.329 210.735 341.542 210.735 343.038C210.735 344.534 209.517 345.746 208.016 345.746Z" fill="white" stroke="#9071AF" stroke-width="0.369912"/>
<path d="M227.926 326.069C226.424 326.069 225.207 324.856 225.207 323.36C225.207 321.864 226.424 320.651 227.926 320.651C229.428 320.651 230.645 321.864 230.645 323.36C230.645 324.856 229.428 326.069 227.926 326.069Z" fill="white" stroke="#9071AF" stroke-width="0.369912"/>
<path d="M218.016 335.948C216.514 335.948 215.297 334.735 215.297 333.239C215.297 331.743 216.514 330.53 218.016 330.53C219.517 330.53 220.735 331.743 220.735 333.239C220.735 334.735 219.517 335.948 218.016 335.948Z" fill="white" stroke="#9071AF" stroke-width="0.369912"/>
<path d="M239.237 316.423C237.152 316.423 235.462 314.739 235.462 312.662C235.462 310.585 237.152 308.901 239.237 308.901C241.322 308.901 243.012 310.585 243.012 312.662C243.012 314.739 241.322 316.423 239.237 316.423Z" fill="#FFF9FD" stroke="url(#paint1_linear_297_1785)" stroke-width="0.369912"/>
<path d="M69.9014 286.916C68.8394 287.974 67.1176 287.974 66.0557 286.916C64.9937 285.857 64.9937 284.142 66.0557 283.084C67.1176 282.026 68.8394 282.026 69.9014 283.084C70.9633 284.142 70.9633 285.857 69.9014 286.916Z" fill="white" stroke="#FFA3DA" stroke-width="0.369912"/>
<path d="M70.0107 258.973C68.9488 260.031 67.227 260.031 66.165 258.973C65.1031 257.915 65.1031 256.199 66.165 255.141C67.227 254.083 68.9488 254.083 70.0107 255.141C71.0727 256.199 71.0727 257.915 70.0107 258.973Z" fill="white" stroke="#FFA3DA" stroke-width="0.369912"/>
<path d="M70.0107 272.944C68.9488 274.002 67.227 274.002 66.165 272.944C65.1031 271.886 65.1031 270.17 66.165 269.112C67.227 268.054 68.9488 268.054 70.0107 269.112C71.0727 270.17 71.0727 271.886 70.0107 272.944Z" fill="white" stroke="#FFA3DA" stroke-width="0.369912"/>
<path d="M70.6717 241.745C69.1972 243.214 66.8067 243.214 65.3322 241.745C63.8578 240.276 63.8578 237.894 65.3323 236.425C66.8067 234.956 69.1972 234.956 70.6717 236.425C72.1461 237.894 72.1461 240.276 70.6717 241.745Z" fill="#FFF9FD" stroke="url(#paint2_linear_297_1785)" stroke-width="0.369912"/>
<path d="M92.8347 313.705C91.7727 312.647 91.7727 310.932 92.8347 309.874C93.8966 308.816 95.6184 308.816 96.6803 309.874C97.7423 310.932 97.7423 312.647 96.6803 313.705C95.6184 314.763 93.8966 314.763 92.8347 313.705Z" fill="white" stroke="#9071AF" stroke-width="0.369912"/>
<path d="M120.878 313.82C119.816 312.762 119.816 311.047 120.878 309.989C121.94 308.931 123.661 308.931 124.723 309.989C125.785 311.047 125.785 312.762 124.723 313.82C123.661 314.878 121.94 314.878 120.878 313.82Z" fill="white" stroke="#9071AF" stroke-width="0.369912"/>
<path d="M106.85 313.82C105.788 312.762 105.788 311.047 106.85 309.989C107.912 308.931 109.634 308.931 110.696 309.989C111.758 311.047 111.758 312.762 110.696 313.82C109.634 314.878 107.912 314.878 106.85 313.82Z" fill="white" stroke="#9071AF" stroke-width="0.369912"/>
<path d="M289.158 309.875C290.219 310.933 290.219 312.648 289.158 313.706C288.096 314.764 286.374 314.764 285.312 313.706C284.25 312.648 284.25 310.933 285.312 309.875C286.374 308.817 288.096 308.817 289.158 309.875Z" fill="white" stroke="#FFA3DA" stroke-width="0.369912"/>
<path d="M261.115 309.759C262.177 310.817 262.177 312.533 261.115 313.591C260.053 314.649 258.331 314.649 257.269 313.591C256.207 312.533 256.207 310.817 257.269 309.759C258.331 308.701 260.053 308.701 261.115 309.759Z" fill="white" stroke="#FFA3DA" stroke-width="0.369912"/>
<path d="M275.146 309.76C276.208 310.818 276.208 312.533 275.146 313.591C274.084 314.649 272.362 314.649 271.3 313.591C270.238 312.533 270.238 310.818 271.3 309.76C272.362 308.702 274.084 308.702 275.146 309.76Z" fill="white" stroke="#FFA3DA" stroke-width="0.369912"/>
<path d="M314.593 287.027C313.531 288.085 311.809 288.085 310.747 287.027C309.685 285.969 309.685 284.254 310.747 283.196C311.809 282.138 313.531 282.138 314.593 283.196C315.655 284.254 315.655 285.969 314.593 287.027Z" fill="white" stroke="#9071AF" stroke-width="0.369912"/>
<path d="M314.706 259.085C313.644 260.143 311.922 260.143 310.86 259.085C309.798 258.027 309.798 256.312 310.86 255.253C311.922 254.195 313.644 254.195 314.706 255.253C315.768 256.312 315.768 258.027 314.706 259.085Z" fill="white" stroke="#9071AF" stroke-width="0.369912"/>
<path d="M314.706 273.056C313.644 274.114 311.922 274.114 310.86 273.056C309.798 271.998 309.798 270.283 310.86 269.225C311.922 268.167 313.644 268.167 314.706 269.225C315.768 270.283 315.768 271.998 314.706 273.056Z" fill="white" stroke="#9071AF" stroke-width="0.369912"/>
<path d="M36.2969 173.453C34.7952 173.453 33.5779 172.24 33.5779 170.744C33.5779 169.248 34.7952 168.035 36.2969 168.035C37.7986 168.035 39.0159 169.248 39.0159 170.744C39.0159 172.24 37.7986 173.453 36.2969 173.453Z" fill="white" stroke="#FFA3DA" stroke-width="0.369912"/>
<path d="M56.207 154.264C54.7053 154.264 53.488 153.051 53.488 151.555C53.488 150.059 54.7053 148.846 56.207 148.846C57.7087 148.846 58.9261 150.059 58.9261 151.555C58.9261 153.051 57.7087 154.264 56.207 154.264Z" fill="white" stroke="#FFA3DA" stroke-width="0.369912"/>
<path d="M65.53 141.611C63.7207 140.574 63.1085 138.282 64.1626 136.492C65.2167 134.702 67.538 134.093 69.3474 135.13C71.1567 136.167 71.7689 138.459 70.7148 140.249C69.6607 142.039 67.3394 142.649 65.53 141.611Z" fill="#FFF9FD" stroke="url(#paint3_linear_297_1785)" stroke-width="0.369912"/>
<path d="M46.293 163.655C44.7913 163.655 43.574 162.443 43.574 160.946C43.574 159.45 44.7913 158.238 46.293 158.238C47.7947 158.238 49.012 159.45 49.012 160.946C49.012 162.443 47.7947 163.655 46.293 163.655Z" fill="white" stroke="#FFA3DA" stroke-width="0.369912"/>
<path d="M33.5889 208.063C33.5889 206.567 34.8064 205.354 36.3083 205.354C37.8101 205.354 39.0276 206.567 39.0276 208.063C39.0276 209.56 37.8101 210.773 36.3083 210.773C34.8064 210.773 33.5889 209.56 33.5889 208.063Z" fill="white" stroke="#9071AF" stroke-width="0.369912"/>
<path d="M53.3311 227.415C53.3311 225.919 54.5486 224.706 56.0504 224.706C57.5523 224.706 58.7698 225.919 58.7698 227.415C58.7698 228.912 57.5523 230.125 56.0504 230.125C54.5486 230.125 53.3311 228.912 53.3311 227.415Z" fill="white" stroke="#9071AF" stroke-width="0.369912"/>
<path d="M43.9053 218.024C43.9053 216.528 45.1228 215.315 46.6247 215.315C48.1265 215.315 49.344 216.528 49.344 218.024C49.344 219.52 48.1265 220.733 46.6247 220.733C45.1228 220.733 43.9053 219.52 43.9053 218.024Z" fill="white" stroke="#9071AF" stroke-width="0.369912"/>
<path d="M93.319 69.1477C92.2571 68.0896 92.2571 66.3742 93.319 65.3162C94.381 64.2582 96.1028 64.2582 97.1647 65.3162C98.2267 66.3742 98.2267 68.0896 97.1647 69.1477C96.1028 70.2057 94.381 70.2057 93.319 69.1477Z" fill="white" stroke="#FFA3DA" stroke-width="0.369912"/>
<path d="M120.878 69.2624C119.816 68.2044 119.816 66.489 120.878 65.4309C121.94 64.3729 123.661 64.3729 124.723 65.4309C125.785 66.489 125.785 68.2044 124.723 69.2624C123.661 70.3205 121.94 70.3205 120.878 69.2624Z" fill="white" stroke="#FFA3DA" stroke-width="0.369912"/>
<path d="M106.858 69.2624C105.796 68.2044 105.796 66.489 106.858 65.4309C107.92 64.3729 109.642 64.3729 110.704 65.4309C111.766 66.489 111.766 68.2044 110.704 69.2624C109.642 70.3205 107.92 70.3205 106.858 69.2624Z" fill="white" stroke="#FFA3DA" stroke-width="0.369912"/>
<path d="M138.657 69.9196C137.182 68.4506 137.182 66.0689 138.657 64.5999C140.131 63.1309 142.522 63.1309 143.996 64.5999C145.47 66.0689 145.47 68.4506 143.996 69.9196C142.522 71.3886 140.131 71.3886 138.657 69.9196Z" fill="#FFF9FD" stroke="url(#paint4_linear_297_1785)" stroke-width="0.369912"/>
<path d="M66.4229 92.9717C67.4848 91.9136 69.2066 91.9136 70.2685 92.9717C71.3305 94.0297 71.3305 95.7451 70.2685 96.8032C69.2066 97.8612 67.4848 97.8612 66.4229 96.8032C65.3609 95.7451 65.3609 94.0297 66.4229 92.9717Z" fill="white" stroke="#9071AF" stroke-width="0.369912"/>
<path d="M66.3096 120.915C67.3715 119.857 69.0933 119.857 70.1553 120.915C71.2172 121.973 71.2172 123.688 70.1553 124.746C69.0933 125.804 67.3715 125.804 66.3096 124.746C65.2476 123.688 65.2476 121.973 66.3096 120.915Z" fill="white" stroke="#9071AF" stroke-width="0.369912"/>
<path d="M66.3096 106.943C67.3715 105.885 69.0933 105.885 70.1553 106.943C71.2172 108.001 71.2172 109.717 70.1553 110.775C69.0933 111.833 67.3715 111.833 66.3096 110.775C65.2476 109.717 65.2476 108.001 66.3096 106.943Z" fill="white" stroke="#9071AF" stroke-width="0.369912"/>
<path d="M311.009 93.2C312.071 92.1419 313.793 92.1419 314.854 93.1999C315.916 94.258 315.916 95.9734 314.854 97.0314C313.793 98.0895 312.071 98.0895 311.009 97.0314C309.947 95.9734 309.947 94.258 311.009 93.2Z" fill="white" stroke="#FFA3DA" stroke-width="0.369912"/>
<path d="M310.892 121.143C311.954 120.085 313.675 120.085 314.737 121.143C315.799 122.201 315.799 123.917 314.737 124.975C313.675 126.033 311.954 126.033 310.892 124.975C309.83 123.917 309.83 122.201 310.892 121.143Z" fill="white" stroke="#FFA3DA" stroke-width="0.369912"/>
<path d="M310.892 107.172C311.954 106.114 313.675 106.114 314.737 107.172C315.799 108.23 315.799 109.945 314.737 111.003C313.675 112.061 311.954 112.061 310.892 111.003C309.83 109.945 309.83 108.23 310.892 107.172Z" fill="white" stroke="#FFA3DA" stroke-width="0.369912"/>
<path d="M309.742 135.93C311.217 134.461 313.607 134.461 315.082 135.93C316.556 137.399 316.556 139.781 315.082 141.25C313.607 142.719 311.217 142.719 309.742 141.25C308.268 139.781 308.268 137.399 309.742 135.93Z" fill="#FFF9FD" stroke="url(#paint5_linear_297_1785)" stroke-width="0.369912"/>
<path d="M289.048 65.4334C290.11 66.4914 290.11 68.2068 289.048 69.2649C287.986 70.3229 286.264 70.3229 285.202 69.2649C284.141 68.2068 284.141 66.4914 285.202 65.4334C286.264 64.3753 287.986 64.3753 289.048 65.4334Z" fill="white" stroke="#9071AF" stroke-width="0.369912"/>
<path d="M261.005 65.3181C262.067 66.3762 262.067 68.0916 261.005 69.1496C259.943 70.2077 258.221 70.2077 257.16 69.1496C256.098 68.0916 256.098 66.3762 257.16 65.3181C258.221 64.2601 259.943 64.2601 261.005 65.3181Z" fill="white" stroke="#9071AF" stroke-width="0.369912"/>
<path d="M275.033 65.3186C276.094 66.3767 276.094 68.0921 275.033 69.1501C273.971 70.2081 272.249 70.2081 271.187 69.1501C270.125 68.0921 270.125 66.3767 271.187 65.3186C272.249 64.2606 273.971 64.2606 275.033 65.3186Z" fill="white" stroke="#9071AF" stroke-width="0.369912"/>
<path d="M343.562 205.876C345.064 205.876 346.282 207.089 346.282 208.585C346.282 210.081 345.064 211.294 343.562 211.294C342.061 211.294 340.843 210.081 340.843 208.585C340.843 207.089 342.061 205.876 343.562 205.876Z" fill="white" stroke="#FFA3DA" stroke-width="0.369912"/>
<path d="M323.652 225.553C325.154 225.553 326.371 226.766 326.371 228.262C326.371 229.758 325.154 230.971 323.652 230.971C322.15 230.971 320.933 229.758 320.933 228.262C320.933 226.766 322.15 225.553 323.652 225.553Z" fill="white" stroke="#FFA3DA" stroke-width="0.369912"/>
<path d="M333.562 215.674C335.064 215.674 336.282 216.887 336.282 218.383C336.282 219.879 335.064 221.092 333.562 221.092C332.061 221.092 330.843 219.879 330.843 218.383C330.843 216.887 332.061 215.674 333.562 215.674Z" fill="white" stroke="#FFA3DA" stroke-width="0.369912"/>
<path d="M312.341 235.199C314.426 235.199 316.116 236.883 316.116 238.96C316.116 241.037 314.426 242.721 312.341 242.721C310.256 242.721 308.566 241.037 308.566 238.96C308.566 236.883 310.256 235.199 312.341 235.199Z" fill="#FFF9FD" stroke="url(#paint6_linear_297_1785)" stroke-width="0.369912"/>
<path d="M346.274 170.776C346.274 172.273 345.057 173.486 343.555 173.486C342.053 173.486 340.836 172.273 340.836 170.776C340.836 169.28 342.053 168.067 343.555 168.067C345.057 168.067 346.274 169.28 346.274 170.776Z" fill="white" stroke="#9071AF" stroke-width="0.369912"/>
<ellipse cx="323.809" cy="150.936" rx="2.90461" ry="2.89388" fill="white" stroke="#9071AF" stroke-width="0.369912"/>
<ellipse cx="333.719" cy="160.816" rx="2.90461" ry="2.89388" fill="white" stroke="#9071AF" stroke-width="0.369912"/>
<path d="M206.148 35.8112C206.148 34.3149 207.365 33.1019 208.867 33.1019C210.369 33.1019 211.586 34.3149 211.586 35.8112C211.586 37.3075 210.369 38.5205 208.867 38.5205C207.365 38.5205 206.148 37.3075 206.148 35.8112Z" fill="white" stroke="#FFA3DA" stroke-width="0.369912"/>
<path d="M225.898 56.1393C225.898 54.643 227.115 53.4301 228.617 53.4301C230.119 53.4301 231.336 54.643 231.336 56.1393C231.336 57.6356 230.119 58.8486 228.617 58.8486C227.115 58.8486 225.898 57.6356 225.898 56.1393Z" fill="white" stroke="#FFA3DA" stroke-width="0.369912"/>
<path d="M215.484 45.7726C215.484 44.2763 216.701 43.0634 218.203 43.0634C219.705 43.0634 220.922 44.2763 220.922 45.7726C220.922 47.2689 219.705 48.4819 218.203 48.4819C216.701 48.4819 215.484 47.2689 215.484 45.7726Z" fill="white" stroke="#FFA3DA" stroke-width="0.369912"/>
<path d="M235.574 66.9171C235.574 64.8396 237.265 63.1555 239.35 63.1555C241.435 63.1555 243.125 64.8396 243.125 66.9171C243.125 68.9945 241.435 70.6787 239.35 70.6787C237.265 70.6787 235.574 68.9945 235.574 66.9171Z" fill="#FFF9FD" stroke="url(#paint7_linear_297_1785)" stroke-width="0.369912"/>
<path d="M171.879 33.1054C173.381 33.1054 174.599 34.3183 174.599 35.8146C174.599 37.3109 173.381 38.5239 171.879 38.5239C170.377 38.5239 169.16 37.3109 169.16 35.8146C169.16 34.3183 170.377 33.1054 171.879 33.1054Z" fill="white" stroke="#9071AF" stroke-width="0.369912"/>
<path d="M151.965 53.2704C153.467 53.2704 154.684 54.4834 154.684 55.9797C154.684 57.4759 153.467 58.6889 151.965 58.6889C150.463 58.6889 149.246 57.4759 149.246 55.9797C149.246 54.4834 150.463 53.2704 151.965 53.2704Z" fill="white" stroke="#9071AF" stroke-width="0.369912"/>
<path d="M162.375 42.9037C163.877 42.9037 165.095 44.1167 165.095 45.613C165.095 47.1092 163.877 48.3222 162.375 48.3222C160.873 48.3222 159.656 47.1092 159.656 45.613C159.656 44.1167 160.873 42.9037 162.375 42.9037Z" fill="white" stroke="#9071AF" stroke-width="0.369912"/>
<defs>
<filter id="filter0_d_297_1785" x="61.15" y="61.7009" width="258.595" height="258.227" filterUnits="userSpaceOnUse" color-interpolation-filters="sRGB">
<feFlood flood-opacity="0" result="BackgroundImageFix"/>
<feColorMatrix in="SourceAlpha" type="matrix" values="0 0 0 0 0 0 0 0 0 0 0 0 0 0 0 0 0 0 127 0" result="hardAlpha"/>
<feOffset dy="1.22176"/>
<feGaussianBlur stdDeviation="3.05439"/>
<feComposite in2="hardAlpha" operator="out"/>
<feColorMatrix type="matrix" values="0 0 0 0 0.745098 0 0 0 0 0.580392 0 0 0 0 0.909804 0 0 0 1 0"/>
<feBlend mode="normal" in2="BackgroundImageFix" result="effect1_dropShadow_297_1785"/>
<feBlend mode="normal" in="SourceGraphic" in2="effect1_dropShadow_297_1785" result="shape"/>
</filter>
<filter id="filter1_d_297_1785" x="10.6676" y="11.9523" width="359.042" height="357.753" filterUnits="userSpaceOnUse" color-interpolation-filters="sRGB">
<feFlood flood-opacity="0" result="BackgroundImageFix"/>
<feColorMatrix in="SourceAlpha" type="matrix" values="0 0 0 0 0 0 0 0 0 0 0 0 0 0 0 0 0 0 127 0" result="hardAlpha"/>
<feOffset dy="1.22176"/>
<feGaussianBlur stdDeviation="3.05439"/>
<feComposite in2="hardAlpha" operator="out"/>
<feColorMatrix type="matrix" values="0 0 0 0 0.745098 0 0 0 0 0.580392 0 0 0 0 0.909804 0 0 0 1 0"/>
<feBlend mode="normal" in2="BackgroundImageFix" result="effect1_dropShadow_297_1785"/>
<feBlend mode="normal" in="SourceGraphic" in2="effect1_dropShadow_297_1785" result="shape"/>
</filter>
<filter id="filter2_d_297_1785" x="166.872" y="167.567" width="46.6121" height="46.4971" filterUnits="userSpaceOnUse" color-interpolation-filters="sRGB">
<feFlood flood-opacity="0" result="BackgroundImageFix"/>
<feColorMatrix in="SourceAlpha" type="matrix" values="0 0 0 0 0 0 0 0 0 0 0 0 0 0 0 0 0 0 127 0" result="hardAlpha"/>
<feOffset dy="1.22176"/>
<feGaussianBlur stdDeviation="3.05439"/>
<feComposite in2="hardAlpha" operator="out"/>
<feColorMatrix type="matrix" values="0 0 0 0 0.745098 0 0 0 0 0.580392 0 0 0 0 0.909804 0 0 0 1 0"/>
<feBlend mode="normal" in2="BackgroundImageFix" result="effect1_dropShadow_297_1785"/>
<feBlend mode="normal" in="SourceGraphic" in2="effect1_dropShadow_297_1785" result="shape"/>
</filter>
<filter id="filter3_d_297_1785" x="344.106" y="172.413" width="37.8318" height="37.7503" filterUnits="userSpaceOnUse" color-interpolation-filters="sRGB">
<feFlood flood-opacity="0" result="BackgroundImageFix"/>
<feColorMatrix in="SourceAlpha" type="matrix" values="0 0 0 0 0 0 0 0 0 0 0 0 0 0 0 0 0 0 127 0" result="hardAlpha"/>
<feOffset dy="1.22176"/>
<feGaussianBlur stdDeviation="3.05439"/>
<feComposite in2="hardAlpha" operator="out"/>
<feColorMatrix type="matrix" values="0 0 0 0 0.745098 0 0 0 0 0.580392 0 0 0 0 0.909804 0 0 0 1 0"/>
<feBlend mode="normal" in2="BackgroundImageFix" result="effect1_dropShadow_297_1785"/>
<feBlend mode="normal" in="SourceGraphic" in2="effect1_dropShadow_297_1785" result="shape"/>
</filter>
<filter id="filter4_d_297_1785" x="0.0611386" y="172.413" width="37.8318" height="37.7503" filterUnits="userSpaceOnUse" color-interpolation-filters="sRGB">
<feFlood flood-opacity="0" result="BackgroundImageFix"/>
<feColorMatrix in="SourceAlpha" type="matrix" values="0 0 0 0 0 0 0 0 0 0 0 0 0 0 0 0 0 0 127 0" result="hardAlpha"/>
<feOffset dy="1.22176"/>
<feGaussianBlur stdDeviation="3.05439"/>
<feComposite in2="hardAlpha" operator="out"/>
<feColorMatrix type="matrix" values="0 0 0 0 0.745098 0 0 0 0 0.580392 0 0 0 0 0.909804 0 0 0 1 0"/>
<feBlend mode="normal" in2="BackgroundImageFix" result="effect1_dropShadow_297_1785"/>
<feBlend mode="normal" in="SourceGraphic" in2="effect1_dropShadow_297_1785" result="shape"/>
</filter>
<filter id="filter5_d_297_1785" x="291.962" y="292.243" width="37.8387" height="37.7434" filterUnits="userSpaceOnUse" color-interpolation-filters="sRGB">
<feFlood flood-opacity="0" result="BackgroundImageFix"/>
<feColorMatrix in="SourceAlpha" type="matrix" values="0 0 0 0 0 0 0 0 0 0 0 0 0 0 0 0 0 0 127 0" result="hardAlpha"/>
<feOffset dy="1.22176"/>
<feGaussianBlur stdDeviation="3.05439"/>
<feComposite in2="hardAlpha" operator="out"/>
<feColorMatrix type="matrix" values="0 0 0 0 0.745098 0 0 0 0 0.580392 0 0 0 0 0.909804 0 0 0 1 0"/>
<feBlend mode="normal" in2="BackgroundImageFix" result="effect1_dropShadow_297_1785"/>
<feBlend mode="normal" in="SourceGraphic" in2="effect1_dropShadow_297_1785" result="shape"/>
</filter>
<filter id="filter6_d_297_1785" x="51.7867" y="51.9396" width="37.8387" height="37.7439" filterUnits="userSpaceOnUse" color-interpolation-filters="sRGB">
<feFlood flood-opacity="0" result="BackgroundImageFix"/>
<feColorMatrix in="SourceAlpha" type="matrix" values="0 0 0 0 0 0 0 0 0 0 0 0 0 0 0 0 0 0 127 0" result="hardAlpha"/>
<feOffset dy="1.22176"/>
<feGaussianBlur stdDeviation="3.05439"/>
<feComposite in2="hardAlpha" operator="out"/>
<feColorMatrix type="matrix" values="0 0 0 0 0.745098 0 0 0 0 0.580392 0 0 0 0 0.909804 0 0 0 1 0"/>
<feBlend mode="normal" in2="BackgroundImageFix" result="effect1_dropShadow_297_1785"/>
<feBlend mode="normal" in="SourceGraphic" in2="effect1_dropShadow_297_1785" result="shape"/>
</filter>
<filter id="filter7_d_297_1785" x="292.394" y="52.7512" width="37.8387" height="37.7434" filterUnits="userSpaceOnUse" color-interpolation-filters="sRGB">
<feFlood flood-opacity="0" result="BackgroundImageFix"/>
<feColorMatrix in="SourceAlpha" type="matrix" values="0 0 0 0 0 0 0 0 0 0 0 0 0 0 0 0 0 0 127 0" result="hardAlpha"/>
<feOffset dy="1.22176"/>
<feGaussianBlur stdDeviation="3.05439"/>
<feComposite in2="hardAlpha" operator="out"/>
<feColorMatrix type="matrix" values="0 0 0 0 0.745098 0 0 0 0 0.580392 0 0 0 0 0.909804 0 0 0 1 0"/>
<feBlend mode="normal" in2="BackgroundImageFix" result="effect1_dropShadow_297_1785"/>
<feBlend mode="normal" in="SourceGraphic" in2="effect1_dropShadow_297_1785" result="shape"/>
</filter>
<filter id="filter8_d_297_1785" x="52.6158" y="292.471" width="37.8387" height="37.7434" filterUnits="userSpaceOnUse" color-interpolation-filters="sRGB">
<feFlood flood-opacity="0" result="BackgroundImageFix"/>
<feColorMatrix in="SourceAlpha" type="matrix" values="0 0 0 0 0 0 0 0 0 0 0 0 0 0 0 0 0 0 127 0" result="hardAlpha"/>
<feOffset dy="1.22176"/>
<feGaussianBlur stdDeviation="3.05439"/>
<feComposite in2="hardAlpha" operator="out"/>
<feColorMatrix type="matrix" values="0 0 0 0 0.745098 0 0 0 0 0.580392 0 0 0 0 0.909804 0 0 0 1 0"/>
<feBlend mode="normal" in2="BackgroundImageFix" result="effect1_dropShadow_297_1785"/>
<feBlend mode="normal" in="SourceGraphic" in2="effect1_dropShadow_297_1785" result="shape"/>
</filter>
<filter id="filter9_d_297_1785" x="171.105" y="0.280942" width="37.8318" height="37.7503" filterUnits="userSpaceOnUse" color-interpolation-filters="sRGB">
<feFlood flood-opacity="0" result="BackgroundImageFix"/>
<feColorMatrix in="SourceAlpha" type="matrix" values="0 0 0 0 0 0 0 0 0 0 0 0 0 0 0 0 0 0 127 0" result="hardAlpha"/>
<feOffset dy="1.22176"/>
<feGaussianBlur stdDeviation="3.05439"/>
<feComposite in2="hardAlpha" operator="out"/>
<feColorMatrix type="matrix" values="0 0 0 0 0.745098 0 0 0 0 0.580392 0 0 0 0 0.909804 0 0 0 1 0"/>
<feBlend mode="normal" in2="BackgroundImageFix" result="effect1_dropShadow_297_1785"/>
<feBlend mode="normal" in="SourceGraphic" in2="effect1_dropShadow_297_1785" result="shape"/>
</filter>
<filter id="filter10_d_297_1785" x="171.105" y="341.413" width="37.8318" height="37.7503" filterUnits="userSpaceOnUse" color-interpolation-filters="sRGB">
<feFlood flood-opacity="0" result="BackgroundImageFix"/>
<feColorMatrix in="SourceAlpha" type="matrix" values="0 0 0 0 0 0 0 0 0 0 0 0 0 0 0 0 0 0 127 0" result="hardAlpha"/>
<feOffset dy="1.22176"/>
<feGaussianBlur stdDeviation="3.05439"/>
<feComposite in2="hardAlpha" operator="out"/>
<feColorMatrix type="matrix" values="0 0 0 0 0.745098 0 0 0 0 0.580392 0 0 0 0 0.909804 0 0 0 1 0"/>
<feBlend mode="normal" in2="BackgroundImageFix" result="effect1_dropShadow_297_1785"/>
<feBlend mode="normal" in="SourceGraphic" in2="effect1_dropShadow_297_1785" result="shape"/>
</filter>
<linearGradient id="paint0_linear_297_1785" x1="139.136" y1="312.887" x2="143.196" y2="312.887" gradientUnits="userSpaceOnUse">
<stop stop-color="#9071AF"/>
<stop offset="1" stop-color="#FFA3DA"/>
</linearGradient>
<linearGradient id="paint1_linear_297_1785" x1="238.544" y1="310.492" x2="238.544" y2="314.536" gradientUnits="userSpaceOnUse">
<stop stop-color="#9071AF"/>
<stop offset="1" stop-color="#FFA3DA"/>
</linearGradient>
<linearGradient id="paint2_linear_297_1785" x1="65.9714" y1="238.039" x2="68.8315" y2="240.909" gradientUnits="userSpaceOnUse">
<stop stop-color="#9071AF"/>
<stop offset="1" stop-color="#FFA3DA"/>
</linearGradient>
<linearGradient id="paint3_linear_297_1785" x1="67.9385" y1="136.156" x2="65.9271" y2="139.664" gradientUnits="userSpaceOnUse">
<stop stop-color="#9071AF"/>
<stop offset="1" stop-color="#FFA3DA"/>
</linearGradient>
<linearGradient id="paint4_linear_297_1785" x1="142.377" y1="65.2367" x2="139.516" y2="68.1075" gradientUnits="userSpaceOnUse">
<stop stop-color="#9071AF"/>
<stop offset="1" stop-color="#FFA3DA"/>
</linearGradient>
<linearGradient id="paint5_linear_297_1785" x1="314.443" y1="139.636" x2="311.583" y2="136.766" gradientUnits="userSpaceOnUse">
<stop stop-color="#9071AF"/>
<stop offset="1" stop-color="#FFA3DA"/>
</linearGradient>
<linearGradient id="paint6_linear_297_1785" x1="313.034" y1="241.13" x2="313.034" y2="237.086" gradientUnits="userSpaceOnUse">
<stop stop-color="#9071AF"/>
<stop offset="1" stop-color="#FFA3DA"/>
</linearGradient>
<linearGradient id="paint7_linear_297_1785" x1="241.528" y1="66.2265" x2="237.468" y2="66.2265" gradientUnits="userSpaceOnUse">
<stop stop-color="#9071AF"/>
<stop offset="1" stop-color="#FFA3DA"/>
</linearGradient>
</defs>
</svg>
