<svg xmlns="http://www.w3.org/2000/svg" viewBox="0 0 400 616" fill="none"><path fill="#9163BF" fill-opacity=".07" stroke="url(#a)" d="M218.133.647c2.738-.477 5.664.23 8.585 1.823 3.226 1.76 6.405 4.581 9.24 7.989 5.677 6.825 9.881 15.89 10.322 23.185v.004c1.926 28.278-18.808 51.127-46.337 51.273-27.534.146-48.855-22.855-46.781-50.828v-.004c.59-8.78 4.69-17.62 10.35-24.023 5.34-6.043 11.983-9.829 18.288-9.48-10.952 9.225-19.572 19.42-16.008 34.612 1.828 8.088 6.701 14.516 13.517 19.284l.004.002c7.073 4.863 16.213 6.645 24.857 5.715 8.641-.93 16.852-4.579 22.041-10.66l.003-.003c6.065-7.233 8.443-14.995 6.992-23.293-1.412-8.08-6.442-16.6-15.073-25.596Z"/><path fill="#9163BF" fill-opacity=".07" stroke="url(#b)" d="m230.406 166.517-1.06-.565.346 1.15c1.129 3.749 2.556 7.367 3.977 10.968l.282.717c1.516 3.846 3.003 7.687 4.117 11.706 4.453 16.206 2.234 31.699-2.687 47.249-.114.34-.219.689-.322 1.034l-.023.078c-.096.322-.19.64-.293.954-.222.68-.473 1.315-.824 1.87a4.001 4.001 0 0 1-1.405 1.375c-.554.319-1.267.554-2.207.649a30.823 30.823 0 0 0-.252-.435l-.014-.023c-.142-.241-.28-.475-.4-.704a3.842 3.842 0 0 1-.278-.634c-.055-.178-.062-.294-.051-.364 2.791-10.183 1.727-20.277.401-30.276-.105-.789-.211-1.577-.318-2.365-1.244-9.231-2.478-18.379-.975-27.585.621-3.671-.318-7.2-1.893-10.542-1.405-2.981-3.338-5.854-5.167-8.574l-.649-.966-.002-.002-.001-.002c-6.583-9.713-13.169-19.43-20.653-30.03l-.495-.702-.365.777c-2.598 5.511-6.072 10.613-9.725 15.637a609.573 609.573 0 0 1-2.709 3.687c-2.785 3.77-5.572 7.544-8.036 11.437-6.549 10.348-10.882 21.641-7.094 36.395.499 1.965.398 4.168.082 6.487-.154 1.132-.357 2.278-.561 3.431l-.013.074c-.207 1.172-.415 2.35-.566 3.501a260.81 260.81 0 0 1-.667 4.119c-1.528 9.147-3.098 18.539 1.612 28.525-3.244-1.584-5.784-4.628-7.613-8.856-2.052-4.742-3.186-10.929-3.41-18.067-.446-14.272 2.755-32.236 9.395-49.774l.503-1.329-1.225.721c-5.499 3.238-9.808 5.715-13.281 7.511-3.477 1.798-6.084 2.898-8.183 3.398-2.085.497-3.643.398-5.046-.178-1.225-.504-2.37-1.386-3.66-2.648 16.493-3.685 29.466-10.835 39.5-21.269 9.857-10.25 16.853-23.643 21.58-39.968 4.381 16.248 11.23 29.533 20.921 39.727 9.926 10.441 22.808 17.614 39.002 21.422-1.039 2.287-2.297 3.158-3.597 3.426-1.438.296-3.03-.113-4.742-.553l-.105-.027c-3.827-1.232-7.298-3.155-10.725-5.262-1.002-.615-2.002-1.249-3.006-1.884-2.422-1.533-4.869-3.082-7.42-4.441Zm-63.477 28.678-.976-.13c-2.267 7.134-2.878 14.295-1.056 21.613l.438 1.76.526-1.736c1.835-6.06 1.519-12.346 1.208-18.559a331.72 331.72 0 0 1-.14-2.948Zm68.829 2.376v-1.919l-.936 1.675c-1.723 3.081-1.712 6.08-1.293 8.981.139.961.326 1.931.51 2.886.091.472.181.939.264 1.401.256 1.415.455 2.806.455 4.196h1V197.571Z"/><mask id="d" fill="#fff"><path d="M.193 32.586c13.317 2.796 26.634.441 39.502 5.74 7.481 3.09 14.514-3.09 21.995-6.623-7.93-5.446-17.656 3.09-24.838-2.944.599-3.826 2.544-4.857 4.788-4.268 17.956 3.68 35.312.442 52.37-4.562 11.821-3.533 23.192.735 34.714 2.502 4.189.588 5.536 3.826 2.394 8.536-15.711-1.177-31.721-1.03-47.432-.589-6.734 8.684-11.97 16.926-8.23 28.553C85.032 62.02 94.31 66.29 98.5 76.298c5.087-1.472 2.394-7.653 7.332-7.948 4.039 5.74.598 12.216-7.183 13.394-12.12 1.766-24.09-6.476-28.578-19.722-2.394-6.918-1.946-13.54 1.197-20.164 1.346-2.796 2.094-5.887 4.04-11.038-23.94 13.982-47.133 17.514-71.373 7.506-2.244-1.03-4.638-2.208-3.74-5.74Zm79.453 33.262c1.047 3.532 4.04 3.974 7.032 4.121a174.325 174.325 0 0 1-7.032-4.12Zm20.349-41.063v.442h10.025v-.442H99.995Zm-77.208 14.13c-.449.147-.748.147 0 0-.449-.148-.748-.148 0 0Z"/></mask><path fill="url(#c)" d="m.193 32.586.206-.979-.939-.197-.236.93.97.246Zm39.502 5.74.382-.924h-.001l-.38.924Zm21.995-6.623.427.904 1.575-.743-1.436-.986-.566.825Zm-24.838-2.944-.988-.154-.087.557.432.363.643-.766Zm4.788-4.268-.253.967.026.007.027.006.2-.98Zm52.37-4.562.281.96.005-.002-.286-.958Zm34.714 2.502-.152.988.012.002.14-.99Zm2.394 8.536-.075.997.582.044.324-.486-.831-.555Zm-47.432-.589-.029-1-.472.014-.29.373.79.613Zm-8.23 28.553-.952.306.157.488.488.157.307-.951ZM98.5 76.298l-.923.386.345.822.856-.248-.278-.96Zm7.332-7.948.817-.575-.321-.456-.556.033.06.998Zm-7.183 13.394.145.989h.005l-.15-.99ZM70.07 62.021l.947-.321-.002-.007-.945.328Zm1.197-20.164-.901-.434-.003.005.903.43Zm4.04-11.038.935.353.997-2.64-2.437 1.423.504.864ZM3.933 38.326l-.417.909.018.008.018.007.381-.924Zm75.712 27.522.523-.852-2.224-1.367.742 2.503.959-.284Zm7.032 4.121-.049.999.533-1.874-.484.875Zm13.317-45.184v-1h-1v1h1Zm0 .442h-1v1h1v-1Zm10.025 0v1h1v-1h-1Zm0-.442h1v-1h-1v1Zm-87.233 14.13.312.95 2.898-.95-2.898-.95-.312.95Zm-22.8-5.35c6.751 1.417 13.522 1.532 20.062 1.95 6.58.422 12.99 1.151 19.265 3.736l.762-1.85c-6.592-2.714-13.275-3.457-19.9-3.881-6.665-.428-13.21-.534-19.777-1.913l-.411 1.958Zm39.326 5.685c4.108 1.697 8.049.81 11.783-.837 1.865-.823 3.72-1.853 5.544-2.879 1.838-1.034 3.646-2.062 5.477-2.927l-.854-1.808c-1.91.901-3.786 1.97-5.604 2.992-1.832 1.03-3.606 2.014-5.37 2.792-3.522 1.554-6.839 2.212-10.212.819l-.764 1.848Zm22.943-8.372c-4.349-2.986-9.188-2.099-13.425-1.413-4.392.71-8.144 1.21-11.336-1.471l-1.286 1.53c3.99 3.354 8.693 2.602 12.941 1.915 4.404-.713 8.393-1.37 11.974 1.088l1.132-1.649ZM37.84 28.915c.28-1.79.845-2.716 1.407-3.159.529-.415 1.227-.536 2.14-.297l.507-1.934c-1.332-.35-2.728-.25-3.883.66-1.122.882-1.828 2.383-2.147 4.42l1.976.31Zm3.6-3.443c18.196 3.729 35.742.436 52.851-4.583l-.563-1.919c-17.005 4.989-34.172 8.173-51.887 4.542l-.401 1.96Zm52.856-4.584c5.714-1.708 11.349-1.54 17.038-.705 2.847.418 5.69 1.001 8.565 1.595 2.865.592 5.762 1.196 8.673 1.642l.303-1.977c-2.85-.437-5.695-1.029-8.571-1.623-2.868-.593-5.766-1.188-8.68-1.616-5.832-.857-11.794-1.057-17.9.767l.572 1.917Zm34.288 2.534c1.877.264 2.825 1.064 3.133 2.035.332 1.045.072 2.702-1.431 4.956l1.663 1.11c1.639-2.456 2.277-4.772 1.674-6.671-.627-1.973-2.448-3.086-4.76-3.41l-.279 1.98Zm2.608 6.549c-15.763-1.182-31.815-1.033-47.535-.591l.057 1.999c15.702-.442 31.67-.587 47.329.586l.149-1.994Zm-48.297-.204c-6.745 8.7-12.3 17.32-8.39 29.471l1.903-.612c-3.572-11.103 1.347-18.967 8.068-27.634l-1.58-1.226ZM75.15 59.883c9.547 3.08 18.423 7.234 22.427 16.801l1.845-.772c-4.374-10.45-14.053-14.833-23.658-17.933l-.614 1.904Zm23.628 17.375c1.504-.435 2.479-1.242 3.145-2.218.635-.93.969-1.993 1.249-2.846.301-.918.538-1.58.923-2.055.327-.404.813-.732 1.796-.79l-.119-1.997c-1.485.089-2.515.644-3.231 1.528-.657.812-.991 1.843-1.269 2.69-.3.914-.555 1.69-1.001 2.343-.414.607-1.01 1.124-2.05 1.424l.557 1.921Zm6.236-8.332c1.825 2.594 1.909 5.244.777 7.36-1.147 2.146-3.639 3.916-7.291 4.469l.299 1.977c4.129-.624 7.247-2.68 8.756-5.503 1.524-2.85 1.309-6.308-.906-9.454l-1.635 1.15Zm-6.509 11.828C86.951 82.437 75.382 74.58 71.017 61.7l-1.895.642c4.613 13.61 16.984 22.239 29.67 20.39l-.288-1.98Zm-27.49-19.06c-2.305-6.66-1.878-13.012 1.156-19.407l-1.807-.858c-3.25 6.852-3.721 13.746-1.239 20.92l1.89-.654Zm1.154-19.402c.702-1.459 1.242-2.982 1.841-4.749.602-1.776 1.268-3.815 2.233-6.37l-1.871-.706c-.98 2.596-1.66 4.677-2.256 6.434-.598 1.765-1.105 3.186-1.75 4.523l1.803.868Zm2.634-12.336C51.067 43.818 28.204 47.265 4.316 37.401l-.763 1.85c24.59 10.152 48.112 6.534 72.258-7.568l-1.009-1.727Zm-70.45 7.461c-1.158-.531-2.115-1.006-2.718-1.686-.52-.587-.85-1.412-.471-2.899l-1.939-.492c-.52 2.045-.1 3.575.913 4.718.93 1.048 2.293 1.678 3.38 2.177l.834-1.818Zm74.335 28.715c.608 2.05 1.82 3.269 3.331 3.956 1.444.657 3.112.806 4.611.88l.098-1.998c-1.493-.073-2.817-.218-3.88-.702-.996-.453-1.803-1.222-2.243-2.704l-1.917.569Zm8.475 2.962a173.35 173.35 0 0 1-6.993-4.098L79.122 66.7a175.317 175.317 0 0 0 7.072 4.144l.968-1.75Zm11.833-44.309V25.227h2V24.785h-2Zm1 1.442H110.02v-2H99.995v2Zm11.025-1V24.785h-2V25.227h2Zm-1-1.442H99.995v2H110.02v-2ZM22.594 37.933c-.195.039-.34.071-.44.097-.033.009-.115.03-.197.064a1.046 1.046 0 0 0-.314.204 1.003 1.003 0 0 0 .446 1.696c.126.032.23.031.25.031.107 0 .205-.018.226-.022.048-.008.1-.02.153-.031.107-.025.239-.06.38-.107l-.622-1.9a2.448 2.448 0 0 1-.256.068c-.031.006.03-.008.118-.008.016 0 .116-.001.24.03a.997.997 0 0 1 .443 1.692.993.993 0 0 1-.298.195c-.06.024-.097.032-.06.023.04-.011.138-.034.317-.07l-.386-1.962Zm.386 0a5.991 5.991 0 0 1-.318-.069c-.036-.01.002-.001.06.023a.954.954 0 0 1 .3.195.999.999 0 0 1-.445 1.692c-.123.031-.223.03-.239.03-.088 0-.15-.013-.118-.008l.047.01c.052.012.126.032.209.059l.623-1.9a4.553 4.553 0 0 0-.534-.139c-.02-.004-.12-.022-.227-.022-.02 0-.123 0-.25.03a1.002 1.002 0 0 0-.13 1.901c.08.034.163.055.197.064.1.026.244.058.44.097l.385-1.963Z" mask="url(#d)"/><path stroke="url(#e)" d="m311.72 70.112-.201-.458.201.959v-.5Zm0 0 .805-.35c2.111-.922 3.047-1.331 3.983-1.857m-4.788 2.207.573.002c3.035.007 4.356.01 4.215-2.21m0 0-.245-.435.693-.39.051.794-.499.032Zm61.497-29.435h.5v-.638l-.62.153.12.485Zm0 0c0 .061.025.147.056.248.042.143.093.316.093.488m-.149-.736c-.299.074-.599.11-.898.147-.299.037-.599.074-.898.148m1.945.441c-.299 0-.598.037-.897.074-.3.036-.599.073-.898.073m1.795-.147h.5v.5h-.5v-.5Zm-1.945-.441-.119-.486-.381.094v.392h.5Zm0 0c0 .073.038.183.075.294.037.11.075.22.075.294m0 0h-.5v.5h.5v-.5Zm8.329-5.111c4.724.12 9.657.232 14.458-1.64-.621 1.344-1.762 2.615-3.379 3.787-2.022 1.465-4.751 2.747-8.021 3.794-6.538 2.095-15.159 3.232-24.395 3.086-12.05-.258-22.477-5.296-33.759-10.747a717.601 717.601 0 0 0-4.491-2.157l-1.042-.495.352 1.1a221.13 221.13 0 0 0 1.884 5.558c1.953 5.596 3.704 10.613 3.928 16.238v.004c.735 15.474-12.21 29.338-27.755 28.618-5.184-.284-8.908-3.099-10.783-7.78l-.003-.008c-.492-1.175-.567-2.28-.206-3.147.341-.816 1.112-1.52 2.541-1.875.697.323 1.187.838 1.606 1.48.311.477.562.985.83 1.53.133.27.271.549.423.837.439.837.973 1.695 1.794 2.369.832.681 1.924 1.146 3.435 1.264l.365.028.137-.34c3.358-8.328 10.956-12.532 19.469-15.91 2.917-1.118 4.48-3.962 5.095-6.838l.003-.01.001-.01c.931-5.414-1.358-11.3-5.2-15.79-3.843-4.49-9.323-7.683-14.901-7.607-3.321.045-6.673-.02-10.04-.086-7.63-.15-15.336-.3-22.944.827h-.002c-2.866.434-4.518-.108-5.3-1.18-.777-1.063-.867-2.863-.068-5.418 17.671-4.647 34.818-6.479 52.241.493h.002c5.321 2.094 10.818 2.612 16.334 2.5 3.766-.075 7.571-.446 11.337-.813 1.735-.17 3.461-.338 5.171-.476l.015-.001.015-.002c.362-.051.698-.107 1.025-.162.433-.072.85-.141 1.292-.193.742-.087 1.439-.104 2.112.036 1.233.258 2.51 1.075 3.808 3.326-3.9 2.273-7.973 1.907-12.245 1.355l-.771-.1c-4.142-.545-8.475-1.115-12.706.823l-.926.423.901.474c10.905 5.73 20.997 10.87 33.964 4.718l.003-.001c4.413-2.135 9.234-2.013 14.317-1.884l.079.002Zm-93.617-10.107h-.5V25.575H301.746V24.136H291.071Z"/><path stroke="url(#f)" d="m203.669 256.1-.005.011c-1.675 4.195-2.281 8.534-2.13 13.006v.003c.284 7.31.158 14.636.032 21.985-.04 2.325-.08 4.654-.107 6.984-.112 9.681 0 19.386 1.276 29.062.142 1.194.026 2.215-.41 3.009-.414.754-1.152 1.366-2.397 1.713-1.544-.353-2.33-1.007-2.719-1.803-.417-.85-.438-1.972-.218-3.343l.002-.009.001-.009c2.447-19.822 1.578-39.775.711-59.685l-.109-2.507c-.228-5.589-1.742-11.053-3.407-16.481-.238-.775-.479-1.55-.719-2.324-1.45-4.663-2.896-9.313-3.66-14.071-3.424-23.286.888-45.566 8.055-67.452.108-.256.333-.519.76-.94l.314-.304c.298-.288.651-.629 1.047-1.044 2.66 2.22 4.063 4.882 4.957 7.675.468 1.463.796 2.958 1.092 4.448.075.377.147.754.22 1.131.214 1.103.426 2.2.679 3.252 6.122 26.146 7.599 52.222-3.265 77.693Zm-10.6-46.85-.73-.583-.08.93c-.679 7.863.152 15.307 1.465 22.723.583 3.296 1.263 6.592 1.949 9.916l.256 1.241c.771 3.748 1.536 7.539 2.17 11.428l.214 1.311.704-1.127c3.267-5.231 5.601-12.886 6.803-20.757 1.203-7.876 1.283-16.034-.004-22.29l-.274-1.329-.654 1.188c-.524.952-.798 1.998-.991 3.041-.094.506-.17 1.02-.245 1.526l-.007.049c-.078.524-.155 1.04-.251 1.549-.368 1.949-1.002 3.71-2.901 4.99-2.694-1.244-3.375-3.491-3.917-6.085-.051-.241-.099-.485-.149-.731-.489-2.439-1.028-5.128-3.358-6.99Zm6.581-33.217-.718-1.668-.237 1.801c-1.648 12.532-2.106 22.907.609 33.889l.398 1.61.558-1.562c3.924-10.983 4.837-21.419-.61-34.07Z"/><path stroke="url(#g)" d="m116.759 113.194 1.315-1.293 1.422-1.398-.702-.713-1.421 1.398-1.387 1.364c-3.215 2.122-5.31 5.097-7.18 8.151-.4.652-.788 1.306-1.174 1.956-1.445 2.434-2.861 4.818-4.717 6.872a53.437 53.437 0 0 0-1.581 1.825c-2.117 2.518-4.316 5.132-8.753 6.699 5.001-13.423 14.392-22.202 23.809-31.005a496.061 496.061 0 0 0 4.298-4.049l.372-.356-.367-.361c-1.013-.996-2.263-1.578-3.536-2.016a37.645 37.645 0 0 0-1.928-.587l-.006-.002c-.64-.182-1.263-.36-1.864-.566-1.206-.413-2.272-.925-3.1-1.752-.757-.756-1.346-1.807-1.628-3.371 3.593-1.245 6.682-.077 9.874 1.396.309.142.619.288.931.434 2.974 1.397 6.108 2.868 9.659 2.31 3.153-.452 6.11-1.656 9.081-2.866.482-.196.964-.392 1.448-.585 3.275-1.31 6.645-2.499 10.495-2.698a549.679 549.679 0 0 1-1.267 3.153c-1.436 3.555-2.694 6.669-3.7 9.858l-.002.008c-2.112 7.12-2.757 14.237 2.326 20.903l.008.01c1.08 1.346 1.502 2.593 1.284 3.632-.206.985-1.025 1.955-2.827 2.721-2.427-1.175-3.384-3.167-4.118-5.509a59.96 59.96 0 0 1-.459-1.567l-.082-.289a40.377 40.377 0 0 0-.582-1.915c-.432-1.278-.985-2.557-1.852-3.719l-.376-.504-.407.479c-9.729 11.485-19.382 22.133-33.315 27.527l-.007.003-.007.002c-.442.187-.87.232-1.282.083-.365-.132-.779-.437-1.202-1.059 3.43-4.21 7.735-7.341 12.214-10.326a409.49 409.49 0 0 1 2.432-1.604c3.749-2.459 7.529-4.938 10.859-7.951 1.228-.254 2.178-.806 2.9-1.575.743-.793 1.223-1.791 1.537-2.871l.534-1.838-1.365 1.342c-.43.423-.883.853-1.344 1.291-.912.865-1.859 1.764-2.738 2.713-1.62.216-3.116.806-4.546 1.529-.951.481-1.9 1.037-2.837 1.586-.511.299-1.019.596-1.521.878-2.798 1.57-5.626 2.785-9.088 2.104-.233-3.554 1.186-6.354 2.91-9.091a98.2 98.2 0 0 1 .937-1.452c1.49-2.283 3.023-4.629 3.623-7.339Zm24.383-12.693.617-1.29-1.286.624c-12.192 5.923-20.691 13.069-25.389 25.887l-.452 1.236 1.159-.623c11.297-6.075 19.462-13.506 25.351-25.834Z"/><path stroke="url(#h)" d="m269.8 120.771-1.282-.859.535 1.447c1.253 3.388 3.679 5.449 6.335 7.147.909.582 1.861 1.13 2.803 1.672.424.244.846.487 1.262.732 1.349.794 2.649 1.615 3.815 2.582l.004.003c2.651 2.159 5.37 4.217 8.069 6.259a434.443 434.443 0 0 1 5.101 3.899c.638.525 1.034 1.236 1.134 2.48-14.904-4.197-25.418-14.422-34.535-26.717l-.368-.496-.409.464c-1.029 1.168-1.682 2.519-2.203 3.884-.25.654-.472 1.32-.69 1.971l-.028.083a42.164 42.164 0 0 1-.704 1.992c-.504 1.289-1.106 2.457-2.022 3.418-.835.876-1.951 1.6-3.541 2.067-1.245-3.649-.06-6.71 1.43-9.834.152-.318.307-.638.464-.96 1.412-2.904 2.894-5.951 2.327-9.436v-.003c-.607-3.584-1.782-6.934-3.094-10.343-.281-.73-.567-1.462-.856-2.199-.993-2.534-2.011-5.134-2.903-7.945 3.884-.075 7.277.988 10.554 2.271.772.302 1.541.618 2.31.934 2.647 1.088 5.294 2.175 8.067 2.698 3.783.715 7.027-.77 10.099-2.177l.711-.325c3.197-1.448 6.275-2.647 9.914-1.498-.505 1.588-1.255 2.695-2.144 3.507-.976.892-2.148 1.452-3.423 1.882-.829.28-1.665.494-2.515.712-.48.123-.964.247-1.453.385-1.323.371-2.634.831-3.753 1.617l-.558.392.542.414c11.811 9.037 22.694 18.72 28.866 34.789-4.235-2.246-7.188-5.148-9.82-8.141a146.332 146.332 0 0 1-2.08-2.432c-2.069-2.454-4.117-4.882-6.623-6.899l-.772.589c.689 1.582 1.333 3.15 2.059 4.916.627 1.526 1.315 3.2 2.145 5.159-8.191.226-13.711-3.703-19.345-7.713a141.664 141.664 0 0 0-3.425-2.388Zm12.774-10.996-.987-.883.157 1.315c.15 1.255.383 2.57 1.065 3.648.703 1.111 1.846 1.916 3.686 2.231l.684.117-.105-.685c-.245-1.604-.985-2.691-1.864-3.556a15.249 15.249 0 0 0-1.353-1.151l-.191-.148c-.386-.3-.752-.584-1.092-.888Zm2.328 15.851 1.184.46-.552-1.144c-5.743-11.892-13.765-18.588-23.721-23.485l-1.333-.655.665 1.327c4.812 9.614 10.721 18.427 23.757 23.497Z"/><path stroke="url(#i)" d="M195.052 595.597c3.445-31.306 3.782-62.679 3.464-94.033-.085-8.386-.217-16.77-.349-25.15-.361-22.96-.722-45.897-.119-68.799.076-1.517-.078-3.024-.266-4.498-.038-.3-.077-.598-.117-.895-.155-1.175-.307-2.327-.366-3.483l-.005-.098.044-.065.078-.106c.102-.134.245-.326.37-.548.875-.641 1.656-.882 2.377-.795.713.086 1.466.504 2.272 1.387V612.026c0 .63-.19 1.287-.69 1.889-.459.554-1.203 1.087-2.362 1.496-4.203-5.851-5.059-13.224-4.331-19.814Z"/><path stroke="url(#j)" d="M314.344 369.992c.372 4.632-.783 10.034-3.626 14.212-6.169-5.15-7.017-15.406-1.634-23.562 2.999 1.035 4.886 4.686 5.26 9.35Z"/><path stroke="url(#k)" d="M229.248 503.812c-.175-4.898 1.066-9.895 3.76-13.303 2.579 3.348 3.966 8.285 4.106 13.17.142 4.895-.97 9.612-3.25 12.539-2.841-2.8-4.439-7.492-4.616-12.406Z"/><path stroke="url(#l)" d="M166.374 491.077c1.031 1.047 1.842 2.67 2.399 4.669.628 2.249.919 4.913.873 7.617-.046 2.702-.429 5.425-1.136 7.79-.644 2.15-1.545 3.968-2.673 5.213-5.197-5.91-5.499-15.768.537-25.289Z"/><path stroke="url(#m)" d="M91.491 379.612c-.67 1.925-1.608 3.525-2.782 4.599-2.463-3.328-3.65-8.04-3.561-12.572.088-4.534 1.447-8.761 3.93-11.192 1.167 1.168 2.065 2.861 2.673 4.863.663 2.18.972 4.689.926 7.193-.046 2.504-.446 4.985-1.186 7.109Z"/><path stroke="url(#n)" d="M234.31 266.527c-.42 1.191-1.024 1.982-1.81 2.503-.782.518-1.791.799-3.083.883-1.119-.752-1.776-1.424-2.121-2.017-.348-.597-.388-1.125-.247-1.626.146-.524.502-1.057 1.018-1.614.481-.518 1.072-1.025 1.698-1.54 1.719-.046 2.796.28 3.46.829.656.543 1.002 1.381 1.085 2.582Z"/><path stroke="url(#o)" d="M93.701 225.351c-.852.253-1.874.273-3.17.021-1.313-1.46-1.786-2.635-1.654-3.575.13-.924.88-1.827 2.538-2.668 1.626.158 2.681.7 3.358 1.489.672.785 1.029 1.88 1.122 3.272-.662.74-1.369 1.216-2.194 1.461Z"/><path stroke="url(#p)" d="M171.582 267.276c-.252.798-.726 1.732-1.44 2.813-1.348-.615-2.348-1.079-3.07-1.501-.8-.466-1.149-.821-1.28-1.158-.125-.321-.098-.752.214-1.508.287-.698.774-1.574 1.444-2.762 1.198.149 2.132.394 2.821.725.745.358 1.176.802 1.379 1.315.206.521.211 1.195-.068 2.076Z"/><path stroke="url(#q)" d="M92.005 169.756c-2.2-1.108-2.826-2.175-2.771-3.158.03-.549.271-1.157.722-1.838.4-.602.946-1.236 1.606-1.904 1.295.662 2.256 1.212 2.912 1.715.72.551.972.97 1 1.322.03.356-.153.828-.782 1.524-.58.642-1.468 1.398-2.687 2.339Z"/><path stroke="url(#r)" d="M228.818 292.272c.265-.927 1.228-1.845 3.039-2.763 1.264.417 2.059.941 2.507 1.572.452.638.606 1.466.411 2.606-.407.973-.987 1.547-1.712 1.85-.722.303-1.647.36-2.796.179-1.365-1.448-1.703-2.555-1.449-3.444Z"/><path stroke="url(#s)" d="m42.452 106.958.012.003.013.002c1.007.132 1.59.543 1.887 1.101.3.562.367 1.376.115 2.437-.973 1.131-1.896 1.599-2.773 1.556-.878-.043-1.876-.606-2.985-1.922.163-1.505.609-2.351 1.175-2.797.587-.461 1.425-.588 2.556-.38Z"/><path stroke="url(#t)" d="M164.971 291.409c.316-.665 1.027-1.216 2.252-1.635 1.555.22 2.316.782 2.671 1.452.366.691.377 1.632.119 2.784-.938.888-1.755 1.188-2.492 1.173-.749-.014-1.511-.355-2.333-.944-.521-1.27-.53-2.172-.217-2.83Z"/><path stroke="url(#u)" d="M51.487 120.514c.337-.649 1.015-1.248 1.996-1.852 1.375.681 2.102 1.381 2.389 2.101.286.718.185 1.587-.403 2.722-.813.513-1.562.758-2.185.715-.607-.042-1.176-.362-1.63-1.188-.539-1.063-.507-1.845-.167-2.498Z"/><path stroke="url(#v)" d="M214.189 363.286c.402.496.802 1.09 1.225 1.76-1.064.649-1.951 1.072-2.687 1.296-.831.252-1.423.237-1.857.058-.427-.177-.789-.547-1.087-1.196-.276-.599-.48-1.401-.625-2.418.795-.564 1.457-.866 2.018-.981.6-.124 1.105-.04 1.575.203.483.249.951.678 1.438 1.278Z"/><path stroke="url(#w)" d="M188.081 366.514v-.001l-.011.005c-.989.455-1.664.334-2.173 0-.519-.34-.936-.948-1.286-1.672.295-1.481.772-2.331 1.417-2.753.635-.417 1.567-.506 2.993-.131.779 1.134 1.003 2.046.862 2.74-.142.702-.692 1.334-1.802 1.812Z"/><path stroke="url(#x)" d="M52.852 98.984c-.537-.342-1.109-.817-1.727-1.405 1.218-1.632 2.254-2.294 3.186-2.35.933-.055 1.956.487 3.175 1.752-1.113 2.004-2.089 2.616-2.973 2.603-.49-.007-1.035-.202-1.661-.6Z"/><path stroke="url(#y)" d="M197.517 351.557c.213-.621.627-1.365 1.277-2.251.936.296 1.657.614 2.187.957.589.38.915.773 1.063 1.174.28.76.001 1.814-1.116 3.366-.959-.174-1.723-.396-2.297-.671-.632-.304-.992-.651-1.16-1.03-.167-.373-.187-.865.046-1.545Z"/><path stroke="url(#z)" d="M343.182 98.775c-.397-.431-.8-1.045-1.213-1.866 1.521-1.107 2.578-1.404 3.377-1.228.792.174 1.51.853 2.258 2.166-.626.62-1.186 1.066-1.692 1.35-.57.321-1.041.42-1.45.358-.407-.061-.83-.292-1.28-.78Z"/><path stroke="url(#A)" d="M198.414 377.633c-.518-.334-1.081-.815-1.698-1.429 1.273-1.617 2.264-2.149 3.088-2.163.831-.013 1.677.492 2.685 1.44-.917 2.026-1.769 2.669-2.541 2.693-.429.014-.931-.151-1.534-.541Z"/><path stroke="url(#B)" d="M343.798 123.443c-.544-.381-.967-1.104-1.323-1.976.421-1.167.945-1.873 1.559-2.247.609-.371 1.394-.467 2.451-.228.914.866 1.222 1.651 1.167 2.298-.056.666-.512 1.354-1.481 1.969-.582.335-1.049.464-1.422.473a1.542 1.542 0 0 1-.951-.289Z"/><path stroke="url(#C)" d="m356.054 107.516.007-.003.007-.003c.498-.229.894-.287 1.216-.254.32.033.604.159.873.363.521.395.933 1.036 1.359 1.73-.362 1.479-.947 2.126-1.563 2.376-.645.262-1.487.162-2.514-.222-.655-1.004-.889-1.827-.805-2.449.082-.604.484-1.144 1.42-1.538Z"/><path stroke="url(#D)" d="M64.364 108.681c.446-.515 1.12-1.162 2.035-2.031 1.155.72 1.687 1.434 1.792 2.12.106.691-.192 1.53-1.104 2.557-1.121-.422-1.942-.738-2.509-1.027-.308-.157-.51-.29-.634-.407-.12-.112-.144-.184-.15-.225-.008-.047-.004-.139.083-.311.088-.174.243-.394.487-.676Z"/><path stroke="url(#E)" d="M332.2 111.617c-.646-.269-1.274-.918-1.958-1.832.549-1.256 1.16-1.942 1.789-2.266.634-.326 1.382-.333 2.305-.027.641.655.947 1.292.989 1.847.043.555-.173 1.106-.744 1.607-.52.442-.964.669-1.343.758-.37.088-.708.05-1.038-.087Z"/><path stroke="url(#F)" d="M265.618 50.315c-.37.156-.87.313-1.548.517-.282-.497-.462-.927-.55-1.29-.106-.44-.071-.748.039-.97.109-.22.328-.43.743-.598.354-.143.829-.247 1.443-.297.235.64.402 1.111.492 1.483.108.442.075.624.023.724-.056.105-.199.245-.642.431Z"/><path stroke="url(#G)" d="M134.251 68.506c-.629-.375-1.077-.727-1.372-1.058-.328-.367-.444-.681-.444-.957 0-.28.12-.61.44-1.002.283-.349.705-.723 1.274-1.126.775.385 1.321.748 1.674 1.088.386.372.499.674.494.919-.005.255-.142.578-.531.981-.346.359-.855.743-1.535 1.155Z"/><path stroke="url(#H)" d="M135.986 49.547c-.011.426-.111.943-.301 1.558-1.698.148-2.402-.173-2.713-.614-.177-.251-.281-.609-.305-1.118-.019-.416.017-.903.092-1.464.797-.066 1.421-.043 1.899.053.548.11.865.305 1.05.535.184.23.29.56.278 1.05Z"/><path stroke="url(#I)" d="M200.91 101.023c-.482.064-1.152-.121-2.007-.609-.157-.996-.018-1.6.243-1.938.262-.34.762-.553 1.649-.489.865.114 1.435.97 1.214 1.869-.132.417-.301.692-.479.867a1.048 1.048 0 0 1-.62.3Z"/><path stroke="url(#J)" d="m258.851 59.158-.039.039-.03.046c-.479.74-.991 1.071-1.494 1.097-.49.024-1.137-.23-1.933-1.035-.039-1.322.27-1.942.718-2.184.251-.136.621-.203 1.167-.132.469.06 1.04.219 1.724.49-.015.262-.009.524-.004.75.002.099.004.191.004.274 0 .203-.01.357-.036.475-.025.116-.057.16-.077.18Z"/><path stroke="url(#K)" d="M126.026 60.369c-.518-.385-.92-.733-1.207-1.052-.342-.38-.478-.674-.501-.9-.019-.198.042-.426.308-.71.247-.266.65-.555 1.252-.869.533.28.922.553 1.183.817.292.295.402.553.413.781.011.233-.075.525-.354.894-.236.313-.595.66-1.094 1.039Z"/><path stroke="url(#L)" d="M265.648 65.37c.375.105.795.27 1.259.486-.107 1.282-.446 1.865-.819 2.11-.379.249-.974.268-1.884-.023-.134-.277-.282-.492-.395-.657l-.044-.065c-.138-.204-.169-.279-.175-.326.072-.598.213-.984.379-1.226a.9.9 0 0 1 .601-.4c.267-.053.621-.026 1.078.102Z"/><path stroke="url(#M)" d="M165.664 406.66c-.074-.341-.107-.776-.096-1.314.553-.117 1.001-.164 1.356-.15.431.016.681.117.828.241.138.117.247.305.283.638.033.296.006.68-.095 1.164-.504.217-.905.327-1.217.353-.346.029-.549-.047-.683-.16-.146-.123-.286-.352-.376-.772Z"/><path stroke="url(#N)" d="M273.805 57.1c.394.186.849.489 1.378.925-.337.646-.657 1.121-.961 1.449-.355.38-.658.53-.921.559-.262.028-.577-.053-.977-.33-.351-.244-.738-.62-1.17-1.14.546-1.118 1.05-1.59 1.56-1.68.278-.05.628-.003 1.091.216Z"/><path stroke="url(#O)" d="M166.317 478.396c-.324-.084-.719-.249-1.201-.514.377-.846.734-1.155 1.081-1.256.389-.112.918-.02 1.754.304-.09.379-.192.684-.312.92-.156.309-.323.468-.494.544-.172.077-.427.106-.828.002Z"/><path stroke="url(#P)" d="M231.875 478.447a1.86 1.86 0 0 0-.079-.013c.194-.4.38-.724.56-.978.264-.373.488-.557.668-.635.157-.067.321-.072.538.022.202.089.444.262.731.549-.047.455-.145.727-.253.89-.109.163-.25.251-.468.294-.243.048-.563.035-.991-.021-.21-.028-.433-.064-.676-.104l-.03-.004Z"/><path stroke="url(#Q)" d="M168.023 420.269c.098.291.176.637.24 1.039-.582.084-1.056.109-1.436.083-.482-.033-.763-.146-.923-.276-.143-.116-.241-.29-.263-.587-.021-.272.025-.627.152-1.081.998-.388 1.48-.258 1.759-.003.176.161.336.423.471.825Z"/><path stroke="url(#R)" d="M167.099 462.682c.277.161.594.415.956.773-.566.94-1.023 1.167-1.371 1.186-.214.012-.461-.046-.763-.188a5.74 5.74 0 0 1-.688-.396c.179-.494.362-.859.546-1.116.223-.31.419-.424.581-.456.165-.032.4 0 .739.197Z"/><path stroke="url(#S)" d="m234.437 419.259.114.025c-.488 1.018-.919 1.565-1.294 1.823a.983.983 0 0 1-.566.194 1.275 1.275 0 0 1-.457-.091c-.243-.856-.315-1.413-.283-1.764.017-.181.059-.278.094-.329a.292.292 0 0 1 .153-.109c.193-.071.529-.073 1.078.017.35.057.733.14 1.161.234Z"/><path stroke="url(#T)" d="M141.309 58.05c.157-.293.395-.63.713-1.014 1.083.51 1.278.96 1.288 1.282.006.217-.065.474-.217.793-.107.227-.243.46-.396.712-.535-.153-.916-.315-1.173-.482-.301-.196-.395-.37-.42-.516-.029-.164.01-.409.205-.775Z"/><path stroke="url(#U)" d="M167.116 378.574c-.775-.779-.816-1.221-.742-1.47.049-.165.17-.345.391-.551.156-.144.344-.286.557-.434.356.271.606.511.768.723.197.26.237.441.224.569-.012.133-.09.314-.337.552-.197.19-.48.393-.861.611Z"/><path stroke="url(#V)" d="M168.06 391.973c.107.319.185.726.232 1.234-1.066.187-1.655.09-1.984-.148-.316-.227-.533-.693-.572-1.634 1.002-.445 1.543-.41 1.845-.2.173.121.343.345.479.748Z"/><path stroke="url(#W)" d="M232.16 350.549a5.724 5.724 0 0 1-.593-.719c-.203-.302-.283-.529-.294-.7-.016-.248.115-.583.857-1.02.376.201.64.39.812.565.198.202.25.358.25.487 0 .142-.064.349-.289.643-.17.22-.415.467-.743.744Z"/><path stroke="url(#X)" d="M166.11 435.343a4.018 4.018 0 0 1-.441-.827c.664-.587 1.083-.668 1.351-.591.161.046.348.166.557.422.162.198.326.463.491.8-.729.647-1.173.717-1.433.635-.155-.049-.333-.175-.525-.439Z"/><path stroke="url(#Y)" d="M232.465 405.083c.343-.07.78-.103 1.317-.094.058.451.071.816.042 1.108-.036.373-.134.594-.25.73-.209.242-.646.393-1.59.3-.243-.459-.37-.821-.41-1.1-.043-.307.022-.477.119-.589.113-.131.341-.267.772-.355Z"/><path stroke="url(#Z)" d="M91.183 265.39c.25.1.543.268.886.507-.32.817-.655.991-.908 1.033-.18.029-.402.007-.688-.067a8.17 8.17 0 0 1-.55-.169c.07-.43.162-.749.268-.976.135-.286.268-.381.37-.415.113-.039.303-.042.622.087Z"/><path stroke="url(#aa)" d="M168.01 280.233a.678.678 0 0 1-.041.066l-.025.017c-.428.301-.642.241-.761.16-.164-.11-.358-.391-.499-.928.407-.408.723-.551.935-.569.182-.015.383.054.597.337.004.038.006.094.001.173a2.072 2.072 0 0 1-.207.744Z"/><path stroke="url(#ab)" d="m89.947 298.264-.01-.007a.533.533 0 0 1-.043-.067 2.076 2.076 0 0 1-.207-.744.97.97 0 0 1 .001-.173.877.877 0 0 1 .257-.244.36.36 0 0 1 .238-.041c.191.027.476.172.876.53-.137.443-.319.698-.479.812a.395.395 0 0 1-.25.08c-.089-.003-.216-.037-.383-.146Z"/><path stroke="url(#ac)" d="M92.313 233.261c-.087.237-.258.54-.544.923-.69-.36-.948-.665-1.02-.911-.069-.238-.01-.579.34-1.133.325.083.594.17.806.268.285.131.405.253.453.347.04.077.072.218-.035.506Z"/><path stroke="url(#ad)" d="M168.06 306.389a4.632 4.632 0 0 1-.091.513c-.411.027-.691 0-.878-.051-.215-.06-.274-.141-.303-.199-.041-.086-.065-.236-.038-.496.016-.156.047-.325.086-.51.404-.004.683.033.873.089.229.069.291.153.316.203.038.073.062.205.035.451Z"/><path stroke="url(#ae)" d="M89.962 350.625c.167.144.34.309.528.492-.639.329-1.06.425-1.356.387-.273-.036-.54-.207-.834-.704.218-.332.398-.509.54-.597a.442.442 0 0 1 .41-.047c.183.06.41.208.712.469Z"/><path stroke="url(#af)" d="M167.973 362.581c.082.178.12.509-.009 1.046-.47.117-.76.074-.915-.006-.14-.072-.272-.231-.272-.623v.004c.001 0 .007-.039.055-.12.051-.087.13-.187.226-.282.096-.094.198-.172.287-.223.077-.043.119-.053.129-.056.003 0 .003 0 0 0 .297 0 .429.106.499.26Z"/><path stroke="url(#ag)" d="m167.651 348.257.01.006c.007.01.02.029.037.062.042.079.084.193.114.323.029.13.041.257.035.362a.383.383 0 0 1-.036.167l-.007.01-.006.01c-.153.251-.288.291-.422.278-.172-.017-.448-.134-.836-.474.136-.441.318-.696.478-.81a.389.389 0 0 1 .25-.08c.089.003.216.036.383.146Z"/><path stroke="url(#ah)" d="M91.527 210.193c.208-.088.554-.12 1.033-.001.12.461.075.74-.003.887-.072.134-.236.269-.644.269.002 0 .002 0 0-.001a.478.478 0 0 1-.13-.055 1.452 1.452 0 0 1-.286-.224 1.408 1.408 0 0 1-.226-.281c-.048-.081-.054-.121-.055-.121v.005c0-.241.104-.391.311-.478Z"/><path stroke="url(#ai)" d="M232.458 335.415c-.181.071-.493.086-.987-.047-.12-.463-.076-.743.003-.89.072-.134.236-.269.644-.269-.003 0-.003 0 0 .001.01.002.052.012.129.055.089.051.191.129.287.224.096.094.175.194.226.281a.528.528 0 0 1 .05.105c-.063.352-.203.481-.352.54Z"/><path stroke="url(#aj)" d="M232.664 362.561c.071.174.087.507-.055 1.065-.471.118-.762.075-.917-.005-.14-.072-.272-.231-.272-.623v.004c.001 0 .007-.039.055-.12.051-.087.13-.187.226-.282.096-.094.198-.172.287-.223.077-.043.119-.053.129-.056.003 0 .003 0 0 0 .207 0 .333.037.406.077a.299.299 0 0 1 .141.163Z"/><path stroke="url(#ak)" d="M232.616 279.537c.081.177.118.475-.002.934-.474.119-.766.077-.922-.004-.14-.072-.272-.231-.272-.623v.005c.001 0 .007-.04.055-.121.051-.087.13-.187.226-.281.096-.095.198-.173.287-.224a.657.657 0 0 1 .112-.051c.284.061.438.195.516.365Z"/><path stroke="url(#al)" d="M167.51 334.176c.167.017.348.05.548.092.025.398-.002.668-.053.847-.058.205-.139.264-.202.294-.092.043-.25.067-.515.04a5.522 5.522 0 0 1-.548-.091c-.026-.399.002-.669.053-.847.058-.206.138-.265.201-.295.093-.043.25-.066.516-.04Z"/><path stroke="url(#am)" d="M167.752 449.348c-.449.481-.769.603-1.007.595-.253-.009-.573-.165-1.014-.594.471-.607.822-.78 1.052-.78.219 0 .548.162.969.779Z"/><path stroke="url(#an)" d="M200.34 364.395c.062.185.121.396.18.63-.712 0-1.071-.109-1.244-.237-.127-.093-.217-.25-.194-.644.343-.262.577-.375.728-.41.128-.029.171-.003.221.047.09.088.195.273.309.614Z"/><path stroke="url(#ao)" d="M233.696 462.425c.205.079.484.362.589 1.265-.343.19-.628.307-.862.366-.289.072-.458.043-.56-.008-.101-.049-.218-.159-.324-.418a3.33 3.33 0 0 1-.194-.869 3.38 3.38 0 0 1 .746-.323c.282-.076.475-.064.605-.013Z"/><path stroke="url(#ap)" d="M232.651 305.966c.08.183.098.506-.032.989-.552.129-.887.087-1.066-.001-.152-.075-.281-.23-.281-.618v.004s.007-.039.054-.121a1.51 1.51 0 0 1 .514-.504c.076-.044.119-.053.128-.056h.001c.467 0 .617.157.682.307Z"/><path stroke="url(#aq)" d="M232.761 434.982c.018.09.037.189.059.292-.486.025-.729-.059-.85-.152-.112-.085-.206-.246-.239-.587.375-.176.604-.232.737-.236a.28.28 0 0 1 .071.005c.012.002.017.005.018.005l.006.005a.167.167 0 0 1 .023.031c.057.094.1.257.16.563l.015.074Z"/><path stroke="url(#ar)" d="M91.231 243.113c.067-.089.141-.181.223-.282.204.29.333.522.41.709.113.276.096.415.075.483-.023.075-.081.16-.226.28a4.91 4.91 0 0 1-.239.179c-.244-.207-.386-.373-.465-.505-.091-.154-.093-.255-.07-.35.03-.126.117-.283.292-.514Z"/><path stroke="url(#as)" d="M92.426 188.738c-.184.025-.44.023-.775-.015a2.185 2.185 0 0 1-.176-.554c-.026-.179.008-.255.031-.288.026-.038.095-.107.29-.165.145-.043.336-.074.58-.087.164.302.262.54.307.723a.754.754 0 0 1 .029.235c-.003.043-.013.056-.014.057v.001c0 .001-.01.014-.047.033a.742.742 0 0 1-.225.06Z"/><path stroke="url(#at)" d="M90.348 319.288c-.166.02-.38.021-.647-.003-.005-.259.01-.466.041-.63.045-.243.115-.342.156-.379.029-.026.083-.061.227-.054.122.005.288.042.504.123.088.248.128.438.135.579.008.167-.033.22-.052.24-.029.03-.118.095-.364.124Z"/><path stroke="url(#au)" d="m91.455 198.933.02-.005c.035.01.09.034.16.077.07.045.14.1.197.155a.8.8 0 0 1 .066.073l.018.025a.082.082 0 0 1 .005.009l.015.028.017.026c.117.173.142.283.143.337.001.039-.007.075-.054.124-.11.116-.387.256-.908.34-.216-.403-.25-.657-.222-.798.022-.107.108-.268.543-.391Zm-.001-.01h-.002l-.002-.001h.002l.002.001Z"/><path stroke="url(#av)" d="m233.086 378.578-.001.136a3.74 3.74 0 0 1-.625-.373c-.259-.198-.34-.35-.367-.446-.028-.096-.022-.211.036-.378.03-.089.069-.176.116-.271.278.063.453.139.564.213a.508.508 0 0 1 .228.319c.045.163.053.372.05.687l-.001.113Z"/><path stroke="url(#aw)" d="M89.334 329.704c-.028-.07-.047-.242.173-.545.471-.097.645-.043.702-.002.04.028.15.147.16.647a1.176 1.176 0 0 1-.182.156 1.86 1.86 0 0 1-.231.141c-.437-.13-.585-.302-.622-.397Z"/><path stroke="url(#ax)" d="M310.285 350.844a6.328 6.328 0 0 0-.041.173 7.466 7.466 0 0 1-.746-.043l.001-.004.001-.003v-.003l.002-.007.002-.007.001-.004.001-.003.028-.111.028-.11.001-.003.001-.004v-.003l.001-.004.004-.013.003-.014.001-.004.001-.003.001-.004.001-.003.001-.004.001-.003v-.003l.001-.004.002-.007.002-.007.003-.013.002-.007.002-.007.003-.014.001-.004.001-.003.002-.007.001-.003.001-.004.001-.007.001-.003.001-.004.001-.003.001-.003.002-.007.001-.007.004-.014.002-.007.001-.003v-.004l.004-.014.028-.11.007-.028.007-.027.004-.014.001-.007.002-.007.002-.007.002-.007.003-.013.004-.014c.006-.026-.005.019.001-.007l.001-.004.001-.003.002-.006a9.1 9.1 0 0 1 .288.119c.123.052.256.108.399.161l-.085.317Z"/><path stroke="url(#ay)" d="M90.876 286.976c-.007.147-.1.375-.425.692-.527-.19-.733-.389-.795-.517-.04-.085-.074-.274.249-.655l.038-.045.01-.019a.823.823 0 0 1 .224-.085 1.09 1.09 0 0 1 .241-.027.591.591 0 0 1 .056.004c.34.297.409.509.402.652Zm-.936-.535.001-.001v.001Z"/><path stroke="url(#az)" d="M90.895 276.696c-.143.187-.271.32-.383.407-.148.117-.235.128-.273.127-.037-.002-.118-.02-.25-.149a2.262 2.262 0 0 1-.347-.476c.164-.293.31-.491.433-.614a.613.613 0 0 1 .164-.126c.03-.013.04-.012.042-.011.002 0 .083.01.235.198.116.143.243.354.38.644Z"/><path stroke="url(#aA)" d="m88.955 340.663-.037-.026c.242-.146.452-.256.635-.334.33-.14.522-.157.622-.141.068.011.12.038.177.136.057.097.11.252.146.484-.184.232-.322.34-.419.388-.09.044-.167.049-.287.01-.147-.048-.328-.155-.589-.339a18.74 18.74 0 0 1-.248-.178Z"/><path stroke="url(#aB)" d="M232.013 391.711a3.05 3.05 0 0 1 .374-.562c.251.141.437.27.569.388.188.166.233.276.242.328.007.039.008.109-.081.24a1.928 1.928 0 0 1-.376.385 2.259 2.259 0 0 1-.607-.21c-.164-.091-.197-.164-.207-.198-.011-.042-.021-.151.086-.371Z"/><path stroke="url(#aC)" d="M92.005 176.856a.854.854 0 0 1 .112-.001l.015.03.132.074c.468.263.436.422.429.458-.013.062-.062.175-.214.34a3.145 3.145 0 0 1-.441.382c-.448-.283-.614-.512-.659-.658-.032-.104-.028-.269.221-.537.101-.037.257-.076.405-.088Z"/><path stroke="url(#aD)" d="m232.471 320.294.081.015c-.131.437-.278.554-.338.581-.06.026-.196.033-.464-.103.039-.252.092-.393.137-.469.041-.067.063-.071.099-.077.081-.012.199 0 .424.042l.061.011Z"/><path stroke="url(#aE)" d="M167.227 320.994a2.612 2.612 0 0 1-.224-.521c.112-.095.21-.164.294-.211.135-.075.201-.075.22-.073.008.001.129.021.299.376a2.549 2.549 0 0 1-.389.476.66.66 0 0 1-.105.078.645.645 0 0 1-.095-.125Zm.066.137.004-.001-.004.001Z"/><path stroke="url(#aF)" d="m308.738 318.523.257.044a1.223 1.223 0 0 1-.254-.024l-.008-.001.005-.019Z"/><path stroke="url(#aG)" d="M232.45 449.061a6.333 6.333 0 0 1-.507-.319l.485-.052.297-.031c.289-.031.538-.055.774-.071a2.143 2.143 0 0 1-.142.544c-.079.178-.139.184-.174.188h-.002c-.1.01-.322-.029-.731-.259Z"/><mask id="aI" fill="#fff"><path d="M310.071 329.738c-.449.294-.748.441-2.394 1.471 1.197-1.471 1.497-1.913 1.796-2.355.149.295.299.589.598.884Z"/></mask><path fill="url(#aH)" d="m310.071 329.738.549.836 1.036-.68-.883-.869-.702.713Zm-2.394 1.471-.776-.631 1.307 1.479-.531-.848Zm1.796-2.355.891-.453-.768-1.511-.951 1.403.828.561Zm.05.047c-.454.298-.66.387-2.376 1.461l1.061 1.695c1.576-.986 1.968-1.192 2.412-1.483l-1.097-1.673Zm-1.07 2.939c1.212-1.49 1.529-1.955 1.848-2.424l-1.656-1.123c-.28.414-.562.832-1.744 2.285l1.552 1.262Zm.128-2.532c.15.295.362.723.789 1.142l1.403-1.425c-.172-.169-.26-.33-.409-.624l-1.783.907Z" mask="url(#aI)"/><path stroke="url(#aJ)" d="M264.892 57.886a.346.346 0 0 1-.053.017l.052-.06c.002.019.001.033.001.043Zm-.004.02.002-.005a.016.016 0 0 1-.002.005Z"/><mask id="aL" fill="#fff"><path d="M309.024 297.948c.149.294.149.441.299.589-.15 0-.299.147-.598.147.149-.148.149-.442.299-.736Z"/></mask><path fill="url(#aK)" d="m309.024 297.948.891-.453-.891-1.754-.892 1.754.892.453Zm.299.589v1h2.443l-1.742-1.713-.701.713Zm-.598.147-.702-.713-1.741 1.713h2.443v-1Zm-.593-.283c.05.097.057.129.115.273.059.146.159.364.375.575l1.402-1.425c.026.025.05.056.068.087.015.024.019.037.008.01-.016-.04-.085-.229-.185-.426l-1.783.906Zm1.191-.864c-.198 0-.357.048-.442.078-.045.015-.084.031-.109.041l-.058.023c-.04.016-.018.005.011.005v2c.328 0 .573-.085.721-.143l.076-.031c.018-.007.019-.007.014-.006a.644.644 0 0 1-.213.033v-2Zm.103 1.86a1.45 1.45 0 0 0 .302-.445c.053-.119.087-.234.106-.302.05-.17.059-.206.081-.249l-1.783-.906c-.127.251-.193.509-.218.597-.018.061-.021.065-.015.052a.566.566 0 0 1 .124-.173l1.403 1.426Z" mask="url(#aL)"/><mask id="aN" fill="#fff"><path d="M91.471 255.559c-.15 0-.449.295-.598.147-.15 0-.3-.441-.15-.441 0-.147.3-.147.449-.147.15.147.15.294.3.441Z"/></mask><path fill="url(#aM)" d="M91.471 255.559v1h2.443l-1.742-1.713-.7.713Zm-.598.147.701-.713-.292-.287h-.41v1Zm-.15-.441v1h1v-1h-1Zm.449-.147.701-.713-.292-.287h-.409v1Zm.3-.559c-.173 0-.31.04-.386.066-.08.028-.149.059-.192.081l-.11.056-.053.029.014-.006a.618.618 0 0 1 .13-.031.855.855 0 0 1 .699.239l-1.403 1.426c.32.315.711.352.97.318.22-.03.398-.115.472-.152.046-.022.088-.045.113-.058l.051-.027c.009-.004-.01.006-.046.018a.811.811 0 0 1-.26.041v-2Zm-.6.147c.443 0 .664.294.678.311.053.067.073.12.083.148.004.012.042.116.023.281a.905.905 0 0 1-.203.473.946.946 0 0 1-.73.346v-2c-.298 0-.603.126-.815.383-.179.218-.225.449-.24.574-.027.247.029.462.07.585.047.138.124.301.243.451.079.1.375.448.892.448v-2Zm.851.559a.91.91 0 0 1-.388.741c-.134.091-.246.11-.25.111-.02.004-.008.001.087.001v-2c-.055 0-.267-.004-.474.037a1.32 1.32 0 0 0-.489.198 1.1 1.1 0 0 0-.486.912h2Zm-1.252.566c-.053-.052-.078-.112-.04-.039.037.074.137.281.339.48l1.403-1.426c.052.052.077.112.04.039-.038-.074-.137-.281-.34-.48l-1.402 1.426Z" mask="url(#aN)"/><path stroke="url(#aO)" d="M305.04 169.491c-.777-.39-1.443-1.181-2.077-2.456.294-1.458.842-2.477 1.593-3.168.744-.685 1.732-1.092 2.994-1.249 1.707 1.178 2.412 2.31 2.472 3.356.06 1.065-.534 2.23-1.859 3.488-1.372.455-2.352.416-3.123.029Z"/><path stroke="url(#aP)" d="M306.449 225.294c-.997.059-2.063-.421-3.242-1.613-.174-1.171-.021-2.104.397-2.85.425-.758 1.154-1.38 2.23-1.86 1.652.018 2.646.47 3.213 1.16.568.691.802 1.73.688 3.137-1.193 1.346-2.278 1.966-3.286 2.026Z"/><path stroke="url(#aQ)" d="M307.826 255.11a3.185 3.185 0 0 1-.096-.718c.268-.129.49-.21.67-.25.238-.053.355-.024.409.005.047.024.124.086.193.288.054.161.094.385.109.686-.307.161-.55.257-.741.302-.239.058-.335.021-.368.001-.035-.02-.11-.086-.176-.314Z"/><path stroke="url(#aR)" d="M307.227 211.508c-.176-.056-.403-.17-.693-.362.014-.321.054-.566.112-.745.072-.222.156-.298.207-.326.05-.028.157-.061.382-.006.175.043.394.132.661.281a4.068 4.068 0 0 1-.154.816c-.086.261-.173.339-.21.36-.022.013-.095.049-.305-.018Z"/><path stroke="url(#aS)" d="M307.601 187.918c.036.204.052.464.046.786-.572.003-.845-.104-.97-.213-.103-.09-.19-.261-.17-.649.3-.198.529-.306.696-.35.18-.049.225-.009.232-.003.031.026.113.127.166.429Z"/><path stroke="url(#aT)" d="M307.155 178.064a3.538 3.538 0 0 1-.642.044 3.645 3.645 0 0 1 .044-.684c.048-.265.124-.376.173-.421.037-.035.106-.076.276-.07a2.1 2.1 0 0 1 .587.13c.19.556.089.747.018.817-.061.06-.19.136-.456.184Z"/><path stroke="url(#aU)" d="M308.882 233.003a2.301 2.301 0 0 1-.371.394c-.152.12-.246.139-.295.139-.079 0-.28-.067-.578-.528a2.89 2.89 0 0 1 .38-.633.632.632 0 0 1 .156-.14c.016-.01.027-.013.033-.015l.009-.002c.002 0 .019 0 .059.022a.778.778 0 0 1 .183.152c.125.132.266.332.424.611Z"/><path stroke="url(#aV)" d="M306.175 199.296c.081-.14.203-.303.371-.491.216.154.378.293.494.416.17.183.204.295.208.344.003.032.001.095-.099.211a1.87 1.87 0 0 1-.433.34 1.92 1.92 0 0 1-.511-.248c-.127-.095-.147-.161-.152-.197-.007-.05.001-.165.122-.375Z"/><path stroke="url(#aW)" d="M308.028 266.628a3.135 3.135 0 0 1-.45-.376c.155-.208.292-.357.413-.459.175-.147.28-.168.328-.168.044 0 .125.017.257.137.102.093.216.233.341.429-.249.524-.437.584-.508.587-.061.003-.181-.018-.381-.15Z"/><path stroke="url(#aX)" d="M307.23 244.158a6.854 6.854 0 0 1-.41-.371c.629.037 1.096.05 1.528.054a2.41 2.41 0 0 1-.243.527c-.118.177-.181.172-.21.17l-.003-.001c-.098-.007-.303-.083-.662-.379Z"/><path stroke="url(#aY)" d="m308.242 276.656-.086.033c-.009-.041-.018-.08-.024-.116a.651.651 0 0 1 .203-.128l.003-.001a.421.421 0 0 1 .067.107.284.284 0 0 1 .016.035l-.175.068-.004.002Z"/><mask id="ba" fill="#fff"><path d="M135.611 58.49h-.749c-.149 0 0-.295 0-.442.15.147.449.294.749.441Z"/></mask><path fill="url(#aZ)" d="M135.611 58.49v1l.441-1.898-.441.897Zm-.749-.442.702-.713-1.702-1.674v2.387h1Zm.749-.559H134.862v2H135.611v-2Zm-.749 0c.147 0 .376.039.589.212.21.17.291.382.322.512.029.122.023.216.021.249l-.005.046-.003.015.007-.027.02-.082c.011-.044.049-.196.049-.366h-2c0-.097.02-.157.007-.104l-.016.065-.027.116c-.009.045-.062.28 0 .544a1.057 1.057 0 0 0 1.036.82v-2Zm-.701 1.272c.174.17.382.297.529.38.16.089.336.175.479.246l.883-1.795a8.455 8.455 0 0 1-.382-.195 1.529 1.529 0 0 1-.105-.064c-.024-.017-.02-.016-.001.002l-1.403 1.426Z" mask="url(#ba)"/><mask id="bc" fill="#fff"><path d="M344.481 109.704v-.589c.15-.147.449 0 .598 0v.589c-.149.147-.448 0-.598 0Z"/></mask><path fill="url(#bb)" d="M344.481 109.704h-1v1h1v-1Zm0-.589-.701-.713-.299.294v.419h1Zm.598 0h1v-1h-1v1Zm0 .589.702.713.298-.294v-.419h-1Zm.402 0V109.115h-2V109.704h2Zm-.299.124a.768.768 0 0 1-.433.216c-.09.012-.146 0-.131.003l.031.006.033.007a1.413 1.413 0 0 0 .397.055v-2c.09 0 .148.018.083.004a3.349 3.349 0 0 0-.22-.046 1.55 1.55 0 0 0-.458-.011 1.23 1.23 0 0 0-.704.34l1.402 1.426Zm-1.103-.713V109.704h2V109.115h-2Zm.299-.124a.768.768 0 0 1 .433-.216c.09-.012.146 0 .131-.003l-.031-.006-.032-.007-.044-.01a1.402 1.402 0 0 0-.354-.045v2c-.09 0-.148-.018-.083-.003.024.005.127.03.22.045.098.016.265.037.459.011.207-.028.475-.115.704-.34l-1.403-1.426Z" mask="url(#bc)"/><mask id="be" fill="#fff"><path d="M90.723 308.839h-.898c.15-.147.3-.442.449-.442.15 0 .299.295.449.442Z"/></mask><path fill="url(#bd)" d="M90.723 308.839v1h2.442l-1.741-1.713-.701.713Zm-.898 0-.701-.713-1.742 1.713h2.443v-1Zm.898-1H89.825v2H90.723v-2Zm-.197 1.713c.089-.087.16-.179.202-.232l.06-.078.037-.048.008-.01c-.003.003-.019.02-.047.043a.75.75 0 0 1-.161.097.862.862 0 0 1-.351.073v-2c-.367 0-.623.177-.737.268a1.757 1.757 0 0 0-.264.267c-.046.057-.11.141-.126.164-.034.043-.037.044-.023.03l1.402 1.426Zm-.252-.155a.861.861 0 0 1-.351-.073.748.748 0 0 1-.161-.097c-.029-.023-.045-.04-.047-.043-.004-.003-.002-.001.007.01.01.011.021.026.038.048l.06.078c.04.053.113.145.201.232l1.403-1.426c.014.014.01.013-.023-.03a6.376 6.376 0 0 0-.127-.164 1.757 1.757 0 0 0-.264-.267 1.178 1.178 0 0 0-.736-.268v2Z" mask="url(#be)"/><mask id="bg" fill="#fff"><path d="m54.21 109.261.448.295-.449.147v-.442Z"/></mask><path fill="url(#bf)" d="m54.21 109.261.547-.836-1.548-1.015v1.851h1Zm.448.295.311.95 1.975-.647-1.738-1.14-.548.837Zm-.449.147h-1v1.38l1.312-.43-.312-.95Zm-.548.394.449.295 1.096-1.673-.449-.294-1.096 1.672Zm.685-1.492-.448.148.623 1.9.448-.147-.623-1.901Zm.863 1.098v-.442h-2v.442h2Z" mask="url(#bg)"/><mask id="bi" fill="#fff"><path d="m309.024 340.778-.299-.147.299-.147v.294Z"/></mask><path fill="url(#bh)" d="m309.024 340.778-.442.898 1.442.708v-1.606h-1Zm-.299-.147-.442-.897-1.825.897 1.825.897.442-.897Zm.299-.147h1v-1.606l-1.441.708.441.898Zm.441-.603-.299-.147-.883 1.794.299.148.883-1.795Zm-.299 1.647.299-.147-.882-1.795-.3.148.883 1.794Zm-1.142-1.044v.294h2v-.294h-2Z" mask="url(#bi)"/><mask id="bk" fill="#fff"><path d="m309.024 308.983-.299-.147.299-.294v.441Z"/></mask><path fill="url(#bj)" d="m309.024 308.983-.441.897 1.441.709v-1.606h-1Zm-.299-.147-.702-.713-1.005.988 1.265.622.442-.897Zm.299-.294h1v-2.387l-1.701 1.674.701.713Zm.441-.456-.299-.148-.883 1.795.3.147.882-1.794Zm-.039 1.463.299-.295-1.402-1.425-.3.294 1.403 1.426Zm-1.402-1.007v.441h2v-.441h-2Z" mask="url(#bk)"/><defs><linearGradient id="a" x1="199.713" x2="199.713" y1="0" y2="85.422" gradientUnits="userSpaceOnUse"><stop stop-color="#fff"/><stop offset="1" stop-color="#fff"/></linearGradient><linearGradient id="b" x1="199.348" x2="199.348" y1="112.208" y2="245.551" gradientUnits="userSpaceOnUse"><stop stop-color="#fff"/><stop offset="1" stop-color="#fff"/></linearGradient><linearGradient id="c" x1="66.423" x2="66.423" y1="18.57" y2="81.981" gradientUnits="userSpaceOnUse"><stop stop-color="#fff"/><stop offset="1" stop-color="#fff"/></linearGradient><linearGradient id="e" x1="333.831" x2="333.831" y1="19.098" y2="81.914" gradientUnits="userSpaceOnUse"><stop stop-color="#fff"/><stop offset="1" stop-color="#fff"/></linearGradient><linearGradient id="f" x1="200.152" x2="200.152" y1="161.219" y2="332.387" gradientUnits="userSpaceOnUse"><stop stop-color="#fff"/><stop offset="1" stop-color="#fff"/></linearGradient><linearGradient id="g" x1="121.315" x2="121.315" y1="91.455" y2="147.446" gradientUnits="userSpaceOnUse"><stop stop-color="#fff"/><stop offset="1" stop-color="#fff"/></linearGradient><linearGradient id="h" x1="279.173" x2="279.173" y1="91.576" y2="146.795" gradientUnits="userSpaceOnUse"><stop stop-color="#fff"/><stop offset="1" stop-color="#fff"/></linearGradient><linearGradient id="i" x1="198.627" x2="198.627" y1="396.61" y2="616" gradientUnits="userSpaceOnUse"><stop stop-color="#fff"/><stop offset="1" stop-color="#fff"/></linearGradient><linearGradient id="j" x1="309.966" x2="309.966" y1="360.055" y2="384.928" gradientUnits="userSpaceOnUse"><stop stop-color="#fff"/><stop offset="1" stop-color="#fff"/></linearGradient><linearGradient id="k" x1="233.179" x2="233.179" y1="489.719" y2="516.947" gradientUnits="userSpaceOnUse"><stop stop-color="#fff"/><stop offset="1" stop-color="#fff"/></linearGradient><linearGradient id="l" x1="165.772" x2="165.772" y1="490.309" y2="517.096" gradientUnits="userSpaceOnUse"><stop stop-color="#fff"/><stop offset="1" stop-color="#fff"/></linearGradient><linearGradient id="m" x1="88.912" x2="88.912" y1="359.763" y2="384.93" gradientUnits="userSpaceOnUse"><stop stop-color="#fff"/><stop offset="1" stop-color="#fff"/></linearGradient><linearGradient id="n" x1="230.644" x2="230.644" y1="262.611" y2="270.422" gradientUnits="userSpaceOnUse"><stop stop-color="#fff"/><stop offset="1" stop-color="#fff"/></linearGradient><linearGradient id="o" x1="92.381" x2="92.381" y1="218.619" y2="226.051" gradientUnits="userSpaceOnUse"><stop stop-color="#fff"/><stop offset="1" stop-color="#fff"/></linearGradient><linearGradient id="p" x1="168.76" x2="168.76" y1="262.625" y2="270.72" gradientUnits="userSpaceOnUse"><stop stop-color="#fff"/><stop offset="1" stop-color="#fff"/></linearGradient><linearGradient id="q" x1="92.354" x2="92.354" y1="162.247" y2="170.341" gradientUnits="userSpaceOnUse"><stop stop-color="#fff"/><stop offset="1" stop-color="#fff"/></linearGradient><linearGradient id="r" x1="231.799" x2="231.799" y1="288.971" y2="296.319" gradientUnits="userSpaceOnUse"><stop stop-color="#fff"/><stop offset="1" stop-color="#fff"/></linearGradient><linearGradient id="s" x1="41.669" x2="41.669" y1="106.361" y2="112.56" gradientUnits="userSpaceOnUse"><stop stop-color="#fff"/><stop offset="1" stop-color="#fff"/></linearGradient><linearGradient id="t" x1="167.475" x2="167.475" y1="289.263" y2="295.684" gradientUnits="userSpaceOnUse"><stop stop-color="#fff"/><stop offset="1" stop-color="#fff"/></linearGradient><linearGradient id="u" x1="53.633" x2="53.633" y1="118.094" y2="124.705" gradientUnits="userSpaceOnUse"><stop stop-color="#fff"/><stop offset="1" stop-color="#fff"/></linearGradient><linearGradient id="v" x1="212.363" x2="212.363" y1="361.248" y2="367.033" gradientUnits="userSpaceOnUse"><stop stop-color="#fff"/><stop offset="1" stop-color="#fff"/></linearGradient><linearGradient id="w" x1="187.256" x2="187.256" y1="361.225" y2="367.315" gradientUnits="userSpaceOnUse"><stop stop-color="#fff"/><stop offset="1" stop-color="#fff"/></linearGradient><linearGradient id="x" x1="54.281" x2="54.281" y1="94.726" y2="100.084" gradientUnits="userSpaceOnUse"><stop stop-color="#fff"/><stop offset="1" stop-color="#fff"/></linearGradient><linearGradient id="y" x1="199.745" x2="199.745" y1="348.725" y2="355.348" gradientUnits="userSpaceOnUse"><stop stop-color="#fff"/><stop offset="1" stop-color="#fff"/></linearGradient><linearGradient id="z" x1="344.781" x2="344.781" y1="95.133" y2="100.072" gradientUnits="userSpaceOnUse"><stop stop-color="#fff"/><stop offset="1" stop-color="#fff"/></linearGradient><linearGradient id="A" x1="199.571" x2="199.571" y1="373.541" y2="378.675" gradientUnits="userSpaceOnUse"><stop stop-color="#fff"/><stop offset="1" stop-color="#fff"/></linearGradient><linearGradient id="B" x1="345.05" x2="345.05" y1="118.361" y2="124.233" gradientUnits="userSpaceOnUse"><stop stop-color="#fff"/><stop offset="1" stop-color="#fff"/></linearGradient><linearGradient id="C" x1="357.083" x2="357.083" y1="106.748" y2="112.371" gradientUnits="userSpaceOnUse"><stop stop-color="#fff"/><stop offset="1" stop-color="#fff"/></linearGradient><linearGradient id="D" x1="66.001" x2="66.001" y1="106.027" y2="111.914" gradientUnits="userSpaceOnUse"><stop stop-color="#fff"/><stop offset="1" stop-color="#fff"/></linearGradient><linearGradient id="E" x1="332.75" x2="332.75" y1="106.769" y2="112.251" gradientUnits="userSpaceOnUse"><stop stop-color="#fff"/><stop offset="1" stop-color="#fff"/></linearGradient><linearGradient id="F" x1="264.882" x2="264.882" y1="47.154" y2="51.422" gradientUnits="userSpaceOnUse"><stop stop-color="#fff"/><stop offset="1" stop-color="#fff"/></linearGradient><linearGradient id="G" x1="134.376" x2="134.376" y1="63.787" y2="69.085" gradientUnits="userSpaceOnUse"><stop stop-color="#fff"/><stop offset="1" stop-color="#fff"/></linearGradient><linearGradient id="H" x1="134.324" x2="134.324" y1="47.372" y2="51.641" gradientUnits="userSpaceOnUse"><stop stop-color="#fff"/><stop offset="1" stop-color="#fff"/></linearGradient><linearGradient id="I" x1="200.447" x2="200.447" y1="97.476" y2="101.535" gradientUnits="userSpaceOnUse"><stop stop-color="#fff"/><stop offset="1" stop-color="#fff"/></linearGradient><linearGradient id="J" x1="257.176" x2="257.176" y1="56.46" y2="60.841" gradientUnits="userSpaceOnUse"><stop stop-color="#fff"/><stop offset="1" stop-color="#fff"/></linearGradient><linearGradient id="K" x1="125.895" x2="125.895" y1="56.278" y2="60.987" gradientUnits="userSpaceOnUse"><stop stop-color="#fff"/><stop offset="1" stop-color="#fff"/></linearGradient><linearGradient id="L" x1="265.259" x2="265.259" y1="64.744" y2="68.657" gradientUnits="userSpaceOnUse"><stop stop-color="#fff"/><stop offset="1" stop-color="#fff"/></linearGradient><linearGradient id="M" x1="166.807" x2="166.807" y1="404.693" y2="408.098" gradientUnits="userSpaceOnUse"><stop stop-color="#fff"/><stop offset="1" stop-color="#fff"/></linearGradient><linearGradient id="N" x1="273.187" x2="273.187" y1="56.364" y2="60.538" gradientUnits="userSpaceOnUse"><stop stop-color="#fff"/><stop offset="1" stop-color="#fff"/></linearGradient><linearGradient id="O" x1="166.507" x2="166.507" y1="476.081" y2="478.964" gradientUnits="userSpaceOnUse"><stop stop-color="#fff"/><stop offset="1" stop-color="#fff"/></linearGradient><linearGradient id="P" x1="232.939" x2="232.939" y1="476.271" y2="479.105" gradientUnits="userSpaceOnUse"><stop stop-color="#fff"/><stop offset="1" stop-color="#fff"/></linearGradient><linearGradient id="Q" x1="166.98" x2="166.98" y1="418.702" y2="421.901" gradientUnits="userSpaceOnUse"><stop stop-color="#fff"/><stop offset="1" stop-color="#fff"/></linearGradient><linearGradient id="R" x1="166.656" x2="166.656" y1="461.974" y2="465.143" gradientUnits="userSpaceOnUse"><stop stop-color="#fff"/><stop offset="1" stop-color="#fff"/></linearGradient><linearGradient id="S" x1="233.353" x2="233.353" y1="418.456" y2="421.801" gradientUnits="userSpaceOnUse"><stop stop-color="#fff"/><stop offset="1" stop-color="#fff"/></linearGradient><linearGradient id="T" x1="142.202" x2="142.202" y1="56.428" y2="60.401" gradientUnits="userSpaceOnUse"><stop stop-color="#fff"/><stop offset="1" stop-color="#fff"/></linearGradient><linearGradient id="U" x1="167.332" x2="167.332" y1="375.509" y2="379.188" gradientUnits="userSpaceOnUse"><stop stop-color="#fff"/><stop offset="1" stop-color="#fff"/></linearGradient><linearGradient id="V" x1="167.025" x2="167.025" y1="390.575" y2="393.805" gradientUnits="userSpaceOnUse"><stop stop-color="#fff"/><stop offset="1" stop-color="#fff"/></linearGradient><linearGradient id="W" x1="232.232" x2="232.232" y1="347.543" y2="351.222" gradientUnits="userSpaceOnUse"><stop stop-color="#fff"/><stop offset="1" stop-color="#fff"/></linearGradient><linearGradient id="X" x1="166.877" x2="166.877" y1="433.399" y2="436.311" gradientUnits="userSpaceOnUse"><stop stop-color="#fff"/><stop offset="1" stop-color="#fff"/></linearGradient><linearGradient id="Y" x1="232.7" x2="232.7" y1="404.488" y2="407.655" gradientUnits="userSpaceOnUse"><stop stop-color="#fff"/><stop offset="1" stop-color="#fff"/></linearGradient><linearGradient id="Z" x1="91.017" x2="91.017" y1="264.779" y2="267.442" gradientUnits="userSpaceOnUse"><stop stop-color="#fff"/><stop offset="1" stop-color="#fff"/></linearGradient><linearGradient id="aa" x1="167.428" x2="167.428" y1="278.477" y2="281.042" gradientUnits="userSpaceOnUse"><stop stop-color="#fff"/><stop offset="1" stop-color="#fff"/></linearGradient><linearGradient id="ab" x1="90.401" x2="90.401" y1="296.483" y2="298.91" gradientUnits="userSpaceOnUse"><stop stop-color="#fff"/><stop offset="1" stop-color="#fff"/></linearGradient><linearGradient id="ac" x1="91.554" x2="91.554" y1="231.572" y2="234.81" gradientUnits="userSpaceOnUse"><stop stop-color="#fff"/><stop offset="1" stop-color="#fff"/></linearGradient><linearGradient id="ad" x1="167.405" x2="167.405" y1="305.146" y2="307.413" gradientUnits="userSpaceOnUse"><stop stop-color="#fff"/><stop offset="1" stop-color="#fff"/></linearGradient><linearGradient id="ae" x1="89.518" x2="89.518" y1="349.626" y2="352.012" gradientUnits="userSpaceOnUse"><stop stop-color="#fff"/><stop offset="1" stop-color="#fff"/></linearGradient><linearGradient id="af" x1="167.413" x2="167.413" y1="361.821" y2="364.199" gradientUnits="userSpaceOnUse"><stop stop-color="#fff"/><stop offset="1" stop-color="#fff"/></linearGradient><linearGradient id="ag" x1="167.164" x2="167.164" y1="347.61" y2="349.977" gradientUnits="userSpaceOnUse"><stop stop-color="#fff"/><stop offset="1" stop-color="#fff"/></linearGradient><linearGradient id="ah" x1="91.925" x2="91.925" y1="209.614" y2="211.848" gradientUnits="userSpaceOnUse"><stop stop-color="#fff"/><stop offset="1" stop-color="#fff"/></linearGradient><linearGradient id="ai" x1="232.106" x2="232.106" y1="333.709" y2="335.968" gradientUnits="userSpaceOnUse"><stop stop-color="#fff"/><stop offset="1" stop-color="#fff"/></linearGradient><linearGradient id="aj" x1="232.069" x2="232.069" y1="361.821" y2="364.199" gradientUnits="userSpaceOnUse"><stop stop-color="#fff"/><stop offset="1" stop-color="#fff"/></linearGradient><linearGradient id="ak" x1="232.056" x2="232.056" y1="278.667" y2="281.045" gradientUnits="userSpaceOnUse"><stop stop-color="#fff"/><stop offset="1" stop-color="#fff"/></linearGradient><linearGradient id="al" x1="167.399" x2="167.399" y1="333.665" y2="335.96" gradientUnits="userSpaceOnUse"><stop stop-color="#fff"/><stop offset="1" stop-color="#fff"/></linearGradient><linearGradient id="am" x1="166.727" x2="166.727" y1="448.069" y2="450.443" gradientUnits="userSpaceOnUse"><stop stop-color="#fff"/><stop offset="1" stop-color="#fff"/></linearGradient><linearGradient id="an" x1="199.864" x2="199.864" y1="363.222" y2="365.525" gradientUnits="userSpaceOnUse"><stop stop-color="#fff"/><stop offset="1" stop-color="#fff"/></linearGradient><linearGradient id="ao" x1="233.315" x2="233.315" y1="461.884" y2="464.599" gradientUnits="userSpaceOnUse"><stop stop-color="#fff"/><stop offset="1" stop-color="#fff"/></linearGradient><linearGradient id="ap" x1="231.993" x2="231.993" y1="305.159" y2="307.537" gradientUnits="userSpaceOnUse"><stop stop-color="#fff"/><stop offset="1" stop-color="#fff"/></linearGradient><linearGradient id="aq" x1="232.339" x2="232.339" y1="433.799" y2="435.778" gradientUnits="userSpaceOnUse"><stop stop-color="#fff"/><stop offset="1" stop-color="#fff"/></linearGradient><linearGradient id="ar" x1="91.441" x2="91.441" y1="242.018" y2="245.109" gradientUnits="userSpaceOnUse"><stop stop-color="#fff"/><stop offset="1" stop-color="#fff"/></linearGradient><linearGradient id="as" x1="92.09" x2="92.09" y1="187.122" y2="189.255" gradientUnits="userSpaceOnUse"><stop stop-color="#fff"/><stop offset="1" stop-color="#fff"/></linearGradient><linearGradient id="at" x1="90.232" x2="90.232" y1="317.721" y2="319.803" gradientUnits="userSpaceOnUse"><stop stop-color="#fff"/><stop offset="1" stop-color="#fff"/></linearGradient><linearGradient id="au" x1="91.5" x2="91.5" y1="198.423" y2="200.66" gradientUnits="userSpaceOnUse"><stop stop-color="#fff"/><stop offset="1" stop-color="#fff"/></linearGradient><linearGradient id="av" x1="232.595" x2="232.595" y1="376.689" y2="379.485" gradientUnits="userSpaceOnUse"><stop stop-color="#fff"/><stop offset="1" stop-color="#fff"/></linearGradient><linearGradient id="aw" x1="89.844" x2="89.844" y1="328.604" y2="330.624" gradientUnits="userSpaceOnUse"><stop stop-color="#fff"/><stop offset="1" stop-color="#fff"/></linearGradient><linearGradient id="ax" x1="309.928" x2="309.928" y1="349.605" y2="351.519" gradientUnits="userSpaceOnUse"><stop stop-color="#fff"/><stop offset="1" stop-color="#fff"/></linearGradient><linearGradient id="ay" x1="90.253" x2="90.253" y1="285.82" y2="288.233" gradientUnits="userSpaceOnUse"><stop stop-color="#fff"/><stop offset="1" stop-color="#fff"/></linearGradient><linearGradient id="az" x1="90.272" x2="90.272" y1="275.354" y2="277.73" gradientUnits="userSpaceOnUse"><stop stop-color="#fff"/><stop offset="1" stop-color="#fff"/></linearGradient><linearGradient id="aA" x1="89.523" x2="89.523" y1="339.657" y2="341.706" gradientUnits="userSpaceOnUse"><stop stop-color="#fff"/><stop offset="1" stop-color="#fff"/></linearGradient><linearGradient id="aB" x1="232.561" x2="232.561" y1="390.523" y2="393.025" gradientUnits="userSpaceOnUse"><stop stop-color="#fff"/><stop offset="1" stop-color="#fff"/></linearGradient><linearGradient id="aC" x1="92.031" x2="92.031" y1="176.354" y2="178.731" gradientUnits="userSpaceOnUse"><stop stop-color="#fff"/><stop offset="1" stop-color="#fff"/></linearGradient><linearGradient id="aD" x1="232.19" x2="232.19" y1="319.737" y2="321.405" gradientUnits="userSpaceOnUse"><stop stop-color="#fff"/><stop offset="1" stop-color="#fff"/></linearGradient><linearGradient id="aE" x1="167.406" x2="167.406" y1="319.688" y2="321.63" gradientUnits="userSpaceOnUse"><stop stop-color="#fff"/><stop offset="1" stop-color="#fff"/></linearGradient><linearGradient id="aF" x1="310.047" x2="310.047" y1="317.965" y2="319.067" gradientUnits="userSpaceOnUse"><stop stop-color="#fff"/><stop offset="1" stop-color="#fff"/></linearGradient><linearGradient id="aG" x1="232.336" x2="232.336" y1="448.069" y2="449.821" gradientUnits="userSpaceOnUse"><stop stop-color="#fff"/><stop offset="1" stop-color="#fff"/></linearGradient><linearGradient id="aH" x1="308.874" x2="308.874" y1="328.854" y2="331.209" gradientUnits="userSpaceOnUse"><stop stop-color="#fff"/><stop offset="1" stop-color="#fff"/></linearGradient><linearGradient id="aJ" x1="264.616" x2="264.616" y1="56.868" y2="58.427" gradientUnits="userSpaceOnUse"><stop stop-color="#fff"/><stop offset="1" stop-color="#fff"/></linearGradient><linearGradient id="aK" x1="309.024" x2="309.024" y1="297.948" y2="298.684" gradientUnits="userSpaceOnUse"><stop stop-color="#fff"/><stop offset="1" stop-color="#fff"/></linearGradient><linearGradient id="aM" x1="91.066" x2="91.066" y1="255.118" y2="255.748" gradientUnits="userSpaceOnUse"><stop stop-color="#fff"/><stop offset="1" stop-color="#fff"/></linearGradient><linearGradient id="aO" x1="306.483" x2="306.483" y1="162.101" y2="170.292" gradientUnits="userSpaceOnUse"><stop stop-color="#fff"/><stop offset="1" stop-color="#fff"/></linearGradient><linearGradient id="aP" x1="306.45" x2="306.45" y1="218.471" y2="225.799" gradientUnits="userSpaceOnUse"><stop stop-color="#fff"/><stop offset="1" stop-color="#fff"/></linearGradient><linearGradient id="aQ" x1="308.421" x2="308.421" y1="253.613" y2="255.954" gradientUnits="userSpaceOnUse"><stop stop-color="#fff"/><stop offset="1" stop-color="#fff"/></linearGradient><linearGradient id="aR" x1="307.225" x2="307.225" y1="209.54" y2="212.047" gradientUnits="userSpaceOnUse"><stop stop-color="#fff"/><stop offset="1" stop-color="#fff"/></linearGradient><linearGradient id="aS" x1="307.077" x2="307.077" y1="186.968" y2="189.204" gradientUnits="userSpaceOnUse"><stop stop-color="#fff"/><stop offset="1" stop-color="#fff"/></linearGradient><linearGradient id="aT" x1="307.107" x2="307.107" y1="176.433" y2="178.608" gradientUnits="userSpaceOnUse"><stop stop-color="#fff"/><stop offset="1" stop-color="#fff"/></linearGradient><linearGradient id="aU" x1="308.272" x2="308.272" y1="231.718" y2="234.036" gradientUnits="userSpaceOnUse"><stop stop-color="#fff"/><stop offset="1" stop-color="#fff"/></linearGradient><linearGradient id="aV" x1="306.65" x2="306.65" y1="198.158" y2="200.66" gradientUnits="userSpaceOnUse"><stop stop-color="#fff"/><stop offset="1" stop-color="#fff"/></linearGradient><linearGradient id="aW" x1="308.207" x2="308.207" y1="265.125" y2="267.279" gradientUnits="userSpaceOnUse"><stop stop-color="#fff"/><stop offset="1" stop-color="#fff"/></linearGradient><linearGradient id="aX" x1="307.296" x2="307.296" y1="243.196" y2="245.038" gradientUnits="userSpaceOnUse"><stop stop-color="#fff"/><stop offset="1" stop-color="#fff"/></linearGradient><linearGradient id="aY" x1="308.319" x2="308.319" y1="275.94" y2="277.342" gradientUnits="userSpaceOnUse"><stop stop-color="#fff"/><stop offset="1" stop-color="#fff"/></linearGradient><linearGradient id="aZ" x1="135.203" x2="135.203" y1="58.048" y2="58.489" gradientUnits="userSpaceOnUse"><stop stop-color="#fff"/><stop offset="1" stop-color="#fff"/></linearGradient><linearGradient id="bb" x1="344.78" x2="344.78" y1="109.05" y2="109.769" gradientUnits="userSpaceOnUse"><stop stop-color="#fff"/><stop offset="1" stop-color="#fff"/></linearGradient><linearGradient id="bd" x1="90.274" x2="90.274" y1="308.397" y2="308.839" gradientUnits="userSpaceOnUse"><stop stop-color="#fff"/><stop offset="1" stop-color="#fff"/></linearGradient><linearGradient id="bf" x1="54.434" x2="54.434" y1="109.261" y2="109.703" gradientUnits="userSpaceOnUse"><stop stop-color="#fff"/><stop offset="1" stop-color="#fff"/></linearGradient><linearGradient id="bh" x1="308.874" x2="308.874" y1="340.484" y2="340.778" gradientUnits="userSpaceOnUse"><stop stop-color="#fff"/><stop offset="1" stop-color="#fff"/></linearGradient><linearGradient id="bj" x1="308.874" x2="308.874" y1="308.542" y2="308.983" gradientUnits="userSpaceOnUse"><stop stop-color="#fff"/><stop offset="1" stop-color="#fff"/></linearGradient></defs></svg>